<?xml version="1.0" encoding="UTF-8"?><svg id="Layer_2" xmlns="http://www.w3.org/2000/svg" viewBox="0 0 21.2 22.49"><g id="Layer_1-2"><path d="m11.15,22.38c-2.35.49-4.38-.73-6.44-1.89-1.75-.99-2.65-2.66-3.58-4.3C.4,14.92.02,13.49,0,12.06c-.02-1.2.27-2.43.56-3.61.37-1.47,1.09-2.8,1.86-4.1,1.02-1.7,2.62-2.63,4.35-3.32,1.19-.48,2.49-.69,3.75-.98.33-.08.69-.04,1.04-.05,2.19-.05,3.63,1.33,5.03,2.71.9.88,1.73,1.84,2.5,2.83.53.68,1.02,1.44,1.33,2.24,1.1,2.85,1.03,5.71-.3,8.47-.88,1.83-2.27,3.27-3.94,4.42-.14.1-.3.18-.45.27-1.79,1.15-2.3,1.31-4.59,1.43Z"/></g></svg>