<?xml version="1.0" encoding="UTF-8"?><svg id="Layer_2" xmlns="http://www.w3.org/2000/svg" viewBox="0 0 421.35 416.94"><defs><style>.cls-1{fill:#fff;}.cls-2{fill:#f3f3f3;}</style></defs><g id="Layer_1-2"><path class="cls-1" d="m344.62,107.15l18.92,15.86,12.32,4.77,4.62.8,7.95-3.17,7.56-4.58,5.86-6.56,1.08,2.7-.53,2.86-5.8,6.67-6.24,4.34-12.76,5.94s-6.9,2.78-7.24,2.89-8.2.58-8.2.58c0,0-11.6-3.95-12.58-4.08-.98-.13-11.26-6.29-11.45-6.76s-7.42-6.12-7.42-6.12l13.91-16.14Z"/><path d="m384.78,135.96c-.64.21-1.08.32-1.49.49-3.14,1.22-6.26,2.47-9.4,3.68-3.43,1.32-6.97,1.98-10.61,1.79-1.89-.1-3.77-.33-5.62-.66-1.13-.2-2.22-.68-3.29-1.09-5.13-1.97-9.88-4.58-14.45-7.52-.8-.51-1.59-1.09-2.23-1.77-1.37-1.43-3.02-2.49-4.7-3.54-.86-.53-1.64-1.2-2.36-1.9-.71-.69-.64-1.43.08-2.16.31-.32.71-.57,1.16-.92.46.22.95.39,1.35.66,1.75,1.16,3.49,2.34,5.2,3.54.77.54,1.5,1.12,2.15,1.83.65.72,1.62,1.18,2.48,1.71.8.51,1.73.85,2.31,1.64.07.1.19.17.3.23,1.64.84,3.26,1.73,4.94,2.5,1.92.88,3.9,1.62,5.84,2.46,2.82,1.21,5.85,1.55,8.93,1.66,2.8.1,5.46-.46,8.03-1.63,1.44-.66,2.89-1.29,4.35-1.88.85-.34,1.75-.58,2.63-.87,3.58-1.19,6.97-2.8,10.29-4.57.29-.15.57-.34.83-.52,2.27-1.59,4.36-3.39,6.3-5.34,1.11-1.12,1.89-2.48,2.54-3.89.4-.87.71-1.78,1.05-2.67.01-.04-.05-.1-.08-.15-.5-.03-.62.39-.86.68-.74.91-1.53,1.78-2.2,2.73-1.18,1.66-2.92,2.58-4.63,3.57-.8.46-1.59.93-2.38,1.39-4.1,2.38-8.45,3.98-13.18,4.41-1.46.13-2.87-.19-4.26-.47-1.46-.29-2.84-.78-4.1-1.62-1.05-.7-2.29-1.15-3.43-1.73-.85-.44-1.69-.9-2.52-1.37-1.44-.82-2.88-1.65-4.3-2.5-2.3-1.37-4.49-2.89-6.39-4.76-.63-.62-1.34-1.16-1.98-1.77-1.01-.95-2.04-1.89-2.99-2.89-1.47-1.56-2.89-3.17-4.77-4.3-.68-.41-.94-1.03-.78-1.77.26-1.23,1.64-2.06,2.89-1.71.55.15,1.08.42,1.55.73,1.13.77,3.74,3.59,4.64,4.89.1.15.21.31.35.43,1.2,1.01,2.56,1.88,3.58,3.04,1.39,1.58,3.06,2.77,4.77,3.97.78.55,1.56,1.07,2.43,1.48.4.19.81.4,1.17.65,2.05,1.41,4.26,2.55,6.51,3.64.8.39,1.52.94,2.33,1.3,2.43,1.07,4.94,1.74,7.8,1.09.11-.96-.26-1.71-.59-2.4-1.51-3.17-2.06-6.55-2.11-10.05,0-.19,0-.38-.02-.57-.56-3.79.36-7.4,1.8-10.95.22-.54.45-1.07.63-1.61,1.57-4.83,4.78-8.5,9-11.42,1.15-.79,2.45-1.29,3.83-1.55.87-.17,1.69-.1,2.41.43,1.83,1.35,3.62,2.72,5.15,4.43,1.27,1.42,2.22,3.02,3.39,4.49.87,1.1,1.3,2.42,1.57,3.79.41,2.09.76,4.2,1.22,6.28.43,1.97.07,3.88-.53,5.77-.36,1.16-.79,2.3-1.26,3.42-.99,2.36-1.87,4.76-3.2,6.99-1.01,1.7-2.43,3.04-3.82,4.42-.27.27-.54.54-.84.83.81,2.28,1.46,4.57,2.44,6.71,1.52,3.31,3.38,6.43,6.53,8.6.63.43,1.23.91,1.77,1.44,1.44,1.44,3.14,2.56,4.86,3.65,2.04,1.3,4.08,2.61,6.13,3.89.59.37,1.26.62,1.87.97.63.35.7.7.4,1.43-.47,1.13-1,2.19-1.88,3.13-.57.6-.94,1.4-1.3,2.15-.8,1.65-1.97,3.04-3.18,4.4-.13.15-.25.31-.4.43-1.41,1.1-1.78,1.04-2.97.27-1.7-1.12-3.36-2.29-4.86-3.67-2.32-2.14-4.78-4.14-7.15-6.24-.94-.84-1.81-1.75-2.68-2.66-1.22-1.28-2.47-2.53-3.59-3.89-1.35-1.65-2.68-3.33-3.59-5.29-.31-.68-.72-1.34-1.2-1.91-1.47-1.74-2.65-3.65-3.6-5.92Zm16.22-36.46c-1.3-2.13-2.54-3.86-4.07-5.36-.89-.88-1.99-1.57-3-2.33-.98-.74-2.01-.81-3.06-.03-1,.74-2.07,1.43-2.95,2.29-1.02,1-2.04,2.08-2.75,3.28-.7,1.19-1.4,2.42-1.71,3.82-.33,1.48-1.05,2.89-1.43,4.36-.43,1.65-.85,3.3-.67,5.03.18,1.81.21,3.64.33,5.46.05.8.07,1.63.3,2.38.5,1.67,1.15,3.3,1.7,4.95.22.64.29,1.33.7,1.85,2.35-.44,4.71-1.61,5.87-2.85-.41-2.4-.84-4.74-1.19-7.1-.37-2.5-.39-5-.02-7.54.31-2.15,1.23-4.01,2.65-5.68,1.47-1.73,3.33-2.71,5.66-2.76.52-.01,1.05-.08,1.57-.05.57.03,1.14.15,2.07.28Zm17.05,56.33c-2.06-1.25-4-2.46-5.97-3.62-2.15-1.26-4.23-2.6-6.1-4.23-1.34-1.16-2.75-2.24-4.1-3.38-.97-.82-1.78-1.76-2.57-2.75-.91-1.16-1.38-2.52-2.07-3.77-.97-1.76-1.83-3.56-2.38-5.5-.13-.46-.39-.89-.58-1.32-2.01.72-5.42,2.66-6.41,3.65.47,1.25.95,2.54,1.94,3.54,1.04,1.05,1.68,2.33,2.46,3.54.88,1.37,1.77,2.73,2.68,4.08.49.72.98,1.45,1.56,2.11.66.75,1.4,1.44,2.12,2.14,1.08,1.06,2.14,2.14,3.25,3.16.65.6,1.43,1.06,2.09,1.65,1.98,1.77,3.92,3.57,5.87,5.37,1.03.95,2.22,1.66,3.57,2.23.28-.22.61-.37.77-.62,1.27-2.02,2.51-4.05,3.87-6.26Zm-24.69-35.12c1.12-.25,1.79-.71,2.35-1.38.83-1,1.65-2.02,2.53-2.98,2.08-2.27,2.95-4.95,3.26-7.85.21-2.01-.42-3.68-1.78-5.15-.83-.89-1.8-1.2-2.96-.97-1.6.31-3.04.91-3.67,2.58-.25.66-.69,1.29-.77,1.95-.31,2.55-1.06,5.11-.22,7.66.13.41.17.87.14,1.31-.06.85.24,1.6.47,2.37.23.77.41,1.55.64,2.46Z"/><path d="m369.19,135.46c-.38.03-.7.08-1.01.07-.49-.02-.78-.47-.65-.92.24-.8.8-1.32,1.63-1.45.32-.05.74.14,1,.36.31.27.24.7-.03,1.02-.28.33-.63.62-.94.92Z"/><path d="m359.44,131.88c.07-1.08.63-1.78,1.72-1.99.27-.05.72.07.84.26.17.27.24.72.13,1.03-.24.67-1.5,1.22-2.26,1.04-.16-.04-.28-.22-.43-.34Z"/><path d="m346.14,123.29c-.96.38-1.58.32-1.75-.1-.24-.61.06-1.11.52-1.5.22-.19.58-.39.84-.35.52.07.96.38,1.08.91.04.2-.1.49-.24.68-.14.19-.39.32-.45.36Z"/><path d="m352.99,128.28c-.26.03-.57.11-.89.11-.5,0-.79-.45-.64-.9.22-.64.62-1.09,1.35-1.2.48-.07.97.15,1.12.51.15.36-.01.9-.38,1.17-.15.11-.33.19-.56.32Z"/><path d="m380.7,132.25c-.17.55-.24.96-.42,1.33-.2.41-.6.42-.99.33-.31-.08-.47-.46-.31-.73.34-.59.87-.84,1.72-.93Z"/><path class="cls-1" d="m401,99.5c-.93-.13-1.49-.25-2.07-.28-.52-.03-1.05.04-1.57.05-2.32.05-4.18,1.03-5.66,2.76-1.42,1.67-2.34,3.53-2.65,5.68-.37,2.54-.35,5.05.02,7.54.35,2.36.78,4.7,1.19,7.1-1.17,1.24-3.53,2.41-5.87,2.85-.41-.53-.48-1.22-.7-1.85-.56-1.65-1.2-3.28-1.7-4.95-.23-.75-.24-1.58-.3-2.38-.12-1.82-.15-3.65-.33-5.46-.17-1.73.25-3.38.67-5.03.38-1.47,1.1-2.88,1.43-4.36.31-1.4,1-2.63,1.71-3.82.71-1.2,1.73-2.28,2.75-3.28.88-.86,1.95-1.55,2.95-2.29,1.05-.78,2.08-.71,3.06.03,1.01.77,2.11,1.46,3,2.33,1.53,1.5,2.77,3.23,4.07,5.36Zm-15.8,11.81c-.17.15-.58.47-.92.85-.3.34-.24.97.05,1.23.35.32.81.5,1.25.24.44-.25.84-.62,1.19-.99.3-.31.25-.96,0-1.23-.26-.28-.85-.38-1.56-.1Zm1.56-10.42c-.7.29-1.28.68-1.36,1.5-.06.59.56,1.16,1.12.95.73-.29,1.46-.68,1.68-1.49.07-.26-.01-.67-.19-.85-.18-.18-.57-.17-.88-.21-.12-.01-.25.07-.38.11Zm6.3-5.4c-.25.15-.54.29-.8.48-.52.38-.74.92-.55,1.29.2.39.78.63,1.31.56.82-.11,1.41-.69,1.54-1.49.08-.52-.36-.99-.89-.94-.19.02-.38.07-.61.11Zm-6.25,25.81c.13-.08.42-.23.67-.43.35-.29.44-.87.22-1.21-.24-.36-.64-.43-1.02-.33-.36.1-.73.28-1.02.51-.55.42-.71,1.09-.45,1.5.2.31.73.32,1.6-.03Z"/><path class="cls-1" d="m418.06,155.83c-1.36,2.22-2.6,4.25-3.87,6.26-.16.25-.49.4-.77.62-1.36-.57-2.54-1.28-3.57-2.23-1.95-1.8-3.9-3.59-5.87-5.37-.66-.59-1.44-1.05-2.09-1.65-1.12-1.02-2.18-2.1-3.25-3.16-.72-.71-1.46-1.39-2.12-2.14-.57-.66-1.07-1.39-1.56-2.11-.91-1.35-1.8-2.71-2.68-4.08-.78-1.21-1.43-2.49-2.46-3.54-.99-1-1.47-2.29-1.94-3.54.99-.99,4.4-2.93,6.41-3.65.2.43.45.86.58,1.32.55,1.94,1.41,3.74,2.38,5.5.69,1.26,1.16,2.61,2.07,3.77.78.99,1.6,1.94,2.57,2.75,1.35,1.14,2.77,2.22,4.1,3.38,1.87,1.63,3.96,2.97,6.1,4.23,1.97,1.16,3.91,2.37,5.97,3.62Zm-6.65,2.53c.42.08.66.18.91.17.78-.04,1.36-.43,1.68-1.11.31-.68-.05-1.2-.53-1.64-.26-.24-.59-.41-.89-.61-1.38.78-1.06,1.96-1.17,3.2Zm-17.65-19.2c.2-.14.49-.29.71-.52.39-.4.4-1.02.08-1.37-.27-.3-.8-.4-1.24-.15-.39.22-.76.49-1.09.79-.29.26-.58.65-.28.98.22.24.63.36.98.44.23.05.5-.1.84-.17Zm5.75,8.32c.22-.27.57-.57.75-.93.18-.35.07-.79-.3-.97-.25-.12-.68-.15-.89-.01-.42.27-.79.64-1.09,1.04-.33.44.08,1.06.62,1.03.25-.02.5-.08.9-.15Zm5.73,5.12c.17-.1.35-.19.5-.31.45-.35.56-1.11.22-1.51-.22-.26-.76-.25-1.23.11-.3.22-.56.52-.76.83-.28.46.15,1.04.7.98.19-.02.38-.07.56-.11Z"/><path d="m385.21,111.31c.71-.28,1.3-.18,1.56.1.25.27.3.92,0,1.23-.35.37-.74.73-1.19.99-.44.25-.9.07-1.25-.24-.29-.26-.34-.88-.05-1.23.33-.38.75-.7.92-.85Z"/><path d="m386.77,100.89c.13-.04.26-.13.37-.11.31.04.7.03.88.21.18.18.27.59.19.85-.23.81-.95,1.21-1.68,1.49-.56.22-1.17-.36-1.12-.95.08-.82.65-1.21,1.36-1.5Z"/><path d="m393.07,95.49c.23-.04.42-.09.61-.11.53-.05.98.43.89.94-.13.8-.72,1.38-1.54,1.49-.53.07-1.11-.17-1.31-.56-.19-.36.03-.91.55-1.29.26-.19.55-.33.8-.48Z"/><path d="m386.82,121.3c-.87.35-1.4.34-1.6.03-.26-.41-.1-1.07.45-1.5.3-.23.66-.42,1.02-.51.38-.1.78-.03,1.02.33.22.33.12.92-.22,1.21-.25.2-.54.35-.67.43Z"/><path d="m411.4,158.36c.11-1.24-.22-2.42,1.17-3.2.3.2.63.38.89.61.48.44.85.96.53,1.64-.32.69-.9,1.08-1.68,1.11-.24.01-.48-.09-.91-.17Z"/><path d="m393.75,139.16c-.34.08-.61.22-.84.17-.35-.07-.77-.19-.98-.44-.3-.33,0-.72.28-.98.33-.3.7-.57,1.09-.79.44-.25.96-.15,1.24.15.32.35.3.97-.08,1.37-.21.22-.51.37-.71.52Z"/><path d="m399.5,147.48c-.4.07-.65.14-.9.15-.55.03-.95-.59-.62-1.03.29-.4.67-.77,1.09-1.04.21-.14.64-.1.89.01.37.18.47.62.3.97-.19.37-.53.67-.75.93Z"/><path d="m405.24,152.6c-.18.04-.37.09-.56.11-.55.06-.99-.52-.7-.98.19-.31.46-.61.76-.83.47-.35,1.01-.37,1.23-.11.34.4.24,1.15-.22,1.51-.15.12-.33.2-.5.31Z"/><path class="cls-1" d="m299.21,75.1s-7.44-10.27-8.33-11.37c-.89-1.1-30.41-33.84-30.72-33.96s-32.19-18.5-32.51-19.02-23.23-8.13-23.23-8.13l-6.5,7.45-6.36,13.33-3.67,16.83-.7,8.78,3.13.85,7.56.81,28.38,9.37,24.4,10.75,18.03,11.39,14.35,10.86,6.01,4.92,10.17-22.83Z"/><path d="m298.66,76.48c-.08-.13-1.51-1.7-1.6-1.83-1.46-1.92-2.57-4.07-4.23-5.87-.42-.46-.76-1-1.1-1.53-1.81-2.89-3.8-5.66-6.08-8.24-1.85-2.09-3.65-4.23-5.72-6.14-.97-.9-1.85-1.89-2.76-2.84-.18-.19-.34-.41-.54-.58-2.05-1.71-3.75-3.73-5.55-5.66-1.94-2.09-3.86-4.21-6.01-6.11-.87-.77-1.63-1.67-2.43-2.51-1.46-1.53-3.01-2.97-4.58-4.4-1.9-1.74-4.02-3.15-6.16-4.56-.63-.41-1.24-.84-1.81-1.32-1.31-1.1-2.7-2.08-4.22-2.9-1.98-1.07-3.91-2.23-5.9-3.27-1.09-.57-2.24-1.04-3.26-1.75-.48-.33-1.04-.56-1.58-.8-3.04-1.37-6.07-2.77-9.13-4.09-1.73-.74-3.52-1.36-5.3-2-1.78-.64-3.53-1.31-5.18-2.24-.83-.47-1.75-.82-2.66-1.15-2.54-.93-5.09-1.78-7.84-1.92-1.04-.05-1.79.23-2.33,1.05-.4.61-.87,1.18-1.17,1.84-.65,1.42-1.53,2.7-2.51,3.93-.85,1.07-1.56,2.21-1.9,3.54-.09.35-.25.68-.39,1.01-.69,1.67-1.38,3.34-2.07,5.01-.04.1-.06.2-.12.29-1.1,1.74-1.57,3.69-2.11,5.63-.48,1.73-1.19,3.4-1.56,5.17-.33,1.61-.74,3.21-1,4.83-.16,1-.18,2.04-.27,3.05-.14,1.55-.56,3.03-.78,4.56-.09.61-.15,1.23-.1,1.84.08.99.34,1.28,1.38,1.42,1.29.17,2.59.27,3.88.32,1.36.05,2.7.14,3.97.7.43.19.94.22,1.42.33.52.12,1.05.25,1.57.38.57.15,1.15.3,1.72.46.83.23,1.65.56,2.5.68,1.84.26,3.48,1.13,5.3,1.44.95.16,1.84.6,2.76.91,1.58.54,3.18,1.04,4.74,1.62,1.67.62,3.33,1.26,4.95,1.98.79.35,1.55.71,2.38.96,1.13.34,2.21.85,3.32,1.28,1.96.76,3.96,1.43,5.87,2.29,4.61,2.07,9.33,3.92,13.73,6.41,2.05,1.16,4.1,2.33,6.15,3.51,1.49.85,2.92,1.81,4.45,2.57,1.2.59,2.4,1.18,3.57,1.84.46.26.93.53,1.37.83,1.87,1.25,3.73,2.5,5.58,3.76.66.45,1.3.93,1.95,1.4.47.35.9.77,1.42,1.04,1.54.81,2.81,1.93,4.01,3.13.45.45.97.83,1.46,1.24.73.62,1.46,1.24,2.18,1.86.2.17.36.41.58.53,1.22.65,2.03,1.7,2.95,2.64,1.29,1.32,2.52,2.69,4.01,3.82.85.64,1.61,1.38,2.41,2.08.46.41.76.88.54,1.51-.24.67-.82.92-1.47,1.07-.19.04-.44-.03-.62-.12-.33-.17-.67-.36-.95-.6-1.7-1.44-3.53-2.75-4.96-4.47-.67-.81-1.45-1.54-2.21-2.28-.41-.41-.88-.77-1.33-1.14-.65-.54-1.3-1.08-1.97-1.61-.75-.6-1.52-1.16-2.25-1.77-.94-.78-1.84-1.6-2.76-2.4-.2-.17-.39-.37-.61-.51-2.36-1.56-4.8-3.03-7.08-4.68-2.61-1.88-5.46-3.38-8.2-5.06-1.32-.81-2.79-1.4-4.1-2.22-2.73-1.71-5.7-3-8.49-4.6-1.73-.99-3.53-1.82-5.42-2.49-1.07-.38-2.08-.88-3.14-1.3-2.45-.97-4.92-1.92-7.37-2.9-1.45-.58-2.91-1.16-4.32-1.82-1.32-.62-2.7-1.09-4.08-1.56-2.4-.81-4.8-1.65-7.17-2.53-2.64-.98-5.34-1.71-8.09-2.35-1.95-.46-3.87-1.01-5.8-1.56-1.99-.57-3.98-1.02-6.07-.99-1.51,0-3.03,0-4.54-.03-1.62-.02-2.37-.83-2.14-2.39.19-1.29.2-2.56,0-3.84-.13-.87-.1-1.72.13-2.6.53-2.05.81-4.15.85-6.26.04-1.98.44-3.88.97-5.77.13-.45.24-.89.36-1.34.29-1.09.56-2.17,1.03-3.22.56-1.27.88-2.64,1.23-3.98.27-1.01.6-1.97,1.31-2.78.37-.42.48-.92.5-1.43.03-.8.36-1.48.74-2.17.59-1.09,1.14-2.2,1.62-3.34.59-1.39,1.34-2.67,2.29-3.87,1.1-1.39,2.13-2.84,2.89-4.44.54-1.14,1.38-2.08,2.28-2.97.57-.57,1.36-.83,2.13-1.06.49-.15,1-.06,1.33.35.61.76,1.48,1,2.38,1.22.74.18,1.47.36,2.22.5,2.9.54,5.54,1.74,8.18,2.93.88.4,1.79.75,2.68,1.12,1.55.63,3.19,1.03,4.65,1.85.27.15.63.15.93.26.6.23,1.19.48,1.77.76.29.14.53.41.83.49,1.9.51,3.49,1.66,5.31,2.32,1.42.51,2.75,1.21,4.04,1.99,1.23.74,2.6,1.28,3.9,1.93.53.26,1.02.59,1.52.89.32.19.65.38.97.56.7.4,1.4.79,2.09,1.19.23.13.42.33.66.45,1.9.94,3.43,2.34,5.11,3.57.64.47,1.33.89,2.01,1.32,1.96,1.23,3.73,2.65,5.43,4.2,3.97,3.61,7.66,7.47,11.33,11.34,1.93,2.03,3.78,4.14,5.71,6.16,1.79,1.87,3.67,3.66,5.47,5.53,1.06,1.1,2.04,2.28,3.06,3.42.88.98,1.81,1.93,2.63,2.95,1.32,1.64,2.64,3.28,3.85,4.99,2.26,3.16,6.04,8.45,8.24,11.65l-1.65,2.46Z"/><path d="m248.18,62.03c.05-1.1.54-1.6,1.79-1.96.71-.21,1.37-.19,2,.16.7.4,1.35.86,1.63,1.64.24.67.58.74-.31,1.83-.32.34-.51.8-.76,1.2-.07.13-.12.27-.18.4-.62,1.3-2.06,1.46-3.01.32-.28-.34-.52-.73-.69-1.13-.34-.78-.5-1.61-.46-2.46Z"/><path d="m209.09,14.48c.11,0,.22.01.32.03,2.35.34,2.77,1.02,2.94,3.15.09,1.15-.4,2.22-.84,3.25-.31.73-1.07,1.16-1.93,1.2-.53.03-1.08-.03-1.6-.12-.47-.09-.92-.3-1.39-.42-1.23-.3-2.05-.88-1.98-2.23.02-.35-.18-.7-.22-1.05-.05-.4-.1-.82-.06-1.22.18-1.66.76-2.23,2.51-2.48.74-.11,1.5-.14,2.24-.2,0,.03,0,.06,0,.09Z"/><path d="m202.96,40.56c0,.11,0,.37-.05.62-.22,1.19-.87,1.8-2.11,2.01-.98.16-1.93.08-2.88-.21-1.97-.6-2.95-2.73-2.03-4.47.29-.55.54-1.11.84-1.65.86-1.56,2.91-1.71,4.09-1.13.92.46,1.5,1.32,1.87,2.26.31.78.4,1.6.27,2.57Z"/><path d="m273.4,54.85c-.12.73-.47,1.48-1.02,2.11-.68.78-2.06.81-3,.08-.48-.38-.92-.81-1.32-1.27-.53-.62-.63-1.36-.27-2.06.33-.65.77-1.26,1.21-1.84.28-.37.72-.57,1.19-.72.83-.25,1.49-.09,2.04.59.72.89,1.27,1.84,1.17,3.11Z"/><path d="m220.17,21.08c.2-1.86.7-2.32,2.65-2.32.64,0,1.28.15,1.91.26.83.14,1.33.68,1.59,1.4.17.48.29.99.36,1.5.14,1.01-.24,1.79-1.16,2.35-.87.53-1.71,1.04-2.83.91-.7-.08-1.24-.35-1.62-.89-.68-.97-1.06-2.02-.9-3.2Z"/><path d="m259.44,43.83c.21.02.43.03.64.05.16.02.32.05.47.11.71.26,1.74,2.32,1.51,3.03-.06.19-.14.39-.24.57-.96,1.73-2.61,2.39-4.57,1.2-1.15-.69-1.67-1.73-1.67-2.99,0-.94.52-1.56,1.46-1.74.78-.15,1.59-.21,2.38-.31,0,.03.01.06.02.08Z"/><path d="m285.26,64.93c-.3.58-.63,1.33-1.06,2.02-.14.22-.54.4-.82.4-.58,0-1.22-.02-1.72-.25-.76-.35-1.44-.88-2.13-1.36-.38-.26-.52-.68-.41-1.1.29-1.13.83-2.1,1.95-2.68.82-.43,1.63-.44,2.42.12.26.18.52.37.79.53.84.51,1,1.28.99,2.32Z"/><path d="m230.68,33c-.07,1.11-.77,1.76-1.78,2.17-.94.38-1.78.17-2.55-.46-.55-.45-.94-.98-1.18-1.63-.5-1.38.13-2.73,1.55-3.29.1-.04.2-.08.31-.09,1.84-.25,3.82,1.54,3.66,3.3Z"/><path d="m221.34,39.85c-.03-.96.59-1.58,1.61-1.9.3-.1.62-.16.94-.21.88-.14,1.64.14,2.11.83.4.59.66,1.28.93,1.94.22.54,0,1.01-.44,1.37-.45.36-.89.72-1.37,1.05-.81.57-2.28.35-2.89-.42-.84-1.06-.98-1.46-.89-2.65Z"/><path d="m271.14,76.79c.27-2.16.94-2.89,2.65-3.37,1.2-.34,2.3.42,2.37,1.61.04.7.25,1.41,0,2.13-.36,1.07-1.34,1.82-2.53,1.73-.52-.04-1.08-.18-1.54-.42-.79-.41-1.05-1.13-.96-1.68Z"/><path d="m265.29,40.6c.04,1.24-1.94,2.62-3.08,2.41-.56-.1-1.03-.27-1.36-.75-.42-.61-.78-1.24-.88-1.98-.22-1.7.92-2.77,2.71-2.55,1.6.2,2.73,1.45,2.6,2.86Z"/><path d="m212.82,44.51c.03-.1.08-.57.26-.99.48-1.13,1.69-1.49,2.79-.87,1.24.7,1.7,1.84,1.8,3.1.06.77-.42,1.41-1.19,1.65-.94.29-1.93.23-2.81-.25-.93-.51-1.04-1.37-.85-2.64Z"/><path d="m213.75,31.43c-.04.84-.88,2.01-1.48,2.2-1.24.4-2.49-.56-2.28-1.79.12-.72.46-1.37,1.03-1.88.86-.75,2.11-.5,2.52.54.13.33.16.7.21.93Z"/><path d="m278.31,69.57c1,0,1.51,1.16,1.09,1.94-.46.85-1.96,1.23-2.8.72-.55-.33-.74-.89-.49-1.46.36-.83,1.19-1.28,2.21-1.2Z"/><path d="m255.61,51.48c1.02.1,1.49.5,1.57,1.23.01.1.01.21,0,.31-.19,1.15-1.99,1.81-2.95,1.07-.39-.3-.71-.69-.58-1.19.15-.61.45-1.17,1.16-1.35.31-.08.64-.05.8-.06Z"/><path d="m265.63,62.32c-.29-.13-.72-.24-1.04-.49-.66-.5-.66-1.17,0-1.67.37-.27.81-.5,1.26-.62.76-.2,1.46.19,1.68.83.24.73-.23,1.64-.98,1.84-.25.07-.52.07-.92.11Z"/><path d="m243.82,43.91c.52.12,1.04.29,1.2.87.17.62-.09,1.11-.59,1.49-.42.32-.88.6-1.48.42-.85-.26-1.34-.93-1.16-1.6.2-.76,1.17-1.33,2.03-1.17Z"/><path d="m234.42,41.57c-.68-.05-1.12-.21-1.43-.62-.21-.27-.26-.57-.1-.87.5-.88,1.63-1.21,2.5-.73.4.22.65.55.63,1.01-.02.45-.25.8-.68.97-.34.14-.72.19-.93.24Z"/><path d="m288.74,79.74c-.04.09-.07.25-.17.35-.51.49-1.17.73-1.85.89-.5.12-.97-.31-.95-.8.03-.92.84-1.64,1.81-1.61.55.02,1.14.57,1.17,1.17Z"/><path class="cls-1" d="m48.75,400.68c-2.35,2.02-1.74,4.81-1.9,7.44.52-1.85,2.12-2.44,3.55-3.07q.78-3.4-1.73-4.31c.89-.54,1.77-1.07,3.12-1.89-.81,3.3,1.55,4.25,3.15,5.82,1.06-.55,2.2-.98,3.23.25-1.39.6-2.68,1.16-3.98,1.7-.05.02-.15-.06-.22-.1-.15-.39-.31-.79-.53-1.34-.59.59-.99,1.36-1.51,1.44-1.58.25-1.6,1.36-1.86,2.67.7-.26,1.2-.46,1.71-.65.13.13.27.26.4.4-.44.68-.87,1.36-1.33,2.07,4.13.86,5.76-.06,6.87-3.75.1-.33.52-.57,1.08-1.15.19.99.31,1.59.41,2.13,1.7-.49,3.27-.91,4.81-1.42.36-.12.84-.55.88-.88.2-1.72,1.43-2.07,3.3-2.02-2.2-1.56-3.17.42-4.5.65-.54-.32-1.01-.79-1.53-.85-.55-.06-1.14.29-1.83.49-.4-1.2-.9-1.92-2.11-2.51-2.33-1.13-4.52-2.79-4.85-5.76-.12-1.08-.04-2.23-1.47-2.49-.95-.18-1.9-.32-3.07-.51-.21-.4-.58-1.1-.95-1.79-.13.05-.25.11-.38.16.2,1.71.4,3.42.64,5.37.72-.2,1.37-.22,1.8-.54.38-.29.51-.92.83-1.55.89,1.18.94,2.45.14,2.91-1.22.71-2.56,1.9-4.08.76-.64,1.32-1.18,2.44-1.7,3.52,1.3-.43,2.46-.82,3.62-1.2Zm35.29-110.5c-.36-2.53-.92-4.88-.99-7.25-.18-6.2.84-12.28,2.25-18.29,1.2-5.09,3.75-9.49,7.61-12.95,4.94-4.43,10.84-7.47,16.64-10.59,3.84-2.07,8.1-2.66,12.37-3.06,4.1-.39,8.04,0,11.34,2.87.4.35.92.54,1.37.84,4.1,2.75,7.82,5.88,10.36,10.21.72,1.23,1.47,2.44,2.23,3.64.77,1.23,2.24,1.66,3.47.98,1.31-.73.94-1.77.38-2.76-1.17-2.1-2.27-4.25-3.6-6.24-2.93-4.39-7.14-7.47-11.43-10.32-2.19-1.46-4.84-2.28-7.38-3.11-1.49-.49-3.17-.6-4.75-.55-2.49.08-4.97.37-7.44.73-1.3.19-2.63.54-3.81,1.1-4.1,1.94-8.13,4.03-12.22,5.97-.54.26-1.39.24-1.95,0-2.64-1.08-5.23-2.26-7.83-3.44-4.23-1.91-8.34-1.62-12.26.8-1.67,1.03-3.29,2.16-4.76,3.44-.97.85-1.95,1.95-2.37,3.14-1.62,4.48-2.86,8.97-.47,13.7,1.89,3.75,3.36,7.85,6.73,10.47,2.34,1.81,2.51,3.79,2.13,6.24-.1.62-.13,1.25-.25,1.86-.74,3.63.27,7.11.97,10.59.39,1.93,1.48,2.42,3.69,1.96Zm133.85-43.04c-.25-.06-.5-.13-.75-.19-.84.99-2.11,1.83-1.56,3.43.3.87,1.13.97,2.17.37.04-1.13.09-2.37.14-3.61Zm-143.33,148.72c-1.58-.3-2.15.35-2.88,1.59.83.22,1.71.7,1.98.47.47-.41.58-1.25.9-2.06Zm104.69-90.99l-.56-.26c-.7,1.46-1.4,2.93-2.1,4.39.21.1.43.2.64.31.67-1.48,1.35-2.96,2.02-4.43Zm81.85-6.36c.88.67,1.56.82,2.11-.04.09-.14,0-.57-.14-.67-.83-.59-1.42-.26-1.97.71Zm-46.5-44.68c.67,1.01,1.31,1.24,2.01.41.16-.19.18-.78.02-.93-.8-.76-1.39-.26-2.03.52Zm16.08-30.51c-.43-.3-.68-.6-.93-.61-.26,0-.53.27-.8.42.24.27.44.65.74.77.17.07.51-.29.99-.59Zm-115.6,85.39c-.17-1.16-.25-1.73-.34-2.38q-.98.71.34,2.38Zm7.13,6.79q.99,1.55,1.89.77c-.6-.24-1.13-.46-1.89-.77Zm-51.92,86.43c.21.07.42.15.63.22.14-.36.28-.73.42-1.09l-.67-.23c-.13.37-.25.74-.38,1.1Zm-60.32-75.46c0-.2,0-.41,0-.61-.44-.01-.88-.02-1.32-.04.02.23.02.67.05.67.42.02.84,0,1.26-.03Zm195.21-14.27c.04-.18.07-.37.11-.55-.37-.05-.73-.11-1.1-.12-.03,0-.08.28-.12.43.37.08.74.16,1.11.24Zm13.23-8.51c-.17-.15-.34-.31-.51-.46-.34.42-.68.84-1.02,1.26.13.11.25.21.38.32.38-.37.77-.74,1.15-1.11Zm-169.16,83.94c-.49-.59-.96-1.37-1.89-.24.76.1,1.32.17,1.89.24Zm130.15-76.02l.22.31c.35-.25.7-.49,1.05-.74-.07-.1-.14-.2-.2-.29-.35.24-.71.48-1.06.72Zm14.54.91c-.24.45-.41.66-.46.89-.02.11.14.36.26.39.19.04.41-.04.62-.08-.08-.23-.16-.45-.43-1.2Zm-73.94,1.99c-.18.04-.37.08-.55.12.16.37.31.74.47,1.12.14-.05.28-.11.42-.16-.11-.36-.22-.72-.33-1.07Zm8.07-.06c-.12-.08-.23-.23-.34-.22-.15,0-.29.12-.43.18.1.09.21.26.3.26.15,0,.3-.13.47-.22Zm-61.62,87.61c-.12-.09-.25-.26-.36-.25-.15.02-.29.17-.44.27.16.12.32.28.5.35.05.02.2-.24.3-.37Z"/><path d="m297.13,76.03c1.43-1.99,2.78-3.97,4.24-5.87,2.71-3.53,6.39-3.87,10.4-3.02.36.08.71.21,1.05.36,5.09,2.37,10.57,3.62,15.84,5.49,4.87,1.73,9.25,4.21,12.3,8.6.81,1.16,1.98,2.06,2.85,3.19,3.31,4.24,4.84,9.02,4.58,14.46-.09,1.99-3.49,16.34-15.96,24.69l-6.92,3.22c-4.57,1.5-11.29,2.77-15.79,4.47-4.82,1.82-8.81,4.95-12.82,8.13-6.38,5.07-10.92,11.74-16.07,17.86-3.43,4.08-6.4,8.55-9.5,12.9-2.63,3.69-5.24,7.41-7.73,11.2-2.88,4.39-5.61,8.89-8.43,13.32-2.97,4.66-5.68,9.52-9.02,13.9-4.6,6.01-7.34,13.02-11.23,19.4-2.79,4.57-5.21,9.37-6.78,14.51-.93,3.05-1.51,6.21-2.3,9.57.99.47,1.81.98,2.7,1.27,6.93,2.27,13.07,6.14,19.47,9.51,5.11,2.7,9.42,6.41,13.42,10.51,3.85,3.94,7.16,8.4,8.82,13.59,2.48,7.75.9,15.45-8.1,19.65-5.46,2.55-11.02,4.63-17.12,4.92-.89.04-1.81.15-2.67-.01-4.29-.79-8.58-1.6-12.83-2.54-1.46-.32-2.83-1.05-4.26-1.6-2.81,2.13-5.63,4.27-8.44,6.42-7.04,5.4-14.89,8.24-23.86,7.69-3.18-.2-6.4.02-9.53-.43-2.89-.41-5.68-1.47-8.52-2.24-3.89-1.07-6.94-3.59-10.13-5.87-.64-.46-1.27-.94-2.1-1.56-2.84,1.85-5.6,3.79-8.5,5.5-6.07,3.58-12.5,6.27-19.45,7.56-.77.14-2.04.16-2.82.1-4.69-.39-9.51-.15-13.98-1.9-3.5-1.37-6.72-3.32-9.46-5.96-1.22-1.18-2.44-2.36-3.6-3.59-1.01-1.08-1.99-1.25-3.3-.46-1.99,1.19-4.07,2.23-6.12,3.32-6.42,3.42-13.07,5.06-20.34,3.04-2.56-.71-5.25-1-7.88-1.44-4.82-.8-9.21-2.67-13.5-4.97-3.16-1.69-6.19-3.49-8.96-5.77-2.59-2.13-4.71-4.6-6.13-7.66-.28-.61-.72-1.15-1.15-1.83-3.81,2.92-6.47,6.62-9.16,10.2-1.13,1.5-1.69,3.53-2.11,5.47-1.06,4.87-1.39,9.87-.87,14.83.55,5.27,1.82,10.46,4.72,14.97,2.31,3.6,4.69,7.15,7.06,10.72,2.9,4.36,6.92,7.67,10.68,11.2,1.2,1.13,2.82,1.91,4.36,2.58,2.19.95,4.43.39,6.52-.48,5.19-2.16,10.46-2.35,15.68-.45l8.12,3.68c3.16,3.42,4.75,9.26,5.6,11.19,1.02,2.35.51,4.54-.56,6.7-2.19,4.42-5.22,8.29-7.92,12.38-3.37,5.12-8.21,8.33-13.3,11.32-1.98,1.17-3.97,2.39-6.09,3.26-5.92,2.42-11.82,2.38-17.57-.65l-3-1.45c-3.22-1.77-6.31-6.83-4.54-10.06,1.15-1.88,3.28-5.65,4.56-7.4,2.33-3.18,2.16-7.07-.21-10.18-3.95-5.2-8.57-9.8-13.37-14.18-5.79-5.28-10.52-11.37-15-17.72-2.37-3.36-4.6-6.77-6.49-10.44-2.59-5.04-3.76-10.39-4.06-15.95-.33-6.15-.75-12.33-.4-18.45.42-7.39,1.34-14.78,2.57-22.09.7-4.18,2.11-8.3,4.11-12.14.43-.83.77-1.69,1.05-2.58,1.8-5.77,5.31-10.58,8.66-15.44,3.03-4.4,6.45-8.54,9.53-12.91,3.42-4.86,7.54-9.06,12.07-12.84,3.83-3.2,7.89-6.14,11.91-9.1,1.09-.8,2.98-1.92,4.22-2.47,3.02-1.36,3.01-1.27,2.89-4.28-.28-6.75.85-13.5,3.43-19.74.97-2.34,2.12-4.66,3.58-6.72,2.88-4.09,6.92-6.64,11.81-7.79.17-.04.36-.13.52-.1,2.8.62,3.89-1.16,4.96-3.29,2.29-4.56,5.03-8.8,9.17-11.99,5.34-4.1,10.93-8.02,17.42-9.75,9.29-2.48,18.52-2.65,27.7,1.73,5.4,2.58,9.57,6.09,12.97,10.76.98,1.35,1.63,2.95,2.31,4.48.61,1.37,1.06,2.8,1.65,4.39,5.83-1.73,10.57,1,15.42,3.19.82.37,1.7,1.19,2.01,2.01,1.62,4.34,3.43,8.65,4.48,13.14,1.72,7.41,2.39,14.97,1.38,22.59-.43,3.25-2.04,5.93-4.1,8.28-1.39,1.58-3.18,2.84-4.9,4.08-4.07,2.92-8.28,2.59-12.23-.13-3.3-2.27-6.37-4.88-9.5-7.39-.68-.55-1.23-1.3-1.77-2-1.63-2.12-3.22-4.26-4.82-6.39-.11-.15-.26-.41-.34-.58-2.42-5.54-4.65-11.08-2.98-17.38.63-2.38,1.64-4.48,2.86-6.58,2.13-3.68,4.53-7.01,8.28-9.27,2.01-1.21,1.74-1.35,1.16-3.73-1.13-4.56-3.77-8.12-6.97-11.34-.98-.99-2.1-1.85-3.3-2.56-5.08-3.03-10.63-4.87-16.51-4.86-5.81.01-11.6.89-16.87,3.65-5.56,2.91-10.83,6.29-15.08,10.96-1.91,2.09-3.45,4.53-5.08,6.87-.76,1.09-.46,1.75.85,2.22.5.18,1.04.28,1.57.34,2.92.33,5.24,1.83,7.08,3.98,2.08,2.44,3.94,5.07,5.88,7.62,1.52,2,2.14,4.28,2.05,6.78-.07,2.13-.04,4.27-.19,6.4-.41,5.74-2.82,10.5-7.56,13.77-2.3,1.58-4.79,3.1-7.77,3.31-.58.04-1.22.34-1.7.7-2.33,1.78-4.59,3.65-6.92,5.43-1.55,1.18-3.09,2.44-4.81,3.35-2.75,1.45-7.36.05-9.49-3.03-1.46-2.1-2.43-4.54-3.61-6.83-.28-.54-.54-1.09-.94-1.91-1.41.52-2.85.79-4,1.53-2.77,1.77-5.59,3.56-8.06,5.71-4.69,4.09-9.68,8.02-13.59,12.8-6.73,8.22-13.09,16.79-18.45,26.02-1.09,1.87-2.02,3.83-2.74,5.87-2.17,6.08-4.55,12.11-5.29,18.59-.09.79-.13,1.6-.04,2.39.04.35.51.96.72.94,1.12-.13,1.01.67,1.23,1.32,1.05,3.12,1.07,3.12.19,5.73l.07-.07c-.19.28-.62.69-.55.83.77,1.49-.27,2.49-1.18,3.05-2.22,1.37-2.07,3.19-1.48,5.24-.13,1.01-.25,2.01-.38,3.01.15,0,.3.01.44.02-.02-1.02-.04-2.04-.07-3.05,2.57,2.48,2.33,5.36,1.06,8.35,1.17.98,3.52-1.81,3.92,1.65-.63-.35-1.02-.56-1.51-.83-.99,1.14-1.99,2.29-3.43,3.94,1.15-.28,1.75-.42,2.34-.56l-.06-.06c-.11.33-.32.67-.3.99.1,2.3.25,4.59.39,6.89l.07-.06c-.73-.53-1.47-1.06-2.2-1.6q1.05-2.1,0-2.85c0,1.01,0,1.93,0,2.84.58,1.96,1.13,3.92,1.78,5.86.16.49.63.88,1.39,1.15-.01-.48-.13-.99,0-1.42.18-.6.5-1.18.87-1.68.28-.38.76-.6,1.09-.94.95-1,1.1-.86,1.98.26.75.95,1.01,1.75.68,2.94-.22.8.05,1.73.1,2.69l2.11.27c1.01,3.17,2.35,6.23,5.78,8.07-.96.63-1.59,1.04-2.34,1.53.53.29.88.48,1.4.77-.73.7-1.39,1.35-2.21,2.14.41.33.73.58,1.05.83q.89,1.39,1.76-.08c-.69.05-1.26.1-1.84.15.5-.37,1.04-.68,1.47-1.11.67-.66,1.25-1.4,2.01-2.26l3,2.74c-.88,1.61-2.1,2.39-3.82,2.51-2.23.16-2.47.64-1.23,2.57.84,1.31,1.82,2.54,2.86,3.97,1.15-1.3.63-2.02-.18-2.68-1.05-.86-.9-2.01.31-2.64.92-.48,1.73-1.18,2.71-1.87.94.99,1.9,2,2.86,3.01-.86-.33-1.72-.66-2.36-.9-1.77,1.67-.98,3.41-1.07,5.03l.08-.08c-1.48,1.13-1.5,1.24-.42,2.28,2.11,2.03,4.23,4.06,6.4,6.15q1.78-.27,2.59-2.15c-.99.41-1.77.73-2.87,1.18,2.05-2.72,2.17-2.75,4.2-1.23.24-.3.49-.6.79-.97.73,1.11-.09,2.62,1.39,3.4.37.19.07,1.65.08,2.58.4-.33.77-.65,1.36-1.14.55,2.11,1.37,3.8,3.07,5.05.72.53.92,1.75,1.36,2.65-.19.1-.37.21-.56.31-.32-.41-.64-.81-1.04-1.31-.41.3-.82.6-1.17.86-.09,1.34,1.42,1.79,4.57,1.39l-1.56,2.39c.27.43.58.95.91,1.46.71,1.1.94,2.28,1.21,3.59,1,4.8-1.31,8.84-2.31,13.18-.46,2-.86,4.03-1.11,6.07-.16,1.35.48,2.69,1.69,3.31,1.4.72,2.94,1.17,4.41,1.74l-.06.04c1.86.14,3.74.47,5.59.36,1.64-.1,3.44-.35,4.84-1.14,4.04-2.28,7.96-4.79,11.82-7.37,1.53-1.02,2.88-2.31,3.94-3.81,2.88-4.05,5.58-8.24,8.35-12.37,1.12-1.67,1.4-3.79.68-5.66-1.59-4.13-4.28-7.58-7.88-9.8-4.19-2.59-9.06-3.11-13.93-1.48-1.27.42-2.53.85-3.82,1.2-6.38,1.76-10.99-1.52-15.34-5.48-.98-.89-1.87-1.88-2.81-2.81-6.2-6.13-11.4-12.92-14.9-21.02-1.24-2.88-2.52-5.67-3.08-8.76-.24-1.31-.5-2.64-.53-3.97-.15-6.24-.53-12.5,1.13-18.64.95-3.52,2.54-6.65,5.1-9.27,3.8-3.88,7.62-7.76,11.4-11.66,1.05-1.09,1.97-2.3,3.04-3.37,3.41-3.41,7.7-5.07,12.34-5.95,1.71-.33,3.5,2.01,2.93,3.79-.18.58-.62,1.07-.78,1.35-1.33.14-2.46.1-3.47.44-.42.14-.57,1.07-.84,1.64.19.17.39.33.58.5.11-.23.2-.48.35-.69.14-.2.35-.36.76-.79.2,2.46.29,4.59-1.21,6.75.66.69,1.31,1.37,1.95,2.04l-.03-.04c-.1.36-.39.9-.25,1.05.32.35.85.52,1.29.76-.24.38-.43.67-.59.94.07.12.12.26.16.27,2.37.04,2.41,2.67,3.96,3.55,1.66.95,3.46,1.66,5.17,2.47-.44.2-1.1.59-1.82.81-.39.12-1.21.07-1.26-.07-.66-2.22-3.71-1.57-4.4-3.7-2.65-.96-3.67-3.87-6.2-5.1-1.37-.67-2.19-1.13-3.49.06-1.38,1.25-2.97.91-4.59-.85,2.44.29,3.52-1.63,5.19-2.81,1.03,1.95,2.32,3.13,4.74,3.12-.77-.64-1.31-1.1-1.95-1.63.42-.76.79-1.42,1.27-2.29-1.63-.29-2.17-1.43-2.34-2.82.51-.75,1.01-1.49,1.5-2.23-.16-.16-.33-.31-.49-.47-4.2,1.43-6.72,5.13-10.33,7.79,2.42,3.35,2.92,7.95,7.91,9.69-1.14-1.62-2.01-2.86-3.2-4.54,1.46.33,2.47.56,3.64.82.28,1.7.92,3.26,2.74,4.18.45-.37.83-.73,1.25-1.03,1.05-.75,1.92-1.05,2.95.26,1.44,1.85,3.79,2.22,5.86,2.96.48.17,1.18-.15,1.75-.34,1.44-.48,2.84-1.06,4.3-1.47.42-.12,1.16.06,1.39.38.23.32.2,1.14-.06,1.42-.26.27-1,.29-1.44.15-1.27-.39-2.56-1.26-3.33.69-1.34,1.96-3.07,2.06-5.13,1.21-1.22-.5-2.1-1.83-3.72-1.52-.26.05-.71-.89-1.08-1.37-.28-.37-.56-.74-.99-1.3-.15,1.19-.26,2.04-.37,2.92.67.57,1.2,1.28,1.9,1.57,3.44,1.38,6.92,2.67,10.42,3.9.6.21,1.6-.33,2.01-.01,2.67,2.06,5.96,1.52,8.93,2.27,1.76.44,3.55.12,5.08-1.01.7-.52,2.5-3.42,2.68-4.46-1.27,1.2-2.59,2.05-3.28,3.27-.41.72-.67,1.12-1.43,1.17-.92.07-1.23-.5-1.37-1.3-.05-.31-.26-.6-.48-1.09-1.08.73-2,1.35-3.2,2.16-2-1.12-4.07-2.28-6.13-3.44-.77-.43-1.51-1.17-2.31-1.24-1.29-.11-1.31-.97-1.57-1.79.86.36,1.61.62,2.68.56,1.66-.08,3.71-.22,4.94,1.95l.37-2.92c-.45-.06-.94-.12-2.05-.26.82-.53,1.22-.99,1.63-1.01.77-.04,1.55.19,2.31.31-.97,1.08-.71,2.08.17,3.21,2.04-.73,4.62.84,6.26-1.75l-1.1-1.36c-.6.71-1.1,1.28-1.63,1.91-1.37-.58-3.22.04-3.75-1.98,2.49-.53,4.99-1.05,7.48-1.58.34-.07.7-.1,1.04-.17,1.69-.3,3.39-.61,5.35-.96.7,1.21,1.95,1.75,3.77.87.52-.26,1.32.04,2.04.08.23-.4.41-1.13.84-1.35,1.51-.79,3.13-1.37,4.67-2.11.79-.38,1.59-.82,2.22-1.41,2.14-2.04,4.88-2.92,7.52-3.96.81-.32,1.91-.05,2.84.12.61.11.95.27,1.6-.25,1.2-.95,2.71,0,2.66,1.54-.07,2.64-1.08,5.11-2.35,7.25-.92,1.55-2.94,2.47-4.49,3.63-.75.56-1.64.98-1.94,2.19,1.24.2,1.68-.63,2.28-1.45,1.67,1,4.16.83,4.35,3.64-1.39,2.12-1.28,2.74.64,3.36.87-1.36-.37-2.3-.7-3.42,2.25.85,1.79,2.78,1.72,4.87,1.41.56,2.89,1.09,4.32,1.73,3.52,1.58,7.31,1.41,11,1.64,5.85.37,11.26-1.6,16.31-4.28,4.87-2.58,9.58-5.48,14.21-8.47,1.9-1.23,3.42-3.06,5.11-4.61l-.03.03c2.35-1.92,4.82-3.73,7.02-5.81,1.43-1.35,2.67-2.34,4.84-2.06,1.15.15,2.43-.63,4.02-1.1.06.13.48.65.4,1.07-.14.8.13,1.17.81,1.4h0c-.52-.08-1.06-.1-1.56-.24-1.26-.34-2.02.16-2.82,1.73-1.52,3-3.99,5.58-7.23,6.47-1.04.28-1.51,1.41-2.17,2.25,0,0,.08-.06.08-.06-1.1.59-2.21,1.18-3.57,1.91,3.44,2.86,6.7,5.02,10.52,6.36,6.74,2.36,13.6,3.24,20.72,2.3,3-.4,5.95-.66,8.85-1.74,4.24-1.57,7.32-4.75,10.93-7.2,1.08-.73,2.11-1.54,3.07-2.43.93-.85,1.85-1.76,2.51-2.8,2.16-3.38,4.15-6.86,6.23-10.3.81-1.34,1.91-1.73,3.16-1.18,1.1.49,1.46,1.44,1,2.95-.18.58-.54,1.11-.86,1.64-1.09,1.82-2.18,3.65-3.31,5.45-.47.74-1.06,1.39-1.65,2.16,1.05,1.36,2.32,1.39,3.72,1.18,0-.44.05-.74,0-.75-.73-.23-1.76-.27-1.39-1.44.28-.88,1.04-1.15,1.96-.9,3.06.83,6.29,1.08,9.17,2.61.53.28,1.32.07,2.03.08q-1.4,1.46-4.11.15c-.39.38-.81.79-1.4,1.38,5.74,1.75,11.12,1.38,16.4-.73,1.11-.44,2.07-1.25,3.11-1.89l-.09.06c3.7-.24,6.47-2.33,9-4.72.64-.61.87-1.74,1.11-2.68,1.15-4.41.13-8.45-2.23-12.23-5.03-8.05-11.78-14.22-20.19-18.6-4.03-2.1-7.98-4.35-12.09-6.29-2.4-1.14-4.98-1.9-7.55-2.63-.94-.26-2.07-.04-3.07.18-1.35.3-1.86.13-2-1.2-.16-1.49,0-2.81.88-4.28,1.2-2,1.94-4.39,2.39-6.71,1.04-5.34,3.39-10.1,6-14.77,1.65-2.94,3.4-5.82,5.02-8.78.72-1.31,1.15-2.78,1.85-4.1,1-1.88,2.13-3.68,3.27-5.65-.8-.21-2.04-.19-1.58-1.64l-.07.08c2.47.28,3.9-1.12,5.06-2.96,1.34-2.13,2.6-4.31,3.93-6.45,3.19-5.15,6.3-10.34,9.55-15.45,1.24-1.94,2.74-3.71,4.06-5.6,1.23-1.75,2.41-3.53,3.54-5.35,4.34-6.97,8.99-13.72,14.32-19.98,2.59-3.04,4.99-6.26,7.61-9.27,1.51-1.73,3.61-3.01,4.87-4.89,1.44-2.15,3.4-3.65,5.34-5.09,4.44-3.29,8.76-6.78,14.83-7.61,3.67-.51,7.28-1.56,10.38-3.6,4.11-2.7,9.55-3.27,13.32-6.88,3.25-3.1,6.11-6.48,7.76-10.72.78-1.99,1.72-3.98,2.09-6.07.56-3.23.01-6.47-1.56-9.36-2.82-5.17-6.45-9.69-11.79-12.46-2.2-1.14-4.64-1.8-6.99-2.65-.92-.33-1.92-.49-2.8-.9-1.49-.69-3.5.8-4.53,1.99-2.23-.71-.77-.12-2.56-2.78-.25-.36-1.15-1.26-1.44-1.59-1.99-2.23-4.4-2.48-6.8-.79-2.4,1.69-3.55,4.35-5.25,6.57-.51.66-.95,1.36-1.41,2.06-.93,1.41-2.08,2.73-2.7,4.27-1.16,2.89-2.01,5.9-2.97,8.86-.33,1.02-.49,2.12-.97,3.06-2.63,5.22-2.21,10.62-.75,15.95.74,2.72.89,5.44,1.16,8.18.33,3.4-1.56,6.05-3.31,8.58-10.54,15.22-21.92,29.74-35.64,42.3-10.42,9.54-21.55,18.14-33.26,26.05-4.37,2.95-8.68,5.91-13.45,8.21-5.5,2.65-11.24,4.54-17.17,5.9-3.43.78-6.91.82-10.36-.03-1.83-.45-2.72-1.26-2.48-2.25.23-.93,1.63-1.5,3.12-1.33,1.33.16,2.67.42,4,.37,2.31-.08,4.68-.07,6.9-.61,7.67-1.87,14.97-4.73,21.71-8.9,1.98-1.22,3.8-2.69,5.8-3.9,2.62-1.59,5.21-3.23,7.63-5.09,5.69-4.38,11.24-8.95,16.8-13.49,2.9-2.37,5.76-4.78,8.55-7.27,1.92-1.72,3.67-3.62,5.53-5.41,1.01-.98,2.2-1.8,3.11-2.87,6.65-7.8,13.36-15.55,19.2-24,2.08-3.01,4.33-5.89,6.39-8.91,2.35-3.45,3.8-7.16,2.45-11.5-.32-1.02-.5-2.07-.67-3.12-.49-3.12-.96-6.26-1.47-9.67-.14-.95-.1-1.91.14-2.84.59-2.34,1.88-7.19,3.54-11.31l7.33-13.29Zm-210.65,237.31c-.8-.1-1.61-.2-2.58-.33.88,1.04,1.67,1.12,2.57.33,1.09.14,2.17.28,3.26.41,0-.17.01-.34.02-.51-1.09.03-2.17.06-3.26.1Zm19.38-14.7c-.62.04-1.29-.07-1.83.15-.86.35-.92.98-.13,1.65,1.04-.21,1.73-.75,1.91-1.85.58.06,1.17.12,1.75.18,0-.19.02-.38.03-.57-.28-.04-.59-.16-.85-.09-.32.09-.59.35-.88.53Zm-3.42,8.5c-.65-.22-1.3-.44-2.03-.68l-.36,2.79c1.1-1.03,1.71-1.6,2.32-2.18.42-.27.84-.55,1.45-.95q-1.35-.01-1.38,1.02Zm48.37-125.41c-7.32,4.6-10.95,10.78-11.94,18.63-.4,3.22.33,6.22,1.93,8.99,1.33,2.3,2.78,4.5,4.43,6.63,3.59,4.62,8.33,7.71,13.02,10.92,1.28.88,2.68,1.11,4.08.57,1.65-.64,3.38-1.27,4.78-2.31,2.25-1.66,4.01-3.88,4.5-6.71.3-1.7.04-3.49.04-5.44-2.31,1.48-4.81,1.99-7.37,1.15-3.15-1.04-6.11-2.56-8.46-4.91-3.87-3.87-6.36-8.49-7.25-13.99-.66-4.07-.82-7.96,1.47-11.62.25-.4.36-.9.76-1.92Zm-61.04,36.15c-1.02-.13-1.6-.23-2.19-.27-4.27-.33-7.97-1.67-10.44-5.48-.91-1.41-2.17-2.59-3.21-3.93-.64-.83-1.21-1.72-1.74-2.63-1.65-2.8-2.33-5.92-3.08-9.04-.42-1.73-.55-3.67-2.09-5.4-3.31,5.98-5.76,11.89-5.83,18.57-.01,1.43.05,2.85.08,4.28.09,4.39,1.65,8.37,3.6,12.2,1.29,2.54,4.87,4.54,8.37,1.85.64-.49,1.23-1.03,1.82-1.57,3.83-3.51,7.68-6.98,13.2-7.56.42-.04.8-.52,1.52-1.01Zm13,85.45c.03.14.07.28.1.42.68-.02,1.55.21,2.01-.12,1.44-1.05,2.95-1.41,4.7-1.32.38.02,1.09-.86,1.15-1.39.12-1-.11-2.05-.19-3.08l-.38-.13c-.37,1.18-.75,2.36-1.25,3.93-2.07-2.13-3.43-.53-4.88.83-.37.34-.84.57-1.26.86Zm-93.39,35.31c-.24.2-.48.4-.72.6.51,1.07.92,2.2,1.57,3.18.26.4,1.04.67,1.56.63.99-.08,1.96-.42,3.06-.68-.24-.98-.76-1.57-1.66-1.51-1.7.1-3.11-.26-3.81-2.22Zm5.25,8.91c-.32-1.19-.48-1.78-.66-2.43.92.17,1.58.29,2.59.48-.4-.9-.66-1.49-1.11-2.53-.71,2.02-3.3.33-3.65,2.69.78.5,1.57,1,2.83,1.8Zm217.09-41.73c1.61.37,2.95.93,4.63.27-1.28-.96-2.35-1.75-3.58-2.67-.38.87-.68,1.56-1.05,2.4Zm-196.64,64.22c-.13,1-.23,1.84-.35,2.79,2.23-.73,2.26-1,.35-2.79Zm57.94-62.52c-.21-.02-.43-.04-.64-.06-.21.56-.42,1.11-.72,1.91.88,0,1.41,0,2.19-.01-.35-.79-.59-1.32-.82-1.84Zm.74,4.32q-2.26-.48-2.03,1c.63-.31,1.21-.6,2.03-1Zm3.59-5.63c1.6.5,1.87-.27,1.78-1.5-.52.44-1.04.88-1.78,1.5Zm-14.91.25c-.41.38-.64.6-.87.81.3.27.57.57.91.77.08.05.56-.31.54-.4-.09-.35-.31-.66-.58-1.18Zm-72.73,30.17c.16.17.32.35.48.52.27-.31.57-.61.8-.96.03-.05-.28-.33-.44-.51-.28.31-.56.63-.84.94Zm103.89-38.49c-.28.14-.57.29-.85.43.28.42.55.85.85,1.26,0,.01.41-.19.4-.24-.1-.49-.26-.97-.4-1.45Zm-3.06,13.05c-.1-.18-.2-.37-.3-.55-.51.22-1.04.41-1.53.68-.07.04.07.44.16.93.65-.41,1.16-.73,1.66-1.05Zm-14.45-6.78c.08.17.17.33.25.5.46-.27.93-.54,1.39-.81l-.19-.36c-.48.23-.97.45-1.45.68Zm4.9-2.18c-.11-.1-.21-.2-.32-.3-.37.35-.74.7-1.11,1.05.13.13.26.26.39.39l1.04-1.13Zm-4.81,8.79l.36-.36-1.01-1.07c-.13.13-.26.27-.4.4.35.34.7.68,1.05,1.03Zm-9.98-4.37c.02.1.04.2.06.3.31.02.66.13.93.03.29-.11.5-.41.74-.63-.07-.1-.15-.2-.23-.3-.5.2-1,.4-1.5.6Zm-69,40.42c-.08-.12-.16-.23-.24-.35-.32.22-.64.44-.96.65l.26.37c.32-.22.63-.45.95-.67Zm-5.77-7.04c.28-.38.53-.61.63-.89.04-.1-.27-.33-.42-.49-.23.21-.51.4-.66.65-.05.09.22.37.45.73Zm-6.01-17.6c.19-.09.37-.19.56-.28-.25-.33-.5-.66-.76-.99-.11.08-.22.15-.33.23.17.35.35.7.52,1.05Zm32,51.34c-.18.37-.31.55-.34.74-.02.13.12.28.19.42.16-.12.44-.23.46-.37.03-.18-.15-.4-.32-.79Zm58.14-66.74c-.07.23-.17.44-.17.64,0,.08.24.15.37.23.09-.2.2-.39.25-.6,0-.04-.24-.14-.46-.26Zm-6.3,3.36c.21.06.42.12.64.18.09-.43.18-.85.27-1.28-.14-.04-.28-.08-.42-.13-.16.41-.32.81-.49,1.22Z"/><path d="m84.04,290.18c-2.21.45-3.3-.03-3.69-1.96-.7-3.48-1.71-6.96-.97-10.59.12-.61.16-1.24.25-1.86.38-2.45.21-4.43-2.13-6.24-3.38-2.62-4.84-6.72-6.73-10.47-2.38-4.73-1.14-9.22.47-13.7.43-1.19,1.4-2.29,2.37-3.14,1.47-1.29,3.1-2.42,4.76-3.44,3.92-2.41,8.03-2.71,12.26-.8,2.6,1.17,5.19,2.36,7.83,3.44.57.23,1.41.25,1.95,0,4.09-1.95,8.12-4.04,12.22-5.97,1.18-.56,2.51-.91,3.81-1.1,2.47-.36,4.95-.65,7.44-.73,1.58-.05,3.26.06,4.75.55,2.54.83,5.19,1.65,7.38,3.11,4.29,2.85,8.51,5.93,11.43,10.32,1.33,1.99,2.43,4.14,3.6,6.24.56.99.92,2.03-.38,2.76-1.23.68-2.7.25-3.47-.98-.75-1.21-1.51-2.41-2.23-3.64-2.54-4.34-6.26-7.46-10.36-10.21-.44-.3-.97-.49-1.37-.84-3.3-2.87-7.24-3.26-11.34-2.87-4.27.41-8.53.99-12.37,3.06-5.8,3.12-11.7,6.16-16.64,10.59-3.86,3.46-6.42,7.86-7.61,12.95-1.41,6.01-2.43,12.09-2.25,18.29.07,2.36.63,4.71.99,7.25Zm-9.79-41.78c-.31.49-.77.95-.91,1.49-.72,2.73-.92,5.48.38,8.1,1.07,2.15,2.16,4.31,3.43,6.34.81,1.31,1.95,2.41,3.29,4.02.74-2.59,1.38-4.59,1.87-6.63.79-3.36,2.28-6.36,4.51-8.99.68-.8,1.82-1.32,2.26-2.21,1.27-2.59,3.62-3.87,5.82-5.36.35-.23.64-.54.94-.79-.17-.31-.22-.54-.34-.59-2.96-1.23-5.91-2.47-8.9-3.62-.64-.24-1.45-.3-2.12-.15-3.35.76-6.33,2.17-8.47,5.07,1.14,1.72,2.65,2.7,4.46,3.39,1.31.5,2.54,1.23,3.72,1.99.84.54.75,1.39.13,2.08-.59.66-1.23.81-2.12.28-2.56-1.51-5.18-2.91-7.94-4.44Z"/><path d="m48.76,400.68c-1.16.39-2.32.78-3.62,1.21.53-1.09,1.06-2.2,1.7-3.52,1.52,1.14,2.86-.05,4.08-.76.8-.47.75-1.73-.14-2.91-.32.63-.45,1.26-.83,1.55-.43.32-1.08.34-1.8.54-.23-1.96-.43-3.67-.64-5.37.13-.05.25-.11.38-.16.37.7.74,1.39.95,1.79,1.17.19,2.13.33,3.07.51,1.43.27,1.35,1.42,1.47,2.49.34,2.97,2.52,4.63,4.85,5.76,1.2.59,1.71,1.31,2.11,2.51.69-.21,1.28-.55,1.83-.49.52.05,1,.53,1.53.85,1.33-.22,2.3-2.21,4.5-.65-1.86-.05-3.09.3-3.3,2.02-.04.33-.52.75-.88.88-1.54.52-3.11.93-4.81,1.42-.11-.55-.22-1.15-.41-2.13-.55.57-.98.81-1.08,1.15-1.11,3.68-2.74,4.61-6.87,3.75.45-.71.89-1.39,1.33-2.07-.13-.13-.27-.26-.4-.4-.51.19-1.01.38-1.71.65.26-1.3.28-2.42,1.86-2.67.51-.08.91-.85,1.51-1.44.22.56.37.95.53,1.34.07.03.17.12.22.1,1.3-.55,2.59-1.11,3.98-1.7-1.03-1.22-2.17-.8-3.23-.25-1.61-1.57-3.97-2.52-3.15-5.82-1.35.82-2.23,1.35-3.12,1.89,0,0,.09-.05.09-.05Z"/><path d="m237.5,209.81c-1.11,1.89-2.25,3.74-2.33,6.05-.02.58-.6,1.24-1.08,1.68-.51.45-1.22.67-1.99,1.07.45,1.33.95,2.7-.27,4.05-.59-.4-1.21-.81-1.81-1.22-.02-.21-.11-.41-.05-.54,1.32-2.97,2.52-6,4.03-8.87,1.11-2.09,2.62-3.98,4-5.92.23-.32.71-.45,1.08-.67l-.06-.08c.25.61.5,1.22.81,1.98-1.3.25-2.65.7-2.4,2.56,0,0,.07-.08.07-.08Z"/><path d="m29.07,356.77c4.16,2.09,2.81,5.69,2.46,9.23-1.17-.43-2.28-.83-3.51-1.28l.2-1.56c-1.12-.37-2.82-.17-2.6-2.18,0,0-.08.08-.08.08.68.13,1.28.12,1.27-.81,0-.68-.03-1.36-.05-2.05.41-.11.65-.22.9-.24.35-.03.72.08,1.05,0,.73-.18.7-.66.36-1.19Zm1.7,2.57c-1.2,1.33-1.18,2.48-.55,3.88,1.46-1.18,1.08-2.37.55-3.88Z"/><path d="m169.61,307.09c1.04-.45,2.09-.9,3.04-1.31,1.9,1.55,3.08,3.32,3.52,5.75-.76.32-1.55.65-2.27.96-.83-.76-1.45-1.67-2.3-2.01-1.7-.68-2.17-1.81-1.9-3.45,0,0-.09.06-.09.06Z"/><path d="m48.67,400.73q2.52.92,1.73,4.31c-1.43.63-3.03,1.22-3.55,3.07.16-2.63-.45-5.42,1.9-7.44,0,0-.09.05-.09.05Z"/><path d="m242.88,197.91c1.62-1.57,3.23-3.13,4.79-4.64.24,3.32-1.24,4.78-4.82,4.61l.03.03Z"/><path d="m217.89,247.13c-.05,1.24-.09,2.48-.14,3.61-1.04.6-1.88.5-2.17-.37-.55-1.6.72-2.45,1.56-3.43.25.06.5.13.75.19Z"/><path d="m256.77,303.86c-1.58.28-2.95.11-3.68-1.87,1.07-.36,2.04-.68,3-1.01-.51,1.27,2.1,1.72.59,2.94,0,0,.09-.06.09-.06Z"/><path d="m242.85,197.88c.8,1.88,1.83,3.75-.05,6.25,0-1.1,0-1.64-.01-2.25-1.01.23-1.93.44-2.84.65.01,0,.06.01.06.01.96-1.53,1.93-3.07,2.88-4.61-.01-.02-.05-.05-.05-.05Z"/><path d="m74.56,395.85c-.32.82-.43,1.65-.9,2.06-.26.23-1.14-.25-1.98-.47.72-1.24,1.3-1.89,2.88-1.59Z"/><path d="m239.08,205.44c.32-.96.64-1.92.95-2.89-.02,0-.07-.02-.08-.02.79.78,2.16,1.18,1.84,3.02-.95-.07-1.86-.13-2.77-.19,0,0,.06.08.06.08Z"/><path d="m179.24,304.86c-.67,1.48-1.35,2.96-2.02,4.43-.21-.1-.43-.2-.64-.31.7-1.46,1.4-2.93,2.1-4.39l.56.26Z"/><path d="m261.09,298.5c.55-.98,1.15-1.31,1.97-.71.14.1.23.53.14.67-.55.86-1.24.71-2.11.04Z"/><path d="m214.59,253.82c.64-.78,1.24-1.28,2.03-.52.16.15.15.74-.02.93-.7.82-1.35.59-2.01-.41Z"/><path d="m8.18,302.44c1.64,1.52,1.66,1.6.57,3.74-.16-1.18-.33-2.49-.5-3.81,0,0-.07.07-.07.07Z"/><path d="m183.39,296.87c-.12.95-.24,1.89-.36,2.84-.18.04-.36.07-.53.11-.18-.35-.61-.82-.51-1.02.37-.69.92-1.29,1.41-1.93,0,0,0,0,0,0Z"/><path d="m230.66,223.31c-.48.3-.82.66-.99.59-.3-.12-.5-.5-.74-.77.27-.15.54-.43.8-.42.25,0,.5.31.93.61Z"/><path d="m115.07,308.7q-1.32-1.67-.34-2.38c.09.65.18,1.21.34,2.38Z"/><path d="m122.2,315.49c.76.31,1.29.52,1.89.77q-.9.78-1.89-.77Z"/><path d="m7.47,331.84c.64-.04,1.28-.09,2.05-.14q-.79,1.32-1.98.08s-.08.06-.08.06Z"/><path d="m70.28,401.91c.13-.37.25-.74.38-1.1l.67.23c-.14.36-.28.73-.42,1.09-.21-.07-.42-.15-.63-.22Z"/><path d="m9.95,326.46c-.42.02-.84.05-1.26.03-.03,0-.03-.44-.05-.67.44.01.88.02,1.32.04,0,.2,0,.41,0,.61Z"/><path d="m205.16,312.19c-.37-.08-.74-.16-1.11-.24.04-.15.08-.43.12-.43.37.01.73.07,1.1.12-.04.18-.07.37-.11.55Z"/><path d="m48.61,411.78c-.35-.54-.71-1.09-1.14-1.75q1.55.25,1.1,1.78s.05-.03.05-.03Z"/><path d="m218.39,303.68c-.38.37-.77.74-1.15,1.11-.13-.11-.25-.21-.38-.32.34-.42.68-.84,1.02-1.26.17.15.34.31.51.46Z"/><path d="m49.23,387.61c-.56-.07-1.12-.14-1.89-.24.93-1.13,1.39-.35,1.89.24Z"/><path d="m7.44,324.02c.64-.36,1.23-.99,2.3-.43-.83.9-1.62.46-2.35.37,0,0,.05.06.05.06Z"/><path d="m54.76,295.84c-.17-.89-.34-1.78-.51-2.67.23,0,.46-.01.69-.02-.08.87-.15,1.75-.22,2.64,0,.01.04.05.04.05Z"/><path d="m179.38,311.59c.35-.24.71-.48,1.06-.72.07.1.14.2.2.29-.35.25-.7.49-1.05.74l-.22-.31Z"/><path d="m193.92,312.5c.27.75.35.97.43,1.2-.21.03-.43.12-.62.08-.12-.03-.29-.28-.26-.39.05-.23.21-.43.46-.89Z"/><path d="m119.97,314.5c.11.36.22.72.33,1.07-.14.05-.28.11-.42.16-.16-.37-.31-.74-.47-1.12.18-.04.37-.08.55-.12Z"/><path d="m128.04,314.43c-.17.09-.32.21-.47.22-.1,0-.2-.17-.3-.26.14-.07.29-.18.43-.18.11,0,.22.14.34.22Z"/><path d="m66.43,402.05c-.1.13-.25.39-.3.37-.18-.07-.34-.23-.5-.35.14-.1.28-.25.44-.27.11-.01.24.16.36.25Z"/><path d="m231.7,305.83c.37-.85.67-1.53,1.05-2.4,1.24.92,2.3,1.72,3.58,2.67-1.68.66-3.02.1-4.63-.27Z"/><path class="cls-1" d="m74.25,248.4c2.75,1.53,5.38,2.92,7.94,4.44.89.53,1.53.38,2.12-.28.62-.69.71-1.54-.13-2.08-1.18-.76-2.42-1.49-3.72-1.99-1.81-.69-3.32-1.67-4.46-3.39,2.14-2.9,5.13-4.31,8.47-5.07.67-.15,1.48-.1,2.12.15,2.99,1.15,5.94,2.39,8.9,3.62.12.05.17.29.34.59-.3.25-.59.56-.94.79-2.21,1.49-4.56,2.77-5.82,5.36-.43.89-1.57,1.4-2.26,2.21-2.23,2.62-3.71,5.62-4.51,8.99-.48,2.04-1.13,4.04-1.87,6.63-1.33-1.6-2.48-2.71-3.29-4.02-1.26-2.04-2.36-4.19-3.43-6.34-1.3-2.62-1.1-5.37-.38-8.1.14-.54.6-1.01.91-1.49Z"/><path class="cls-1" d="m171.65,213.03c-2.31,1.48-4.81,1.99-7.37,1.15-3.15-1.04-6.11-2.56-8.46-4.91-3.87-3.87-6.36-8.49-7.25-13.99-.66-4.07-.82-7.96,1.47-11.62.25-.4.36-.9.76-1.92-7.32,4.6-10.95,10.78-11.94,18.63-.4,3.22.33,6.22,1.93,8.99,1.33,2.3,2.78,4.5,4.43,6.63,3.59,4.62,8.33,7.71,13.02,10.92,1.28.88,2.68,1.11,4.08.57,1.65-.64,3.38-1.27,4.78-2.31,2.25-1.66,4.01-3.88,4.5-6.71.3-1.7.04-3.49.04-5.44Z"/><path class="cls-2" d="m87.56,217.61c-4.27-.33-7.97-1.67-10.44-5.48-.91-1.41-2.17-2.59-3.21-3.93-.64-.83-1.21-1.72-1.74-2.63-1.65-2.8-2.33-5.92-3.08-9.04-.42-1.73-.55-3.67-2.09-5.4-3.31,5.98-5.76,11.89-5.83,18.57-.01,1.43.05,2.85.08,4.28.09,4.39,1.65,8.37,3.6,12.2,1.29,2.54,4.87,4.54,8.37,1.85.64-.49,1.23-1.03,1.82-1.57,3.83-3.51,7.68-6.98,13.2-7.56.42-.04.8-.52,1.52-1.01-1.02-.13-1.6-.23-2.19-.27Z"/></g></svg>