<?xml version="1.0" encoding="UTF-8"?><svg id="Layer_2" xmlns="http://www.w3.org/2000/svg" viewBox="0 0 168.21 210.93"><defs><style>.cls-1{fill:#fff;}</style></defs><g id="Layer_1-2"><path class="cls-1" d="m81.14,180.23c.1,1.02.25,2.07.3,3.13.06,1.19.02,2.38.03,3.57.01,1.22.01,2.44.07,3.66.07,1.4.23,2.79.27,4.18.05,1.58,0,3.16-.02,4.75,0,.33-.11.66-.2.98-.17.56-.14,1.07.22,1.55.14.19.29.38.35.6.34,1.29.98,2.44,1.58,3.61.39.76.82,1.48,1.38,2.14.97,1.13,2.19,1.39,3.58,1.09.68-.14.89-.58.69-1.25-.04-.12-.07-.25-.1-.38-.24-.97-.6-1.9-1.27-2.63-1.26-1.37-2.61-2.65-3.41-4.38-.15-.32-.42-.58-.62-.89-.09-.14-.18-.32-.18-.49,0-1.14-.02-2.28.06-3.42.05-.73-.02-1.44-.09-2.16-.09-.87-.64-1.74-.12-2.64.02-.04-.01-.1-.02-.15-.2-2.21-.25-4.43-.26-6.66,0-1-.12-2.01-.19-3.01-.04-.59-.08-1.18.11-1.82.3.02.63-.04.85.08.69.38,1.36.19,2.03.03,1.12-.26,2.24-.57,3.42-.87.04.27.11.57.11.87,0,1.58-.01,3.16-.03,4.73-.03,2.33-.06,4.67-.09,7-.02,1.92-.03,3.83-.06,5.75,0,.55-.02,1.08.35,1.55.17.21.21.52.32.79.41,1.01.83,2.01,1.78,2.66.13.09.26.2.32.33.32.66.94.95,1.53,1.26.88.47,1.84.8,2.56,1.54.07.07.17.13.27.14.93.15,1.8.06,2.58-.54.6-.46.62-.97.04-1.47-1.29-1.1-2.47-2.33-3.89-3.28-.42-.28-.75-.71-1.18-.98-.8-.51-1.64-.95-2.57-1.49,0,0-.05-.14-.06-.29-.03-.88-.07-1.76-.05-2.63.03-1.55.1-3.1.15-4.65,0-.13,0-.26,0-.39,0-.57,0-1.13-.02-1.7,0-.51-.04-1.03-.04-1.54,0-.46,0-.92.02-1.38.03-.57.11-1.13.12-1.7.02-1.04-.02-2.07,0-3.11.02-.86.03-1.7-.37-2.5.19-.16.34-.31.51-.41,1.07-.6,2.15-1.2,3.29-1.83.01.21.03.35.03.5-.01,1.09-.07,2.18-.03,3.26.06,1.65.35,3.28.3,4.94-.04,1.03.06,2.07.12,3.1.04.7.11,1.39.16,2.09.05.75.08,1.49.12,2.24,0,.15.06.31.04.46-.18,1.04.07,2.06.16,3.08.07.76.22,1.53.02,2.31-.19.73.2,1.23.89,1.23,1.06,0,2.12-.04,3.18-.05.41,0,.85-.03,1.23.07,1.33.36,2.63.11,3.92-.17.7-.15,1.38-.42,2.07-.64.66-.21,1.18-.61,1.6-1.16.32-.42.12-.84.13-1.27.02-.63-.31-.97-.86-1.13-1.56-.45-3.14-.31-4.69-.05-1.12.19-2.21.52-3.31.8-.3.08-.58.22-.88.26-.55.08-.71-.03-.78-.59-.09-.72-.15-1.44-.18-2.17-.06-1.36-.23-2.71-.14-4.1.12-1.98-.02-3.98-.05-5.97,0-.52-.05-1.03-.06-1.55-.01-1,.05-2.01-.04-3-.07-.81-.05-1.59.15-2.38.29-1.15.28-1.16-.33-2.17.16-.16.32-.35.51-.51.29-.25.6-.48.89-.74.52-.46.97-1,1.54-1.39,1.12-.78,1.81-1.97,2.8-2.87.11-.1.18-.25.26-.38.64-1,1.27-2,1.9-3,.5-.81,1-1.62,1.48-2.44.19-.33.31-.72.5-1.05.8-1.41,1.34-2.91,1.67-4.49.1-.5.11-1.03.24-1.52.41-1.46.66-2.91.27-4.41-.07-.26-.01-.56,0-.85.02-.31.08-.61.07-.92-.02-.91-.09-1.81-.08-2.72.01-1.18.12-2.37.12-3.55,0-1.55-.07-3.1-.12-4.65,0-.08-.04-.17,0-.23.4-.94.21-1.95.25-2.92.06-1.55.27-3.12-.03-4.67-.02-.1.03-.2.04-.31.08-1.14.18-2.27.21-3.41.04-1.5-.03-3,.02-4.5.05-1.52.19-3.05.28-4.57.03-.51.04-1.03.05-1.54.02-.96.05-1.91.06-2.87.01-1.29-.24-2.58.19-3.85.05-.14.05-.31.05-.46.03-1.19.25-2.34.44-3.51.04-.25,0-.51.03-.77.04-.64-.09-1.38.18-1.91.35-.69.54-1.37.68-2.1.04-.19.17-.38.29-.55.8-1.11,1.58-2.25,2.45-3.3.48-.59,1.06-1.19,1.73-1.53,1.21-.61,2.35-1.35,3.64-1.81,1.09-.39,2.12-.95,3.17-1.44.84-.39,1.74-.69,2.51-1.2.62-.41,1.27-.77,1.9-1.16.22-.13.41-.32.62-.46.59-.41,1.17-.82,1.76-1.22.19-.13.42-.22.58-.37.76-.69,1.49-1.42,2.25-2.11.95-.87,1.78-1.85,2.5-2.92.69-1.03,1.36-2.07,2.03-3.12.49-.75,1.13-1.39,1.46-2.26.27-.72.73-1.36,1.06-2.06.7-1.53,1.36-3.07,2.05-4.61.42-.94.92-1.86,1.27-2.83.79-2.19,1.5-4.41,2.27-6.61.32-.94.48-1.93.96-2.82.44-.82.48-1.79,1-2.6.42-.65.76-1.35,1.09-2.05.28-.58.5-1.19.74-1.79.75-1.86,1.38-3.78,2.85-5.26.11-.11.18-.25.27-.37.64-.81,1.22-1.68,1.93-2.43,1.15-1.22,2.32-2.42,3.37-3.74.27-.34.65-.58.99-.86.47-.39.97-.76,1.43-1.17.81-.72,1.29-1.67,1.78-2.62.12-.24.33-.44.48-.67.13-.18.26-.37.36-.57.26-.57.42-1.18.75-1.7.5-.79.93-1.6,1.25-2.48.62-1.7,1.29-3.38,1.93-5.07.09-.24.13-.5.2-.75.5-1.7.44-3.48.74-5.22.11-.63.09-1.29.13-1.93.02-.34-.08-.61-.43-.74-.63-.23-1.19.12-1.29.78-.29,1.89-.59,3.79-.91,5.68-.25,1.46-.57,2.9-1.29,4.21-.09.16-.21.29-.36.5-.03-.17-.05-.22-.05-.27-.04-1.38.51-2.64.92-3.91.3-.93.22-1.79-.16-2.64-.12-.26-.37-.5-.62-.67-.52-.35-.88-.22-1.05.39-.29,1.07-.53,2.16-.78,3.24-.18.76-.33,1.52-.5,2.28-.05.25-.14.51-.14.76-.02.87-.24,1.68-.55,2.49-.22.58-.46,1.17-.58,1.77-.17.89-.59,1.66-1.01,2.42-.24.44-.53.87-1.13,1.11-.16-.44-.35-.84-.45-1.26-.38-1.48-.31-2.98-.17-4.48.05-.58,0-.83-.36-1.01-.34-.17-.8-.09-1.13.27-.2.22-.39.49-.49.78-.21.59-.37,1.19-.51,1.79-.08.35-.07.72-.08,1.08,0,.83.12,1.67,0,2.48-.28,1.83-.83,3.57-1.92,5.11-.16.23-.29.49-.39.76-.56,1.43-1.25,2.78-1.97,4.13-.47.88-.89,1.77-1.43,2.62-.75,1.19-1.29,2.53-1.88,3.82-.86,1.88-1.7,3.78-2.52,5.68-.29.66-.47,1.37-.73,2.04-.6,1.54-1.17,3.1-1.85,4.61-.79,1.74-1.29,3.61-2.46,5.17-.08.1-.12.23-.15.35-.32,1.25-1.02,2.32-1.69,3.38-.6.95-1.13,1.96-1.86,2.84-.52.63-.89,1.38-1.35,2.06-.4.6-.79,1.21-1.26,1.76-.56.67-1.26,1.22-1.78,1.92-.83,1.1-1.73,2.12-2.77,3.01-1,.85-1.97,1.78-3.22,2.26-1.35.51-2.73.95-4.1,1.41-.29.1-.61.13-.9.22-1.59.5-3.18.96-4.87.71-.15-.02-.31.01-.46,0-.87-.12-1.78-.18-2.25-1.08-.27-.52-.63-.94-1.13-1.09.05-1.12.09-2.18.14-3.23.05-1.09.15-2.17.16-3.26.02-2.01,0-4.02,0-6.03,0-1.16,0-2.33.03-3.49.04-1.58.13-3.16.15-4.73.02-1.58-.08-3.15.07-4.73.04-.46-.01-.93,0-1.39.01-.33.03-.67.1-1,.37-1.58.55-3.16.26-4.77-.03-.17-.02-.35,0-.53.24-1.84.43-3.68.38-5.55-.02-.67.05-1.38.32-2.01,1.46.07,1.93-.35,1.93-1.79,0-.64-.07-1.29-.21-1.92-.19-.83-.48-1.63-.73-2.45-.19-.61-.39-1.23-.6-1.83-.08-.24-.2-.47-.29-.71-.5-1.3-1-2.61-1.5-3.91-.13-.33-.24-.67-.36-1-.42-1.11-.83-2.22-1.28-3.32-.43-1.05-1.07-1.99-1.65-2.96-.91-1.5-1.78-3.02-2.93-4.37-.28-.33-.61-.65-.83-1.02-.54-.93-1.31-1.66-2.06-2.39-.6-.59-1.26-1.13-1.9-1.68-.57-.49-1.12-1-1.73-1.43-.95-.67-1.93-1.28-2.91-1.91-.35-.22-.68-.49-1.06-.63-.62-.23-1.18-.55-1.64-1.01-.82-.82-1.92-1.09-2.94-1.48-1.05-.41-2.18-.62-3.28-.92-.86-.24-.89-.32-.94-1.23-.09-1.5-.22-2.99-.35-4.49-.01-.15-.07-.3-.1-.46-.12-.78-.61-1.17-1.37-1.24-.85-.08-1.7-.15-2.55-.22-.41-.04-.83-.04-1.23-.13-1.25-.27-2.5-.26-3.77-.14-1.35.13-2.72.26-4.09-.05-.65-.15-1.34-.16-2.01-.16-.64,0-.82.25-.82.88,0,1.53,0,3.06,0,4.59,0,.56-.07,1.12-.32,1.65-.47,0-.91-.03-1.35,0-.46.04-.93.07-1.35.22-1.16.42-2.3.91-3.45,1.35-1.18.45-2.36.91-3.38,1.69-.76.58-1.54,1.13-2.29,1.73-1.13.9-2.31,1.76-3.33,2.77-.95.94-1.95,1.84-2.78,2.92-.35.46-.73.92-1.12,1.36-.57.63-1.21,1.19-1.78,1.82-.66.73-1.22,1.52-1.6,2.45-.21.51-.59.97-.96,1.4-.8.93-1.8,1.71-2.21,2.93-.03.09-.11.17-.18.24-.56.61-1.02,1.31-1.26,2.1-.55,1.83-1.06,3.67-1.59,5.52-.18.62-.3,1.26-.51,1.87-.46,1.32-.88,2.65-1,4.05-.12,1.36.21,2.63.77,3.83.3.64.87.87,1.47.49.26-.17.55-.29.93-.09-.11,1.03-.27,2.05-.32,3.08-.12,2.48-.11,4.96.2,7.44.25,2,.29,4.03.42,6.05.04.62.06,1.24.09,1.86.05.9.08,1.81.14,2.71.09,1.36-.13,2.75.37,4.08.03.09.03.2.02.3-.07,1.14-.02,2.27.09,3.41.14,1.41.09,2.84.12,4.26.02,1.11,0,2.23.05,3.34.04.96.16,1.91.23,2.86,0,.1,0,.21-.01.31-.02.51-.07,1.02-.06,1.53.02.96.09,1.91.11,2.87.01.57-.2,1.01-.83,1.13-.2.04-.4.13-.6.16-.65.08-1.29.46-1.96.1-.56.37-1.1.04-1.63-.09-1.26-.29-2.47-.73-3.58-1.4-.79-.48-1.51-1.07-2.27-1.61-.19-.13-.38-.28-.59-.37-1.37-.59-2.43-1.54-3.28-2.75-.41-.59-.77-1.23-1.23-1.78-.97-1.14-1.49-2.57-2.46-3.73-.51-.61-.84-1.36-1.28-2.03-1.06-1.61-2.22-3.16-3.15-4.87-.49-.9-1.12-1.73-1.6-2.65-.39-.76-.91-1.45-1.23-2.23-.35-.84-.74-1.65-1.3-2.37-.17-.22-.28-.5-.41-.75-.58-1.12-1.12-2.27-1.91-3.27-.16-.2-.27-.43-.38-.66-.36-.74-.72-1.49-1.06-2.24-.71-1.55-1.44-3.09-2.12-4.66-.53-1.23-.82-2.55-1.48-3.73-.26-.47-.47-.98-.66-1.49-.16-.41-.22-.85-.39-1.25-.17-.4-.48-.74-.65-1.14-.36-.86-.68-1.73-1-2.61-.27-.75-.43-1.55-.77-2.27-.62-1.31-.87-2.7-1.06-4.11-.03-.23-.03-.47,0-.7.23-1.56.46-3.12.7-4.68.09-.57.24-1.09.72-1.5.2-.17.27-.49.39-.74.17-.35.26-.75.49-1.04.59-.75,1.25-1.44,1.86-2.18.19-.23.4-.5.46-.79.18-.75.31-1.52.42-2.29.08-.55,0-1.09-.35-1.56-.34-.45-.65-.93-1.06-1.32-.79-.77-1.56-1.61-2.7-1.88-.63-.15-1.28-.29-1.91-.29-1.24.01-2.42.3-3.24,1.36-.33.42-.51.96-1.02,1.25-.08.05-.13.24-.11.35.07.44-.09.8-.3,1.17-.11.2-.21.44-.2.66.04.53-.01,1.05-.04,1.58-.05.94.18,1.89.34,2.84.13.79.32,1.57.5,2.35.25,1.11.43,2.24.8,3.31.33.97.35,2.06,1.03,2.91.03.04.02.1.03.15.16.73.3,1.47.48,2.2.24.95.51,1.89.77,2.84.13.5.27.99.39,1.49.12.53.2,1.06.35,1.59.26.94.58,1.87.82,2.82.27,1.07.4,2.18.87,3.21.19.42.23.9.33,1.35.03.15.04.31.09.45.44,1.12.87,2.25,1.35,3.36.37.85.8,1.66,1,2.58.11.51.47.97.72,1.45.7,1.35,1.4,2.71,2.09,4.06.14.28.32.56.37.85.12.83.57,1.49,1.02,2.16.66.98.98,2.17,1.81,3.06.02.02.02.05.03.07.42.83.83,1.66,1.26,2.48.87,1.67,1.97,3.2,2.78,4.91.09.19.21.36.33.53.96,1.34,1.91,2.69,2.91,4,.39.51.86.96.99,1.62,0,.05.04.09.07.14.89,1.26,1.78,2.51,2.68,3.77.07.1.18.19.29.26.78.53,1.34,1.27,1.89,2.02.49.66,1.01,1.29,1.52,1.94.08.1.16.2.24.3,1.12,1.4,2.41,2.61,3.84,3.7.71.54,1.67.74,2.12,1.62.02.04.08.07.12.09.56.3,1.12.62,1.69.9.66.33,1.29.66,1.9,1.13,1.54,1.18,3.01,2.43,4.33,3.86.17.18.39.35.63.43.5.18.63.5.62,1.01,0,.9.06,1.81.11,2.71.04.67.1,1.34.13,2.01.08,1.68.15,3.36.22,5.04.05,1.23.12,2.47.15,3.7.04,1.63.03,3.26.08,4.89.04,1.19.17,2.37.23,3.56.03.54-.06,1.09-.02,1.63.08,1.42.19,2.84.13,4.26,0,.26.03.52.05.78.05.62.18,1.24.14,1.85-.04.64.32,1.19.24,1.86-.13,1.12-.03,2.27-.05,3.4-.02,1.06-.11,2.12-.09,3.18.03,1.46.2,2.92.19,4.38,0,1.55-.07,3.11-.26,4.64-.18,1.45.04,2.84.32,4.24.16.79.23,1.64.6,2.32.54.99.65,2.07.92,3.11.23.89.56,1.73,1,2.5.6,1.05,1.29,2.04,1.82,3.13.11.22.31.4.47.6.14.18.29.36.43.54.2.26.39.54.61.78.68.73,1.38,1.46,2.07,2.18.43.44.86.87,1.3,1.3.05.05.13.1.17.16.84,1.1,1.93,1.94,3.12,2.59.86.48,1.36.95,1.31,2-.04.97.15,1.95.17,2.93.03,1.99-.03,3.99.01,5.99.04,1.86.13,3.72.23,5.57.06,1.22.17,2.43.25,3.64.04.62-.11.86-.69.89-1.15.06-2.3.2-3.47.02-1.38-.21-2.78-.26-4.17-.35-.28-.02-.58,0-.85.08-.47.13-.83.42-.94.93-.2.94.67,2.39,1.57,2.46.41.03.83.08,1.23.18,1.13.29,2.27.19,3.4.08,1.26-.12,2.51-.33,3.75-.55.39-.07.77-.28,1.11-.49.51-.3.95-.71,1.47-.97.48-.24.62-.57.6-1.06-.03-.8-.04-1.61-.07-2.41,0-.23.04-.5-.05-.69-.25-.47-.15-.96-.15-1.44,0-.28,0-.57-.04-.84-.2-1.04-.43-2.08-.64-3.11-.04-.2-.04-.41-.04-.61,0-.49.03-.97,0-1.46-.03-.7-.13-1.39-.14-2.09-.02-1.55,0-3.09.01-4.64,0-.69.07-1.37.11-2.1,1.17.17,2.25.32,3.31.5.76.13.84.2.89.93.09,1.21.3,2.4.25,3.62-.08,1.96-.09,3.93-.12,5.9-.02.78-.09,1.55-.04,2.33.06,1.06.08,2.12-.07,3.17-.06.4-.03.82,0,1.22.03.57.28,1.22.07,1.68-.35.77-.59,1.62-1.12,2.29-.36.46-.84.85-1.33,1.17-1.54,1-3.11,1.95-4.66,2.92-.42.26-.84.52-1.23.8-.44.32-.38.79-.24,1.21.12.37.41.72.85.68.63-.05,1.08.24,1.56.57.18.13.46.28.63.22.63-.2,1.27-.36,1.77-.89.8-.87,1.69-1.66,2.67-2.34.39-.27.78-.62,1.05-1.01.72-1.07,1.39-2.18,1.87-3.38.1-.25.1-.55.1-.83-.01-1.01-.02-2.02-.08-3.02-.06-.98.19-1.97-.16-2.93-.06-.16-.02-.36,0-.54.03-.54.08-1.07.12-1.61.02-.23.02-.46.04-.7.05-.64.14-1.29.15-1.93.03-1.27.02-2.54.04-3.81.02-1.21.12-2.43-.13-3.63-.08-.41-.08-.8.07-1.09,1.06.17,2.05.33,3.04.48.63.09.83.26.84.9,0,1.73.1,3.46.13,5.19.05,2.74-.09,5.49-.15,8.23-.04,1.74.11,3.46.3,5.19.11,1.01.17,2.03-.75,2.78-.1.08-.14.22-.22.32-.54.66-1.06,1.33-1.63,1.96-.47.51-1.05.92-1.5,1.45-.8.94-1.52,1.95-2.3,2.92-.23.28-.22.56-.16.88.12.65.62.86,1.13,1.14,1.13.64,2.15.22,3.17-.21.3-.13.55-.48.74-.78.42-.67,1.03-1.21,1.22-2.04.19-.83.43-1.66.78-2.43.34-.77.86-1.47,1.27-2.21.34-.61.89-1.19.39-1.97-.06-.1-.02-.25-.03-.38-.14-1.68-.3-3.35-.42-5.03-.04-.54,0-1.08,0-1.61,0-.26-.04-.52-.05-.77-.03-.64-.18-1.32-.04-1.92.34-1.49.16-3,.28-4.49.12-1.46.03-2.93.05-4.4,0-.66.04-1.32.06-1.94,1.8-.07,3.53-.13,5.35-.2Z"/><path d="m81.14,180.23c-1.82.07-3.54.13-5.35.2-.02.62-.05,1.28-.06,1.94-.01,1.47.08,2.94-.05,4.4-.12,1.49.05,3-.28,4.49-.14.61.02,1.28.04,1.92.01.26.05.52.05.77,0,.54-.04,1.08,0,1.61.12,1.68.28,3.35.42,5.03.01.13-.03.29.03.38.5.79-.05,1.36-.39,1.97-.41.74-.92,1.44-1.27,2.21-.34.77-.59,1.6-.78,2.43-.19.83-.8,1.37-1.22,2.04-.19.3-.44.65-.74.78-1.02.42-2.05.84-3.17.21-.51-.29-1.02-.5-1.13-1.14-.06-.31-.06-.59.16-.88.78-.96,1.5-1.97,2.3-2.92.45-.53,1.03-.94,1.5-1.45.57-.63,1.09-1.3,1.63-1.96.08-.1.13-.24.22-.32.92-.75.86-1.78.75-2.78-.19-1.73-.34-3.45-.3-5.19.06-2.74.2-5.49.15-8.23-.03-1.73-.13-3.46-.13-5.19,0-.63-.21-.8-.84-.9-.99-.15-1.98-.31-3.04-.48-.14.29-.15.68-.07,1.09.25,1.2.15,2.42.13,3.63-.02,1.27,0,2.54-.04,3.81-.02.65-.1,1.29-.15,1.93-.02.23-.02.46-.04.7-.04.54-.08,1.07-.12,1.61-.01.18-.05.38,0,.54.35.96.1,1.96.16,2.93.06,1.01.07,2.01.08,3.02,0,.28,0,.58-.1.83-.49,1.2-1.15,2.31-1.87,3.38-.27.39-.65.74-1.05,1.01-.98.68-1.87,1.47-2.67,2.34-.49.53-1.13.7-1.77.89-.17.05-.45-.1-.63-.22-.47-.33-.93-.62-1.56-.57-.44.03-.73-.31-.85-.68-.14-.41-.19-.89.24-1.21.4-.29.82-.54,1.23-.8,1.55-.97,3.12-1.92,4.66-2.92.49-.32.97-.71,1.33-1.17.53-.67.77-1.52,1.12-2.29.2-.46-.05-1.11-.07-1.68-.02-.41-.05-.82,0-1.22.16-1.06.14-2.11.07-3.17-.04-.77.03-1.55.04-2.33.04-1.97.05-3.93.12-5.9.05-1.22-.16-2.42-.25-3.62-.05-.73-.13-.8-.89-.93-1.07-.18-2.14-.33-3.31-.5-.04.74-.1,1.42-.11,2.1-.02,1.55-.03,3.09-.01,4.64,0,.7.11,1.39.14,2.09.02.49-.01.97,0,1.46,0,.21,0,.41.04.61.21,1.04.44,2.07.64,3.11.05.27.04.56.04.84,0,.49-.1.97.15,1.44.1.19.05.46.05.69.02.8.04,1.61.07,2.41.02.48-.13.82-.6,1.06-.52.26-.97.67-1.47.97-.35.21-.72.42-1.11.49-1.24.22-2.5.43-3.75.55-1.13.11-2.27.21-3.4-.08-.4-.1-.81-.15-1.23-.18-.9-.07-1.77-1.51-1.57-2.46.11-.51.47-.8.94-.93.27-.08.57-.1.85-.08,1.39.1,2.8.14,4.17.35,1.17.18,2.32.04,3.47-.02.58-.03.73-.27.69-.89-.08-1.21-.19-2.43-.25-3.64-.09-1.86-.19-3.72-.23-5.57-.04-1.99.02-3.99-.01-5.99-.01-.98-.21-1.96-.17-2.93.05-1.05-.45-1.52-1.31-2-1.18-.65-2.27-1.49-3.12-2.59-.05-.06-.12-.1-.17-.16-.43-.43-.87-.86-1.3-1.3-.7-.72-1.39-1.44-2.07-2.18-.22-.24-.41-.52-.61-.78-.14-.18-.29-.36-.43-.54-.16-.2-.36-.38-.47-.6-.52-1.1-1.22-2.09-1.82-3.13-.44-.77-.76-1.61-1-2.5-.27-1.04-.38-2.12-.92-3.11-.37-.68-.43-1.54-.6-2.32-.29-1.4-.5-2.79-.32-4.24.19-1.54.25-3.09.26-4.64,0-1.46-.16-2.92-.19-4.38-.02-1.06.08-2.12.09-3.18.02-1.13-.08-2.28.05-3.4.08-.67-.28-1.21-.24-1.86.04-.61-.09-1.23-.14-1.85-.02-.26-.06-.52-.05-.78.05-1.42-.05-2.84-.13-4.26-.03-.54.05-1.09.02-1.63-.06-1.19-.19-2.37-.23-3.56-.06-1.63-.04-3.26-.08-4.89-.03-1.23-.1-2.47-.15-3.7-.07-1.68-.14-3.36-.22-5.04-.03-.67-.09-1.34-.13-2.01-.05-.9-.12-1.81-.11-2.71,0-.51-.12-.83-.62-1.01-.23-.08-.46-.25-.63-.43-1.32-1.43-2.79-2.68-4.33-3.86-.6-.46-1.24-.79-1.9-1.13-.57-.29-1.13-.6-1.69-.9-.05-.02-.1-.05-.12-.09-.45-.87-1.41-1.08-2.12-1.62-1.43-1.09-2.73-2.3-3.84-3.7-.08-.1-.16-.2-.24-.3-.51-.64-1.03-1.28-1.52-1.94-.55-.75-1.11-1.49-1.89-2.02-.11-.07-.22-.16-.29-.26-.9-1.25-1.79-2.51-2.68-3.77-.03-.04-.06-.09-.07-.14-.13-.66-.6-1.11-.99-1.62-1.01-1.31-1.95-2.66-2.91-4-.12-.17-.24-.34-.33-.53-.81-1.7-1.92-3.24-2.78-4.91-.43-.82-.84-1.65-1.26-2.48-.01-.02-.01-.05-.03-.07-.83-.89-1.15-2.07-1.81-3.06-.45-.67-.9-1.32-1.02-2.16-.04-.3-.22-.58-.37-.85-.69-1.36-1.39-2.71-2.09-4.06-.25-.48-.6-.94-.72-1.45-.2-.92-.63-1.73-1-2.58-.48-1.11-.91-2.24-1.35-3.36-.06-.14-.06-.3-.09-.45-.1-.45-.14-.94-.33-1.35-.46-1.03-.59-2.13-.87-3.21-.24-.95-.56-1.87-.82-2.82-.14-.52-.22-1.06-.35-1.59-.12-.5-.26-.99-.39-1.49-.26-.95-.53-1.89-.77-2.84-.18-.73-.32-1.47-.48-2.2-.01-.05,0-.12-.03-.15-.68-.85-.7-1.94-1.03-2.91-.36-1.07-.55-2.2-.8-3.31-.18-.78-.36-1.56-.5-2.35-.16-.94-.4-1.9-.34-2.84.03-.53.08-1.04.04-1.58-.01-.22.09-.46.2-.66.21-.37.38-.73.3-1.17-.02-.11.03-.3.11-.35.5-.29.69-.83,1.02-1.25.83-1.06,2-1.34,3.24-1.36.64,0,1.29.14,1.91.29,1.14.27,1.91,1.11,2.7,1.88.4.39.72.87,1.06,1.32.34.46.43,1,.35,1.56-.11.77-.24,1.53-.42,2.29-.07.28-.27.56-.46.79-.61.73-1.27,1.43-1.86,2.18-.23.29-.33.7-.49,1.04-.12.26-.2.57-.39.74-.48.4-.63.93-.72,1.5-.24,1.56-.48,3.12-.7,4.68-.03.23-.03.47,0,.7.19,1.41.43,2.8,1.06,4.11.34.72.5,1.52.77,2.27.31.88.64,1.75,1,2.61.17.4.47.74.65,1.14.17.4.24.84.39,1.25.19.51.4,1.01.66,1.49.66,1.18.95,2.5,1.48,3.73.67,1.57,1.4,3.11,2.12,4.66.35.75.7,1.5,1.06,2.24.11.23.22.46.38.66.79,1,1.33,2.14,1.91,3.27.13.25.23.53.41.75.57.72.95,1.52,1.3,2.37.33.78.84,1.47,1.23,2.23.47.92,1.11,1.75,1.6,2.65.93,1.71,2.09,3.25,3.15,4.87.44.67.77,1.42,1.28,2.03.96,1.15,1.48,2.58,2.46,3.73.47.55.82,1.19,1.23,1.78.84,1.21,1.91,2.16,3.28,2.75.21.09.4.24.59.37.76.54,1.48,1.13,2.27,1.61,1.1.67,2.32,1.11,3.58,1.4.53.12,1.06.46,1.63.09.67.36,1.31-.02,1.96-.1.2-.02.4-.12.6-.16.63-.12.85-.56.83-1.13-.02-.96-.09-1.91-.11-2.87-.01-.51.03-1.02.06-1.53,0-.1.02-.21.01-.31-.08-.95-.19-1.91-.23-2.86-.05-1.11-.03-2.23-.05-3.34-.03-1.42.02-2.85-.12-4.26-.11-1.14-.16-2.27-.09-3.41,0-.1.01-.21-.02-.3-.5-1.33-.28-2.72-.37-4.08-.06-.9-.09-1.81-.14-2.71-.03-.62-.06-1.24-.09-1.86-.13-2.02-.17-4.04-.42-6.05-.31-2.48-.32-4.96-.2-7.44.05-1.03.21-2.05.32-3.08-.39-.19-.67-.07-.93.09-.6.38-1.18.15-1.47-.49-.56-1.2-.88-2.47-.77-3.83.12-1.41.54-2.73,1-4.05.21-.61.33-1.25.51-1.87.52-1.84,1.04-3.68,1.59-5.52.24-.8.69-1.49,1.26-2.1.07-.07.15-.15.18-.24.41-1.23,1.41-2,2.21-2.93.37-.43.75-.89.96-1.4.38-.93.94-1.72,1.6-2.45.57-.63,1.21-1.19,1.78-1.82.39-.44.77-.9,1.12-1.36.83-1.08,1.82-1.98,2.78-2.92,1.03-1.01,2.2-1.87,3.33-2.77.75-.6,1.53-1.15,2.29-1.73,1.02-.78,2.2-1.24,3.38-1.69,1.16-.44,2.29-.93,3.45-1.35.42-.15.9-.18,1.35-.22.43-.04.87,0,1.35,0,.25-.53.31-1.09.32-1.65.01-1.53,0-3.06,0-4.59,0-.63.18-.87.82-.88.67,0,1.36.01,2.01.16,1.37.31,2.74.18,4.09.05,1.28-.12,2.52-.13,3.77.14.4.09.82.09,1.23.13.85.08,1.7.14,2.55.22.76.07,1.25.46,1.37,1.24.02.15.08.3.1.46.12,1.5.26,2.99.35,4.49.05.91.08.99.94,1.23,1.09.3,2.22.51,3.28.92,1.02.39,2.11.66,2.94,1.48.46.46,1.02.78,1.64,1.01.38.14.71.41,1.06.63.97.63,1.96,1.24,2.91,1.91.61.43,1.16.94,1.73,1.43.64.55,1.29,1.09,1.9,1.68.75.74,1.52,1.46,2.06,2.39.22.37.55.69.83,1.02,1.14,1.34,2.02,2.87,2.93,4.37.59.97,1.22,1.91,1.65,2.96.45,1.1.86,2.21,1.28,3.32.13.33.24.67.36,1,.5,1.3,1,2.61,1.5,3.91.09.24.21.47.29.71.21.61.41,1.22.6,1.83.25.81.54,1.62.73,2.45.14.62.21,1.28.21,1.92,0,1.44-.48,1.86-1.93,1.79-.27.63-.34,1.34-.32,2.01.05,1.87-.14,3.71-.38,5.55-.02.17-.03.36,0,.53.29,1.61.11,3.19-.26,4.77-.08.32-.09.66-.1,1-.01.46.04.93,0,1.39-.15,1.58-.05,3.15-.07,4.73-.02,1.58-.11,3.16-.15,4.73-.03,1.16-.03,2.33-.03,3.49,0,2.01.03,4.02,0,6.03-.01,1.09-.11,2.17-.16,3.26-.05,1.05-.09,2.11-.14,3.23.5.15.86.57,1.13,1.09.47.91,1.38.97,2.25,1.08.15.02.31-.02.46,0,1.7.25,3.29-.21,4.87-.71.29-.09.61-.12.9-.22,1.37-.46,2.75-.89,4.1-1.41,1.25-.48,2.22-1.41,3.22-2.26,1.05-.89,1.94-1.91,2.77-3.01.52-.69,1.22-1.25,1.78-1.92.46-.55.86-1.16,1.26-1.76.46-.68.83-1.43,1.35-2.06.73-.88,1.26-1.88,1.86-2.84.67-1.06,1.37-2.13,1.69-3.38.03-.12.08-.25.15-.35,1.17-1.56,1.67-3.43,2.46-5.17.68-1.51,1.25-3.06,1.85-4.61.26-.67.44-1.38.73-2.04.82-1.9,1.66-3.79,2.52-5.68.59-1.29,1.12-2.63,1.88-3.82.54-.85.96-1.74,1.43-2.62.72-1.35,1.42-2.71,1.97-4.13.1-.26.23-.53.39-.76,1.09-1.54,1.64-3.28,1.92-5.11.12-.81,0-1.65,0-2.48,0-.36,0-.73.08-1.08.13-.61.3-1.21.51-1.79.1-.28.29-.55.49-.78.33-.36.78-.44,1.13-.27.35.18.41.43.36,1.01-.14,1.5-.21,3,.17,4.48.11.42.29.82.45,1.26.59-.23.88-.67,1.13-1.11.43-.77.85-1.53,1.01-2.42.11-.61.36-1.19.58-1.77.3-.81.53-1.62.55-2.49,0-.25.09-.51.14-.76.16-.76.32-1.52.5-2.28.25-1.08.5-2.17.78-3.24.16-.61.53-.74,1.05-.39.25.17.5.4.62.67.38.85.45,1.7.16,2.64-.4,1.27-.96,2.53-.92,3.91,0,.05.02.1.05.27.15-.21.28-.35.36-.5.71-1.32,1.04-2.76,1.29-4.21.33-1.89.62-3.78.91-5.68.1-.66.66-1.01,1.29-.78.35.13.45.39.43.74-.04.65-.02,1.3-.13,1.93-.29,1.73-.24,3.51-.74,5.22-.07.25-.11.51-.2.75-.64,1.69-1.32,3.37-1.93,5.07-.32.88-.75,1.69-1.25,2.48-.33.52-.49,1.14-.75,1.7-.09.2-.23.39-.36.57-.16.23-.36.43-.48.67-.49.95-.97,1.9-1.78,2.62-.46.41-.96.78-1.43,1.17-.34.28-.72.53-.99.86-1.05,1.32-2.22,2.51-3.37,3.74-.7.75-1.29,1.61-1.93,2.43-.1.12-.17.27-.27.37-1.46,1.48-2.1,3.4-2.85,5.26-.24.6-.46,1.21-.74,1.79-.33.7-.67,1.4-1.09,2.05-.52.8-.56,1.78-1,2.6-.48.89-.63,1.88-.96,2.82-.76,2.2-1.47,4.42-2.27,6.61-.35.97-.85,1.88-1.27,2.83-.69,1.53-1.35,3.08-2.05,4.61-.32.7-.78,1.34-1.06,2.06-.33.87-.97,1.51-1.46,2.26-.67,1.04-1.34,2.08-2.03,3.12-.71,1.07-1.54,2.05-2.5,2.92-.76.69-1.49,1.41-2.25,2.11-.17.15-.39.24-.58.37-.59.4-1.18.81-1.76,1.22-.21.15-.4.33-.62.46-.63.39-1.28.75-1.9,1.16-.76.51-1.67.81-2.51,1.2-1.05.49-2.08,1.05-3.17,1.44-1.29.46-2.43,1.2-3.64,1.81-.67.33-1.24.94-1.73,1.53-.87,1.06-1.64,2.19-2.45,3.3-.12.17-.25.35-.29.55-.14.73-.32,1.42-.68,2.1-.27.53-.14,1.26-.18,1.91-.02.26.01.52-.03.77-.19,1.16-.41,2.32-.44,3.51,0,.15,0,.32-.05.46-.43,1.27-.18,2.56-.19,3.85,0,.96-.04,1.91-.06,2.87-.01.51-.02,1.03-.05,1.54-.09,1.52-.23,3.04-.28,4.57-.05,1.5.02,3-.02,4.5-.03,1.14-.14,2.27-.21,3.41,0,.1-.06.21-.04.31.3,1.55.1,3.12.03,4.67-.04.97.15,1.98-.25,2.92-.03.06,0,.15,0,.23.04,1.55.11,3.1.12,4.65,0,1.18-.11,2.37-.12,3.55,0,.91.06,1.81.08,2.72,0,.31-.06.61-.07.92-.01.28-.07.58,0,.85.39,1.51.14,2.96-.27,4.41-.14.49-.14,1.02-.24,1.52-.33,1.58-.87,3.08-1.67,4.49-.19.34-.3.72-.5,1.05-.48.82-.98,1.63-1.48,2.44-.63,1.01-1.27,2-1.9,3-.08.13-.15.28-.26.38-.99.9-1.67,2.09-2.8,2.87-.56.39-1.02.93-1.54,1.39-.29.26-.6.48-.89.74-.19.16-.35.35-.51.51.6,1.01.61,1.01.33,2.17-.2.79-.22,1.57-.15,2.38.09.99.03,2,.04,3,0,.52.05,1.03.06,1.55.03,1.99.17,3.99.05,5.97-.09,1.38.08,2.73.14,4.1.03.72.09,1.45.18,2.17.07.55.23.67.78.59.3-.04.59-.19.88-.26,1.1-.28,2.19-.62,3.31-.8,1.56-.26,3.14-.4,4.69.05.55.16.88.5.86,1.13-.01.43.19.85-.13,1.27-.43.55-.94.95-1.6,1.16-.69.22-1.37.49-2.07.64-1.29.28-2.59.53-3.92.17-.39-.11-.82-.08-1.23-.07-1.06,0-2.12.06-3.18.05-.69,0-1.08-.5-.89-1.23.2-.78.05-1.55-.02-2.31-.09-1.03-.34-2.04-.16-3.08.03-.15-.03-.3-.04-.46-.04-.75-.08-1.49-.12-2.24-.05-.7-.12-1.39-.16-2.09-.06-1.03-.16-2.07-.12-3.1.06-1.66-.23-3.3-.3-4.94-.04-1.09.02-2.17.03-3.26,0-.14-.02-.29-.03-.5-1.15.64-2.22,1.23-3.29,1.83-.17.1-.32.25-.51.41.4.8.39,1.64.37,2.5-.02,1.04.02,2.07,0,3.11,0,.57-.09,1.13-.12,1.7-.02.46-.03.92-.02,1.38,0,.51.03,1.03.04,1.54.01.57.01,1.13.02,1.7,0,.13,0,.26,0,.39-.05,1.55-.12,3.1-.15,4.65-.02.88.03,1.76.05,2.63,0,.15.06.3.06.29.94.54,1.77.98,2.57,1.49.43.27.76.7,1.18.98,1.42.95,2.6,2.18,3.89,3.28.58.49.55,1.01-.04,1.47-.77.6-1.65.69-2.58.54-.1-.02-.2-.07-.27-.14-.72-.74-1.68-1.08-2.56-1.54-.59-.31-1.21-.6-1.53-1.26-.06-.13-.2-.25-.32-.33-.95-.65-1.37-1.65-1.78-2.66-.11-.26-.15-.57-.32-.79-.37-.48-.36-1-.35-1.55.03-1.92.04-3.83.06-5.75.03-2.33.06-4.67.09-7,.02-1.58.03-3.16.03-4.73,0-.3-.08-.6-.11-.87-1.18.3-2.3.61-3.42.87-.67.16-1.34.35-2.03-.03-.22-.12-.55-.06-.85-.08-.19.64-.15,1.23-.11,1.82.08,1,.19,2.01.19,3.01,0,2.22.06,4.44.26,6.66,0,.05.04.12.02.15-.52.9.03,1.77.12,2.64.07.72.14,1.43.09,2.16-.08,1.14-.06,2.28-.06,3.42,0,.16.09.34.18.49.19.3.47.57.62.89.8,1.73,2.15,3.01,3.41,4.38.67.72,1.03,1.66,1.27,2.63.03.13.07.25.1.38.2.67-.01,1.11-.69,1.25-1.39.3-2.61.04-3.58-1.09-.56-.65-.99-1.38-1.38-2.14-.61-1.17-1.24-2.32-1.58-3.61-.06-.22-.21-.41-.35-.6-.36-.48-.39-.99-.22-1.55.1-.32.2-.65.2-.98.03-1.58.07-3.16.02-4.75-.04-1.4-.21-2.79-.27-4.18-.06-1.22-.06-2.44-.07-3.66-.01-1.19.02-2.39-.03-3.57-.05-1.05-.2-2.1-.3-3.13Zm-9.61-4.81c0-.12.03-.25.03-.37.01-1.41-.57-2.66-1.11-3.91-.4-.91-.81-1.82-1.35-2.68-.6-.96-1.16-1.92-1.95-2.74-.11-.11-.21-.23-.3-.36-.32-.44-.57-.93-.95-1.3-.37-.37-.78-.7-1.16-1.07-.8-.76-1.7-1.42-2.55-2.12-.18-.15-.34-.32-.5-.49-.9-1.02-1.9-1.97-2.52-3.21-.07-.13-.21-.22-.3-.34-.55-.79-1.09-1.63-.92-2.63.17-1,.03-1.95-.13-2.92-.16-.99-.4-1.97-.32-3,.04-.48,0-.97-.02-1.46-.02-.62-.06-1.23-.09-1.84-.04-.67-.08-1.33-.13-2-.08-1.02-.2-2.04-.25-3.07-.02-.49.13-.98.12-1.47-.02-1.06-.1-2.11-.14-3.16-.08-1.81-.15-3.62-.22-5.43-.02-.57,0-1.14-.03-1.71-.04-.9-.13-1.81-.13-2.71,0-1.34-.08-2.67.07-4.02.14-1.22.06-2.46.11-3.7.04-1.19.16-2.37.18-3.56.03-1.5,0-3,.01-4.5,0-.49.01-.98.03-1.47.04-.92.13-1.84.14-2.76,0-.93-.08-1.86-.09-2.79,0-.85.08-1.71.08-2.56-.02-2.04-.08-4.09-.09-6.13,0-.94.09-1.88.09-2.82,0-.58-.08-1.17-.1-1.75-.02-.41-.09-.85,0-1.24.12-.47.1-.91,0-1.37-.17-.87-.17-1.73-.02-2.62.16-.96.16-1.96.17-2.94.02-1.47-.04-2.95,0-4.42.02-1.07.25-2.14-.1-3.21-.06-.19-.04-.41-.07-.62-.08-.74-.17-1.48-.25-2.22-.03-.31-.08-.62-.09-.92-.05-1.27-.08-2.54-.12-3.8-.04-1.29-.16-2.59-.1-3.88.07-1.4.07-2.79-.15-4.17-.08-.55-.02-1.07.09-1.61.16-.83.33-1.67.21-2.53-.08-.53.28-1.08.73-1.09.82-.02,1.65-.02,2.47.07.65.07,1.27.15,1.92-.04.46-.14.97-.17,1.46-.17,1.92,0,3.83.06,5.75.08.62,0,1.25,0,1.86-.09,1-.13,1.99-.28,3-.03.15.04.31.03.46.05,1.42.21,2.83-.09,4.25,0,1.07.07,2.15.28,3.24.12.12-.02.26.03.39.04.53.06,1.07.16,1.6.17,1.55.04,3.11.07,4.66.06,1.06-.01,2.12-.07,3.17-.18,1.5-.15,2.98-.33,4.49-.16,1.05.12,2.11.16,3.16.28.83.1,1.57.35,1.74,1.35.03.19.2.36.27.56.08.21.15.44.16.66.02.72-.01,1.44.01,2.16.08,2.07.23,4.14.24,6.21.01,1.76.22,3.52.03,5.28-.02.2.04.41.04.62,0,.62.14,1.29-.05,1.85-.18.52-.19,1-.22,1.51-.04.59-.09,1.19-.12,1.78-.07,1.35-.15,2.69-.18,4.04-.03,1.37-.02,2.75-.01,4.12.01,1.78.05,3.57.07,5.35,0,.1.02.21,0,.31-.24.87-.01,1.75-.06,2.62-.07,1.26.34,2.48.1,3.77-.17.95-.1,1.96-.08,2.94.02,1.08.26,2.13.02,3.23-.12.56.06,1.18.05,1.77,0,.67-.08,1.34-.11,2.02-.07,1.37-.12,2.74-.18,4.11,0,.08,0,.16.02.23.28.93.07,1.85-.06,2.77-.03.2-.06.41-.06.61-.02,1.29-.02,2.59-.04,3.88-.02,1.34-.2,2.7-.07,4.02.14,1.45.02,2.89.04,4.34.01,1.03-.12,2.06-.18,3.09-.1,1.73.05,3.46-.2,5.19-.18,1.25-.2,2.53-.26,3.79-.05,1.06-.07,2.12-.12,3.17-.03.7-.11,1.39-.15,2.08-.07,1.36-.14,2.72-.19,4.08-.04,1.06-.06,2.12-.07,3.18,0,.67.06,1.34.05,2.01,0,.5.03,1.01-.31,1.46-.35.47-.63.99-.62,1.63,0,.41-.17.8-.64.98-.15.06-.28.23-.35.38-.72,1.41-1.86,2.47-2.99,3.53-.49.46-1.02.84-1.45,1.38-.78.99-1.68,1.89-2.52,2.84-.12.13-.22.27-.31.43-.37.64-.7,1.31-1.1,1.93-.86,1.33-1.47,2.78-1.95,4.28-.31.98-.57,1.98-.71,3.01-.1.77-.28,1.53-.4,2.29-.03.16.04.33.06.48.62-.18,1.18-.4,1.76-.49.75-.12,1.46-.36,2.11-.72.7-.38,1.45-.65,2.06-1.2.92-.83,1.88-1.62,2.82-2.43,1.18-1,2.37-1.99,3.55-3,.49-.42.98-.85,1.42-1.32.93-1,1.83-2.04,2.73-3.07.17-.19.31-.42.42-.65.76-1.66,1.59-3.3,2.24-5.01.58-1.53,1.24-3.06,1.39-4.73.12-1.34.37-2.67.42-4.01.05-1.29-.12-2.59.15-3.87.04-.17-.01-.36-.02-.54-.01-.57-.05-1.14-.02-1.7.05-1.08.14-2.17.2-3.25.03-.44,0-.88.04-1.32.02-.19.18-.36.29-.56-.38-.13-.3-.49-.3-.81-.03-3.34-.07-6.68-.1-10.03,0-.08,0-.16,0-.23-.11-1.37-.21-2.73-.32-4.1-.02-.26-.04-.52,0-.78.38-2.99.25-6.01.39-9.01.04-.85.06-1.71.09-2.56.07-1.84.12-3.68.22-5.51.09-1.68.32-3.36.35-5.04.04-2.07-.08-4.14-.11-6.21-.02-1.63-.04-3.27-.01-4.9.03-1.73.12-3.47.15-5.2.03-1.3-.02-2.59,0-3.89.07-3.37.15-6.74.24-10.1.08-3.06.16-6.12.27-9.17.1-2.89.26-5.79.35-8.68.07-2.36.05-4.72.07-7.08,0-.05-.03-.1-.09-.26-.58-.01-1.21-.05-1.84-.03-1.47.04-2.94.16-4.41.16-2.98,0-5.96-.05-8.94-.1-.69-.01-1.4-.22-2.07-.12-.95.14-1.9.12-2.84.11-2.09-.02-4.17-.29-6.27-.15-.51.03-1.03-.09-1.55-.09-1.08,0-2.16.02-3.24.03-.36,0-.73-.03-1.09,0-1.37.09-2.73.18-4.11.07-.49-.04-.98.04-1.47.08-.44.03-.88.14-1.31.09-1.2-.12-2.43.05-3.62-.32-.15-.05-.4-.05-.49.04-.23.25-.5.24-.78.24-1.58.03-3.16.06-4.74.09-1.68.03-3.37.08-5.05.11-.98.02-1.97,0-2.95.03-1.68.04-3.37.09-5.05.15-.2,0-.39.05-.66.09.07.93.23,1.83-.17,2.68,0,.02,0,.05,0,.08,0,1.42.3,2.83.11,4.26-.02.17.06.35.07.53.04.72.08,1.43.11,2.15.01.35-.01.71-.02,1.06,0,.28,0,.57.01.85.01.3.02.61.05.91.06.54.16,1.07.2,1.61.06.7.04,1.4.13,2.09.24,1.69.59,3.37.45,5.09-.01.15-.02.33.04.46.22.55.2,1.11.18,1.68,0,.26-.01.53.06.77.32,1.11.09,2.26.25,3.38.07.51-.07,1.06.06,1.55.44,1.59-.03,3.26.45,4.84.02.07,0,.15,0,.23.02.7.05,1.39.06,2.09.03,1.63.06,3.26.07,4.89,0,.25-.1.5-.17.75-.12.44-.13.84.13,1.26.15.24.14.59.16.89.01.23-.07.47-.05.69.12,1.68.26,3.35.39,5.03.02.28.12.59.03.85-.31.98-.04,1.95-.04,2.93,0,1.34.38,2.66.14,4.01-.03.17.03.36.05.54.09.74.2,1.47.27,2.21.03.25-.07.51-.05.77.06.93.15,1.85.22,2.78.03.32.02.62-.24.87-.25.24-.27.53-.25.86.04,1.1.37,2.18.1,3.29-.01.05,0,.1,0,.15.09.85.17,1.7.26,2.55.09.9.27,1.8.27,2.7,0,1.78-.09,3.56-.15,5.33-.02.54-.16,1.11-.04,1.61.1.44.16.85.11,1.28-.05.46-.15.91-.16,1.37-.02.77,0,1.55.03,2.33.05,1-.09,2,.12,3.01.17.8.06,1.65.19,2.45.26,1.57.3,3.14.3,4.71,0,1.19-.01,2.38-.05,3.57-.03.8-.13,1.6-.19,2.4-.07.87-.23,1.75-.21,2.62.03,1.84.36,3.66.66,5.47.08.48.1.99.03,1.47-.12.76.17,1.4.52,1.97.36.57.59,1.16.82,1.78.26.7.53,1.41.92,2.04.67,1.1,1.41,2.16,2.16,3.21,1.2,1.65,2.51,3.21,4.04,4.56.71.63,1.44,1.23,2.37,1.59.89.34,1.71.84,2.57,1.27.83.41,1.66.81,2.59.95.46.07.89.25,1.34.37.47.13.94.31,1.42.36.66.08,1.33.07,2.1.11ZM110.45,42.58c-.04-.41-.07-.74-.1-1.07-.07-.59-.18-1.18-.21-1.77-.07-1.59-.39-3.14-.8-4.66-.35-1.3-.86-2.55-1.32-3.82-.26-.73-.52-1.46-.84-2.17-.4-.89-.84-1.77-1.32-2.63-.38-.67-.83-1.3-1.28-1.93-.77-1.07-1.54-2.13-2.35-3.18-.44-.57-.99-1.06-1.42-1.64-1.23-1.66-2.75-3.02-4.41-4.21-1.34-.96-2.84-1.71-3.97-2.96-.25-.28-.62-.46-.96-.65-1.41-.8-2.93-1.27-4.54-1.42-.48-.05-.95-.22-1.43-.32-1.03-.23-2.05-.52-3.1-.68-1.46-.23-2.93-.13-4.4.04-.99.12-1.99.02-2.98.09-1.1.07-2.16.24-3.21.49-1.63.38-3.17,1.05-4.68,1.78-.44.21-.87.45-1.33.62-1.59.58-3.09,1.31-4.38,2.42-.41.35-.8.73-1.23,1.06-1.15.87-2.44,1.59-3.45,2.6-1.59,1.58-3.03,3.32-4.46,5.05-.8.97-1.42,2.09-2.19,3.1-.7.92-1.35,1.85-1.77,2.95-.45,1.15-1.17,2.2-1.61,3.35-.56,1.47-1.05,2.97-1.32,4.54-.18,1.07-.42,2.13-.63,3.19-.06.3-.11.61-.19.9-.15.51-.14,1.02.04,1.61.41.02.81.06,1.21.06.44,0,.88-.02,1.32-.05,1.49-.1,2.99.28,4.47-.16.02,0,.05,0,.08,0,1.16-.03,2.33-.08,3.49-.1,2.23-.04,4.46-.06,6.68-.1.87-.02,1.74-.08,2.61-.12.6-.03,1.2-.15,1.78-.09,2.23.22,4.45-.03,6.68-.04,3.83,0,7.67-.03,11.5-.03.98,0,1.96.08,2.94.1,1.4.02,2.8,0,4.2.03.36,0,.71.18,1.06.18.91,0,1.82-.08,2.73-.09,1.4-.02,2.8-.04,4.2-.03,2.4.01,4.8.05,7.21.08.05,0,.1-.01.15-.01.93-.08,1.85-.16,2.78-.24.2-.02.41-.04.74-.06Zm-51.3,64.23c-.06.49-.17.94-.17,1.39,0,1.19.06,2.37.08,3.56,0,.49-.01.98-.02,1.47,0,.52.01,1.03-.03,1.55-.05.59-.19,1.18-.22,1.77-.05.9-.02,1.81-.05,2.71-.02.62-.08,1.23-.14,1.85-.06.73.28,1.31.97,1.59.72.3,1.45.55,2.15.88.84.4,1.66.83,2.56,1.07.4.11.8.21,1.2.29,1.26.27,2.52.56,3.79.8.96.18,1.95.27,2.91.43.92.15,1.82.41,2.74.5,2.16.21,4.33.39,6.5.52.77.05,1.55-.09,2.32-.13.52-.02,1.03-.03,1.46-.37.36-.29.79-.06,1.16-.17.87-.26,1.74-.46,2.66-.41.43.02.82-.09,1.25-.27,1.66-.7,3.37-1.3,5.06-1.93.96-.36,1.79-.9,2.44-1.72.25-.32.58-.58.83-.91.16-.21.36-.48.36-.72.02-1.13-.01-2.28-.11-3.4-.1-1.23.04-2.42.12-3.62.08-1.19.27-2.36.21-3.56-.05-.97-.21-1.95.11-2.92.11-.32-.05-.73-.09-1.2-.22.16-.33.22-.43.3-1.39,1.17-2.97,1.91-4.77,2.23-.93.17-1.87.4-2.75.76-1.43.58-2.96.46-4.43.64-.95.12-1.92.31-2.91.29-.79-.02-1.58.23-2.38.28-1.34.09-2.69.11-4.03.18-1.48.08-2.94.12-4.41-.19-1.52-.31-3.08-.42-4.57-.82-1.67-.44-3.4-.65-5-1.36-.63-.28-1.31-.45-1.98-.65-.78-.24-1.56-.47-2.43-.73Zm35.28,50.7c.47-.56.97-1.06,1.36-1.62,1.06-1.53,1.56-3.28,1.95-5.07.02-.1-.02-.2-.02-.31-.09-1.14-.11-2.28.18-3.4.05-.2.09-.42.04-.61-.23-1,.05-2,0-3-.03-.76,0-1.52,0-2.39-1.26.86-2.83.71-3.92,1.73-.04.03-.09.05-.14.06-1.46.43-2.93.85-4.39,1.28-.91.27-1.85.48-2.67.98-.61.37-1.28.41-1.95.35-1.01-.09-2.01-.09-3.02.08-.38.07-.77.07-1.15.1-1.21.07-2.43.13-3.64.2-.13,0-.25.08-.38.08-.54,0-1.12.12-1.62-.03-1.05-.32-2.13-.36-3.2-.54-.66-.11-1.33-.18-1.97-.36-.79-.22-1.55-.55-2.34-.79-1.14-.34-2.28-.64-3.43-.94-1.3-.34-2.59-.68-3.89-1.01-.36-.09-.72-.18-1.08-.28,0,.48-.01.89,0,1.3.07,1.58.14,3.15.21,4.73.02.39.03.78.07,1.16.1,1,.23,2.01.3,3.01.05.72.01,1.44.04,2.16.04,1.02.65,1.75,1.44,2.26.55.35,1.25.48,1.91.62,1.08.24,2.19.38,3.27.62.63.14,1.22.44,1.85.58.98.22,1.97.39,2.97.52.92.12,1.85.17,2.78.22.95.05,1.91.08,2.86.11,1.13.03,2.29.2,3.4.04.93-.14,1.85-.15,2.77-.15.1,0,.21-.02.31-.02,1.08,0,2.17,0,3.25,0,.15,0,.32-.01.45-.08.75-.4,1.59-.43,2.4-.58.83-.15,1.67-.26,2.51-.41.17-.03.33-.15.48-.24.27-.15.56-.28.8-.47.27-.2.51-.21.79-.06.13.07.28.11.41.16Zm4.82-70.45c-.21-.17-.38-.28-.52-.42-.71-.74-1.51-1.32-2.49-1.66-.36-.13-.72-.3-1.03-.53-1.02-.72-2.22-1.02-3.39-1.17-1.85-.23-3.67-.55-5.46-1.04-.49-.14-1-.27-1.51-.33-1.25-.14-2.51-.25-3.76-.36-.69-.06-1.39-.19-2.08-.16-2.53.11-5.06.28-7.59.43-.21.01-.42.02-.62.04-1.06.12-2.13.16-3.16.4-1.71.39-3.4.88-5.08,1.4-.93.29-1.82.71-2.72,1.1-.38.16-.61.43-.61.89,0,1.03-.08,2.07-.1,3.1-.02.69,0,1.38,0,1.93.51.24.94.4,1.32.63,1.32.83,2.71,1.49,4.24,1.81.61.13,1.25.12,1.83.33,1.78.65,3.61,1.11,5.48,1.37,1.13.16,2.19.62,3.34.6.43,0,.86.11,1.3.16.66.08,1.33.19,2,.23.8.06,1.61.07,2.41.08.31,0,.62-.04.93-.06.46-.04.92-.07,1.39-.11.2-.02.41-.04.6-.1.74-.21,1.47-.51,2.23-.65.76-.13,1.46-.3,2.19-.62,1.18-.53,2.48-.8,3.72-1.2.54-.17,1.06-.4,1.58-.61.43-.17.84-.43,1.29-.53,1-.2,1.65-.89,2.36-1.53.44-.39.82-.86,1.5-.86.29,0,.45-.22.45-.53,0-.7,0-1.39,0-2.05Zm-39.28-16.35c1.37.2,2.56.45,3.76.52,1.46.08,2.94.02,4.4,0,.8,0,1.6-.11,2.39-.07,1.21.05,2.41.27,3.61.27,1.34,0,2.66-.04,4.01.13,1.82.23,3.65-.11,5.48-.17,1.03-.03,2.05.01,3.08.03.43,0,.87.08,1.28,0,.69-.13,1.36-.26,2.03.1.14.07.4.08.52,0,.48-.33,1-.22,1.51-.22,1.45-.01,2.89-.01,4.34.01.4,0,.81.1,1.2.2.56.15.86.02.98-.54.2-.92.23-1.84-.04-2.75-.13-.44-.21-.84-.02-1.28.07-.15.04-.35.03-.53-.06-.93-.15-1.85-.2-2.77-.06-.93-.07-1.86-.14-2.78-.11-1.45-.35-2.88-.19-4.34.02-.23,0-.47-.04-.7-.04-.32-.22-.5-.57-.51-.65-.02-1.29-.09-1.93-.11-1.48-.03-2.95-.07-4.43-.07-2.72.01-5.44-.06-8.15.14-1.87.14-3.72.01-5.58.11-1.26.07-2.53-.05-3.8-.04-1.79.01-3.57.09-5.36.1-1.16,0-2.33-.08-3.49-.08-1.73,0-3.44.44-5.18.19-.04,0-.09.04-.25.1-.32,5.04.1,10.08.76,15.07ZM83.85,3.45c-.68-.06-1.37-.13-2.06-.18-.9-.06-1.81-.07-2.7-.17-1.82-.2-3.64-.44-5.46-.66-.79-.09-.97.08-1.01.85-.07,1.21.18,2.41,0,3.63-.1.66.09.74.76.7,1.24-.07,2.47-.1,3.71-.16.33-.02.67-.05,1-.09.92-.12,1.82-.26,2.77-.11,1.11.17,2.25.17,3.39.24-.13-1.38-.26-2.66-.39-4.05Zm22.49,20.78s-.03-.1-.06-.12c-.03-.01-.08.02-.12.04.03.05.05.11.08.16.03-.03.07-.05.1-.08Z"/><path class="cls-1" d="m71.53,175.42c-.76-.03-1.44-.03-2.1-.11-.48-.06-.95-.23-1.42-.36-.45-.12-.89-.31-1.34-.37-.94-.14-1.76-.54-2.59-.95-.86-.42-1.68-.92-2.57-1.27-.92-.36-1.66-.96-2.37-1.59-1.52-1.36-2.84-2.91-4.04-4.56-.76-1.04-1.49-2.11-2.16-3.21-.39-.63-.66-1.34-.92-2.04-.23-.62-.47-1.21-.82-1.78-.36-.57-.65-1.22-.52-1.97.08-.48.06-.99-.03-1.47-.31-1.81-.63-3.63-.66-5.47-.02-.87.14-1.75.21-2.62.07-.8.16-1.6.19-2.4.04-1.19.06-2.38.05-3.57,0-1.58-.05-3.15-.3-4.71-.13-.81-.03-1.66-.19-2.45-.21-1.01-.08-2.01-.12-3.01-.04-.77-.05-1.55-.03-2.33.01-.46.11-.91.16-1.37.05-.44,0-.84-.11-1.28-.12-.51.02-1.07.04-1.61.06-1.78.15-3.56.15-5.33,0-.9-.18-1.8-.27-2.7-.09-.85-.17-1.7-.26-2.55,0-.05-.02-.11,0-.15.27-1.1-.05-2.19-.1-3.29-.01-.33,0-.62.25-.86.26-.24.26-.55.24-.87-.08-.93-.16-1.85-.22-2.78-.02-.25.07-.51.05-.77-.07-.74-.18-1.47-.27-2.21-.02-.18-.08-.37-.05-.54.25-1.35-.13-2.67-.14-4.01,0-.97-.27-1.95.04-2.93.08-.25-.01-.56-.03-.85-.13-1.68-.27-3.35-.39-5.03-.02-.23.07-.47.05-.69-.02-.3,0-.65-.16-.89-.26-.42-.25-.82-.13-1.26.07-.25.17-.5.17-.75,0-1.63-.04-3.26-.07-4.89-.01-.7-.04-1.39-.06-2.09,0-.08.02-.16,0-.23-.48-1.58-.01-3.25-.45-4.84-.13-.48,0-1.04-.06-1.55-.16-1.12.08-2.27-.25-3.38-.07-.24-.06-.52-.06-.77.01-.57.04-1.14-.18-1.68-.06-.14-.05-.31-.04-.46.14-1.72-.21-3.4-.45-5.09-.1-.69-.07-1.39-.13-2.09-.05-.54-.14-1.07-.2-1.61-.03-.3-.04-.61-.05-.91-.01-.28-.02-.57-.01-.85,0-.35.03-.71.02-1.06-.02-.72-.06-1.43-.11-2.15-.01-.18-.1-.36-.07-.53.2-1.43-.11-2.84-.11-4.26,0-.03-.01-.06,0-.08.4-.85.24-1.75.17-2.68.27-.04.47-.08.66-.09,1.68-.05,3.37-.11,5.05-.15.98-.02,1.97-.01,2.95-.03,1.68-.03,3.37-.07,5.05-.11,1.58-.03,3.16-.06,4.74-.09.28,0,.56.01.78-.24.08-.09.34-.09.49-.04,1.18.37,2.41.2,3.62.32.43.04.87-.06,1.31-.09.49-.03.99-.12,1.47-.08,1.37.11,2.74.02,4.11-.07.36-.02.72.01,1.09,0,1.08-.01,2.16-.04,3.24-.03.52,0,1.03.12,1.55.09,2.1-.14,4.18.14,6.27.15.94,0,1.89.03,2.84-.11.67-.1,1.38.11,2.07.12,2.98.05,5.96.1,8.94.1,1.47,0,2.94-.12,4.41-.16.63-.02,1.26.02,1.84.03.06.16.09.21.09.26-.02,2.36,0,4.72-.07,7.08-.08,2.89-.24,5.79-.35,8.68-.11,3.06-.19,6.11-.27,9.17-.09,3.37-.17,6.73-.24,10.1-.03,1.3.02,2.59,0,3.89-.03,1.73-.13,3.47-.15,5.2-.03,1.63-.01,3.27.01,4.9.03,2.07.15,4.14.11,6.21-.03,1.68-.25,3.36-.35,5.04-.1,1.84-.15,3.67-.22,5.51-.03.85-.05,1.71-.09,2.56-.14,3,0,6.02-.39,9.01-.03.25,0,.52,0,.78.1,1.37.21,2.73.32,4.1,0,.08,0,.16,0,.23.03,3.34.07,6.68.1,10.03,0,.33-.08.69.3.81-.11.2-.27.37-.29.56-.05.44-.01.88-.04,1.32-.06,1.08-.16,2.17-.2,3.25-.03.57.01,1.14.02,1.7,0,.18.05.37.02.54-.27,1.28-.1,2.58-.15,3.87-.05,1.34-.3,2.67-.42,4.01-.15,1.67-.81,3.2-1.39,4.73-.65,1.71-1.48,3.35-2.24,5.01-.11.23-.25.46-.42.65-.9,1.03-1.8,2.06-2.73,3.07-.44.47-.93.9-1.42,1.32-1.18,1.01-2.37,2-3.55,3-.95.8-1.9,1.6-2.82,2.43-.61.55-1.36.82-2.06,1.2-.65.35-1.36.6-2.11.72-.58.09-1.14.31-1.76.49-.02-.15-.08-.32-.06-.48.12-.77.3-1.52.4-2.29.14-1.03.4-2.02.71-3.01.48-1.5,1.08-2.95,1.95-4.28.4-.62.73-1.29,1.1-1.93.09-.15.19-.3.31-.43.84-.94,1.74-1.85,2.52-2.84.43-.54.96-.92,1.45-1.38,1.13-1.06,2.27-2.11,2.99-3.53.08-.15.21-.33.35-.38.46-.18.64-.56.64-.98,0-.64.27-1.16.62-1.63.34-.46.3-.96.31-1.46,0-.67-.06-1.34-.05-2.01,0-1.06.03-2.12.07-3.18.05-1.36.12-2.72.19-4.08.04-.69.12-1.39.15-2.08.05-1.06.06-2.12.12-3.17.07-1.27.08-2.54.26-3.79.25-1.73.1-3.46.2-5.19.06-1.03.19-2.06.18-3.09-.02-1.44.11-2.88-.04-4.34-.13-1.33.05-2.68.07-4.02.02-1.29.02-2.59.04-3.88,0-.2.04-.41.06-.61.13-.92.33-1.84.06-2.77-.02-.07-.03-.15-.02-.23.06-1.37.12-2.74.18-4.11.03-.67.1-1.34.11-2.02,0-.59-.18-1.21-.05-1.77.24-1.09,0-2.15-.02-3.23-.02-.98-.1-1.98.08-2.94.24-1.29-.17-2.51-.1-3.77.05-.87-.18-1.75.06-2.62.03-.1,0-.21,0-.31-.03-1.78-.06-3.57-.07-5.35-.01-1.37-.02-2.75.01-4.12.03-1.35.11-2.69.18-4.04.03-.59.08-1.19.12-1.78.03-.51.04-.99.22-1.51.19-.56.05-1.23.05-1.85,0-.21-.06-.42-.04-.62.19-1.76-.02-3.52-.03-5.28-.01-2.07-.17-4.14-.24-6.21-.03-.72,0-1.44-.01-2.16,0-.22-.08-.45-.16-.66-.07-.19-.23-.36-.27-.56-.16-1-.91-1.25-1.74-1.35-1.05-.13-2.11-.17-3.16-.28-1.51-.17-3,.01-4.49.16-1.05.11-2.12.17-3.17.18-1.55.02-3.11-.02-4.66-.06-.54-.01-1.07-.11-1.6-.17-.13-.01-.26-.06-.39-.04-1.09.16-2.17-.05-3.24-.12-1.42-.09-2.84.21-4.25,0-.15-.02-.31-.01-.46-.05-1-.25-1.99-.1-3,.03-.61.08-1.24.09-1.86.09-1.92-.02-3.83-.07-5.75-.08-.49,0-1,.03-1.46.17-.65.19-1.27.11-1.92.04-.82-.09-1.65-.08-2.47-.07-.45,0-.81.55-.73,1.09.12.86-.05,1.7-.21,2.53-.11.54-.17,1.06-.09,1.61.21,1.38.21,2.77.15,4.17-.06,1.29.06,2.59.1,3.88.04,1.27.08,2.54.12,3.8.01.31.06.62.09.92.08.74.17,1.48.25,2.22.02.21,0,.43.07.62.35,1.06.12,2.13.1,3.21-.03,1.47.03,2.95,0,4.42-.01.98,0,1.98-.17,2.94-.15.89-.15,1.75.02,2.62.09.46.11.9,0,1.37-.1.39-.03.82,0,1.24.03.58.11,1.17.1,1.75,0,.94-.1,1.88-.09,2.82.01,2.04.08,4.09.09,6.13,0,.85-.08,1.71-.08,2.56,0,.93.09,1.86.09,2.79,0,.92-.09,1.84-.14,2.76-.02.49-.03.98-.03,1.47,0,1.5.02,3-.01,4.5-.03,1.19-.14,2.37-.18,3.56-.05,1.23.03,2.47-.11,3.7-.15,1.34-.07,2.68-.07,4.02,0,.9.09,1.81.13,2.71.02.57,0,1.14.03,1.71.07,1.81.14,3.62.22,5.43.04,1.06.12,2.11.14,3.16,0,.49-.14.98-.12,1.47.05,1.02.17,2.05.25,3.07.05.66.09,1.33.13,2,.04.61.07,1.23.09,1.84.02.49.06.98.02,1.46-.09,1.02.15,2.01.32,3,.16.97.3,1.92.13,2.92-.17,1.01.37,1.84.92,2.63.09.12.23.21.3.34.62,1.24,1.61,2.19,2.52,3.21.15.17.32.34.5.49.85.71,1.75,1.36,2.55,2.12.38.36.79.7,1.16,1.07.38.37.64.86.95,1.3.09.12.19.24.3.36.79.82,1.35,1.78,1.95,2.74.54.86.95,1.77,1.35,2.68.54,1.25,1.13,2.5,1.11,3.91,0,.12-.02.25-.03.37Z"/><path class="cls-1" d="m110.45,42.58c-.34.03-.54.05-.74.06-.93.08-1.85.16-2.78.24-.05,0-.1.02-.15.01-2.4-.03-4.8-.06-7.21-.08-1.4,0-2.8,0-4.2.03-.91.02-1.82.09-2.73.09-.35,0-.71-.17-1.06-.18-1.4-.03-2.8-.01-4.2-.03-.98-.02-1.96-.1-2.94-.1-3.83,0-7.67.02-11.5.03-2.23,0-4.45.25-6.68.04-.59-.06-1.19.06-1.78.09-.87.04-1.74.1-2.61.12-2.23.04-4.46.06-6.68.1-1.17.02-2.33.06-3.49.1-.03,0-.05,0-.08,0-1.48.44-2.98.06-4.47.16-.44.03-.88.05-1.32.05-.4,0-.81-.04-1.21-.06-.17-.6-.18-1.1-.04-1.61.08-.3.13-.6.19-.9.21-1.06.45-2.12.63-3.19.26-1.57.76-3.07,1.32-4.54.44-1.15,1.16-2.2,1.61-3.35.43-1.1,1.07-2.03,1.77-2.95.76-1.01,1.39-2.13,2.19-3.1,1.43-1.73,2.87-3.47,4.46-5.05,1.01-1.01,2.3-1.73,3.45-2.6.43-.33.82-.71,1.23-1.06,1.3-1.1,2.8-1.84,4.38-2.42.46-.17.89-.41,1.33-.62,1.51-.73,3.05-1.4,4.68-1.78,1.05-.25,2.12-.42,3.21-.49,1-.06,1.99.03,2.98-.09,1.46-.17,2.94-.27,4.4-.04,1.04.16,2.07.45,3.1.68.48.11.95.28,1.43.32,1.62.16,3.13.62,4.54,1.42.34.19.71.37.96.65,1.13,1.25,2.63,2,3.97,2.96,1.66,1.19,3.18,2.55,4.41,4.21.43.58.98,1.07,1.42,1.64.8,1.04,1.58,2.11,2.35,3.18.45.63.9,1.26,1.28,1.93.48.85.91,1.74,1.32,2.63.32.71.58,1.44.84,2.17.46,1.27.97,2.52,1.32,3.82.41,1.52.73,3.07.8,4.66.03.59.14,1.18.21,1.77.04.33.06.66.1,1.07Zm-51.91-6.8c-.22-.83-.24-.84-.07-1.48.26-.95.54-1.88.84-2.82.17-.54.32-1.11.6-1.59.71-1.2,1.45-2.38,2.25-3.53.59-.85,1.26-1.64,1.92-2.43.38-.45.84-.84,1.25-1.27,1.29-1.33,2.48-2.77,3.96-3.92.49-.38.93-.81,1.43-1.18.41-.31.85-.57,1.29-.83.52-.32.98-.79,1.63-.83.33-.02.62-.02.75-.4.12-.36,0-.65-.26-.91-.56-.61-1.24-.71-1.99-.27-2.07,1.22-4.15,2.42-5.72,4.3-.54.65-1.19,1.21-1.78,1.82-.69.7-1.41,1.36-2.05,2.11-1.03,1.22-2.19,2.34-2.91,3.8-.03.07-.11.11-.16.17-.85,1.03-1.48,2.18-1.95,3.42-.52,1.37-.9,2.79-1.44,4.16-.18.47-.1.8.11,1.16.3.52,1.03.96,1.44.85.29-.07.57-.22.84-.32Zm41.33,1.92c1.09.05,2.01.09,2.94.13.31.01.63.06.93.03.3-.04.62-.11.87-.26.45-.27.48-.75.08-1.11-.43-.38-.9-.68-1.53-.65-.67.03-1.34.06-2.01.05-1.42-.01-2.84-.05-4.27-.08-.59-.01-1.12.28-1.75.18-.6-.1-1.23.04-1.85.01-.93-.04-1.85-.16-2.78-.21-.65-.04-1.3,0-1.94-.03-.28,0-.58-.15-.82-.07-.4.13-.76.06-1.14-.03-.3-.07-.61-.15-.92-.16-1.94,0-3.87.02-5.8-.19-1.41-.15-2.83-.19-4.25-.25-.22,0-.54.11-.65.27-.16.24-.03.52.21.75.45.42,1,.52,1.56.58.92.09,1.87.08,2.77.26,1.66.34,3.32.39,5,.47,1.29.06,2.59-.18,3.86.2.07.02.15,0,.23,0,.98.06,1.96.13,2.94.17.68.02,1.36.39,2.05.01.09-.05.25.03.38.03,1.27.02,2.54.06,3.8.05.74,0,1.49-.1,2.08-.15Z"/><path class="cls-1" d="m59.16,106.81c.86.26,1.65.48,2.43.73.66.21,1.34.38,1.98.65,1.6.7,3.33.91,5,1.36,1.49.4,3.06.5,4.57.82,1.47.3,2.93.27,4.41.19,1.34-.07,2.69-.09,4.03-.18.8-.05,1.59-.3,2.38-.28.99.02,1.95-.17,2.91-.29,1.47-.18,3-.06,4.43-.64.88-.35,1.82-.59,2.75-.76,1.8-.32,3.38-1.06,4.77-2.23.09-.08.2-.14.43-.3.04.47.19.87.09,1.2-.32.98-.16,1.96-.11,2.92.07,1.2-.13,2.38-.21,3.56-.08,1.2-.23,2.39-.12,3.62.09,1.12.13,2.26.11,3.4,0,.24-.2.51-.36.72-.25.32-.58.58-.83.91-.64.82-1.47,1.36-2.44,1.72-1.69.63-3.4,1.23-5.06,1.93-.43.18-.82.29-1.25.27-.92-.04-1.79.15-2.66.41-.37.11-.8-.12-1.16.17-.43.35-.94.35-1.46.37-.77.03-1.55.17-2.32.13-2.17-.13-4.34-.3-6.5-.52-.92-.09-1.82-.35-2.74-.5-.97-.16-1.95-.25-2.91-.43-1.27-.24-2.53-.53-3.79-.8-.4-.09-.8-.19-1.2-.29-.9-.24-1.72-.68-2.56-1.07-.7-.33-1.43-.59-2.15-.88-.69-.28-1.03-.86-.97-1.59.05-.61.12-1.23.14-1.85.03-.9,0-1.81.05-2.71.03-.59.17-1.18.22-1.77.04-.51.02-1.03.03-1.55,0-.49.03-.98.02-1.47-.02-1.19-.08-2.37-.08-3.56,0-.45.1-.91.17-1.39Z"/><path class="cls-1" d="m94.44,157.51c-.13-.05-.28-.09-.41-.16-.28-.15-.53-.14-.79.06-.25.18-.53.32-.8.47-.16.09-.31.21-.48.24-.83.15-1.67.26-2.51.41-.81.15-1.65.18-2.4.58-.13.07-.3.08-.45.08-1.08,0-2.17,0-3.25,0-.1,0-.21.02-.31.02-.93,0-1.84.01-2.77.15-1.11.16-2.26,0-3.4-.04-.96-.03-1.91-.05-2.86-.11-.93-.05-1.86-.1-2.78-.22-1-.13-1.99-.31-2.97-.52-.63-.14-1.22-.44-1.85-.58-1.08-.24-2.19-.38-3.27-.62-.65-.14-1.36-.27-1.91-.62-.78-.5-1.4-1.23-1.44-2.26-.03-.72.01-1.44-.04-2.16-.07-1.01-.2-2.01-.3-3.01-.04-.39-.05-.77-.07-1.16-.07-1.58-.15-3.15-.21-4.73-.02-.41,0-.82,0-1.3.36.09.72.18,1.08.28,1.3.34,2.6.67,3.89,1.01,1.15.3,2.29.61,3.43.94.79.24,1.55.57,2.34.79.64.18,1.31.25,1.97.36,1.06.18,2.15.22,3.2.54.5.15,1.08.04,1.62.03.13,0,.25-.08.38-.08,1.21-.07,2.43-.13,3.64-.2.38-.02.77-.03,1.15-.1,1-.18,2.01-.17,3.02-.08.67.06,1.34.02,1.95-.35.82-.5,1.76-.71,2.67-.98,1.46-.43,2.93-.85,4.39-1.28.05-.01.1-.03.14-.06,1.08-1.02,2.65-.87,3.92-1.73,0,.88-.03,1.64,0,2.39.04,1-.24,2,0,3,.04.19,0,.42-.04.61-.29,1.12-.27,2.26-.18,3.4,0,.1.05.21.02.31-.39,1.79-.89,3.55-1.95,5.07-.4.57-.89,1.07-1.36,1.62Z"/><path class="cls-1" d="m99.26,87.06c0,.66,0,1.36,0,2.05,0,.31-.16.53-.45.53-.68,0-1.06.47-1.5.86-.7.63-1.36,1.32-2.36,1.53-.45.09-.86.35-1.29.53-.52.21-1.05.44-1.58.61-1.24.4-2.53.68-3.72,1.2-.72.32-1.43.49-2.19.62-.76.13-1.48.43-2.23.65-.19.06-.4.08-.6.1-.46.04-.92.07-1.39.11-.31.02-.62.07-.93.06-.8-.01-1.61-.03-2.41-.08-.67-.05-1.33-.15-2-.23-.43-.05-.86-.17-1.3-.16-1.16.02-2.22-.45-3.34-.6-1.87-.26-3.7-.72-5.48-1.37-.57-.21-1.22-.2-1.83-.33-1.53-.32-2.92-.98-4.24-1.81-.38-.24-.8-.39-1.32-.63,0-.55-.01-1.24,0-1.93.03-1.03.09-2.07.1-3.1,0-.47.24-.73.61-.89.9-.39,1.79-.81,2.72-1.1,1.68-.52,3.37-1,5.08-1.4,1.03-.24,2.1-.28,3.16-.4.21-.02.41-.03.62-.04,2.53-.15,5.06-.31,7.59-.43.69-.03,1.39.09,2.08.16,1.26.11,2.51.22,3.76.36.51.06,1.01.19,1.51.33,1.79.5,3.61.81,5.46,1.04,1.17.15,2.37.44,3.39,1.17.31.22.67.4,1.03.53.98.34,1.78.92,2.49,1.66.14.14.31.25.52.42Z"/><path class="cls-1" d="m59.98,70.71c-.65-5-1.08-10.04-.76-15.07.15-.06.2-.11.25-.1,1.74.25,3.45-.19,5.18-.19,1.16,0,2.33.09,3.49.08,1.79-.01,3.57-.09,5.36-.1,1.27,0,2.54.11,3.8.04,1.86-.1,3.72.02,5.58-.11,2.7-.2,5.43-.12,8.15-.14,1.48,0,2.95.03,4.43.07.65.02,1.29.08,1.93.11.35.01.53.19.57.51.03.23.06.47.04.7-.16,1.46.08,2.9.19,4.34.07.93.09,1.86.14,2.78.06.93.14,1.85.2,2.77.01.18.04.38-.03.53-.19.44-.12.85.02,1.28.27.91.25,1.84.04,2.75-.12.56-.43.69-.98.54-.39-.11-.8-.19-1.2-.2-1.45-.03-2.89-.03-4.34-.01-.51,0-1.03-.11-1.51.22-.12.08-.38.08-.52,0-.67-.35-1.33-.23-2.03-.1-.41.08-.85,0-1.28,0-1.03-.01-2.05-.06-3.08-.03-1.83.05-3.66.39-5.48.17-1.34-.17-2.67-.13-4.01-.13-1.2,0-2.41-.21-3.61-.27-.79-.04-1.59.06-2.39.07-1.47.02-2.94.08-4.4,0-1.2-.07-2.39-.32-3.76-.52Zm2.74-6.45c.02,1.11.33,2.14.89,3.04.39.62.94,1.19,1.54,1.6.76.53,1.67.83,2.63.8.69-.03,1.39-.13,2.07-.24.67-.11,1.28-.36,1.83-.78.91-.7,1.49-1.62,1.87-2.69.55-1.55.43-3.03-.53-4.35-.53-.72-1.22-1.32-1.85-1.97-.12-.12-.3-.19-.47-.27-.77-.35-1.57-.66-2.32-1.05-.97-.5-1.85-.66-2.9-.06-1.22.7-1.91,1.75-2.29,2.99-.29.95-.33,1.98-.48,2.98Zm27.18,4.63l.02.1c.49-.13,1-.23,1.48-.4,1.03-.37,1.87-.96,2.33-2.01.7-1.58,1.02-3.19.57-4.89-.06-.24-.2-.48-.37-.67-.37-.43-.81-.78-1.36-.99-.33-.12-.69-.27-.94-.5-.8-.74-1.72-1.08-2.8-1.15-.81-.05-1.47.2-2.06.72-.27.24-.54.48-.79.74-.89.95-1.56,2.06-1.58,3.36-.02,1.47.18,2.97,1.05,4.22.46.65,1,1.29,1.95,1.4.74.09,1.45.35,2.19.07.09-.03.21,0,.31,0Z"/><path class="cls-1" d="m83.85,3.45c.13,1.39.26,2.67.39,4.05-1.14-.07-2.28-.07-3.39-.24-.95-.14-1.85,0-2.77.11-.33.04-.66.08-1,.09-1.24.06-2.47.09-3.71.16-.67.04-.86-.04-.76-.7.19-1.22-.06-2.42,0-3.63.04-.77.22-.95,1.01-.85,1.82.21,3.64.46,5.46.66.9.1,1.8.1,2.7.17.69.05,1.38.12,2.06.18Z"/><path d="m58.54,35.78c-.27.11-.55.25-.84.32-.42.11-1.15-.33-1.44-.85-.21-.36-.29-.69-.11-1.16.53-1.36.92-2.79,1.44-4.16.46-1.24,1.1-2.39,1.95-3.42.05-.06.12-.1.16-.17.71-1.46,1.87-2.59,2.91-3.8.63-.75,1.36-1.41,2.05-2.11.6-.61,1.24-1.17,1.78-1.82,1.57-1.89,3.65-3.08,5.72-4.3.75-.44,1.43-.34,1.99.27.25.27.37.55.26.91-.12.38-.42.38-.75.4-.65.04-1.11.52-1.63.83-.44.27-.88.53-1.29.83-.49.37-.94.8-1.43,1.18-1.47,1.15-2.66,2.58-3.96,3.92-.41.43-.87.82-1.25,1.27-.67.79-1.34,1.58-1.92,2.43-.79,1.15-1.54,2.33-2.25,3.53-.28.48-.43,1.05-.6,1.59-.3.93-.58,1.87-.84,2.82-.18.65-.16.65.07,1.48Z"/><path d="m99.87,37.7c-.59.04-1.33.14-2.08.15-1.27.01-2.54-.03-3.8-.05-.13,0-.29-.08-.38-.03-.69.38-1.37,0-2.05-.01-.98-.03-1.96-.11-2.94-.17-.08,0-.16.02-.23,0-1.27-.37-2.58-.14-3.86-.2-1.68-.07-3.34-.12-5-.47-.9-.19-1.84-.17-2.77-.26-.57-.06-1.12-.16-1.56-.58-.25-.23-.37-.51-.21-.75.11-.17.43-.28.65-.27,1.42.06,2.84.09,4.25.25,1.93.21,3.87.19,5.8.19.31,0,.62.08.92.16.38.09.74.16,1.14.03.24-.08.55.07.82.07.65.02,1.3,0,1.94.03.93.05,1.85.17,2.78.21.62.03,1.25-.11,1.85-.01.62.1,1.16-.19,1.75-.18,1.42.03,2.84.06,4.27.08.67,0,1.34-.01,2.01-.05.62-.03,1.1.27,1.53.65.4.35.37.83-.08,1.11-.25.15-.57.23-.87.26-.3.04-.62-.01-.93-.03-.93-.04-1.85-.08-2.94-.13Z"/><path d="m62.72,64.26c.15-1,.18-2.03.48-2.98.38-1.24,1.07-2.29,2.29-2.99,1.05-.61,1.93-.45,2.9.06.75.39,1.55.7,2.32,1.05.16.07.35.14.47.27.63.64,1.32,1.25,1.85,1.97.96,1.33,1.08,2.8.53,4.35-.38,1.07-.95,1.98-1.87,2.69-.55.43-1.17.67-1.83.78-.68.12-1.38.22-2.07.24-.95.04-1.86-.27-2.63-.8-.6-.42-1.16-.98-1.54-1.6-.56-.9-.87-1.93-.89-3.04Zm5.12.37c.51-.33,1.01-.54,1.6-.38.11.03.31-.15.43-.27.13-.12.2-.3.32-.43.37-.4.5-.42,1-.16.09.05.17.1.41.24-.11-.42-.09-.78-.27-.98-.56-.64-1.16-1.24-1.81-1.8-.32-.28-.81-.36-1.16-.08-.43.35-.84.78-1.13,1.25-.24.39-.3.89-.07,1.35.19.39.4.77.66,1.27Z"/><path d="m89.9,68.88c-.1,0-.22-.03-.31,0-.75.28-1.46.01-2.19-.07-.95-.11-1.49-.75-1.95-1.4-.87-1.25-1.07-2.75-1.05-4.22.02-1.3.69-2.41,1.58-3.36.25-.26.52-.5.79-.74.59-.52,1.25-.77,2.06-.72,1.07.07,2,.41,2.8,1.15.25.23.61.38.94.5.55.2.99.56,1.36.99.16.19.3.43.37.67.46,1.7.13,3.32-.57,4.89-.46,1.05-1.3,1.64-2.33,2.01-.48.17-.98.27-1.48.4l-.02-.1Zm-.34-4.03c.35-.2.73-.35,1.05-.61.28-.23.52-.33.89-.27.4.07.77-.23.89-.59.26-.8-.05-1.49-.82-1.83-.3-.13-.61-.25-.79-.32-.69.67-1.3,1.24-1.89,1.81-.06.7.18,1.28.67,1.82Z"/><path class="cls-1" d="m67.84,64.63c-.26-.49-.47-.88-.66-1.27-.23-.46-.17-.96.07-1.35.29-.47.7-.89,1.13-1.25.35-.28.84-.2,1.16.08.64.56,1.24,1.16,1.81,1.8.17.19.16.55.27.98-.24-.14-.32-.19-.41-.24-.5-.26-.64-.24-1,.16-.12.13-.2.31-.32.43-.12.12-.32.3-.43.27-.59-.16-1.09.05-1.6.38Z"/><path class="cls-1" d="m89.55,64.86c-.48-.54-.73-1.11-.67-1.82.59-.57,1.19-1.14,1.89-1.81.18.07.49.19.79.32.77.34,1.08,1.03.82,1.83-.12.36-.49.66-.89.59-.37-.06-.61.04-.89.27-.31.25-.7.41-1.05.61Z"/></g></svg>