<?xml version="1.0" encoding="utf-8"?>
<!-- Generator: Adobe Illustrator 27.4.1, SVG Export Plug-In . SVG Version: 6.00 Build 0)  -->
<svg version="1.1" id="Layer_1" xmlns="http://www.w3.org/2000/svg" xmlns:xlink="http://www.w3.org/1999/xlink" x="0px" y="0px"
	 viewBox="0 0 841.9 595.3" style="enable-background:new 0 0 841.9 595.3;" xml:space="preserve">
<style type="text/css">
	.st0{fill:#FFFFFF;}
	.st1{stroke:#000000;stroke-width:1.3496;stroke-miterlimit:10;}
	.st2{fill:none;}
	.st3{fill:#FF21FF;}
	.st4{fill:#FF00FF;}
</style>
<g>
	<g>
		<path class="st0" d="M298.2,341.4c-0.1,0.2-0.1,0.3-0.2,0.3c-1.1,0.6-2.3,1.3-3.4,1.8c-2.1,1-4.2,1.9-6,3.2
			c-0.8,0.6-1.6,1.2-2.4,1.9c-0.2,0.2-0.4,0.5-0.3,0.7c0.2,0.5,0.4,1,0.8,1.3c0.8,0.6,1.7,0.9,2.7,0.6c1.2-0.3,2.4-0.7,3.5-1.1
			c0.9-0.3,1.9-0.6,2.7-1.2c0.5-0.4,1.1-0.6,1.6-0.9c0.2-0.1,0.4-0.1,0.8-0.1c-0.6,1.2-1.1,2.2-1.6,3.3c-0.7,1.4-0.7,2.9-0.1,4.3
			c0.4,1,1.2,1.4,2.1,1c1.4-0.5,2.8-1.3,3.7-2.6c0.5-0.7,1-1.3,1.6-2.1c0,0.7,0,1.3,0.1,1.8c0.1,0.9,0.2,1.8,0.5,2.6
			c0.3,1.2,1,1.4,2.1,0.9c0.4-0.2,0.7-0.5,1-0.7c0.7-0.6,1-1.4,1.4-2.1c0.5-0.9,0.9-1.8,1.2-2.8c0.2-1,0.5-2,0.5-3
			c0.2-2.9,1.1-5.7,1.8-8.5c0.3-1.2,0.9-2.3,2.1-3c1-0.5,1.8-1.4,2.8-2c1.6-1,3-2.1,4.6-3.2c1.1-0.7,2.2-1.4,3.4-2.1
			c0.8-0.5,1.7-0.9,2.5-1.3c1.6-0.8,3.1-1.7,4.7-2.5c1.1-0.6,2.2-1.1,3.3-1.6c1.7-0.8,3.4-1.6,5.1-2.3c1.5-0.6,3.1-1.2,4.6-1.7
			c1.4-0.5,2.8-0.8,4.3-1.2c1.3-0.3,2.7,0,4,0c1.5,0.1,2.7,0.7,4,1.3c0.1,0.1,0.3,0.3,0.3,0.4c0.2,0.5,0.3,1.1,0.5,1.6
			c0.6,2.2,1.1,4.3,1.8,6.5c0.6,2.1,1.3,4.1,1.9,6.1c0.8,2.4,1.6,4.7,2.3,7.1c0.8,2.4,1.5,4.8,2.3,7.2c0.4,1.2,0.8,2.3,1.2,3.5
			c0.1,0.2,0.2,0.4,0.4,0.5c0.5,0.3,1,0.5,1.6,0.7c0.5,0.2,1,0.4,1.5,0.7c1.1,0.8,2.2,1.6,3.3,2.4c0.7,0.5,1.5,1,2.2,1.5
			c0.3,0.2,0.6,0.4,1,0.1c0.7-0.6,1.6-0.6,2.4-0.8c1.6-0.3,3.3-0.5,5-0.8c0.8-0.1,0.8-0.2,0.9-1.1c0-0.2,0-0.5,0.2-0.6
			c0.6-1,1.1-1.9,1.7-2.8c0.2-0.2,0.5-0.4,0.8-0.5c0.7-0.2,1.5-0.4,2.2-0.6c2-0.4,4-0.7,6-1c0.1,0,0.2,0,0.3,0c0.8,0,0.8,0,1,0.8
			c0.2,0.8,0.3,1.6,0.5,2.3c0.1,0.6,0.5,1.1,0.9,1c1.4-0.2,2.8-0.4,4.2-0.6c1.8-0.3,3.5-0.7,5.3-1c2-0.3,3.9-0.7,5.9-1
			c1.7-0.3,3.3-0.5,5-0.8c4.4-0.7,8.7-2,13.1-2.6c4-0.5,7.9-1.2,11.9-1.8c0.7-0.1,1.4-0.2,2.2-0.3c1.4-0.2,2.8-0.4,4.2-0.6
			c0.6-0.1,0.7-0.4,0.5-1.1c-0.2-0.9-0.1-1.7,0-2.6c0.7-0.1,1.2-0.2,1.8-0.3c1.3-0.1,2.6-0.2,3.9-0.4c1.8-0.2,3.6-0.6,5.3-0.9
			c0.6-0.1,1,0,1.4,0.5c0.5,0.6,1.1,1.2,1.6,1.9c0.3,0.3,0.5,0.4,1,0.4c1.9-0.3,3.8-0.5,5.6-0.8c1.3-0.2,2.5-0.5,3.5-1.5
			c0.4-0.4,0.5-0.8,0.4-1.3c-0.4-1.7-0.8-3.4-1.2-5.2c-0.3-1.3-0.6-2.7-0.7-4c-0.2-1.3-0.2-2.7-0.4-4c-0.4-2.7-0.8-5.4-1.2-8.1
			c-0.2-1.4-0.3-2.8-0.4-4.2c-0.1-0.5-0.2-1.1-0.2-1.6c-0.1-2.1-0.1-4.2-0.2-6.3c-0.1-2.1-0.1-4.2-0.2-6.2c0-0.3,0.1-0.7,0.3-1
			c0.5-1,1-1.9,1.5-2.9c0.5-1.2,1.4-2.1,2.3-2.8c1-0.8,2.1-1.5,3.3-2c1.3-0.6,2.8-1.1,4.2-1.5c1.6-0.4,3.2-0.7,4.8-1
			c1.8-0.3,3.6-0.5,5.4-0.7c1.6-0.1,3.2-0.1,4.7-0.2c1.2,0,2.4-0.1,3.6-0.1c2.4,0.1,4.8,0.2,7.2,0.3c2.2,0.1,4.3,0.3,6.5,0.6
			c2.3,0.2,4.5,0.5,6.8,0.8c1.7,0.2,3.4,0.6,5,0.8c0.5,0.1,1,0.3,1.2,0.8c0.8,1.4,1.5,2.8,2.3,4.2c0.6,1,0.7,2.1,0.7,3.2
			c0.1,0.8,0.2,1.6,0.5,2.4c0.3,1,1.2,1.4,2.2,1c1.2-0.4,1.6-1.3,1.8-2.9c0.1-1.7,0.4-3.4,0.6-5.1c0.1-0.9,0.8-1.3,1.7-1.1
			c1.2,0.4,2.1,0,2.9-0.9c0.9-1.1,2-1.8,3.1-2.6c0.4-0.3,1-0.5,1.6-0.6c1.3-0.2,2.6-0.3,4-0.4c0.8-0.1,1.5-0.1,2.3-0.2
			c0.8-0.1,1.6-0.2,2.3-0.5c0.5-0.2,0.9-0.6,1.2-1c0.7-1,0.3-1.9-0.9-2.1c-1.3-0.2-2.6-0.3-3.9-0.4c-3,0-5.8-0.4-8.6-1.5
			c-1.6-0.7-3.3-1.3-4.9-2c-0.6-0.3-1.3-0.4-1.9-0.1c-0.9,0.4-1.8,0.8-2.7,1.2c-1.6,0.7-3.2,1.4-4.8,2.1c-0.3,0.1-0.5,0.2-0.8,0.3
			c-1.2,0.1-2.3,0.2-3.5,0.2c-0.9,0-1.9-0.2-2.8-0.1c-2,0.1-4-0.1-5.9-0.1c-2.2-0.1-4.5-0.3-6.7-0.4c-1.7-0.1-3.4-0.1-5-0.2
			c-3.1-0.3-6.3-0.8-9.4-1.1c-1.1-0.1-2.1-0.2-3.2-0.3c-2.2-0.3-4.4-0.7-6.5-1.1c-0.7-0.1-1.5-0.1-2.2-0.3c-1.4-0.4-2.7-0.9-4-1.3
			c-0.6-0.2-1.2-0.5-1.8-0.8c-1.7-0.9-3-2.1-4.4-3.5c-0.6-0.6-0.9-1.2-0.9-2c0-2.6,0-5.2,0.1-7.8c0.1-2.7,0.2-5.4,0.3-8
			c0-2-0.1-4-0.1-6c0-1.7,0.1-3.5,0.1-5.2c0-0.9,0-1.9,0-2.8c0-1.2,0-2.4,0-3.6c0-0.4-0.1-0.7-0.4-0.8c-0.2-0.1-0.3-0.3-0.3-0.5
			c-0.1-0.7-0.6-0.9-1.2-1.1c-1.2-0.2-2.3-0.5-3.5-0.8c-1-0.2-2-0.5-3.1-0.6c-2.1-0.3-4.2-0.5-6.3-0.6c-1.9-0.1-3.7-0.4-5.6-0.4
			c-3.1,0.1-6.1,0.1-9.2,0.1c-2.3,0-4.5,0-6.8,0c-1.3,0-2.5,0-3.8,0.1c-2.1,0.1-4.2,0.2-6.2,0.3c-1.8,0.1-3.7,0.2-5.5,0.3
			c-1.9,0.1-3.8,0.4-5.7,0.6c-1.9,0.2-3.8,0.4-5.7,0.6c-0.9,0.1-1.8,0.2-2.6,0.3c-1.9,0.2-3.8,0.3-5.7,0.5c-1.7,0.2-3.4,0.3-5.1,0.5
			c-0.6,0.1-1.1,0.1-1.7,0.2c-2.2,0.3-4.3,0.8-6.4,1.1c-1.5,0.2-3,0.6-4.6,0.8c-1.5,0.3-2.9,0.5-4.4,0.8c-1.2,0.2-2.5,0.3-3.7,0.5
			c-4.2,0.7-8.3,1.9-12.3,3.1c-1.3,0.4-2.6,0.9-3.9,1.2c-1.9,0.5-3.7,1.2-5.6,1.9c-1.5,0.5-2.9,1.1-4.4,1.7
			c-0.2,0.1-0.5,0.3-0.6,0.5c-0.1,0.3-0.2,0.7-0.2,1c0,1.9,0,3.8,0.1,5.8c0,1.5,0,2.9,0.1,4.4c0.1,1.3,0.3,2.6,0.4,4
			c0.3,2.6,0.5,5.2,0.8,7.8c0.1,0.9,0.3,1.9,0.4,2.8c0.3,2.5,0.4,5.1,0.8,7.6c0.5,3.5,1.2,7,1.8,10.6c0,0.2,0.1,0.5,0,0.6
			c-0.3,0.4-0.2,0.7-0.1,1.2c0.1,0.3,0.1,0.7,0.1,1c-0.1,1.3-0.4,2.6-0.5,3.8c-0.1,1.4-0.7,2.5-1.4,3.6c-0.6,1-1.3,1.9-2.1,2.8
			c-1.5,2-3.2,3.7-5.2,5.3c-1.8,1.5-3.6,2.9-5.4,4.3c-1.9,1.5-3.9,2.9-5.9,4.3c-1.1,0.8-2.2,1.5-3.3,2.3c-2,1.3-3.9,2.7-5.9,4
			c-3.3,2.1-6.7,4.1-10.2,5.8c-0.4,0.2-0.7,0.4-1.1,0.6c-1,0.7-2,1.3-3.1,1.6c-0.5,0.1-1,0.3-1.4,0.6c-0.5,0.3-0.9,0.3-1.4,0.3
			c-3.5-0.2-6.9-0.7-10.3-1.2c-1.1-0.2-2.1,0.1-3.1,0.6c-0.8,0.4-1.1,1.3-0.9,2.2c0.2,1.1,0.9,1.7,1.8,2.2c1.2,0.6,2.5,0.9,3.8,1
			C296.6,341.4,297.4,341.4,298.2,341.4z"/>
		<path class="st1" d="M298.2,341.4c-0.8,0-1.6,0-2.4-0.1c-1.3-0.1-2.6-0.4-3.8-1c-0.9-0.5-1.6-1.1-1.8-2.2
			c-0.2-0.9,0.1-1.7,0.9-2.2c1-0.5,1.9-0.8,3.1-0.6c3.4,0.6,6.9,1,10.3,1.2c0.5,0,1,0,1.4-0.3c0.4-0.2,0.9-0.4,1.4-0.6
			c1.1-0.3,2.1-0.9,3.1-1.6c0.3-0.2,0.7-0.4,1.1-0.6c3.5-1.7,6.9-3.7,10.2-5.8c2-1.3,3.9-2.7,5.9-4c1.1-0.7,2.2-1.5,3.3-2.3
			c2-1.4,4-2.8,5.9-4.3c1.8-1.4,3.6-2.8,5.4-4.3c1.9-1.6,3.6-3.3,5.2-5.3c0.7-0.9,1.4-1.9,2.1-2.8c0.7-1.1,1.3-2.3,1.4-3.6
			c0.1-1.3,0.3-2.6,0.5-3.8c0-0.3,0-0.7-0.1-1c-0.1-0.4-0.2-0.8,0.1-1.2c0.1-0.1,0-0.4,0-0.6c-0.6-3.5-1.3-7-1.8-10.6
			c-0.4-2.5-0.5-5.1-0.8-7.6c-0.1-0.9-0.3-1.9-0.4-2.8c-0.3-2.6-0.5-5.2-0.8-7.8c-0.1-1.3-0.3-2.6-0.4-4c-0.1-1.4-0.1-2.9-0.1-4.4
			c0-1.9-0.1-3.8-0.1-5.8c0-0.3,0.1-0.7,0.2-1c0.1-0.2,0.4-0.4,0.6-0.5c1.5-0.6,2.9-1.2,4.4-1.7c1.8-0.7,3.6-1.4,5.6-1.9
			c1.3-0.3,2.6-0.8,3.9-1.2c4.1-1.2,8.1-2.4,12.3-3.1c1.2-0.2,2.5-0.3,3.7-0.5c1.5-0.2,2.9-0.5,4.4-0.8c1.5-0.3,3-0.6,4.6-0.8
			c2.2-0.3,4.3-0.8,6.4-1.1c0.6-0.1,1.1-0.1,1.7-0.2c1.7-0.2,3.4-0.3,5.1-0.5c1.9-0.2,3.8-0.3,5.7-0.5c0.9-0.1,1.8-0.2,2.6-0.3
			c1.9-0.2,3.8-0.4,5.7-0.6c1.9-0.2,3.8-0.4,5.7-0.6c1.8-0.1,3.6-0.2,5.5-0.3c2.1-0.1,4.2-0.2,6.2-0.3c1.3,0,2.5-0.1,3.8-0.1
			c2.3,0,4.5,0,6.8,0c3.1,0,6.1,0,9.2-0.1c1.9-0.1,3.7,0.3,5.6,0.4c2.1,0.1,4.2,0.4,6.3,0.6c1,0.1,2,0.4,3.1,0.6
			c1.2,0.2,2.3,0.5,3.5,0.8c0.6,0.1,1,0.4,1.2,1.1c0,0.2,0.2,0.4,0.3,0.5c0.4,0.2,0.5,0.4,0.4,0.8c0,1.2,0,2.4,0,3.6
			c0,0.9,0,1.9,0,2.8c0,1.7-0.1,3.5-0.1,5.2c0,2,0.1,4,0.1,6c0,2.7-0.2,5.4-0.3,8c-0.1,2.6-0.1,5.2-0.1,7.8c0,0.8,0.3,1.4,0.9,2
			c1.3,1.3,2.7,2.6,4.4,3.5c0.6,0.3,1.2,0.6,1.8,0.8c1.3,0.5,2.7,1,4,1.3c0.7,0.2,1.5,0.2,2.2,0.3c2.2,0.4,4.4,0.8,6.5,1.1
			c1.1,0.2,2.1,0.2,3.2,0.3c3.1,0.4,6.3,0.8,9.4,1.1c1.7,0.2,3.3,0.2,5,0.2c2.2,0.1,4.5,0.3,6.7,0.4c2,0.1,4,0.3,5.9,0.1
			c0.9-0.1,1.9,0.2,2.8,0.1c1.2,0,2.3-0.1,3.5-0.2c0.3,0,0.5-0.2,0.8-0.3c1.6-0.7,3.2-1.4,4.8-2.1c0.9-0.4,1.8-0.8,2.7-1.2
			c0.7-0.3,1.3-0.2,1.9,0.1c1.6,0.7,3.3,1.3,4.9,2c2.8,1.2,5.6,1.5,8.6,1.5c1.3,0,2.6,0.2,3.9,0.4c1.2,0.2,1.6,1.1,0.9,2.1
			c-0.3,0.4-0.8,0.8-1.2,1c-0.7,0.3-1.5,0.4-2.3,0.5c-0.7,0.1-1.5,0.2-2.3,0.2c-1.3,0.1-2.6,0.2-4,0.4c-0.5,0.1-1.1,0.3-1.6,0.6
			c-1.1,0.8-2.3,1.5-3.1,2.6c-0.7,0.9-1.7,1.3-2.9,0.9c-0.8-0.3-1.5,0.1-1.7,1.1c-0.3,1.7-0.5,3.4-0.6,5.1c-0.1,1.5-0.6,2.4-1.8,2.9
			c-1,0.4-1.9,0-2.2-1c-0.2-0.8-0.4-1.6-0.5-2.4c-0.1-1.1-0.2-2.2-0.7-3.2c-0.8-1.4-1.5-2.8-2.3-4.2c-0.3-0.5-0.7-0.7-1.2-0.8
			c-1.7-0.3-3.4-0.6-5-0.8c-2.3-0.3-4.5-0.6-6.8-0.8c-2.2-0.2-4.3-0.4-6.5-0.6c-2.4-0.2-4.8-0.3-7.2-0.3c-1.2,0-2.4,0-3.6,0.1
			c-1.6,0-3.2,0-4.7,0.2c-1.8,0.2-3.6,0.4-5.4,0.7c-1.6,0.3-3.2,0.6-4.8,1c-1.4,0.4-2.8,0.9-4.2,1.5c-1.2,0.5-2.3,1.2-3.3,2
			c-0.9,0.8-1.8,1.7-2.3,2.8c-0.4,1-1,1.9-1.5,2.9c-0.2,0.3-0.3,0.7-0.3,1c0,2.1,0.1,4.2,0.2,6.2c0.1,2.1,0.1,4.2,0.2,6.3
			c0,0.5,0.1,1.1,0.2,1.6c0.1,1.4,0.2,2.8,0.4,4.2c0.4,2.7,0.8,5.4,1.2,8.1c0.2,1.3,0.2,2.7,0.4,4c0.2,1.3,0.5,2.7,0.7,4
			c0.4,1.7,0.8,3.5,1.2,5.2c0.1,0.5,0,0.9-0.4,1.3c-1,1-2.2,1.3-3.5,1.5c-1.9,0.3-3.8,0.5-5.6,0.8c-0.5,0.1-0.7,0-1-0.4
			c-0.5-0.6-1.1-1.2-1.6-1.9c-0.4-0.5-0.8-0.6-1.4-0.5c-1.8,0.3-3.6,0.6-5.3,0.9c-1.3,0.2-2.6,0.2-3.9,0.4c-0.6,0.1-1.1,0.2-1.8,0.3
			c-0.1,0.9-0.1,1.7,0,2.6c0.1,0.7,0.1,1-0.5,1.1c-1.4,0.2-2.8,0.4-4.2,0.6c-0.7,0.1-1.4,0.2-2.2,0.3c-4,0.6-7.9,1.3-11.9,1.8
			c-4.4,0.6-8.7,1.8-13.1,2.6c-1.6,0.3-3.3,0.5-5,0.8c-2,0.3-3.9,0.6-5.9,1c-1.8,0.3-3.5,0.7-5.3,1c-1.4,0.2-2.8,0.4-4.2,0.6
			c-0.4,0.1-0.8-0.4-0.9-1c-0.2-0.8-0.3-1.6-0.5-2.3c-0.2-0.8-0.2-0.8-1-0.8c-0.1,0-0.2,0-0.3,0c-2,0.3-4,0.6-6,1
			c-0.7,0.1-1.5,0.3-2.2,0.6c-0.3,0.1-0.6,0.3-0.8,0.5c-0.6,0.9-1.2,1.9-1.7,2.8c-0.1,0.2-0.1,0.4-0.2,0.6c-0.1,0.9-0.1,0.9-0.9,1.1
			c-1.6,0.3-3.3,0.5-5,0.8c-0.8,0.1-1.7,0.1-2.4,0.8c-0.3,0.3-0.7,0.1-1-0.1c-0.7-0.5-1.5-1-2.2-1.5c-1.1-0.8-2.2-1.6-3.3-2.4
			c-0.4-0.3-1-0.4-1.5-0.7c-0.5-0.2-1.1-0.4-1.6-0.7c-0.2-0.1-0.3-0.3-0.4-0.5c-0.4-1.2-0.8-2.3-1.2-3.5c-0.8-2.4-1.5-4.8-2.3-7.2
			c-0.8-2.4-1.6-4.7-2.3-7.1c-0.7-2-1.3-4.1-1.9-6.1c-0.6-2.2-1.2-4.3-1.8-6.5c-0.1-0.5-0.3-1.1-0.5-1.6c-0.1-0.2-0.2-0.4-0.3-0.4
			c-1.3-0.7-2.5-1.3-4-1.3c-1.4,0-2.7-0.3-4,0c-1.4,0.3-2.9,0.7-4.3,1.2c-1.6,0.5-3.1,1.1-4.6,1.7c-1.7,0.7-3.4,1.5-5.1,2.3
			c-1.1,0.5-2.2,1.1-3.3,1.6c-1.6,0.8-3.1,1.6-4.7,2.5c-0.8,0.4-1.7,0.9-2.5,1.3c-1.1,0.7-2.3,1.3-3.4,2.1c-1.5,1-3,2.2-4.6,3.2
			c-1,0.6-1.8,1.5-2.8,2c-1.2,0.6-1.9,1.8-2.1,3c-0.7,2.8-1.6,5.6-1.8,8.5c-0.1,1-0.3,2-0.5,3c-0.2,1-0.6,1.9-1.2,2.8
			c-0.4,0.7-0.8,1.5-1.4,2.1c-0.3,0.3-0.6,0.5-1,0.7c-1.1,0.5-1.8,0.3-2.1-0.9c-0.2-0.8-0.3-1.7-0.5-2.6c-0.1-0.5-0.1-1.1-0.1-1.8
			c-0.6,0.8-1.2,1.4-1.6,2.1c-0.9,1.3-2.3,2-3.7,2.6c-1,0.4-1.7-0.1-2.1-1c-0.6-1.5-0.6-2.9,0.1-4.3c0.5-1,1-2.1,1.6-3.3
			c-0.3,0.1-0.6,0-0.8,0.1c-0.6,0.3-1.2,0.5-1.6,0.9c-0.8,0.6-1.7,0.9-2.7,1.2c-1.2,0.4-2.4,0.7-3.5,1.1c-1,0.3-1.9,0-2.7-0.6
			c-0.4-0.3-0.6-0.8-0.8-1.3c-0.1-0.2,0.1-0.6,0.3-0.7c0.8-0.7,1.5-1.3,2.4-1.9c1.9-1.3,4-2.2,6-3.2c1.2-0.5,2.3-1.2,3.4-1.8
			C298.1,341.7,298.1,341.6,298.2,341.4z M452,341.4c0.7-0.1,1.4-0.3,2-0.3c1.7-0.2,3.4-0.3,5.1-0.6c1.5-0.2,3-0.5,4.6-0.8
			c0.5-0.1,0.8,0,1.2,0.4c0.5,0.6,1.1,1.2,1.6,1.8c0.4,0.5,0.9,0.6,1.5,0.5c1.1-0.2,2.3-0.4,3.5-0.6c0.7-0.1,1.3-0.2,2-0.3
			c1.3-0.3,1.7-1.1,1.3-2.3c-0.4-1.5-0.8-3.1-1.1-4.6c-0.4-2.6-0.7-5.3-1-7.9c-0.2-1.5-0.5-3-0.7-4.5c-0.2-1.8-0.5-3.7-0.7-5.6
			c-0.2-1.8-0.3-3.7-0.4-5.5c-0.1-2.6-0.2-5.2-0.3-7.9c-0.1-2.1-0.3-4.2-0.4-6.2c-0.2-3-0.4-6.1-0.5-9.1c-0.1-3.7-0.2-7.3-0.2-11
			c0-3.6,0.1-7.1,0.1-10.7c0-1.9,0.2-3.7,0.2-5.6c0-3.9,0-7.8,0.1-11.8c0-0.2,0.1-0.5,0.1-0.7c0.1-1,0.3-2.1,0.3-3.1
			c0-1.5-0.1-2.9-0.2-4.4c0-0.5-0.6-1.3-1.1-1.4c-1.8-0.4-3.6-0.7-5.4-1.1c-3.6-0.7-7.2-0.9-10.8-1.2c-2.1-0.2-4.3,0-6.4,0
			c-1.1,0-2.2,0.1-3.3,0.1c-2,0-3.9,0-5.9,0c-1.4,0-2.7,0.1-4.1,0.1c-3.3,0.1-6.6,0.1-9.9,0.3c-3,0.2-6,0.6-9,0.9
			c-1.9,0.2-3.7,0.4-5.6,0.6c-1.5,0.1-3.1,0.2-4.6,0.4c-0.7,0.1-1.3,0.2-2,0.3c-2.6,0.3-5.2,0.5-7.8,0.8c-1,0.1-2.1,0.3-3.1,0.5
			c-2.3,0.5-4.7,0.6-7.1,1.1c-2.3,0.6-4.7,0.9-7.1,1.3c-1.4,0.2-2.9,0.5-4.3,0.7c-2.6,0.5-5.1,1.1-7.6,1.9c-1,0.3-2,0.4-2.9,0.7
			c-1.7,0.5-3.3,1.2-4.9,1.7c-2.6,0.8-5.1,1.7-7.6,2.8c-0.6,0.2-0.8,0.6-0.8,1.1c0,1.2-0.1,2.3-0.1,3.5c0,1.4,0.1,2.7,0.1,4.1
			c0,0.9,0,1.8,0.1,2.6c0.1,1.3,0.3,2.5,0.5,3.8c0.2,2.3,0.4,4.5,0.7,6.8c0.1,0.9,0.2,1.8,0.3,2.7c0.1,0.9,0.1,1.9,0.2,2.8
			c0.2,1.9,0.5,3.8,0.8,5.7c0.1,1.1,0.2,2.3,0.4,3.4c0.3,1.9,0.8,3.7,1.1,5.6c0.3,1.9,0.8,3.8,1.2,5.6c0.8,3.5,1.6,7,2.5,10.5
			c0.4,1.8,0.8,3.6,1.3,5.3c0.3,1.3,0.8,2.7,1.1,4c0.5,1.7,0.9,3.3,1.3,5c0.4,1.5,0.6,2.9,1.1,4.4c0.6,1.5,0.9,3.1,1.3,4.6
			c0.4,1.3,0.9,2.6,1.3,3.8c0.4,1.3,0.8,2.7,1.3,4.1c0.5,1.7,1.1,3.5,1.6,5.2c0.5,1.8,1,3.5,1.5,5.3c0.1,0.4,0.3,0.7,0.7,0.8
			c0.9,0.3,1.6,0.9,2.4,1.5c0.6,0.5,1.4,0.9,2.1,1.4c1,0.7,1.9,1.4,3,2.1c0.3,0.2,0.7,0.3,1,0.2c2.2-0.3,4.4-0.7,6.5-1.1
			c0.4-0.1,0.5-0.2,0.7-0.6c0.3-0.7,0.6-1.5,0.9-2.2c0.6-1.1,1.3-2.2,2.7-2.5c0.4-0.1,0.8-0.3,1.3-0.4c1.4-0.3,2.8-0.5,4.2-0.7
			c1.1-0.2,2.3-0.3,3.5-0.7c-0.2-0.6-0.3-1.2-0.5-1.8c-0.9-2.7-1.7-5.4-2.1-8.2c-0.4-2.2-0.7-4.4-1.1-6.6c-0.1-0.8-0.4-1.7-0.4-2.5
			c0-1.9,0-3.8,0.1-5.7c0-0.5,0.3-1.1,0.4-1.6c0.4-1.2,1.3-2.1,2-3.2c0.8-1.1,1.8-1.8,3.1-2.2c1.2-0.3,2.5-0.6,3.8-0.9
			c1.6-0.4,3.2-0.8,4.9-1.1c2.9-0.5,5.8-1,8.7-1.5c2.5-0.4,5-0.9,7.6-1.3c2.6-0.4,5.2-0.7,7.8-1.1c1.8-0.3,3.7-0.6,5.5-0.8
			c1.7-0.2,3.3-0.5,5-0.6c0.8-0.1,1.7,0,2.4,0.5c1.2,0.8,2.4,1.7,3.6,2.6c0.4,0.3,0.7,0.8,0.9,1.2c0.4,0.9,0.6,1.8,1,2.6
			c0.3,0.6,0.3,1.2,0.4,1.8c0,1.7,0.1,3.5,0.3,5.2c0.1,1.3,0.4,2.7,0.6,4c0.2,2.4,0.3,4.8,0.5,7.2c0.1,1.2,0.1,2.4,0.1,3.6
			C452,339.5,452,340.4,452,341.4z M400.3,353.4c0.6,0,1.1,0,1.6-0.1c3.1-0.5,6.2-1.1,9.2-1.6c2.3-0.4,4.7-0.8,7-1.2
			c1.6-0.3,3.1-0.5,4.7-0.9c2.4-0.5,4.7-1,7-1.5c2.8-0.5,5.7-0.9,8.5-1.3c3.7-0.6,7.4-1.1,11.1-1.6c0.3,0,0.7-0.1,1-0.2
			c0.1-1.9,0.2-3.7,0.2-5.5c-0.1-3.3-0.3-6.7-0.5-10c-0.1-1.2-0.1-2.3-0.3-3.5c-0.4-2.3-0.6-4.7-0.6-7.1c0-0.4,0-0.8-0.2-1.1
			c-0.4-1-0.8-2.1-1.2-3.1c-0.1-0.2-0.2-0.4-0.3-0.5c-1.2-0.9-2.4-1.8-3.7-2.6c-0.8-0.5-1.7-0.5-2.5,0c-0.3,0.2-0.6,0.2-1,0.3
			c-1.1,0.1-2.3,0.1-3.4,0.3c-2.3,0.3-4.6,0.6-6.8,0.9c-0.8,0.1-1.7,0.2-2.5,0.3c-1.5,0.2-3,0.5-4.6,0.8c-1,0.2-1.9,0.3-2.9,0.5
			c-0.7,0.1-1.4,0.3-2.1,0.4c-1.9,0.3-3.8,0.6-5.7,0.9c-2,0.4-4,0.8-6,1.2c-0.9,0.2-1.8,0.2-2.7,0.4c-1.4,0.3-2.7,0.7-4.1,1.1
			c-0.3,0.1-0.6,0.3-0.9,0.5c-1.3,1.1-2.3,2.4-2.9,4c-0.2,0.6-0.5,1.3-0.5,1.9c0,2.2-0.3,4.4,0.2,6.6c0.7,2.9,0.8,5.9,1.5,8.9
			c0.2,0.7,0.3,1.5,0.5,2.2c0.4,1.5,0.8,3,1.3,4.6c0.3,0.9,0.6,1.8,0.9,2.7C399.7,351,400,352.1,400.3,353.4z"/>
		<path class="st0" d="M400.3,353.4c-0.3-1.3-0.5-2.4-0.8-3.5c-0.2-0.9-0.6-1.8-0.9-2.7c-0.4-1.5-0.9-3-1.3-4.6
			c-0.2-0.7-0.3-1.5-0.5-2.2c-0.7-2.9-0.8-5.9-1.5-8.9c-0.5-2.2-0.2-4.4-0.2-6.6c0-0.6,0.2-1.3,0.5-1.9c0.6-1.6,1.6-2.9,2.9-4
			c0.3-0.2,0.6-0.4,0.9-0.5c1.4-0.4,2.7-0.8,4.1-1.1c0.9-0.2,1.8-0.3,2.7-0.4c2-0.4,4-0.8,6-1.2c1.9-0.3,3.8-0.6,5.7-0.9
			c0.7-0.1,1.4-0.3,2.1-0.4c1-0.2,1.9-0.3,2.9-0.5c1.5-0.3,3-0.5,4.6-0.8c0.8-0.1,1.7-0.2,2.5-0.3c2.3-0.3,4.6-0.7,6.8-0.9
			c1.1-0.1,2.3-0.2,3.4-0.3c0.3,0,0.7-0.1,1-0.3c0.9-0.5,1.8-0.4,2.5,0c1.3,0.8,2.5,1.7,3.7,2.6c0.1,0.1,0.3,0.3,0.3,0.5
			c0.4,1,0.8,2.1,1.2,3.1c0.1,0.3,0.2,0.7,0.2,1.1c0,2.4,0.1,4.7,0.6,7.1c0.2,1.1,0.3,2.3,0.3,3.5c0.2,3.3,0.4,6.7,0.5,10
			c0.1,1.8-0.1,3.6-0.2,5.5c-0.4,0.1-0.7,0.2-1,0.2c-3.7,0.5-7.4,1.1-11.1,1.6c-2.8,0.4-5.7,0.8-8.5,1.3c-2.4,0.4-4.7,1-7,1.5
			c-1.5,0.3-3.1,0.6-4.7,0.9c-2.3,0.4-4.7,0.8-7,1.2c-3.1,0.5-6.1,1.1-9.2,1.6C401.4,353.4,400.8,353.4,400.3,353.4z M404.7,321
			C404.7,321,404.7,321,404.7,321c-1.4,0.2-2.9,0.4-4.3,0.7c-0.7,0.1-0.8,0.3-0.7,1c0.2,0.8,0.4,1.7,0.6,2.5c0.4,1.6,0.7,3.3,1,4.9
			c0.1,0.4,0.3,0.7,0.3,1.1c0.2,0.9,0.3,1.7,0.5,2.6c0.3,1.2,0.6,2.5,0.8,3.7c0.5,2.3,1,4.6,1.4,7c0.2,1,0.4,2,0.6,3
			c0,0.2,0,0.5-0.1,0.7c-0.2,0.7,0,1.1,0.7,1.1c0.6,0,1.2,0,1.8-0.1c2.1-0.2,4.1-0.5,6.2-0.5c2.5-0.1,5-0.5,7.5-1.2
			c0.7-0.2,0.9-0.4,0.8-1.1c-0.1-1.9-0.2-3.8-0.4-5.7c-0.3-2.3-0.6-4.5-0.9-6.7c-0.4-2.8-0.9-5.5-1.3-8.3c-0.2-1.5-0.4-3-0.5-4.5
			c-0.1-0.8-0.4-1.2-1.2-1.2c-0.8,0-1.5,0.1-2.3,0c-2.4-0.1-4.7,0.3-7,0.6C407,320.5,405.8,320.8,404.7,321z"/>
		<path d="M370.2,280.3c-0.5-2.9-1-5.7-1.4-8.6c-0.2-1.5-0.1-3-0.2-4.5c0-0.2,0-0.3,0-0.5c-0.3-1.9-0.1-3.9,0.2-5.8
			c0.4-2.3,1.2-4.4,3-6c1.1-0.9,2.2-1.9,3.6-2.2c0.6-0.1,1.3-0.2,2-0.3c2.1-0.5,4.1-1.1,6.2-1.5c1.7-0.4,3.5-0.7,5.2-0.9
			c2.6-0.4,5.2-0.7,7.8-1c1.4-0.2,2.7-0.4,4.1-0.5c3.1-0.3,6.2-0.7,9.3-0.9c2.8-0.2,5.6-0.7,8.3-1.1c1.6-0.2,3.1-0.3,4.7-0.5
			c1.2-0.1,2.4-0.4,3.7-0.5c1.5-0.2,3-0.3,4.5-0.4c2.4-0.1,4.8-0.3,7.2-0.3c1.8,0,3.6,0,5.4,0c0.8,0.6,1.6,0.2,2.4,0.3
			c0.9,0.1,1.6,0.4,2.3,1c0.4,0.3,0.8,0.6,1.2,0.9c1.7,1.1,3.3,2.5,4.2,4.4c0.7,1.5,1.3,3.1,1.5,4.8c0.2,1.3,0.4,2.6,0.6,3.9
			c0.1,1.1,0.1,2.2,0.2,3.3c0,0.9,0.1,1.8,0.1,2.7c0,0.9-0.1,1.9,0,2.8c0,1,0.2,1.9,0.3,2.9c0,1.9,0.2,3.8,0,5.7
			c-0.1,1.5-0.1,3.1-0.2,4.6c-0.1,0.9-0.3,1.9-0.4,2.8c-0.1,1.2-0.9,2-1.6,2.8c-1.2,1.2-2.4,2.4-3.6,3.5c-0.4,0.4-1,0.7-1.5,0.9
			c-1.1,0.3-2.2,0.5-3.4,0.6c-2.2,0.1-4.5,0.2-6.7,0.6c-0.8,0.2-1.6,0.2-2.4,0.2c-1.5,0.1-3,0.2-4.4,0.4c-2.7,0.4-5.3,0.7-8,1.2
			c-1.8,0.4-3.6,0.6-5.4,1.1c-1.9,0.5-4,0.7-6,1.1c-1.9,0.3-3.7,0.8-5.6,1.1c-1,0.2-2,0.3-3,0.4c-1.9,0.4-3.8,0.7-5.7,1.1
			c-2.4,0.6-4.8,1.2-7.2,1.8c-0.6,0.2-1.3,0.2-2,0.3c-0.2,0-0.5,0-0.7,0.1c-1.4,0.7-2.9,0.3-4.3,0c-1.5-0.3-3-0.7-4.5-1.1
			c-1.4-0.5-2.5-1.4-3.5-2.4c-0.5-0.5-1.1-1-1.4-1.6c-0.5-0.8-1-1.8-1.3-2.7c-0.6-1.7-1.1-3.4-1.6-5.1c-0.8-3-1.6-6-2.4-9.1
			C370.1,280.3,370.1,280.3,370.2,280.3z M446.4,291.2c2.1-0.3,3-0.6,3.6-1.2c1.3-1.3,2.6-2.6,3.8-4c0.2-0.3,0.5-0.6,0.5-1
			c0.3-1.6,0.6-3.2,0.7-4.8c0.1-1.9,0-3.9,0-5.9c0-1.2,0-2.3,0-3.5c0-0.8-0.2-1.5-0.2-2.3c0-1.5,0-3-0.1-4.4c0-1.4-0.1-2.8-0.2-4.3
			c-0.1-1.1-0.2-2.2-0.4-3.3c-0.2-0.9-0.5-1.8-0.8-2.7c-0.6-2-1.8-3.6-3.4-4.9c-0.8-0.6-1.7-1.1-2.5-1.7c-0.7-0.6-1.5-0.8-2.4-0.5
			c-0.2,0.1-0.5,0.2-0.7,0.2c-0.3,0-0.6,0-0.8-0.2c-0.4-0.4-0.9-0.4-1.4-0.4c-1.5,0-3,0-4.5,0c-2.3,0.1-4.5,0.2-6.8,0.3
			c-1,0-1.9,0.2-2.9,0.3c-1.3,0.1-2.7,0.3-4,0.5c-2.2,0.3-4.5,0.5-6.7,0.8c-2.1,0.3-4.1,0.6-6.2,0.8c-0.7,0.1-1.4,0-2.1,0.1
			c-3,0.3-5.9,0.7-8.9,1.1c-1.3,0.2-2.6,0.3-4,0.4c-1.2,0.1-2.4,0.4-3.7,0.5c-3.2,0.3-6.3,0.7-9.3,1.4c-2.1,0.5-4.2,1-6.4,1.5
			c-1.8,0.5-3.2,1.6-4.3,3c-0.7,0.8-1,1.8-1.3,2.8c-0.2,0.5-0.4,1.1-0.4,1.6c0,1.3-0.3,2.6-0.2,4c0.1,2.8,0.1,5.6,0.6,8.4
			c0.4,2.4,0.8,4.7,1.2,7.1c0.3,1.6,0.7,3.3,1.1,4.9c0.3,1.2,0.7,2.4,1,3.6c0.4,1.4,1,2.7,1.4,4c0.7,2.4,2.2,4.1,4.1,5.5
			c0.4,0.3,0.9,0.6,1.4,0.7c1.8,0.5,3.6,0.8,5.3,1.3c0.2,0,0.4,0.1,0.7,0c0.9-0.1,1.8-0.2,2.7-0.4c2.8-0.6,5.5-1.2,8.3-1.9
			c1.9-0.4,3.8-0.9,5.7-1.3c2.5-0.5,5-0.9,7.5-1.3c2.2-0.4,4.4-0.8,6.6-1.2c1.8-0.3,3.5-0.7,5.3-1.1c2-0.4,4-0.8,6-1.1
			c3-0.4,6-0.6,9-0.9c1.6-0.2,3.2-0.4,4.8-0.5C444.2,291.3,445.7,291.2,446.4,291.2z"/>
		<g>
			<path class="st2" d="M354.2,258.4c0.4,1.5,0.9,3.1,1,4.7c0,0.1,0,0.2,0.1,0.3c0-0.1-0.1-0.2-0.1-0.3
				C355.1,261.5,354.7,259.9,354.2,258.4z"/>
			<path class="st2" d="M361.6,263.1c0.2,0,0.5-0.1,0.7-0.1c0.1,0,0.2,0,0.3-0.1c-0.1,0-0.2,0-0.3,0.1
				C362,263.1,361.8,263.1,361.6,263.1z"/>
			<path class="st2" d="M360.5,254.2c-0.1,0-0.3,0-0.5,0c-1.2,0.2-2.3,0.4-3.5,0.6c1.2-0.2,2.3-0.4,3.5-0.6
				C360.2,254.2,360.4,254.2,360.5,254.2z"/>
			<path class="st2" d="M355.8,264.5c0.3,0.2,0.7,0.2,1.3-0.1c0.3-0.2,0.6-0.3,0.9-0.4c-0.3,0.1-0.6,0.3-0.9,0.4
				C356.6,264.7,356.1,264.7,355.8,264.5z"/>
			<path class="st2" d="M361.2,254.7c0,0.1,0.1,0.1,0.1,0.2C361.2,254.9,361.2,254.8,361.2,254.7z"/>
			<path class="st2" d="M355.1,255.1c0.3-0.1,0.6-0.2,1-0.2C355.8,255,355.4,255,355.1,255.1z"/>
			<path class="st2" d="M356.6,254.8c-0.2,0-0.3,0.1-0.5,0.1C356.2,254.9,356.4,254.8,356.6,254.8L356.6,254.8z"/>
			<path class="st2" d="M449.6,247c-0.4-0.3-0.9-0.5-1.2-0.9c-0.7-0.6-1.4-0.9-2.3-1c-0.8-0.1-1.7,0.3-2.4-0.3c-1.8,0-3.6-0.1-5.4,0
				c-2.4,0.1-4.8,0.2-7.2,0.3c-1.5,0.1-3,0.2-4.5,0.4c-1.2,0.1-2.4,0.4-3.7,0.5c-1.6,0.2-3.1,0.3-4.7,0.5c-2.8,0.4-5.5,0.9-8.3,1.1
				c-3.1,0.2-6.2,0.6-9.3,0.9c-1.4,0.1-2.7,0.3-4.1,0.5c-2.6,0.3-5.2,0.6-7.8,1c-1.8,0.2-3.5,0.5-5.2,0.9c-2.1,0.4-4.1,1-6.2,1.5
				c-0.6,0.2-1.3,0.2-2,0.3c-1.4,0.3-2.5,1.3-3.6,2.2c-1.8,1.6-2.6,3.7-3,6c-0.3,1.9-0.5,3.8-0.2,5.8c0,0.2,0,0.3,0,0.5
				c0.1,1.5,0,3,0.2,4.5c0.4,2.9,0.9,5.7,1.4,8.6c0,0-0.1,0-0.1,0c0.8,3,1.6,6.1,2.4,9.1c0.5,1.7,1,3.4,1.6,5.1
				c0.3,0.9,0.8,1.8,1.3,2.7c0.4,0.6,1,1.1,1.4,1.6c1,1.1,2.1,2,3.5,2.4c1.5,0.5,3,0.9,4.5,1.1c1.4,0.3,2.8,0.7,4.3,0
				c0.2-0.1,0.4-0.1,0.7-0.1c0.7-0.1,1.3-0.2,2-0.3c2.4-0.6,4.8-1.2,7.2-1.8c1.9-0.4,3.8-0.8,5.7-1.1c1-0.2,2-0.3,3-0.4
				c1.9-0.3,3.7-0.8,5.6-1.1c2-0.4,4-0.5,6-1.1c1.8-0.5,3.6-0.7,5.4-1.1c2.6-0.6,5.3-0.9,8-1.2c1.5-0.2,2.9-0.3,4.4-0.4
				c0.8-0.1,1.6-0.1,2.4-0.2c2.2-0.5,4.5-0.5,6.7-0.6c1.1-0.1,2.3-0.3,3.4-0.6c0.6-0.1,1.1-0.5,1.5-0.9c1.2-1.1,2.4-2.3,3.6-3.5
				c0.8-0.8,1.5-1.6,1.6-2.8c0.1-0.9,0.3-1.9,0.4-2.8c0.1-1.5,0.1-3.1,0.2-4.6c0.2-1.9,0-3.8,0-5.7c0-1-0.2-1.9-0.3-2.9
				c0-0.9,0-1.9,0-2.8c0-0.9-0.1-1.8-0.1-2.7c-0.1-1.1-0.1-2.2-0.2-3.3c-0.1-1.3-0.4-2.6-0.6-3.9c-0.2-1.7-0.8-3.2-1.5-4.8
				C452.9,249.5,451.4,248.2,449.6,247z"/>
			<path class="st2" d="M363.2,261.9c0-0.1-0.1-0.2-0.1-0.3c-0.2-0.3-0.3-0.7-0.5-1c0.1,0.4,0.3,0.7,0.5,1
				C363.1,261.7,363.1,261.8,363.2,261.9z"/>
			<g>
				<path class="st2" d="M354.5,259.6c0.3,1.2,0.6,2.3,0.6,3.6c0,0.1,0,0.2,0.1,0.3c0-0.1-0.1-0.2-0.1-0.3
					C355.1,261.9,354.9,260.7,354.5,259.6z"/>
				<path class="st2" d="M356.7,264.6c-0.1,0-0.2,0.1-0.3,0.1C356.5,264.6,356.6,264.6,356.7,264.6z"/>
				<path class="st2" d="M361.6,263.1c0.2,0,0.5-0.1,0.7-0.1c0.1,0,0.2,0,0.3-0.1c-0.1,0-0.2,0-0.3,0.1
					C362,263.1,361.8,263.1,361.6,263.1z"/>
				<path class="st2" d="M360.5,254.2c-0.1,0-0.3,0-0.5,0c-0.4,0.1-0.9,0.1-1.3,0.2c0.4-0.1,0.9-0.2,1.3-0.2
					C360.2,254.2,360.4,254.2,360.5,254.2z"/>
				<path class="st2" d="M353.9,255.6c-0.2,0.3-0.2,0.6-0.1,1.2C353.7,256.2,353.7,255.9,353.9,255.6z"/>
				<path class="st2" d="M449.6,247c-0.4-0.3-0.9-0.5-1.2-0.9c-0.7-0.6-1.4-0.9-2.3-1c-0.8-0.1-1.7,0.3-2.4-0.3
					c-1.8,0-3.6-0.1-5.4,0c-2.4,0.1-4.8,0.2-7.2,0.3c-1.5,0.1-3,0.2-4.5,0.4c-1.2,0.1-2.4,0.4-3.7,0.5c-1.6,0.2-3.1,0.3-4.7,0.5
					c-2.8,0.4-5.5,0.9-8.3,1.1c-3.1,0.2-6.2,0.6-9.3,0.9c-1.4,0.1-2.7,0.3-4.1,0.5c-2.6,0.3-5.2,0.6-7.8,1c-1.8,0.2-3.5,0.5-5.2,0.9
					c-2.1,0.4-4.1,1-6.2,1.5c-0.6,0.2-1.3,0.2-2,0.3c-1.4,0.3-2.5,1.3-3.6,2.2c-1.8,1.6-2.6,3.7-3,6c-0.3,1.9-0.5,3.8-0.2,5.8
					c0,0.2,0,0.3,0,0.5c0.1,1.5,0,3,0.2,4.5c0.4,2.9,0.9,5.7,1.4,8.6c0,0-0.1,0-0.1,0c0.8,3,1.6,6.1,2.4,9.1c0.5,1.7,1,3.4,1.6,5.1
					c0.3,0.9,0.8,1.8,1.3,2.7c0.4,0.6,1,1.1,1.4,1.6c1,1.1,2.1,2,3.5,2.4c1.5,0.5,3,0.9,4.5,1.1c1.4,0.3,2.8,0.7,4.3,0
					c0.2-0.1,0.4-0.1,0.7-0.1c0.7-0.1,1.3-0.2,2-0.3c2.4-0.6,4.8-1.2,7.2-1.8c1.9-0.4,3.8-0.8,5.7-1.1c1-0.2,2-0.3,3-0.4
					c1.9-0.3,3.7-0.8,5.6-1.1c2-0.4,4-0.5,6-1.1c1.8-0.5,3.6-0.7,5.4-1.1c2.6-0.6,5.3-0.9,8-1.2c1.5-0.2,2.9-0.3,4.4-0.4
					c0.8-0.1,1.6-0.1,2.4-0.2c2.2-0.5,4.5-0.5,6.7-0.6c1.1-0.1,2.3-0.3,3.4-0.6c0.6-0.1,1.1-0.5,1.5-0.9c1.2-1.1,2.4-2.3,3.6-3.5
					c0.8-0.8,1.5-1.6,1.6-2.8c0.1-0.9,0.3-1.9,0.4-2.8c0.1-1.5,0.1-3.1,0.2-4.6c0.2-1.9,0-3.8,0-5.7c0-1-0.2-1.9-0.3-2.9
					c0-0.9,0-1.9,0-2.8c0-0.9-0.1-1.8-0.1-2.7c-0.1-1.1-0.1-2.2-0.2-3.3c-0.1-1.3-0.4-2.6-0.6-3.9c-0.2-1.7-0.8-3.2-1.5-4.8
					C452.9,249.5,451.4,248.2,449.6,247z"/>
				<path class="st0" d="M468.9,239.3c-1.8-0.4-3.6-0.7-5.4-1.1c-3.6-0.7-7.2-0.9-10.8-1.2c-2.1-0.2-4.3,0-6.4,0
					c-1.1,0-2.2,0.1-3.3,0.1c-2,0-3.9,0-5.9,0c-1.4,0-2.7,0.1-4.1,0.1c-3.3,0.1-6.6,0.1-9.9,0.3c-3,0.2-6,0.6-9,0.9
					c-1.9,0.2-3.7,0.4-5.6,0.6c-1.5,0.1-3.1,0.2-4.6,0.4c-0.7,0.1-1.3,0.2-2,0.3c-2.6,0.3-5.2,0.5-7.8,0.8c-1,0.1-2.1,0.3-3.1,0.5
					c-2.3,0.5-4.7,0.6-7.1,1.1c-2.3,0.6-4.7,0.9-7.1,1.3c-1.4,0.2-2.9,0.5-4.3,0.7c-2.6,0.5-5.1,1.1-7.6,1.9c-1,0.3-2,0.4-2.9,0.7
					c-1.7,0.5-3.3,1.2-4.9,1.7c-2.6,0.8-5.1,1.7-7.6,2.8c-0.6,0.2-0.8,0.6-0.8,1.1c0,1.2-0.1,2.3-0.1,3.5c0,1.4,0.1,2.7,0.1,4.1
					c0,0.9,0,1.8,0.1,2.6c0.1,1.3,0.3,2.5,0.5,3.8c0.2,2.3,0.4,4.5,0.7,6.8c0.1,0.9,0.2,1.8,0.3,2.7c0.1,0.9,0.1,1.9,0.2,2.8
					c0.2,1.9,0.5,3.8,0.8,5.7c0.1,1.1,0.2,2.3,0.4,3.4c0.3,1.9,0.8,3.7,1.1,5.6c0.3,1.9,0.8,3.8,1.2,5.6c0.8,3.5,1.6,7,2.5,10.5
					c0.4,1.8,0.8,3.6,1.3,5.3c0.3,1.3,0.8,2.7,1.1,4c0.5,1.7,0.9,3.3,1.3,5c0.4,1.5,0.6,2.9,1.1,4.4c0.6,1.5,0.9,3.1,1.3,4.6
					c0.4,1.3,0.9,2.6,1.3,3.8c0.4,1.3,0.8,2.7,1.3,4.1c0.5,1.7,1.1,3.5,1.6,5.2c0.5,1.8,1,3.5,1.5,5.3c0.1,0.4,0.3,0.7,0.7,0.8
					c0.9,0.3,1.6,0.9,2.4,1.5c0.6,0.5,1.4,0.9,2.1,1.4c1,0.7,1.9,1.4,3,2.1c0.3,0.2,0.7,0.3,1,0.2c2.2-0.3,4.4-0.7,6.5-1.1
					c0.4-0.1,0.5-0.2,0.7-0.6c0.3-0.7,0.6-1.5,0.9-2.2c0.6-1.1,1.3-2.2,2.7-2.5c0.4-0.1,0.8-0.3,1.3-0.4c1.4-0.3,2.8-0.5,4.2-0.7
					c1.1-0.2,2.3-0.3,3.5-0.7c-0.2-0.6-0.3-1.2-0.5-1.8c-0.9-2.7-1.7-5.4-2.1-8.2c-0.4-2.2-0.7-4.4-1.1-6.6
					c-0.1-0.8-0.4-1.7-0.4-2.5c0-1.9,0-3.8,0.1-5.7c0-0.5,0.3-1.1,0.4-1.6c0.4-1.2,1.3-2.1,2-3.2c0.8-1.1,1.8-1.8,3.1-2.2
					c1.2-0.3,2.5-0.6,3.8-0.9c1.6-0.4,3.2-0.8,4.9-1.1c2.9-0.5,5.8-1,8.7-1.5c2.5-0.4,5-0.9,7.6-1.3c2.6-0.4,5.2-0.7,7.8-1.1
					c1.8-0.3,3.7-0.6,5.5-0.8c1.7-0.2,3.3-0.5,5-0.6c0.8-0.1,1.7,0,2.4,0.5c1.2,0.8,2.4,1.7,3.6,2.6c0.4,0.3,0.7,0.8,0.9,1.2
					c0.4,0.9,0.6,1.8,1,2.6c0.3,0.6,0.3,1.2,0.4,1.8c0,1.7,0.1,3.5,0.3,5.2c0.1,1.3,0.4,2.7,0.6,4c0.2,2.4,0.3,4.8,0.5,7.2
					c0.1,1.2,0.1,2.4,0.1,3.6c0,0.9,0,1.7,0.1,2.7c0.7-0.1,1.4-0.3,2-0.3c1.7-0.2,3.4-0.3,5.1-0.6c1.5-0.2,3-0.5,4.6-0.8
					c0.5-0.1,0.8,0,1.2,0.4c0.5,0.6,1.1,1.2,1.6,1.8c0.4,0.5,0.9,0.6,1.5,0.5c1.1-0.2,2.3-0.4,3.5-0.6c0.7-0.1,1.3-0.2,2-0.3
					c1.3-0.3,1.7-1.1,1.3-2.3c-0.4-1.5-0.8-3.1-1.1-4.6c-0.4-2.6-0.7-5.3-1-7.9c-0.2-1.5-0.5-3-0.7-4.5c-0.2-1.8-0.5-3.7-0.7-5.6
					c-0.2-1.8-0.3-3.7-0.4-5.5c-0.1-2.6-0.2-5.2-0.3-7.9c-0.1-2.1-0.3-4.2-0.4-6.2c-0.2-3-0.4-6.1-0.5-9.1c-0.1-3.7-0.2-7.3-0.2-11
					c0-3.6,0.1-7.1,0.1-10.7c0-1.9,0.2-3.7,0.2-5.6c0-3.9,0-7.8,0.1-11.8c0-0.2,0.1-0.5,0.1-0.7c0.1-1,0.3-2.1,0.3-3.1
					c0-1.5-0.1-2.9-0.2-4.4C470,240.2,469.4,239.4,468.9,239.3z M455.3,256.2c0.2,1.3,0.4,2.6,0.6,3.9c0.1,1.1,0.1,2.2,0.2,3.3
					c0,0.9,0.1,1.8,0.1,2.7c0,0.9-0.1,1.9,0,2.8c0,1,0.2,1.9,0.3,2.9c0,1.9,0.2,3.8,0,5.7c-0.1,1.5-0.1,3.1-0.2,4.6
					c-0.1,0.9-0.3,1.9-0.4,2.8c-0.1,1.2-0.9,2-1.6,2.8c-1.2,1.2-2.4,2.4-3.6,3.5c-0.4,0.4-1,0.7-1.5,0.9c-1.1,0.3-2.2,0.5-3.4,0.6
					c-2.2,0.1-4.5,0.2-6.7,0.6c-0.8,0.2-1.6,0.2-2.4,0.2c-1.5,0.1-3,0.2-4.4,0.4c-2.7,0.4-5.3,0.7-8,1.2c-1.8,0.4-3.6,0.6-5.4,1.1
					c-1.9,0.5-4,0.7-6,1.1c-1.9,0.3-3.7,0.8-5.6,1.1c-1,0.2-2,0.3-3,0.4c-1.9,0.4-3.8,0.7-5.7,1.1c-2.4,0.6-4.8,1.2-7.2,1.8
					c-0.6,0.2-1.3,0.2-2,0.3c-0.2,0-0.5,0-0.7,0.1c-1.4,0.7-2.9,0.3-4.3,0c-1.5-0.3-3-0.7-4.5-1.1c-1.4-0.5-2.5-1.4-3.5-2.4
					c-0.5-0.5-1.1-1-1.4-1.6c-0.5-0.8-1-1.8-1.3-2.7c-0.6-1.7-1.1-3.4-1.6-5.1c-0.8-3-1.6-6-2.4-9.1c0,0,0.1,0,0.1,0
					c-0.5-2.9-1-5.7-1.4-8.6c-0.2-1.5-0.1-3-0.2-4.5c0-0.2,0-0.3,0-0.5c-0.3-1.9-0.1-3.9,0.2-5.8c0.4-2.3,1.2-4.4,3-6
					c1.1-0.9,2.2-1.9,3.6-2.2c0.6-0.1,1.3-0.2,2-0.3c2.1-0.5,4.1-1.1,6.2-1.5c1.7-0.4,3.5-0.7,5.2-0.9c2.6-0.4,5.2-0.7,7.8-1
					c1.4-0.2,2.7-0.4,4.1-0.5c3.1-0.3,6.2-0.7,9.3-0.9c2.8-0.2,5.6-0.7,8.3-1.1c1.6-0.2,3.1-0.3,4.7-0.5c1.2-0.1,2.4-0.4,3.7-0.5
					c1.5-0.2,3-0.3,4.5-0.4c2.4-0.1,4.8-0.3,7.2-0.3c1.8,0,3.6,0,5.4,0c0.8,0.6,1.6,0.2,2.4,0.3c0.9,0.1,1.6,0.4,2.3,1
					c0.4,0.3,0.8,0.6,1.2,0.9c1.7,1.1,3.3,2.5,4.2,4.4C454.5,253,455.1,254.5,455.3,256.2z"/>
				<path d="M362.2,256.5c-0.1-0.7-0.3-1.4-0.4-2.1c0-0.1,0-0.2-0.1-0.3c0-0.1-0.1-0.2-0.1-0.2c-0.1-0.3-0.3-0.4-0.6-0.5
					c-0.1,0-0.3,0-0.5,0c-0.4,0.1-0.9,0.1-1.3,0.2c-0.7,0.1-1.4,0.2-2.1,0.4c0,0,0,0,0-0.1c-0.2,0-0.3,0.1-0.5,0.1
					c-0.3,0.1-0.7,0.1-1,0.2c-0.2,0-0.3,0.1-0.5,0.1c-0.3,0.1-0.6,0.2-0.7,0.4c-0.2,0.3-0.2,0.6-0.1,1.2c0.1,0.5,0.3,1,0.4,1.6
					c0.1,0.4,0.2,0.8,0.3,1.2c0.3,1.2,0.6,2.3,0.6,3.6c0,0.1,0,0.2,0.1,0.3c0,0.1,0.1,0.2,0.1,0.3c0.1,0.3,0.3,0.6,0.5,0.7
					c0.2,0.1,0.3,0.2,0.6,0.2c0.1,0,0.2,0,0.3-0.1c0.1,0,0.2-0.1,0.4-0.2c0.3-0.2,0.6-0.3,0.9-0.4c0.9-0.4,1.8-0.7,2.9-0.8
					c0.2,0,0.5,0,0.7-0.1s0.5-0.1,0.7-0.1c0.1,0,0.2,0,0.3-0.1c0.1,0,0.2-0.1,0.2-0.1c0.2-0.1,0.3-0.3,0.4-0.5c0-0.1,0-0.1,0-0.2
					c0-0.1,0-0.2,0-0.3c0-0.1-0.1-0.2-0.1-0.3c-0.2-0.3-0.3-0.7-0.5-1c-0.1-0.4-0.3-0.7-0.4-1.1C362.5,258,362.3,257.3,362.2,256.5z
					"/>
			</g>
			<path d="M356.6,254.8L356.6,254.8C356.6,254.8,356.6,254.8,356.6,254.8C356.6,254.8,356.6,254.8,356.6,254.8z"/>
		</g>
		<path d="M404.7,321c1.2-0.2,2.4-0.5,3.6-0.6c2.3-0.2,4.6-0.7,7-0.6c0.8,0,1.5-0.1,2.3,0c0.8,0,1.2,0.4,1.2,1.2
			c0.1,1.5,0.3,3,0.5,4.5c0.4,2.8,0.9,5.5,1.3,8.3c0.3,2.2,0.7,4.5,0.9,6.7c0.2,1.9,0.3,3.8,0.4,5.7c0,0.7-0.1,0.9-0.8,1.1
			c-2.4,0.7-4.9,1.1-7.5,1.2c-2.1,0.1-4.1,0.4-6.2,0.5c-0.6,0.1-1.2,0.1-1.8,0.1c-0.7,0-0.9-0.4-0.7-1.1c0.1-0.2,0.1-0.5,0.1-0.7
			c-0.2-1-0.4-2-0.6-3c-0.5-2.3-0.9-4.6-1.4-7c-0.3-1.2-0.6-2.5-0.8-3.7c-0.2-0.9-0.3-1.7-0.5-2.6c-0.1-0.4-0.3-0.7-0.3-1.1
			c-0.4-1.6-0.7-3.3-1-4.9c-0.2-0.8-0.4-1.7-0.6-2.5c-0.1-0.7,0-0.8,0.7-1C401.8,321.4,403.2,321.2,404.7,321
			C404.7,321,404.7,321,404.7,321z M419.6,337.5c-1-0.3-1.9-0.6-2.9-0.7c-0.5-0.1-1,0-1.5,0.2c-0.2,0.1-0.4,0.5-0.5,0.8
			c-0.5,1.1-1.1,1.3-2.1,0.7c-0.7-0.4-1.4-0.4-2,0.2c-0.7,0.6-1.4,1.2-1.9,2c-0.4,0.6-0.8,1.3-0.8,2.3c0.5-0.1,0.9-0.2,1.2-0.3
			c1.6-0.6,3.1-1.3,4.7-1.8c1.6-0.6,3.3-1,4.9-1.5c1-0.3,1-0.4,0.9-1.4C419.7,337.8,419.6,337.7,419.6,337.5z M419.9,340.4
			c-0.6,0.2-1,0.3-1.5,0.5c-0.9,0.2-1.8,0.5-2.7,0.7c-0.4,0.1-0.6,0.3-0.6,0.8c0.1,0.8,0,1.7,0.4,2.5c0.3,0.7,0.4,1.4,0.7,2.2
			c1.4-0.3,2.7-0.6,4.2-1C420.3,344.1,420.1,342.2,419.9,340.4z M409.5,327.3c-0.5-1.9-0.9-3.6-1.3-5.4c-0.9,0.2-1.8,0.3-2.7,0.5
			c0.1,1.2,0.3,2.3,0.4,3.5c0,0.9,0.4,1.5,0.8,2.3C407.6,327.8,408.5,327.5,409.5,327.3z M414.1,325.6c-0.1-1.3-0.3-2.5-0.4-3.6
			c0-0.4-0.2-0.7-0.7-0.7c-0.9,0.1-1.8,0.2-2.7,0.3c-0.2,0-0.3,0.2-0.5,0.3c0.1,0.4,0.2,0.7,0.3,1c0.1,0.3,0.2,0.5,0.2,0.8
			c0.2,0.8,0.3,1.6,0.5,2.4c0.2,0.6,0.3,0.6,0.9,0.4C412.4,326.2,413.2,325.9,414.1,325.6z M413.6,342.2c-1.1,0.4-2.2,0.8-3.2,1.3
			c-0.1,0.1-0.3,0.4-0.2,0.6c0.2,1,0.4,1.9,0.7,2.8c0.1,0.3,0.3,0.5,0.7,0.5c1.1-0.1,2.2-0.2,3.2-0.3
			C414.3,345.5,413.9,343.9,413.6,342.2z M401.4,322.9c0,0.2-0.1,0.3,0,0.4c0.4,1.8,0.7,3.6,1.1,5.4c0.1,0.3,0.3,0.6,0.4,1
			c0.6-0.2,1.1-0.4,1.6-0.6c0.6-0.2,0.7-0.4,0.5-1c-0.4-1-0.5-2-0.6-3c-0.1-0.5-0.1-1.1-0.3-1.6c-0.1-0.3-0.3-0.6-0.4-0.9
			C402.9,322.6,402.1,322.8,401.4,322.9z M406.1,344.9c0.1,0.9,0.3,1.6,0.4,2.3c0.1,0.3,0.2,0.7,0.7,0.6c0.7-0.1,1.4-0.2,2.1-0.3
			c-0.2-1.2-0.4-2.3-0.6-3.4C407.7,344.4,406.9,344.6,406.1,344.9z M415.2,321.4c0.1,1.3-0.1,2.5,0.4,3.7c0.6-0.3,1.1-0.5,1.6-0.7
			c-0.2-1-0.3-2-0.5-3C416.2,321.3,415.8,321.3,415.2,321.4z"/>
		<path class="st3" d="M446.4,291.2c-0.7,0-2.1,0.1-3.5,0.2c-1.6,0.1-3.2,0.3-4.8,0.5c-3,0.3-6,0.6-9,0.9c-2,0.3-4,0.7-6,1.1
			c-1.8,0.3-3.5,0.7-5.3,1.1c-2.2,0.4-4.4,0.8-6.6,1.2c-2.5,0.4-5,0.8-7.5,1.3c-1.9,0.4-3.8,0.8-5.7,1.3c-2.8,0.6-5.5,1.3-8.3,1.9
			c-0.9,0.2-1.8,0.3-2.7,0.4c-0.2,0-0.4,0-0.7,0c-1.8-0.4-3.6-0.8-5.3-1.3c-0.5-0.1-1-0.4-1.4-0.7c-1.9-1.4-3.4-3.2-4.1-5.5
			c-0.4-1.4-0.9-2.7-1.4-4c-0.4-1.2-0.7-2.4-1-3.6c-0.4-1.6-0.8-3.3-1.1-4.9c-0.4-2.4-0.8-4.7-1.2-7.1c-0.5-2.8-0.5-5.6-0.6-8.4
			c-0.1-1.3,0.2-2.6,0.2-4c0-0.5,0.3-1.1,0.4-1.6c0.3-1,0.6-2,1.3-2.8c1.2-1.4,2.5-2.6,4.3-3c2.1-0.5,4.2-1,6.4-1.5
			c3.1-0.7,6.2-1.2,9.3-1.4c1.2-0.1,2.4-0.3,3.7-0.5c1.3-0.2,2.6-0.3,4-0.4c3-0.4,5.9-0.7,8.9-1.1c0.7-0.1,1.4,0,2.1-0.1
			c2.1-0.3,4.1-0.6,6.2-0.8c2.2-0.3,4.5-0.5,6.7-0.8c1.3-0.2,2.7-0.3,4-0.5c1-0.1,1.9-0.2,2.9-0.3c2.3-0.1,4.5-0.2,6.8-0.3
			c1.5,0,3,0,4.5,0c0.5,0,1,0,1.4,0.4c0.2,0.2,0.5,0.2,0.8,0.2c0.2,0,0.5-0.1,0.7-0.2c0.9-0.2,1.6-0.1,2.4,0.5
			c0.8,0.6,1.7,1.1,2.5,1.7c1.6,1.3,2.8,2.9,3.4,4.9c0.3,0.9,0.6,1.8,0.8,2.7c0.2,1.1,0.3,2.2,0.4,3.3c0.1,1.4,0.2,2.8,0.2,4.3
			c0.1,1.5,0,3,0.1,4.4c0,0.8,0.2,1.5,0.2,2.3c0,1.2,0,2.3,0,3.5c0,2,0.1,3.9,0,5.9c-0.1,1.6-0.4,3.2-0.7,4.8
			c-0.1,0.3-0.3,0.7-0.5,1c-1.2,1.3-2.5,2.7-3.8,4C449.4,290.5,448.5,290.8,446.4,291.2z M388.7,266.9c-0.3,0.1-0.6,0.1-0.8,0.2
			c-1.6,0.3-3.2,1-4.4,2.1c-1,1-2,2-3,3c-1,0.9-1.4,2-1.7,3.3c-0.4,1.5-0.7,3-1.1,4.4c-0.8,3-0.3,5.9,0.8,8.7c0.7,1.9,2,3.3,3.6,4.4
			c1.6,1.1,3.2,2.1,5.1,2.5c2.3,0.5,4.7,0.5,7-0.2c2.5-0.7,4.7-1.8,6.3-3.9c0.3-0.4,0.6-0.8,0.9-1.1c1.4-1.2,2.4-2.6,3.1-4.3
			c0.8-1.9,1.5-3.8,1.5-5.9c0-0.7-0.2-1.5-0.2-2.3c0-1.4-0.3-2.6-0.7-3.9c-0.7-2-1.9-3.5-3.7-4.6c-1.6-0.9-3.3-1.7-5.1-2.1
			C393.8,266.5,391.3,266.4,388.7,266.9z M435.4,283.2c3-0.5,5-2.1,6.5-4.3c0.9-1.4,1.4-2.9,1.9-4.5c0.8-2.6,0-4.8-1.1-7.1
			c-0.1-0.2-0.2-0.3-0.3-0.5c-0.7-0.8-1.4-1.6-2.1-2.4c-0.9-1-1.8-1.9-3-2.5c-1.3-0.7-2.8-0.8-4.2-0.6c-1.6,0.2-3.1,0.9-4.3,1.9
			c-1.5,1.3-2.6,2.9-3.5,4.7c-0.7,1.4-1.2,2.9-1,4.5c0,0.3,0.1,0.6,0.1,0.9c0.2,3.1,1.3,5.7,3.6,7.8c1.5,1.3,3.3,2,5.2,2.1
			C434,283.4,434.8,283.3,435.4,283.2z"/>
		<path class="st4" d="M419.6,337.5c0,0.1,0.1,0.3,0.1,0.4c0.1,1,0,1.1-0.9,1.4c-1.6,0.5-3.3,0.9-4.9,1.5c-1.6,0.5-3.1,1.2-4.7,1.8
			c-0.3,0.1-0.7,0.2-1.2,0.3c0-0.9,0.3-1.7,0.8-2.3c0.5-0.7,1.2-1.4,1.9-2c0.6-0.5,1.3-0.5,2-0.2c1,0.6,1.6,0.4,2.1-0.7
			c0.1-0.3,0.3-0.7,0.5-0.8c0.5-0.2,1-0.3,1.5-0.2C417.7,337,418.6,337.3,419.6,337.5z"/>
		<path class="st0" d="M419.9,340.4c0.2,1.9,0.4,3.7,0.6,5.7c-1.4,0.3-2.8,0.7-4.2,1c-0.2-0.8-0.4-1.5-0.7-2.2
			c-0.3-0.8-0.3-1.7-0.4-2.5c-0.1-0.5,0.1-0.7,0.6-0.8c0.9-0.2,1.8-0.4,2.7-0.7C418.9,340.7,419.3,340.6,419.9,340.4z"/>
		<path class="st0" d="M409.5,327.3c-0.9,0.3-1.8,0.6-2.8,0.8c-0.4-0.8-0.7-1.4-0.8-2.3c0-1.1-0.2-2.2-0.4-3.5
			c0.9-0.1,1.7-0.3,2.7-0.5C408.6,323.6,409,325.4,409.5,327.3z"/>
		<path class="st0" d="M414.1,325.6c-0.9,0.3-1.6,0.6-2.5,0.8c-0.6,0.2-0.8,0.1-0.9-0.4c-0.2-0.8-0.3-1.6-0.5-2.4
			c-0.1-0.3-0.1-0.5-0.2-0.8c-0.1-0.3-0.2-0.7-0.3-1c0.2-0.1,0.4-0.3,0.5-0.3c0.9-0.1,1.8-0.2,2.7-0.3c0.5,0,0.6,0.3,0.7,0.7
			C413.8,323.2,413.9,324.4,414.1,325.6z"/>
		<path class="st0" d="M413.6,342.2c0.4,1.7,0.7,3.2,1.1,4.9c-1,0.1-2.1,0.2-3.2,0.3c-0.4,0-0.6-0.2-0.7-0.5
			c-0.2-0.9-0.5-1.9-0.7-2.8c0-0.2,0.1-0.5,0.2-0.6C411.4,343.1,412.5,342.7,413.6,342.2z"/>
		<path class="st0" d="M401.4,322.9c0.7-0.1,1.5-0.2,2.3-0.4c0.1,0.2,0.3,0.5,0.4,0.9c0.1,0.5,0.2,1.1,0.3,1.6c0.1,1,0.2,2.1,0.6,3
			c0.2,0.6,0.1,0.8-0.5,1c-0.5,0.2-1,0.4-1.6,0.6c-0.2-0.3-0.4-0.6-0.4-1c-0.4-1.8-0.8-3.6-1.1-5.4
			C401.4,323.2,401.4,323.1,401.4,322.9z"/>
		<path class="st0" d="M406.1,344.9c0.9-0.3,1.6-0.5,2.6-0.8c0.2,1.1,0.4,2.2,0.6,3.4c-0.7,0.1-1.4,0.2-2.1,0.3
			c-0.5,0.1-0.6-0.3-0.7-0.6C406.3,346.5,406.2,345.7,406.1,344.9z"/>
		<path class="st0" d="M415.2,321.4c0.5,0,1,0,1.5,0c0.2,1,0.3,2,0.5,3c-0.5,0.2-1,0.5-1.6,0.7C415.2,323.9,415.3,322.6,415.2,321.4
			z"/>
		<path d="M388.7,266.9c2.5-0.5,5.1-0.4,7.6,0.2c1.8,0.5,3.5,1.2,5.1,2.1c1.8,1.1,3,2.6,3.7,4.6c0.4,1.3,0.7,2.5,0.7,3.9
			c0,0.7,0.2,1.5,0.2,2.3c0,2.1-0.8,4-1.5,5.9c-0.7,1.7-1.7,3.1-3.1,4.3c-0.4,0.3-0.6,0.7-0.9,1.1c-1.6,2.1-3.8,3.3-6.3,3.9
			c-2.3,0.6-4.7,0.7-7,0.2c-1.9-0.4-3.5-1.4-5.1-2.5c-1.6-1.1-2.9-2.6-3.6-4.4c-1.1-2.8-1.6-5.7-0.8-8.7c0.4-1.5,0.7-2.9,1.1-4.4
			c0.3-1.2,0.7-2.4,1.7-3.3c1.1-0.9,2-2,3-3c1.2-1.1,2.8-1.8,4.4-2.1C388.2,267,388.5,266.9,388.7,266.9z M389.6,268.4
			c-1.8,0.3-3.5,1-4.9,2.1c-0.8,0.7-1.5,1.5-2.3,2.2c-0.9,0.8-1.5,1.7-1.8,2.9c-0.4,1.6-0.9,3.1-1.2,4.7c-0.4,2-0.2,4.1,0.3,6.1
			c0.5,1.9,1.4,3.6,3.1,4.7c1.1,0.7,2.1,1.3,3.2,1.9c0.6,0.3,1.2,0.6,1.9,0.7c2.7,0.4,5.3,0.2,7.8-0.9c1.3-0.6,2.5-1.4,3.3-2.7
			c0.3-0.5,0.8-0.9,1.3-1.4c0.6-0.6,1.1-1.3,1.6-1.9c0.6-0.7,0.8-1.6,1.2-2.4c0.8-1.5,1.2-3.1,1.1-4.8c0-1.2-0.1-2.3-0.3-3.5
			c-0.3-1.9-1-3.8-2.7-5c-0.7-0.5-1.6-1-2.4-1.4C395.9,268.3,392.8,268,389.6,268.4z"/>
		<path d="M435.4,283.2c-0.6,0-1.4,0.2-2.1,0.1c-2-0.1-3.8-0.8-5.2-2.1c-2.3-2.1-3.4-4.7-3.6-7.8c0-0.3,0-0.6-0.1-0.9
			c-0.2-1.6,0.2-3.1,1-4.5c0.9-1.7,2-3.4,3.5-4.7c1.3-1.1,2.7-1.7,4.3-1.9c1.5-0.2,2.9-0.1,4.2,0.6c1.2,0.6,2.1,1.5,3,2.5
			c0.7,0.8,1.4,1.6,2.1,2.4c0.1,0.1,0.2,0.3,0.3,0.5c1.1,2.2,1.9,4.5,1.1,7.1c-0.5,1.6-1,3.1-1.9,4.5
			C440.3,281.2,438.3,282.8,435.4,283.2z M434.6,281.4c2.1,0.1,3.5-1.1,4.9-2.3c0.4-0.4,0.7-0.9,1-1.3c0.9-1.2,1.2-2.7,1.6-4.1
			c0.3-1.1,0.4-2.2-0.1-3.2c-0.2-0.3-0.2-0.7-0.3-1.1c-0.3-0.6-0.5-1.2-0.9-1.8c-1-1.4-2.2-2.7-3.5-3.8c-0.3-0.3-0.8-0.4-1.3-0.6
			c-0.9-0.3-1.9-0.1-2.8,0.1c-1.3,0.2-2.4,0.8-3.4,1.8c-0.7,0.7-1.4,1.4-2,2.3c-0.6,0.9-1.2,1.8-1.5,2.8c-0.2,0.9-0.2,1.7-0.2,2.6
			c0,1.7,0.4,3.3,1.1,4.8c0.5,1.2,1.3,2.2,2.4,2.9C431.2,281.4,432.8,282.1,434.6,281.4z"/>
		<path class="st0" d="M389.6,268.4c3.2-0.5,6.3-0.1,9.3,1.3c0.8,0.4,1.6,0.8,2.4,1.4c1.7,1.2,2.4,3,2.7,5c0.2,1.2,0.3,2.3,0.3,3.5
			c0,1.7-0.3,3.3-1.1,4.8c-0.4,0.8-0.6,1.7-1.2,2.4c-0.5,0.7-1.1,1.3-1.6,1.9c-0.4,0.5-0.9,0.9-1.3,1.4c-0.8,1.3-2,2.1-3.3,2.7
			c-2.5,1.2-5.1,1.4-7.8,0.9c-0.6-0.1-1.3-0.4-1.9-0.7c-1.1-0.6-2.2-1.2-3.2-1.9c-1.7-1.1-2.6-2.8-3.1-4.7c-0.5-2-0.7-4.1-0.3-6.1
			c0.3-1.6,0.9-3.1,1.2-4.7c0.3-1.2,0.9-2.1,1.8-2.9c0.8-0.7,1.5-1.6,2.3-2.2C386.1,269.4,387.8,268.7,389.6,268.4z M391.5,274.5
			c-1.7,0.3-3.3,0.8-4.6,2c-0.3,0.3-0.7,0.6-0.8,1c-0.4,1-0.8,2-1.1,3c-0.3,1.1-0.4,2.2,0,3.3c0.8,2.5,2.4,4.3,4.9,5.1
			c1.4,0.4,2.9,0.5,4.2-0.2c0.2-0.1,0.4-0.1,0.5-0.2c2.2-0.8,3.5-2.5,4.2-4.6c0.3-1.1,0.4-2.2,0.6-3.3c0-0.3,0-0.6-0.1-0.8
			c-0.5-1.5-1.5-2.7-2.7-3.7C395,274.8,393.4,274.1,391.5,274.5z"/>
		<path class="st0" d="M434.6,281.4c-1.8,0.7-3.4,0-4.9-1c-1.1-0.7-1.9-1.7-2.4-2.9c-0.7-1.5-1.1-3.1-1.1-4.8c0-0.9-0.1-1.7,0.2-2.6
			c0.3-1.1,0.9-1.9,1.5-2.8c0.5-0.8,1.3-1.6,2-2.3c0.9-0.9,2-1.6,3.4-1.8c0.9-0.1,1.9-0.4,2.8-0.1c0.4,0.1,0.9,0.3,1.3,0.6
			c1.3,1.1,2.5,2.4,3.5,3.8c0.4,0.5,0.6,1.2,0.9,1.8c0.1,0.3,0.2,0.7,0.3,1.1c0.5,1.1,0.4,2.2,0.1,3.2c-0.4,1.4-0.7,2.9-1.6,4.1
			c-0.3,0.5-0.6,1-1,1.3C438.1,280.3,436.7,281.5,434.6,281.4z M440.2,272c0-1.1-0.5-1.9-1.2-2.6c-0.2-0.2-0.5-0.5-0.7-0.7
			c-0.5-0.5-1.1-0.8-1.8-0.9c-0.7-0.1-1.4-0.2-2.2-0.2c-1.1-0.1-2,0.4-2.7,1.3c-0.4,0.5-0.7,1-1,1.5c-0.8,1.3-0.9,2.8-0.4,4.2
			c0.3,0.9,0.9,1.7,1.7,2.2c1.2,0.6,2.4,1,3.8,1c0.7,0,1.3-0.2,1.9-0.6c0.7-0.5,1.3-1,1.7-1.7C439.9,274.4,440.7,273.4,440.2,272z"
			/>
		<path d="M391.5,274.5c1.9-0.4,3.5,0.3,5,1.4c1.3,1,2.2,2.2,2.7,3.7c0.1,0.3,0.2,0.6,0.1,0.8c-0.2,1.1-0.2,2.3-0.6,3.3
			c-0.7,2.2-2,3.8-4.2,4.6c-0.2,0.1-0.4,0.1-0.5,0.2c-1.4,0.7-2.8,0.6-4.2,0.2c-2.6-0.8-4.1-2.6-4.9-5.1c-0.4-1.1-0.3-2.2,0-3.3
			c0.3-1,0.7-2,1.1-3c0.2-0.4,0.5-0.7,0.8-1C388.1,275.3,389.7,274.8,391.5,274.5z M392,282.5c0.1,1.1,0.8,1.7,1.6,2.2
			c0.4,0.3,0.8,0.1,1.1-0.2c0.7-0.6,1.2-1.4,1.3-2.3c0.1-0.5,0-0.9-0.5-1.3c-0.4-0.3-0.9-0.6-1.3-0.9c-0.4-0.3-0.8-0.3-1.1,0
			C392.4,280.7,391.7,281.4,392,282.5z"/>
		<path d="M440.2,272c0.5,1.3-0.3,2.4-0.9,3.4c-0.4,0.7-1,1.3-1.7,1.7c-0.6,0.4-1.2,0.6-1.9,0.6c-1.4,0-2.6-0.4-3.8-1
			c-0.9-0.5-1.4-1.2-1.7-2.2c-0.4-1.5-0.4-2.9,0.4-4.2c0.3-0.5,0.6-1,1-1.5c0.7-0.9,1.6-1.4,2.7-1.3c0.7,0,1.4,0.1,2.2,0.2
			c0.7,0.1,1.3,0.4,1.8,0.9c0.2,0.2,0.5,0.5,0.7,0.7C439.7,270.1,440.2,271,440.2,272z M436,273.7c0.3-0.1,0.6-0.1,0.9-0.2
			c0.5-0.1,0.8-0.5,1-0.9c0.2-0.5,0-0.9-0.3-1.2c-0.2-0.3-0.5-0.4-0.8-0.2C435.8,271.5,435.4,272.7,436,273.7z"/>
		<path class="st0" d="M392,282.5c-0.3-1.1,0.4-1.8,1.2-2.5c0.3-0.3,0.7-0.3,1.1,0c0.4,0.3,0.9,0.6,1.3,0.9c0.5,0.3,0.5,0.8,0.5,1.3
			c-0.1,0.9-0.7,1.7-1.3,2.3c-0.3,0.3-0.7,0.4-1.1,0.2C392.8,284.2,392.1,283.6,392,282.5z"/>
		<path class="st0" d="M436,273.7c-0.6-1-0.2-2.2,0.8-2.6c0.3-0.1,0.6,0,0.8,0.2c0.3,0.4,0.5,0.7,0.3,1.2c-0.2,0.4-0.5,0.8-1,0.9
			C436.6,273.6,436.3,273.6,436,273.7z"/>
	</g>
</g>
</svg>
