<svg version="1.1" id="Layer_1" xmlns="http://www.w3.org/2000/svg" xmlns:xlink="http://www.w3.org/1999/xlink" x="0px" y="0px" style="enable-background:new 0 0 841.9 595.3;" xml:space="preserve" viewBox="146.1 30.7 549.8 532.9"> <style type="text/css"> 	.st0{fill:#21753B;} </style> <g> 	<path class="st0" d="M695.9,206.9h-65.2V30.7H211.3v176.2h-65.2v181h65.2v175.7h419.4V388h65.2V206.9z M216.6,36h408.8v170.5H216.6 		V36z M625.4,558.4H216.6V388h408.8V558.4z M690.7,382.7h-60v0H211.3v0h-60V212.2h539.3V382.7z"></path> 	<path class="st0" d="M371.3,68.3h-66.5c-4.3,0-6.1,2.6-7.2,6.6c-1.4,4.8-2.7,12-2.7,17c0,3.5,0.9,5.5,3.3,5.5c2,0,4.2-1.4,7.5-5.8 		c6.2-8.7,12-12,20.6-12c2.9,0,3.9,0.9,3.9,3.3v70c0,5.6-1,8.2-8.7,10.3c-4,0.9-5.5,2.5-5.5,4.9l0,0c0,3.5,3.2,4.6,6.5,4.6h23.7 		l7.8,0.1c3.3,0.2,6.5-1,6.6-4.5c0-2.4-1.4-4-5.5-5c-7.7-2.2-8.8-4.8-8.7-10.4V83c0-2.5,0.9-3.5,3.9-3.5c7.7,0,13.3,3.2,20.2,11.7 		c2.7,3.2,5.5,6.2,7.9,6.2c2.2,0,3.5-1.4,3.5-4.8c0-4.2-1.4-12.1-2.6-16.9C377.8,70,376.5,68.3,371.3,68.3z"></path> 	<path class="st0" d="M470.1,163.1c-3.7-1.7-5-4-5.9-9l-7.8-39.4c-2.7-13.9-11.7-20.9-24.1-20.9c-7.1,0-14.4,3-19.3,8.5 		c-1.4,1.7-2.9,1.2-2.9-0.7V73.2c0-3.2-1.6-4.6-4.5-4.6h-15.9c-2.6,0-4.8,1-4.9,4.2c0,2,1,3.5,4,4.6c4.6,1.7,5.6,4.3,5.6,9.8v67.1 		c0,5.6-0.9,8-4.9,9.5c-3.2,1.2-4.3,2.6-4.3,4.8h0c0,3,2.4,4.2,5,4.2h24.5c3.2,0,6.1-1.2,6.1-4.3c0-2.2-1.3-3.6-5.2-4.9 		c-4.8-1.4-5.9-4-5.8-9.8V123c0-8.8,6.9-16.2,16.6-16.2s14.7,5.3,16.3,16.9l4.9,35.7c1.3,9,2,13.4,8.1,13.4h15c3,0,4.5-1,4.5-3.6 		S474,165,470.1,163.1z"></path> 	<path class="st0" d="M544.8,148.7c-2-1.7-3.9-1.6-6.1,0.7c-8.2,8.8-14.6,12.1-23.5,12.1c-6.2,0-12.7-2.4-17.2-7.4 		c-1.2-1-1.9-2-1.9-3.2c0-1,0.9-1.7,2.2-2.9c6.8-5,15.3-8.7,24.7-10.1c4.9-1,9.8-1.6,14.9-2.9c5-1.5,8.1-5.5,8.1-11 		c0-15.9-15.4-29.9-34.8-29.9c-20.6,0-39.7,17.5-39.3,41c0.1,23.8,19.6,39.3,40.1,39.3c12.6,0,26.4-6.1,33.6-17.7 		C548,153.3,547.7,151.1,544.8,148.7z M490.4,140.9c-2,0-3-3.5-3-10c0-14.7,10-25.3,21.8-25.3c11.1,0,19.8,8.8,19.8,15.4 		c0,2.9-2,4.6-6.8,5.6c-11.8,2.4-22.2,7.2-29.1,12.7C491.8,140.4,491.1,140.9,490.4,140.9z"></path> 	<path class="st0" d="M471.9,135.2C471.9,135.2,471.9,135.2,471.9,135.2C471.9,135.2,471.9,135.2,471.9,135.2L471.9,135.2z"></path> 	<path class="st0" d="M255.2,344.5C255.2,344.5,255.2,344.5,255.2,344.5C255.2,344.5,255.2,344.5,255.2,344.5L255.2,344.5z"></path> 	<path class="st0" d="M259.5,254c6.1,2.2,7.1,4.6,6.9,10.4v64.9c0.1,5.6-0.7,8.2-6.8,10.3c-3.3,0.9-4.5,2.5-4.5,4.9 		c0,3.4,2.6,4.6,5.2,4.6h22.2l7.9,0.1c3.3,0.1,6.6-1.2,6.6-4.6c0.1-2.4-1.3-4.2-5.5-5.2c-7.8-2.2-9.1-4.8-9-10.7v-23.4 		c0-3.2,1.5-4.9,4.6-4.9c11.4,0,21.4,5.9,26.8,5.9c2.3,0,3.5-1,5-3c2.3-3,4.6-7.4,4.6-10c0-2.9-2-3.9-5.2-3.9l-31.5-0.1 		c-3.9,0-4.6-0.9-4.6-3.6v-14.1c0-12.7,3.2-15.9,13.9-15.9c11.7-0.1,18.2,2.6,26,10.5c4.6,4.7,7.5,7.4,10.5,7.4 		c1.7,0,3.3-1.2,3.3-3.5c0-5.2-3.3-17-4.3-19.9c-1.1-3.7-3.2-5.6-7.9-5.6h-57.4l-6.2-0.1c-2.6,0-5.2,1.2-5.3,4.6 		C255,251.4,256.2,253.2,259.5,254z"></path> 	<path class="st0" d="M331.2,311.5c0,22.4,18.9,39.8,40.7,39.8c21.8,0,38.8-16.9,38.8-40.1c0-23.2-17.3-41-39.3-40.7 		C348.6,270.8,331.2,288.4,331.2,311.5L331.2,311.5z M368.2,282.3c14.4,0,26.4,14.7,26.4,33.2c0,13.6-8.8,24-20.4,24 		c-14.6,0-27-14.7-27-33.9C347.3,292.3,356.2,282.3,368.2,282.3z"></path> 	<path class="st0" d="M458.2,351.3c21.8,0,38.8-16.9,38.8-40.1c0-23.2-17.3-41-39.3-40.7c-22.9,0.3-40.3,17.9-40.3,41v0 		C417.5,333.9,436.5,351.3,458.2,351.3z M454.5,282.3c14.4,0,26.4,14.7,26.4,33.2c0,13.6-8.8,24-20.4,24c-14.6,0-27-14.7-27-33.9 		C433.6,292.3,442.5,282.3,454.5,282.3z"></path> 	<path class="st0" d="M538.5,351.2c7.5,0,15.4-2.6,19.8-7.2c2-2.2,3.9-1.6,4.6,1.2c0.9,2.7,1.7,4,4.6,4h14.4c2.6,0,5-1.2,5-4.2 		c0-2.2-1.1-3.6-4.3-4.8c-4-1.6-4.9-3.9-4.9-9.5v-79.5c0-4.5-1.4-6.1-4.5-6.1h-16.7c-3.2-0.1-5.9,1-5.9,4.3c-0.1,2.3,1,3.9,4.9,5.2 		c5.6,1.9,6.8,4.5,6.8,10.4v4.9c0,1.9-0.4,2.9-1.9,2.9c-0.7,0-1.7-0.3-3.2-0.7c-2.2-0.4-7.2-1.3-12-1.3c-23.1,0-41.4,18.6-41.4,43.7 		l0,0C503.8,335.3,517.1,351.2,538.5,351.2z M545.3,282.4c13.3-0.1,17.2,3.2,17.2,14.3l-0.1,26.3c0,8.8-8.8,15.7-19.2,15.7 		c-15,0-23.1-14.7-23.1-27.8C520,294.5,530.4,282.5,545.3,282.4z"></path> 	<path class="st0" d="M289.5,430.3c6.2,2,6.9,4.6,6.9,10.3v64.9c0,5.6-0.7,8.2-6.9,10.2c-3.2,0.9-4.3,2.5-4.3,4.9 		c0,3.5,2.4,4.6,5.2,4.6h22.2l6.6,0.1c2.9,0,5.6-1.2,5.8-4.6c0-2.3-1.2-3.9-4.8-5c-6.6-2-7.7-4.6-7.7-10.2v-25c0-3.6,1-4.2,4.8-4.2 		l41.4,0.3c3.8,0,4,1.2,4,5.5v23.4c0.2,5.6-0.7,8.2-7.4,10.2c-3.6,0.9-4.8,2.5-4.8,4.9c0,3.5,2.7,4.6,5.6,4.6h22.8l6.2,0.1 		c2.7,0,5.3-1.2,5.3-4.6c0-2.4-1-4-4.3-5c-6.1-2-7.1-4.6-7.1-10.2v-64.9c0-5.6,0.7-8.2,6.9-10.3c3.2-0.9,4.3-2.5,4.3-4.9 		c0-3.5-2.4-4.6-5.2-4.6h-28.7c-2.9,0-5.8,1.2-5.8,4.6c0,2.4,1.3,4,4.9,4.9c6.6,2,7.5,4.6,7.4,10.3v19.6c0,3-1.2,4.2-4.2,4.2h-42 		c-3.2,0-4.2-1.3-4.2-4.2v-19.6c-0.2-5.6,0.7-8.2,7.4-10.3c3.6-0.9,4.8-2.5,4.8-4.9c0-3.5-2.7-4.6-5.6-4.6h-28.9 		c-2.7,0-5.2,1.2-5.2,4.6C285.2,427.8,286.4,429.4,289.5,430.3z"></path> 	<path class="st0" d="M388.5,452.5c0,2.2,1,3.6,4,4.8c4.6,1.7,5.6,4.2,5.6,9.8v38.5c0,14.3,11.6,22.1,25.1,22.1 		c8.8-0.1,17.5-3.2,21.9-7.9c1.6-1.7,3.2-1.3,3.9,0.6c1.4,3.9,2.3,4.9,5.9,4.9h13.1c2.6,0,4.9-1.2,4.9-4.2c0-2.2-1-3.6-4.2-4.8 		c-4-1.6-4.9-3.9-4.9-9.5l0.3-53c0-3.6-1.1-5.3-4.5-5.3h-16.7c-3-0.1-5.8,1-5.9,4c0,2.2,1.2,3.6,4.9,4.8c5.6,1.9,6.8,4.3,6.8,9.8 		v29.7c0,10.8-9.5,18.5-20.4,18.5c-10.1,0-14.9-4.8-14.9-14.6v-45.8c0-4.9-1.3-6.5-6.2-6.5h-14C390.8,448.5,388.7,449.5,388.5,452.5 		z"></path> 	<path class="st0" d="M477.9,432.1c4.8,1.7,5.8,4.3,5.6,9.8v55.4c0,5.9-1,9.1-5.9,12.1c-1.4,0.9-1.9,2.3-1.9,3.7 		c0,1.3,0.7,2.6,2,3.7c9.7,8.5,22.8,12.6,35.8,12.6c25.1,0,43.3-17.3,43.3-43.9c0-22.7-15.9-36.8-34.2-36.8 		c-7.2,0-14.6,2.6-20.6,8.1c-1.6,1.6-2.9,1.4-2.9-0.6l0.1-28.7c0-2.9-2-4.5-4.8-4.5h-15.7c-2.7,0-5,1-5,4.2 		C473.7,429.5,474.5,430.9,477.9,432.1z M499.1,479.8c0-10.3,9.1-18.2,19.1-18.2c14.9,0,22.5,15.4,22.5,28.3 		c0,17.3-10.7,27.4-23.5,28c-13.1,0.4-18.3-5.2-18.2-16.2L499.1,479.8z"></path> </g> </svg>
