<?xml version="1.0" encoding="UTF-8"?><svg id="Layer_2" xmlns="http://www.w3.org/2000/svg" viewBox="0 0 98.92 99.74"><defs><style>.cls-1{fill:#fff;}.cls-2{fill:#1a1a1a;}</style></defs><g id="Layer_1-2"><polygon class="cls-2" points="49.42 0 39.36 1.02 29.92 2.5 20.86 8.96 13.92 14.5 6.99 23.55 3.92 32.5 0 42.43 .92 51.5 .92 61.5 4.53 72.02 10.92 79.5 16.85 87.94 24.92 92.5 34.46 97.71 43.92 99.5 54.48 99.74 63.92 98.5 73.69 93.72 79.92 86.5 88.96 80.61 91.92 73.5 96.92 62.5 98.92 53.5 98.85 42.43 95.92 33.5 91.86 23.55 85.92 16.5 77.99 8.96 69.92 5.5 59.49 1.02 49.42 0"/><circle class="cls-1" cx="48.92" cy="49.5" r="45"/><polygon class="cls-1" points="49.54 16.2 68.5 66.99 52.92 59.5 51.92 82.5 43.92 83.5 42.92 59.5 28.54 66.55 49.54 16.2"/><path class="cls-2" d="m49.89,20.66l2.03,7.84s.99,2.98,1,3l1.79,4.91s0,.02.01.03l2.4,5.85s0,.03.02.04l4.29,9.05s0,.02.01.03l5.47,11.09c.08.23-3.77-.94-4-1l-4-1s-2.98-.99-3-1l-4-2s-.99,23.01-1,23l-6,2c-.07-.03-.93-24.02-1-24l-4.01-.56s-.05.02-.07.03l-3.52,2.98s-.03.02-.04.02l-7.36,2.53c-.24.11,1.91-2.75,2-3l3.08-4.22s.01-.04.02-.05l6.29-10.75s.6-2.94.61-2.97l1.54-6.4s0-.03.01-.05l3.49-6.7,2.6-6.49c.08-.21.18-.41.3-.59l1.02-1.61Zm-.97-8.16l-1.08,4.68-.04.09-3.54,5.59s-.03.06-.04.09l-2.01,8.11s-.04.1-.07.13l-4.85,5.2-.07.14-1.51,6.98-.03.08-5.08,8.84s-.02.05-.03.08l-4.64,6.98s-.98,1.97-1,2l-1,2s0,.96,0,1v3l4-1s1.97,0,2,0l3-1s3.98-.99,4-1l5-2,1,25c.09-.06,9.9-2.05,10-2l1-23s3.98,1.99,4,2l7,1,3,1s2.99.99,3,1h2c-1-2-.87-1.73-1-2l-1-1s-.99-1.98-1-2l-.97-3.96s-.02-.05-.03-.07l-4.37-7.72s-.02-.05-.03-.08l-2.35-9.68-.02-.05-4.16-8.76-.02-.04-1.89-6.99s0-.03-.01-.04l-2.74-6.48v-.02s-3.4-10.09-3.4-10.09l-1,4Z"/></g></svg>
