<?xml version="1.0" encoding="utf-8"?>
<!-- Generator: Adobe Illustrator 27.4.1, SVG Export Plug-In . SVG Version: 6.00 Build 0)  -->
<svg version="1.1" id="Layer_1" xmlns="http://www.w3.org/2000/svg" x="0px" y="0px"
     viewBox="0 0 1430.9 481.5" style="enable-background:new 0 0 1430.9 481.5;" xml:space="preserve">
<style type="text/css">
	.st0{fill:#650729;}
</style>
<path class="st0" d="M259.4,414.6C259.4,414.6,259.5,414.6,259.4,414.6c0,0.2,0,0.5,0.2,0.9c4.6,11,15.6,18.1,28.3,18.1
	c17,0,30.8-13,30.8-30l0-45v-11.8l0-114.1c0,0,0-0.1,0-0.1v-5.2c0-3.5-0.6-6.9-1.6-10c-0.2-0.5-0.3-1.1-0.5-1.6v0
	c-0.1-0.2-0.2-0.4-0.4-0.6c-0.4-0.8-0.7-1.6-1.2-2.4c-0.2-0.5-0.5-0.9-0.8-1.4c-24.9-41.9-70-70.4-121.9-72.1c-0.4,0-0.9,0-1.4,0
	c-1.1,0-2.2-0.1-3.3-0.1c0,0-0.1,0-0.1,0s0,0-0.1,0c-81.2,0-147.1,65.9-147.1,147.1c0,63,39.6,116.7,95.3,137.7
	c15.7,6,32.6,9.4,50.1,9.6c26.3,0.3,50.9-6.3,72.4-18 M256.9,335.8c-15.4,21.7-40.8,35.9-69.5,35.9c-25,0-47.5-10.8-63.1-27.9
	c0,0,0,0,0,0c-0.8-0.9-1.5-1.8-2.3-2.6c-0.2-0.2-0.4-0.5-0.6-0.7c-0.6-0.7-1.2-1.5-1.7-2.2c-12.7-16.7-19.4-38.3-16.9-61.5
	c4.5-40.1,37.4-72,77.6-75.3c8.4-0.7,16.5-0.2,24.3,1.4c0.2,0.1,0.5,0.1,0.8,0.1c0.3,0.1,0.7,0.1,1,0.2c0.6,0.1,1.1,0.3,1.7,0.4
	c0.1,0,0.2,0.1,0.3,0.1c17.1,4.3,32.1,13.8,43.3,26.7c3.6,4.8,5.5,10.8,5.5,16.9l0,88.2C257.1,335.5,257,335.6,256.9,335.8
	L256.9,335.8z"/>
<path class="st0" d="M319.1,402.7c0,0.7,0,1.4-0.1,2.1c-1.1,16.2-14.6,29.1-31.1,29.1s-29.4-12.3-31-28v-0.1c-0.1-1-0.2-2-0.2-3.1
	s0.1-2,0.2-3.1v-0.1c0.3-2.4,0.8-4.8,1.5-7c1.3-3.7,3.2-7.2,5.8-10.1c5.7-6.7,14.2-11,23.7-11c16.5,0,30.1,12.9,31.1,29.1
	C319,401.3,319.1,402,319.1,402.7L319.1,402.7z"/>
<path class="st0" d="M582.8,371.9H443l162.9-178.9c8-8.8,9.9-20.9,6.2-31.3c-4.1-12.2-15.6-21-29.2-21H373.4
	c-17,0-30.8,13.8-30.8,30.8l0,0c0,17,13.8,30.8,30.8,30.8h140.9L350.6,381.9c-1.7,1.8-3.1,3.8-4.2,5.9c0,0.1-0.1,0.1-0.1,0.2
	c-0.2,0.3-0.3,0.6-0.5,0.9c-0.1,0.2-0.2,0.4-0.3,0.5c-0.1,0.2-0.2,0.4-0.3,0.6c-0.1,0.3-0.2,0.6-0.4,0.9c0,0.1-0.1,0.2-0.1,0.3
	c-1.4,3.5-2.2,7.4-2.2,11.5l0,0c0,17,13.8,30.8,30.8,30.8h209.5c17,0,30.8-13.8,30.8-30.8l0,0C613.6,385.7,599.8,371.9,582.8,371.9
	L582.8,371.9z"/>
<ellipse class="st0" cx="582.7" cy="402.7" rx="30.9" ry="30.9"/>
<path class="st0" d="M817.7,140.8h-43.4V78.1c0-17-13.8-30.8-30.8-30.8l0,0c-17,0-30.8,13.8-30.8,30.8v62.7h-43.4
	c-17,0-30.8,13.8-30.8,30.8l0,0c0,17,13.8,30.8,30.8,30.8h43.4v201.6c0,17,13.8,30.8,30.8,30.8l0,0c17,0,30.8-13.8,30.8-30.8V202.3
	h43.4c17,0,30.8-13.8,30.8-30.8l0,0C848.5,154.6,834.7,140.8,817.7,140.8L817.7,140.8z"/>
<ellipse class="st0" cx="743.5" cy="403.8" rx="30.9" ry="30.9"/>
<path class="st0" d="M956.5,278.2c0,16.9,12.9,30.7,28.8,30.7H1146c1.5-9.1,1.6-11.4,1.6-22.3c0-13.5-1.7-26.6-4.9-39
	c-16-62.1-69.3-107.7-132.7-107.7c-76,0-137.6,65.7-137.6,146.7S934,433.2,1010,433.2c48.9,0,94.6-26.8,119-67.8l-52.1-33.2
	c-13.9,25.1-37.7,39.5-67,39.5c-44.1,0-79.8-38.1-79.8-85.1s35.7-85.1,79.8-85.1c30.9,0,57.7,18.7,70.9,46.1h-95.7
	C969.3,247.6,956.5,261.3,956.5,278.2L956.5,278.2z"/>
<ellipse class="st0" cx="1104.1" cy="347.1" rx="31" ry="31"/>
<path class="st0" d="M1390.6,385.1l-80.5-114l-1.8-2.5l44.3-47c11.7-12.4,11.1-31.8-1.3-43.5c-5.9-5.6-13.5-8.4-21.1-8.4
	c-8.2,0-16.3,3.2-22.4,9.6l-36,38.2l-38.5,40.9l-0.3,0.3V77.1c0-17-13.8-30.8-30.8-30.8l0,0c-17,0-30.8,13.8-30.8,30.8v325.7
	c0,17,13.8,30.8,30.8,30.8l0,0c17,0,30.8-13.8,30.8-30.8v-54.2l0.3-0.3l31.7-33.6l0.3-0.3l1.8,2.5l73.3,103.8c1.9,2.7,4.2,5,6.8,6.9
	c10.4,7.8,25,8.3,36.1,0.4C1397.1,418.2,1400.4,399,1390.6,385.1L1390.6,385.1z"/>
<ellipse class="st0" cx="1365.3" cy="402.7" rx="30.9" ry="30.9"/>
</svg>
