<?xml version="1.0" encoding="UTF-8"?><svg id="Layer_2" xmlns="http://www.w3.org/2000/svg" viewBox="0 0 400.04 93.42"><defs><style>.cls-1{fill:#650729;}</style></defs><g id="Layer_1-2"><path class="cls-1" d="m1.72.07h34.85s28.74-2.43,28.74,21.76-24.78,22.37-29.51,22.37l-34.18-.05v-10.7h35.47s15.62.72,15.62-11.62-10.56-11.08-16-11.08H1.71V.07Z"/><path class="cls-1" d="m60.62,52.18c5.3,3.17,10.06,8.89,10.06,18.24,0,24.19-24.79,22.82-29.52,22.82l-41.16.03v-10.71h42.2s15.79.2,15.9-12.14c.07-8.48-5.32-14.93-10.47-18.24h13Z"/><path class="cls-1" d="m101.71,52.18h14.9v21.16c0,6.94,4.17,9.22,8.29,9.22h40.73l.06,10.87h-49.14c-5.11,0-14.84-3.31-14.84-17.11v-24.13Z"/><path class="cls-1" d="m165.73,33.51c-3.74,0-38.01-.02-42.14-.02s-7.05-.4-7.05-5.13c0-.74,0-11.51.07-12.33,0-4.97,2.56-5.28,6.69-5.28h42.33V.07h-48.02s-15.9-1.06-15.9,15.95v11.87c0,15.27,11.4,16.27,16.51,16.27h47.42l.09-10.64Z"/><path class="cls-1" d="m272.32.09c-2.24,2.47-23.06,27.36-25.7,29.97-4.4,4.34-12.28,3.41-18.66,3.41s-7.59-4.91-7.59-8.25-.03-22.12-.03-25.13h-14.83c0,3.18.05,29.25.05,33.38,0,3.28,1.54,10.72,14.74,10.72,2.48,0,25.18-.04,25.44-.04,3.27-.02,8.2-1.99,13.85-8.68,1.67-1.98,25.85-31.06,29.77-35.38h-17.04Z"/><path class="cls-1" d="m257.73,58.87c-3.11-3.36-5.95-6.69-15.74-6.69h-21.68c-10.85,0-14.71,7.87-14.71,12v29.1l14.77-.05c0-3.02.03-21.72.03-25.06s.98-5.22,7.46-5.22,5.39.03,6.11.03c6.11-.04,9.53.22,12.68,3.36,2.63,2.62,24.26,24.28,26.75,26.89h17c-4.17-4.46-30.91-32.47-32.67-34.37Z"/><path class="cls-1" d="m381.96.12c-2.24,2.47-23.06,27.36-25.7,29.97-4.4,4.34-12.28,3.41-18.66,3.41s-7.59-4.91-7.59-8.25-.03-22.12-.03-25.13h-14.83c0,3.18.05,29.25.05,33.38,0,3.28,1.54,10.72,14.74,10.72,2.48,0,25.18-.04,25.44-.04,3.27-.02,8.2-1.99,13.85-8.68,1.67-1.98,25.85-31.06,29.77-35.38h-17.04Z"/><path class="cls-1" d="m367.36,58.9c-3.11-3.36-5.95-6.69-15.74-6.69h-21.68c-10.85,0-14.71,7.87-14.71,12v29.1l14.77-.05c0-3.02.03-21.72.03-25.06s.98-5.22,7.46-5.22,5.39.03,6.11.03c6.11-.04,9.53.22,12.68,3.36,2.63,2.62,24.26,24.28,26.75,26.89h17c-4.17-4.46-30.91-32.47-32.67-34.37Z"/></g></svg>