<?xml version="1.0" encoding="UTF-8"?><svg id="Layer_2" xmlns="http://www.w3.org/2000/svg" viewBox="0 0 727.45 367.47"><defs><style>.cls-1{fill:#650729;}</style></defs><g id="Layer_1-2"><path class="cls-1" d="m102.63,352.08c-11.07,9.74-29.69,14.65-45.74,15.3C15.57,369.04,1.17,346.34.05,322.56c-1.12-23.92,16.81-48.99,57.02-50.6,15.1-.6,29.59,3.52,41.4,12.35l-13.54,11.67c-7.54-5.59-17.51-7.94-27.2-7.55-26.85,1.08-37.79,18.02-37.02,33.31.77,15.15,12.05,30.54,39.54,29.44,9.7-.39,20.53-4.1,27.6-10.41l14.78,11.32Z"/><path class="cls-1" d="m189.65,274.48l-22.33,41.13-27.29,50.05h22.75l9.54-17.27h58.21l9.39,17.27h22.9l-49.72-91.18h-23.44Zm-8.91,57.82l20.67-38.99,20.68,38.99h-41.35Z"/><path class="cls-1" d="m654.29,274.48l-22.33,41.13-27.29,50.05h22.74l9.54-17.27h58.21l9.39,17.27h22.9l-49.72-91.18h-23.43Zm-8.91,57.82l20.68-38.99,20.67,38.99h-41.35Z"/><path class="cls-1" d="m374.09,274.48h-55.71l.06,25.5v65.68h20.99v-26.95h31.49c48.07,0,53.62-50.25,17.06-62.19-4.47-1.46-9.19-2.04-13.89-2.04m-3.17,48.4h-31.49v-32.45h31.49c26.72,0,26.88,32.45,0,32.45"/><path class="cls-1" d="m567.45,365.65l-31.47-29.17c32.63-9.79,32.97-49.34,1.21-59.89-4.54-1.51-9.35-2.1-14.14-2.1h-55.67l.04,25.5h0s0,65.67,0,65.67h20.99v-26.95h24.22l28.56,26.95h26.25Zm-47.54-42.77h-31.49v-32.45h31.49c26.72,0,26.88,32.45,0,32.45"/><path class="cls-1" d="m355.66,154.15c-23.99-3.72-42.05-24.43-42.05-49.48,0-27.67,22.42-50.12,50.11-50.12s50.13,22.43,50.13,50.12c0,12.6-4.66,24.11-12.34,32.91.27-.3,54.78-20.65,66.6-25.08.19-2.59.29-5.2.29-7.84,0-57.81-46.85-104.67-104.67-104.67s-104.65,46.86-104.65,104.67,46.86,104.66,104.65,104.66c51.08,0,93.65-34.87,102.85-83.26-21.47,8.86-35.21,13.91-35.21,13.91,0,0-9.14,3.46-29.43,10.41-19.2,5.59-30.84,5.8-46.26,3.76"/></g></svg>