<?xml version="1.0" encoding="UTF-8"?><svg id="Layer_2" xmlns="http://www.w3.org/2000/svg" viewBox="0 0 411.02 155.15"><defs><style>.cls-1{fill:#650729;}</style></defs><g id="Lager_1"><path class="cls-1" d="m42.02,66.38c0,5.36,1.28,10.41,3.55,14.89h7.53c0-16.23,6.85-30.85,17.81-41.15l-4.8-5.53c-5.19,1.45-9.86,4.14-13.68,7.72l-20.36-23.46c3.82-3.46,8.07-6.45,12.65-8.91L36.09,0C13.93,20.05,0,49.04,0,81.27h12.72c-1.14-4.78-1.76-9.76-1.76-14.89h31.05Z"/><path class="cls-1" d="m75.04,2.31c-10.97,0-21.29,2.77-30.32,7.63l21.39,24.65c2.84-.8,5.83-1.23,8.93-1.23,18.24,0,33.03,14.79,33.03,33.02,0,18.24-14.79,33.02-33.03,33.02-12.88,0-24.03-7.38-29.47-18.14H12.72c6.71,28.2,32.06,49.18,62.32,49.18,35.39,0,64.08-28.68,64.08-64.07,0-35.38-28.69-64.07-64.08-64.07Z"/><path class="cls-1" d="m300.42,41.52v64.93s12.71,0,12.71,0v-54.98c3.32-.21,9.64-.52,13.51-.52,8.81.45,11.57,4.4,11.57,20.76v34.74s12.84,0,12.84,0v-32.35c0-24.62-6.38-33.33-25.1-33.73-9.29,0-25.53,1.15-25.53,1.15Z"/><rect class="cls-1" x="275.35" y="41.38" width="12.97" height="65.08"/><path class="cls-1" d="m242.71,106.44h12.98s0-49.21,0-49.21h9.5s0-10.32,0-10.32h-9.5s0-4.97,0-4.97c0-9.25,3.31-11,9.43-11h23.2s0-10.68,0-10.68c0,0-19.22,0-27.06,0-12.31,0-18.55,7.26-18.55,21.57v5.09s-6.75,0-6.75,0v10.32s6.75,0,6.75,0v49.21Z"/><path class="cls-1" d="m385.99,40.2c-19.82,0-26.51,8.51-26.51,33.74,0,13.07,1.82,21.2,5.89,26.37,4.03,5.1,10.31,7.34,20.37,7.34,10.06,0,25.27-.81,25.27-.81v-10.58s-21.72.81-26.34.81c-12.38,0-12.92-8.14-12.92-26.77,0-16.34,4.69-19.46,12.92-19.46,5.19,0,12.07,1.18,13.51,1.44v28.44s12.83-.45,12.83-.45V21.57s-12.83,0-12.83,0v19.56c-1.38-.16-6.53-.93-12.2-.93Z"/><path class="cls-1" d="m197.17,22.54c-13.59,0-23.43,1.24-23.43,1.24v55.51s11.94.58,14.03.58c0-1.24,0-45.85,0-45.85,1.18-.1,5.66-.46,10.36-.46,15.51,0,16.64,4.37,16.64,31.57,0,26.93-1.03,30.79-16.64,30.79-5.35,0-24.39-.91-24.39-.91v11.45s10.81.48,23.43.48c14.67,0,22.36-2.53,26.52-8.74,4.2-6.26,5-16.45,5-33.08,0-32.19-2.45-42.59-31.52-42.59Z"/><path class="cls-1" d="m191.6,125.02c-1.65-.97-3.48-1.46-5.39-1.46-6.03,0-10.03,4.34-10.03,10.22s4.42,10.22,9.84,10.22c1.87,0,4.38-.49,5.69-1.27l.22,3.63c-1.98.82-4.42.94-5.95.94-8.27,0-13.77-5.31-13.77-13.62s5.84-13.4,13.81-13.4c2.02,0,4.01.3,5.88,1.12l-.3,3.63Z"/><path class="cls-1" d="m204.37,127.3c5.8,0,9.69,4.19,9.69,9.99,0,5.46-3.97,9.99-9.69,9.99s-9.73-4.53-9.73-9.99c0-5.8,3.89-9.99,9.73-9.99Zm0,17.14c4.12,0,5.95-3.74,5.95-7.15,0-3.63-2.21-7.15-5.95-7.15s-5.99,3.52-5.99,7.15c0,3.41,1.83,7.15,5.99,7.15Z"/><path class="cls-1" d="m218.59,127.75h3.41v3.03h.08c1.05-2.17,3.59-3.48,6.25-3.48,4.94,0,7.15,3.07,7.15,8.2v11.34h-3.52v-9.88c0-4.45-.97-6.62-4.04-6.81-4,0-5.8,3.22-5.8,7.86v8.83h-3.52v-19.09Z"/><path class="cls-1" d="m239.85,143.1c1.38.9,3.37,1.35,4.38,1.35,1.61,0,3.59-.67,3.59-2.73,0-3.48-8.27-3.18-8.27-8.53,0-3.97,2.96-5.88,6.74-5.88,1.65,0,2.99.34,4.38.75l-.3,3.07c-.79-.49-2.88-.97-3.71-.97-1.8,0-3.37.75-3.37,2.32,0,3.89,8.27,2.77,8.27,8.87,0,4.08-3.26,5.95-6.66,5.95-1.8,0-3.63-.19-5.24-1.05l.19-3.14Z"/><path class="cls-1" d="m272.53,146.84h-3.41v-3.03h-.07c-1.05,2.17-3.59,3.48-6.25,3.48-4.94,0-7.15-3.07-7.15-8.2v-11.34h3.52v9.88c0,4.45.97,6.62,4.04,6.81,4,0,5.8-3.22,5.8-7.86v-8.83h3.52v19.09Z"/><path class="cls-1" d="m278.78,118.77h3.52v28.07h-3.52v-28.07Z"/><path class="cls-1" d="m298.69,130.6h-5.05v10.44c0,2.21,1.35,3.41,2.96,3.41,1.08,0,1.87-.34,2.4-.67v3c-.79.22-1.87.52-2.99.52-3.63,0-5.88-1.72-5.88-5.54v-11.15h-4.3v-2.84h4.3v-4.42l3.52-1.12v5.54h5.05v2.84Z"/><path class="cls-1" d="m307.11,123.48h-3.97v-3.97h3.97v3.97Zm-3.74,4.27h3.52v19.09h-3.52v-19.09Z"/><path class="cls-1" d="m313.14,127.75h3.41v3.03h.08c1.05-2.17,3.59-3.48,6.25-3.48,4.94,0,7.15,3.07,7.15,8.2v11.34h-3.52v-9.88c0-4.45-.97-6.62-4.04-6.81-4,0-5.8,3.22-5.8,7.86v8.83h-3.52v-19.09Z"/><path class="cls-1" d="m352.7,146.02c0,5.8-2.99,9.13-9.84,9.13-2.02,0-3.78-.26-6.85-1.31l.37-3.26c2.7,1.24,4.3,1.72,6.89,1.72,3.71,0,5.91-2.51,5.91-6.55v-1.87h-.07c-1.5,1.98-3.97,2.96-6.4,2.96-5.46,0-8.16-4.45-8.16-9.39s2.77-10.14,8.53-10.14c3.37,0,5.24,1.24,6.29,3.29h.08v-2.84h3.26v18.27Zm-3.52-8.5c0-3.97-1.83-7.37-5.58-7.37s-5.32,3.86-5.32,7.11c0,3.59,2.02,6.74,5.32,6.74s5.58-2.92,5.58-6.47Z"/></g></svg>