<?xml version="1.0" encoding="UTF-8"?><svg id="Layer_2" xmlns="http://www.w3.org/2000/svg" viewBox="0 0 791.66 207.08"><defs><style>.cls-1{fill:#650729;}</style></defs><g id="Layer_1-2"><path class="cls-1" d="m328.33,44.88h-31.98c-.64,0-.96.35-.96,1.05v102.74c0,.64.32.96.96.96h31.98c13.27,0,23.55-4.37,30.83-13.12,7.28-8.74,10.92-21.35,10.92-37.82s-3.7-29.55-11.11-39.26c-7.41-9.7-17.62-14.55-30.64-14.55m-51.61-15.7c0-.64.31-.96.95-.96h50.22c19.81.13,34.91,6.58,45.28,19.34,10.38,12.77,15.57,29.81,15.57,51.13s-5.16,37.92-15.48,49.79c-10.31,11.87-25.44,17.81-45.38,17.81h-50.22c-.64,0-.95-.32-.95-.96V29.18Z"/><path class="cls-1" d="m432.03,68.05v97.28c0,.64-.32.96-.96.96h-16.75c-.64,0-.96-.32-.96-.96v-97.28c0-.64.32-.96.96-.96h16.75c.64,0,.96.32.96.96m2.01-38.87v20.59c0,.64-.35.99-1.05,1.05h-20.59c-.64,0-.96-.35-.96-1.05v-20.59c0-.64.32-.96.96-.96h20.59c.7,0,1.05.32,1.05.96"/><path class="cls-1" d="m472.24,116.65c0,10.35,2.68,18.76,8.03,25.21,5.35,6.46,12.52,9.69,21.51,9.69s15.96-3.19,20.93-9.59c4.97-6.39,7.46-14.83,7.46-25.31s-2.49-18.92-7.46-25.31-11.95-9.59-20.93-9.59-16.16,3.2-21.51,9.59c-5.35,6.52-8.03,14.96-8.03,25.31m30.11,73.77c9.56,0,16.6-2.72,21.13-8.15,4.52-5.43,6.75-12.01,6.69-19.75v-5.27c0-.38-.23-.67-.67-.86-.44-.19-.86-.03-1.24.48-1.59,2.18-5.16,4.61-10.71,7.3-5.54,2.69-11.31,4.03-17.3,4.03-13.48,0-24.63-4.79-33.45-14.38-8.82-9.59-13.23-22.05-13.23-37.39s4.21-27.71,12.64-37.13c8.43-9.42,19.76-14.16,33.99-14.22,4.73,0,9.86,1.11,15.42,3.33,5.55,2.23,9.77,4.77,12.64,7.62.89.89,1.53.82,1.91-.19l2.01-7.8c.25-.63.57-.95.96-.95h14.75c.64,0,.96.32.96.96v94.5c0,13.21-4.27,23.94-12.82,32.17-8.55,8.23-19.23,12.35-32.04,12.35s-23.4-2.87-31.78-8.62c-8.38-5.74-12.95-12.61-13.72-20.59,0-.64.32-.96.96-.96h17.1c.38,0,.7.32.96.96,1.02,3,3.63,5.84,7.84,8.52,4.21,2.68,9.88,4.02,17.02,4.02"/><path class="cls-1" d="m583.79,116.65c0,10.35,2.68,18.76,8.03,25.21,5.35,6.46,12.52,9.69,21.51,9.69s15.99-3.19,21.03-9.59c4.97-6.39,7.42-14.83,7.36-25.31,0-10.48-2.45-18.92-7.36-25.31-4.91-6.39-11.88-9.59-20.94-9.59s-16.25,3.2-21.6,9.59c-5.35,6.52-8.03,14.96-8.03,25.31m75.64,49.64h-14.75c-.38,0-.7-.32-.96-.96l-2.01-7.85c-.38-1.15-1.02-1.28-1.91-.38-2.74,2.75-6.92,5.3-12.54,7.66-5.62,2.36-10.79,3.51-15.51,3.45-14.24,0-25.57-4.73-34-14.18-8.43-9.45-12.64-21.91-12.64-37.38s4.21-27.91,12.64-37.33c8.43-9.42,19.76-14.16,33.99-14.23,6,0,11.72,1.33,17.14,4,5.43,2.67,9.07,5.04,10.92,7.14.51.51.95.67,1.34.47.38-.19.57-.47.57-.85V29.18c0-.64.35-.96,1.05-.96h16.66c.64,0,.96.32.96.96v136.16c0,.64-.32.96-.96.96"/><path class="cls-1" d="m708.55,68.05v97.28c0,.64-.32.96-.96.96h-16.75c-.64,0-.96-.32-.96-.96v-97.28c0-.64.32-.96.96-.96h16.75c.64,0,.96.32.96.96m2.01-38.87v20.59c0,.64-.35.99-1.05,1.05h-20.59c-.64,0-.96-.35-.96-1.05v-20.59c0-.64.32-.96.96-.96h20.59c.7,0,1.05.32,1.05.96"/><path class="cls-1" d="m790.61,81.74h-9.96c-7.85,0-14.14,2.91-18.86,8.71-4.73,5.81-7.05,12.8-6.99,20.97v53.91c0,.64-.35.96-1.05.96h-16.66c-.64,0-.96-.32-.96-.96v-97.28c0-.64.32-.96.96-.96h14.75c.38,0,.7.32.96.96l2.01,8.81c.38,1.15,1.08,1.21,2.11.19,7.98-7.98,15.89-11.97,23.75-11.97h9.96c.64,0,.99.32,1.05.96v14.75c-.07.64-.42.96-1.05.96"/><path class="cls-1" d="m108.66,164.99c-47.26,7.7-87.36-32.41-79.67-79.67,4.67-28.61,27.74-51.68,56.34-56.33,47.26-7.69,87.36,32.41,79.66,79.66-4.66,28.61-27.74,51.68-56.33,56.34M99.36,0H3.92C1.76,0,0,1.75,0,3.92v186.14c0,2.17,1.76,3.92,3.92,3.92h95.44c52.44-1.18,94.63-44.16,94.63-97S151.8,1.18,99.36,0"/></g></svg>