<?xml version="1.0" encoding="UTF-8"?><svg id="Layer_2" xmlns="http://www.w3.org/2000/svg" viewBox="0 0 466.75 189.44"><defs><style>.cls-1{fill:#650729;}</style></defs><g id="Layer_1-2"><path class="cls-1" d="m68.38,108.03h14.33c0-3.74-.5-7.26-1.5-10.57-1-3.3-2.48-6.2-4.44-8.68-1.96-2.48-4.39-4.43-7.31-5.87-2.92-1.44-6.33-2.15-10.24-2.15s-7.39.72-10.44,2.15c-3.05,1.43-5.68,3.39-7.89,5.87-2.22,2.48-8.7,13.12-8.7,31.83,0,26.2,8.31,33.97,11.83,36.53,3.52,2.57,7.63,4.44,12.33,5.61,4.69,1.17,9.78,1.76,15.26,1.76,6,0,12.26-.61,18.79-1.83,6.52-1.22,13.13-2.96,19.83-5.22v24.66c-4,1.74-10.13,3.39-18.39,4.96-8.26,1.56-16.83,2.35-25.7,2.35s-17.46-1.15-25.5-3.46c-8.04-2.3-15.07-6.02-21.07-11.15-6-5.13-10.76-11.78-14.28-19.96-3.52-8.17-5.28-18.09-5.28-29.74s1.65-21.53,4.96-30.14c3.3-8.61,7.74-15.74,13.31-21.39,5.56-5.65,11.94-9.89,19.11-12.72,7.17-2.82,14.59-4.24,22.24-4.24s15.37,1.22,22.11,3.65c6.74,2.44,12.57,6.26,17.48,11.48,4.91,5.22,8.74,11.94,11.48,20.15,2.74,8.22,4.11,17.94,4.11,29.16-.09,4.35-.22,8.05-.39,11.09H42.06s-1.59-24.13,26.32-24.13"/><rect class="cls-1" x="134.3" y="59.77" width="30.92" height="126.41"/><path class="cls-1" d="m369.92,107.97c0,14.75-5.38,22.29-19.76,24.27-11.08,1.53-17.71,6.41-17.71,15.41,0,8.17,5.91,17.12,20.02,17.12,3.13,0,6.09-.41,8.87-1.24,2.78-.83,5.35-1.87,7.7-3.13,2.35-1.26,4.46-2.68,6.33-4.24,1.87-1.57,3.46-3.09,4.76-4.57v-42.53c0-8.84-.82-11.76-1.5-13.63-1-2.74-2.61-5.17-4.83-7.31-2.22-2.13-5.11-3.83-8.67-5.09-3.57-1.26-7.91-1.89-13.05-1.89-6.26,0-12.52.7-18.79,2.09-6.26,1.39-13.05,3.48-20.35,6.26v-24.13c6.35-2.78,13.09-4.91,20.22-6.39,7.13-1.48,14.61-2.26,22.44-2.35,9.22,0,17.29,1.13,24.2,3.39,6.91,2.26,12.7,5.37,17.35,9.33,4.65,3.96,8.13,8.63,10.44,14.02,2.3,5.39,3.46,11.26,3.46,17.61v54.99c0,17.04,5.47,30.2,5.47,30.2h-26.04s-2.1-1.69-4.43-5.18c-2.66-3.98-3.96-8.25-3.96-8.25-1.74,1.83-3.83,3.7-6.26,5.61-2.43,1.91-5.22,3.72-8.35,5.41-3.13,1.69-6.61,3.07-10.44,4.11-3.83,1.04-7.96,1.57-12.39,1.57-6,0-11.61-.94-16.83-2.81-5.22-1.87-9.7-4.57-13.44-8.09-3.74-3.52-6.68-7.78-8.81-12.78-2.13-5-3.2-10.59-3.2-16.76,0-29.05,22.14-39.45,42.72-41.08,12.86-1.02,24.82.06,24.82.06"/><path class="cls-1" d="m466.75,167.62c0,10.32-8.36,18.68-18.68,18.68s-18.68-8.36-18.68-18.68,8.36-18.68,18.68-18.68,18.68,8.36,18.68,18.68"/><polygon class="cls-1" points="261.55 59.76 219.44 102.27 219.44 0 188.52 0 188.52 186.18 219.44 186.18 219.44 136.51 300.1 59.76 261.55 59.76"/><path class="cls-1" d="m302.31,186.18h-36.32l-19.63-30.73c-14.41-22.72,6.16-39.93,6.16-39.93l49.79,70.66Z"/></g></svg>