<?xml version="1.0" encoding="utf-8"?>
<!-- Generator: Adobe Illustrator 27.4.1, SVG Export Plug-In . SVG Version: 6.00 Build 0)  -->
<svg version="1.1" id="Layer_1" xmlns:sketch="http://www.bohemiancoding.com/sketch/ns"
     xmlns="http://www.w3.org/2000/svg" x="0px" y="0px" viewBox="0 0 1200 236"
     style="enable-background:new 0 0 1200 236;" xml:space="preserve">
<style type="text/css">
	.st0{fill-rule:evenodd;clip-rule:evenodd;fill:#650729;}
</style>
<g id="Page-1" sketch:type="MSPage">
	<g id="Black-background" transform="translate(-842.000000, -610.000000)" sketch:type="MSLayerGroup">
		<g id="enonic-main-logo" transform="translate(842.000000, 610.000000)" sketch:type="MSShapeGroup">
			<path id="Fill-1" class="st0" d="M0,118.5C0,53,47,0,105.6,0c55.9,0,100.3,48.2,104.7,109.8v1.9c0,6.3-4.9,10.6-10.6,10.6H21.3
				c2.2,51.5,39.5,90.6,84.3,90.6c28.8,0,55.5-16.4,70.1-42.9c3.1-5.8,9.8-6.7,14.2-3.9c4.9,3.9,6.7,10.6,3.6,16.4
				c-18.6,32.3-51,53.5-87.8,53.5C47,236,0,183,0,118.5L0,118.5z M22.6,99.7h164.6c-7.1-44.3-41.7-76.6-81.6-76.6
				C64.8,23.1,30.6,54.9,22.6,99.7L22.6,99.7z"/>
			<path id="Fill-2" class="st0" d="M810.3,0c-51.3,0-92.8,43.4-92.8,96.1v128.4c0,6.7,5.1,11.6,11.2,11.6c6.1,0,11.2-4.8,11.2-11.6
				V96.1c0-40.1,31.2-72.9,70.4-72.9c39.2,0,70.4,32.8,70.4,72.9v128.4c0,6.7,5.1,11.6,11.2,11.6c6.1,0,11.2-4.8,11.2-11.6V96.1
				C903.1,43.4,861.6,0,810.3,0"/>
			<path id="Fill-3" class="st0" d="M340.6,0c-51.3,0-92.8,43.4-92.8,96.1v128.4c0,6.7,5.1,11.6,11.2,11.6c6.1,0,11.2-4.8,11.2-11.6
				V96.1c0-40.1,31.2-72.9,70.4-72.9c39.2,0,70.4,32.8,70.4,72.9v128.4c0,6.7,5.1,11.6,11.2,11.6c6.1,0,11.2-4.8,11.2-11.6V96.1
				C433.4,43.4,391.9,0,340.6,0"/>
			<path id="Fill-4" class="st0" d="M940.2,11.6c0-6.8,5.2-11.6,11.4-11.6c6.6,0,11.8,4.8,11.8,11.6v212.9c0,6.3-5.2,11.5-11.8,11.5
				c-6.2,0-11.4-5.3-11.4-11.5V11.6"/>
			<path id="Fill-5" class="st0" d="M1002.1,117.5C1002.1,52,1055.3,0,1121.7,0c27.5,0,53.7,9.6,74.1,26c4.7,3.4,5.7,10.6,1.4,15.9
				c-3.8,4.3-10.5,5.8-15.7,1.9c-16.6-13.5-37.5-21.2-59.9-21.2c-54.1,0-96.9,42.9-96.9,94.9c0,53,42.8,95.4,96.9,95.4
				c22.3,0,43.2-7.7,59.9-20.7c5.2-3.9,11.9-2.4,15.7,1.9c4.3,5.3,3.3,12.5-2.4,16.9c-19.5,15.4-45.6,25-73.2,25
				C1055.3,236,1002.1,184,1002.1,117.5"/>
			<path id="Fill-6" class="st0" d="M492.3,99.4c7.7-43.7,42.4-76.8,82.9-76.8c40.5,0,75.2,33.2,82.9,76.8h22.3
				C672.5,43.9,628.8,0,575.3,0c-53.1,0-97.1,43.9-105.2,99.4H492.3"/>
			<path id="Fill-7" class="st0" d="M658.2,136.6c-7.3,43.6-42.2,76.5-82.9,76.5c-40.7,0-75.6-33-83-76.5h-22.2
				c7.6,55.4,51.8,99.3,105.2,99.3c53.8,0,97.6-43.9,105.1-99.3H658.2"/>
		</g>
	</g>
</g>
</svg>
