<?xml version="1.0" encoding="UTF-8"?><svg id="Layer_2" xmlns="http://www.w3.org/2000/svg" viewBox="0 0 507.99 170.68"><defs><style>.cls-1{fill:#650729;}</style></defs><g id="Layer_1-2"><path class="cls-1" d="m17.31,100.23h80.34c-2.47-21.01-18.54-37.08-39.55-37.08s-38.32,17.3-40.79,37.08m0,14.83c1.24,21.01,19.78,39.55,42.02,39.55,24.97,0,38.32-19.78,38.32-19.78l11.12,11.13s-17.3,24.72-49.44,24.72S0,143.49,0,108.88s27.19-61.8,58.09-61.8,56.86,24.72,56.86,59.33c0,4.94-1.24,8.9-1.24,8.9l-96.41-.25Z"/><path class="cls-1" d="m163.15,66.86s12.36-19.78,38.32-19.78c28.43,0,48.2,19.78,48.2,50.68v70.45h-17.3v-70.45c0-21.01-13.6-34.61-32.14-34.61-21.01,0-37.08,16.07-37.08,39.55v65.51h-17.3V49.55h17.3v17.3Z"/><path class="cls-1" d="m348.54,75.51s-8.65-12.36-25.96-12.36c-13.6,0-22.25,8.65-22.25,17.3,0,25.96,64.27,12.36,64.27,54.38,0,19.78-16.07,35.84-43.26,35.84-29.66,0-43.26-21.01-43.26-21.01l12.36-12.36s11.13,17.31,30.9,17.31c17.31,0,25.96-8.65,25.96-19.78,0-27.19-64.27-13.6-64.27-54.38,0-17.3,16.07-33.37,39.55-33.37,24.72,0,38.32,16.07,38.32,16.07l-12.36,12.36Z"/><path class="cls-1" d="m447.42,63.15c-23.48,0-43.26,19.78-43.26,45.73s19.78,45.73,43.26,45.73,43.26-19.78,43.26-45.73-19.78-45.73-43.26-45.73m0-16.07c33.37,0,60.56,27.19,60.56,61.8s-27.19,61.8-60.56,61.8-60.56-27.19-60.56-61.8,27.19-61.8,60.56-61.8"/><rect class="cls-1" x="404.16" width="86.52" height="15.45"/></g></svg>