<?xml version="1.0" encoding="utf-8"?>
<!-- Generator: Adobe Illustrator 27.4.1, SVG Export Plug-In . SVG Version: 6.00 Build 0)  -->
<svg version="1.1" id="Layer_2_00000034776783901807967570000001707374207057400710_"
     xmlns="http://www.w3.org/2000/svg" x="0px" y="0px" viewBox="0 0 64.3 28"
     style="enable-background:new 0 0 64.3 28;" xml:space="preserve">
<style type="text/css">
	.st0{fill:#650729;}
</style>
<g id="Layer_1-2">
	<path class="st0" d="M8.7,8.7h12.8V28h-4.9V12.4H8.7V28H3.7V12.4H0V8.7h3.7c0-2.8,0.7-4.9,2.2-6.3C7.4,1,9.6,0.2,12.6,0.1L14.3,0
		l0.2,3.7l-1.9,0.1c-1.5,0.1-2.5,0.4-3.1,1.1C9,5.5,8.7,6.5,8.7,7.8V8.7L8.7,8.7z"/>
	<path class="st0" d="M40.6,10.2c1.1,1.3,1.7,3.3,1.7,6V28h-4.9V16.4c0-1.5-0.3-2.6-0.8-3.3c-0.6-0.7-1.5-1-2.7-1
		c-1.4,0-2.6,0.4-3.4,1.3c-0.9,0.9-1.3,2.1-1.3,3.6v11h-4.9V8.7H29v2.9c0.7-1.1,1.5-1.9,2.6-2.5s2.4-0.9,3.8-0.9
		C37.8,8.2,39.5,8.9,40.6,10.2L40.6,10.2z"/>
	<path class="st0" d="M64.3,28h-6.1l-8.3-8.8V28H45V0.2h4.9v17l7.8-8.4h6L55,18C55,18,64.3,28,64.3,28z"/>
</g>
</svg>
