<?xml version="1.0" encoding="UTF-8"?><svg id="Layer_2" xmlns="http://www.w3.org/2000/svg" viewBox="0 0 285.06 74.28"><defs><style>.cls-1{fill:#650729;}</style></defs><g id="Layer_1-2"><rect class="cls-1" x="1.15" y="23.48" width="13.86" height="49.45"/><path class="cls-1" d="m8.08,0C3.46,0,0,4.14,0,8.18s3.46,7.99,8.08,7.99,8.08-3.95,8.08-8.18S12.22,0,8.08,0Z"/><path class="cls-1" d="m49.83,22.13c-5.58,0-10.49,1.83-14.62,7.79h-.19v-6.45h-13.28v49.45h13.86v-28.1c0-6.73,3.46-11.54,9.04-11.54,4.33,0,8.66,2.4,8.66,9.53v30.11h13.86v-33.58c0-9.53-5.39-17.22-17.32-17.22Z"/><path class="cls-1" d="m130.02,22.13c-4.14,0-9.62,1.15-14.53,7.7-3.46-6.84-10.01-7.7-13.28-7.7-5.68,0-10.49,1.25-14.91,7.79h-.19v-6.45h-13.28v49.45h13.86v-30.02c0-4.81,2.12-9.62,7.79-9.62s7.51,3.94,7.51,9.14v30.5h13.86v-30.79c0-3.95,2.6-8.85,7.89-8.85s7.41,3.94,7.41,7.79v31.84h13.85v-35.5c0-10.39-7.51-15.3-15.97-15.3Z"/><path class="cls-1" d="m176.55,22.13c-14.91,0-25.3,10.2-25.3,26.17s10.39,25.98,25.3,25.98c11.64,0,20.69-5.29,24.06-15.4l-13.47-1.06c-1.92,3.85-5.68,5.87-9.91,5.87-7.41,0-10.97-5.77-11.54-11.54h36.18v-3.85c0-15.97-10.39-26.17-25.31-26.17Zm-10.87,21.17c.77-5.58,4.33-10.58,11.54-10.58,6.64,0,10.29,5.77,10.78,10.58h-22.32Z"/><path class="cls-1" d="m224.57,9.24h-13.86v14.24h-6.35v10.58h6.35v26.55c0,10.68,5.49,12.89,14.53,12.89,2.21,0,4.42-.29,6.64-.58v-10.87c-.87.19-1.63.29-2.79.29-3.56,0-4.52-1.06-4.52-3.27v-25.02h7.31v-10.58h-7.31v-14.24Z"/><path class="cls-1" d="m285.06,72.93c-.38-1.83-.67-3.56-.67-6.16v-28.67c0-11.35-10.2-15.97-22.42-15.97-17.32,0-22.71,9.72-23.19,17.32h13.28c.29-4.42,3.66-7.31,9.33-7.31,6.06,0,9.72,2.89,9.72,8.76v2.31l-12.79.77c-19.34,1.16-21.07,9.91-21.07,15.2,0,11.26,9.53,15.11,17.32,15.11,5.77,0,12.31-1.73,16.93-7.79h.19v6.45h13.37Zm-13.95-17.03c0,5.96-7.02,8.37-11.35,8.37-4.62,0-8.66-1.35-8.66-5.77,0-3.56,2.12-5.48,8.47-6.06l11.54-1.06v4.52Z"/></g></svg>