<?xml version="1.0" encoding="utf-8"?>
<!-- Generator: Adobe Illustrator 27.4.1, SVG Export Plug-In . SVG Version: 6.00 Build 0)  -->
<svg version="1.1" id="Layer_1" xmlns="http://www.w3.org/2000/svg" xmlns:xlink="http://www.w3.org/1999/xlink" x="0px" y="0px"
	 viewBox="0 0 693.9 361.8" style="enable-background:new 0 0 693.9 361.8;" xml:space="preserve">
<style type="text/css">
	.st0{fill:#650729;}
</style>
<g>
	<g>
		<rect x="93.4" y="148.1" class="st0" width="17.1" height="97.2"/>
		<polygon class="st0" points="171.3,229.5 170.5,229.5 149.1,148.1 131.2,148.1 158.5,245.2 183.6,245.2 210.8,148.1 193,148.1
			"/>
		<polygon class="st0" points="327.6,245.2 344.8,245.2 344.8,164.2 374.3,164.2 374.3,148.1 327.6,148.1 		"/>
		<polygon class="st0" points="93.4,126.2 110.5,134.7 110.5,112.8 93.4,104.3 		"/>
		<path class="st0" d="M264.7,145.8c-23.8,0-42.1,15.6-42.1,46v10.4c0,28.9,18.8,45.6,43.3,45.6c20.9,0,38.4-11.6,38.4-33.3h-16.9
			c-0.6,13.9-11,17.4-21.6,17.4c-11.5,0-26.4-7.2-26.4-27.2v-2.5H305v-13.9C305,163.1,290.2,145.8,264.7,145.8z M239.7,186
			c0.6-7.2,2.7-12.2,5.6-16.2c5-6.6,13.5-8.5,19.5-8.5c11.2,0,22.9,6,23.1,24.7H239.7z"/>
	</g>
	<g>
		<polygon class="st0" points="439.9,209.4 439.9,268.5 600.6,219 600.6,159.9 		"/>
		<polygon class="st0" points="553.4,115.2 509.3,93.4 509.3,152.7 553.4,174.5 		"/>
	</g>
</g>
</svg>
