<?xml version="1.0" encoding="utf-8"?>
<!-- Generator: Adobe Illustrator 27.4.1, SVG Export Plug-In . SVG Version: 6.00 Build 0)  -->
<svg version="1.1" id="Layer_1" xmlns="http://www.w3.org/2000/svg" x="0px" y="0px"
     viewBox="0 0 256 82" style="enable-background:new 0 0 256 82;" xml:space="preserve">
<style type="text/css">
	.st0{fill:#650729;}
</style>
<path class="st0" d="M70,19.1c0,3.5-2.9,6.4-6.4,6.4c-3.6,0-6.4-2.8-6.4-6.4c0-3.5,2.9-6.3,6.4-6.3C67.1,12.7,70,15.6,70,19.1z
	 M82.9,35.4V2.7c0-1.5-1.2-2.7-2.8-2.7H47c-1.5,0-2.8,1.2-2.8,2.7v32.7c0,1.5,1.2,2.7,2.8,2.7h33.1C81.7,38.1,82.9,36.9,82.9,35.4z"
	/>
<path class="st0" d="M19.3,0C8.7,0,0,8.5,0,19.1s8.7,19,19.3,19s19.3-8.5,19.3-19C38.6,8.5,30,0,19.3,0z"/>
<path class="st0" d="M35.9,43.9H2.8c-1.5,0-2.8,1.2-2.8,2.7v16.3c0,10.5,8.7,19,19.3,19s19.3-8.5,19.3-19V46.6
	C38.6,45.1,37.4,43.9,35.9,43.9z"/>
<path class="st0" d="M82.9,63L82.9,63c0-10.6-8.7-19.1-19.3-19.1s-19.3,8.5-19.3,19s8.7,19,19.3,19h16.6c1.5,0,2.8-1.2,2.8-2.7V63
	L82.9,63z"/>
<path class="st0" d="M223.7,55.6c0,7.7-6.8,11.5-14.6,11.5c-7.1,0-12.3-2.8-15-8.1c-0.1-0.3,0-0.6,0.2-0.7l7.2-4
	c0.3-0.2,0.6,0,0.7,0.3c1.1,2.6,3.5,4.1,6.9,4.1c3,0,5-1,5-3.1c0-5.2-18.7-2.4-18.7-15c0-7.3,6.3-11.4,13.8-11.4
	c5.7,0,10.6,2.5,13.5,7.1c0.2,0.3,0.1,0.6-0.2,0.7l-7,3.8c-0.3,0.1-0.6,0.1-0.7-0.2c-1.1-2-3.1-3.2-5.6-3.2c-2.3,0-4.2,1-4.2,2.9
	C205,45.7,223.7,42.5,223.7,55.6L223.7,55.6z"/>
<path class="st0" d="M230.1,13.8h8.3c0.3,0,0.5,0.2,0.5,0.5v51.2c0,0.3-0.2,0.5-0.5,0.5h-8.3c-0.3,0-0.5-0.2-0.5-0.5V14.3
	C229.6,14.1,229.8,13.8,230.1,13.8z"/>
<path class="st0" d="M244.5,20.3c0-3.1,2.6-5.7,5.7-5.7c3.1,0,5.8,2.6,5.8,5.7c0,3.1-2.6,5.6-5.8,5.6C247,26,244.5,23.4,244.5,20.3z
	 M246.1,30.3h8.3c0.3,0,0.5,0.2,0.5,0.5v34.7c0,0.3-0.2,0.5-0.5,0.5h-8.3c-0.3,0-0.5-0.2-0.5-0.5V30.8
	C245.5,30.5,245.8,30.3,246.1,30.3z"/>
<path class="st0" d="M138.7,48l14.3-17.3c0.3-0.3,0-0.9-0.4-0.9h-9.3c-0.3,0-0.6,0.1-0.8,0.4l-12.5,15.4c-0.1,0.2-0.2,0.4-0.2,0.7
	v3.3c0,0.2,0.1,0.5,0.2,0.7l12.5,15.4c0.2,0.3,0.5,0.4,0.8,0.4h9.3c0.5,0,0.7-0.5,0.4-0.9L138.7,48z"/>
<path class="st0" d="M171.5,29.2c-10.6,0-19.2,8.5-19.2,19c0,10.5,8.6,19,19.2,19c10.6,0,19.2-8.5,19.2-19
	C190.7,37.7,182.1,29.2,171.5,29.2z M171.5,57.5c-5.2,0-9.5-4.2-9.5-9.4c0-5.2,4.2-9.4,9.5-9.4c5.2,0,9.5,4.2,9.5,9.4
	C181,53.4,176.7,57.5,171.5,57.5z"/>
<path class="st0" d="M119.2,15.9h8.3c0.3,0,0.5,0.2,0.5,0.5v49.2c0,0.3-0.2,0.5-0.5,0.5h-8.3c-0.3,0-0.5-0.2-0.5-0.5V16.4
	C118.6,16.1,118.9,15.9,119.2,15.9z"/>
</svg>
