<?xml version="1.0" encoding="utf-8"?>
<!-- Generator: Adobe Illustrator 27.4.1, SVG Export Plug-In . SVG Version: 6.00 Build 0)  -->
<svg version="1.1" xmlns="http://www.w3.org/2000/svg" x="0px" y="0px"
     viewBox="0 0 1374 300" style="enable-background:new 0 0 1374 300;" xml:space="preserve">
<style type="text/css">
	.st0{fill:#650729;}
	.st1{display:none;}
	.st2{display:inline;}
	.st3{fill-rule:evenodd;clip-rule:evenodd;fill:#FFFFFF;}
	.st4{stroke:#000000;stroke-miterlimit:10;}
</style>
<g id="kraftlauget">
	<g>
		<path class="st0" d="M545.4,162.7"/>
		<path class="st0" d="M542.1,153.5"/>
		<g>
			<g>
				<path class="st0" d="M337.6,156.1l-9.7,10.3V193h-14.8v-85.3h14.8v40l8.2-10.1l25-29.9H379l-31.7,37.8l33.5,47.5h-17.6
					L337.6,156.1z"/>
				<path class="st0" d="M438.1,160.1h-16.5V193h-14.8v-85.3h30c4.9,0,9.2,0.6,13.1,1.7c3.8,1.1,7.1,2.8,9.7,4.9s4.6,4.9,6,8.1
					c1.4,3.2,2.1,6.9,2.1,11.1c0,5.7-1.4,10.5-4.1,14.3c-2.8,3.8-6.6,6.8-11.5,8.9l19.2,35.6v0.8h-15.9L438.1,160.1z M421.5,148.2
					h15.2c2.7,0,5-0.4,7-1.1s3.7-1.7,5-2.9c1.3-1.2,2.3-2.7,3-4.5c0.7-1.7,1-3.6,1-5.7c0-2.2-0.3-4.2-0.9-5.9
					c-0.6-1.8-1.6-3.3-2.9-4.6c-1.3-1.3-2.9-2.2-5-2.9c-2-0.7-4.4-1-7.2-1h-15.2V148.2z"/>
				<path class="st0" d="M543.1,161l-30,15.5l-5.7,16.4H492l32.2-85.3h13.3l32.3,85.3h-15.5L543.1,161z M518.5,161.2l20.9-10.8
					l-8.6-24.6L518.5,161.2z"/>
				<path class="st0" d="M646.6,156.8h-34.3V193h-14.8v-85.3h54.2v12h-39.4V145h34.3V156.8z"/>
				<path class="st0" d="M744.2,119.6h-26.6V193h-14.7v-73.4h-26.4v-12h67.7V119.6z"/>
				<path class="st0" d="M788.2,181.1h38.7V193h-53.6v-85.3h14.8V181.1z"/>
				<path class="st0" d="M1016.7,107.7v57.1c0,4.9-0.8,9.2-2.5,12.8c-1.7,3.7-3.9,6.7-6.8,9.2c-2.9,2.5-6.3,4.3-10.1,5.5
					s-8,1.8-12.4,1.8c-4.6,0-8.8-0.6-12.7-1.8c-3.9-1.2-7.3-3.1-10.1-5.5c-2.9-2.5-5.1-5.5-6.7-9.2c-1.6-3.7-2.4-7.9-2.4-12.8v-57.1
					h14.8v57.1c0,3,0.4,5.7,1.2,7.9c0.8,2.2,1.9,4,3.4,5.5c1.5,1.4,3.3,2.5,5.4,3.2c2.1,0.7,4.5,1,7.1,1c2.6,0,5-0.3,7.1-1
					c2.1-0.7,3.9-1.7,5.4-3.2c1.5-1.4,2.6-3.3,3.4-5.5c0.8-2.2,1.2-4.8,1.2-7.9v-57.1H1016.7z"/>
				<path class="st0" d="M1115.9,181.9c-0.9,1.2-2.1,2.5-3.8,3.9c-1.6,1.4-3.7,2.8-6.2,4s-5.5,2.3-9.1,3.1
					c-3.5,0.8-7.7,1.3-12.5,1.3c-5.4,0-10.3-0.9-14.7-2.8c-4.5-1.8-8.3-4.5-11.5-8c-3.2-3.5-5.7-7.8-7.5-12.8
					c-1.8-5.1-2.7-10.9-2.7-17.4v-5.6c0-6.5,0.8-12.3,2.4-17.4c1.6-5.1,3.9-9.4,6.9-12.9c3-3.5,6.7-6.2,11-8
					c4.3-1.8,9.3-2.8,14.8-2.8c5.2,0,9.7,0.7,13.6,2s7.1,3.2,9.8,5.7c2.7,2.4,4.7,5.3,6.3,8.6s2.5,7,3,11h-14.5
					c-0.4-2.2-0.9-4.3-1.8-6.2s-1.9-3.5-3.4-4.9c-1.4-1.4-3.2-2.4-5.3-3.2c-2.1-0.8-4.6-1.2-7.5-1.2c-3.5,0-6.5,0.6-9.1,1.9
					c-2.6,1.3-4.7,3.2-6.4,5.7c-1.7,2.5-3,5.5-3.8,9.1c-0.8,3.6-1.3,7.7-1.3,12.3v5.7c0,4.7,0.5,8.8,1.5,12.5c1,3.6,2.5,6.7,4.4,9.1
					c1.9,2.5,4.2,4.3,6.9,5.6c2.7,1.3,5.8,1.9,9.2,1.9c2.5,0,4.7-0.2,6.5-0.5c1.8-0.3,3.3-0.8,4.6-1.3c1.2-0.5,2.3-1.1,3.1-1.7
					c0.8-0.6,1.5-1.2,2-1.7v-16.7h-17.6v-11.2h32.3V181.9z"/>
				<path class="st0" d="M1200,154.9h-35v26.2h41V193h-55.8v-85.3h55.4v12H1165v23.6h35V154.9z"/>
				<path class="st0" d="M1298.8,119.6h-26.6V193h-14.7v-73.4h-26.4v-12h67.7V119.6z"/>
				<path class="st0" d="M900.9,161l-30,15.5l-5.7,16.4h-15.4l32.2-85.3h13.3l32.3,85.3h-15.5L900.9,161z M876.3,161.2l20.9-10.8
					l-8.6-24.6L876.3,161.2z"/>
			</g>
			<g>
				<path class="st0" d="M166,248.5c-53.8,0-97.5-43.7-97.5-97.5s43.7-97.5,97.5-97.5s97.5,43.7,97.5,97.5S219.7,248.5,166,248.5z
					 M166,58.5c-51,0-92.5,41.5-92.5,92.5s41.5,92.5,92.5,92.5s92.5-41.5,92.5-92.5S217,58.5,166,58.5z"/>
				<path class="st0" d="M147.7,120.5"/>
				<path class="st0" d="M147.7,120.5"/>
				<path class="st0" d="M173.4,138.3"/>
				<path class="st0" d="M147.7,165.7"/>
				<path class="st0" d="M188,174.8"/>
				<path class="st0" d="M239.2,138.2c-0.5-0.7-1.2-1.1-2-1.2l-17.6-2.7c-1-3.1-2.3-6.2-4-9.4c1.2-1.6,2.9-3.9,5.2-6.8
					c2.3-2.9,3.9-5.1,4.9-6.4c0.5-0.7,0.8-1.4,0.8-2.2c0-0.9-0.2-1.6-0.7-2.1c-2.3-3.3-7.6-8.7-15.9-16.4c-0.8-0.6-1.6-1-2.4-1
					c-1,0-1.7,0.3-2.3,0.9l-13.7,10.3c-2.6-1.3-5.5-2.5-8.7-3.6l-2.7-17.7c-0.1-0.8-0.4-1.5-1.1-2.1c-0.7-0.5-1.5-0.8-2.4-0.8h-21.4
					c-1.9,0-3,0.9-3.5,2.7c-0.8,3.2-1.8,9.2-2.8,17.9c-3,1-5.9,2.2-8.8,3.7L127,91c-0.8-0.6-1.7-1-2.5-1c-1.4,0-4.4,2.3-9.1,6.9
					c-4.7,4.6-7.8,8-9.5,10.4c-0.6,0.8-0.9,1.6-0.9,2.2c0,0.8,0.3,1.5,1,2.3c4.3,5.2,7.7,9.6,10.3,13.3c-1.6,3-2.9,5.9-3.8,8.9
					l-17.9,2.7c-0.7,0.1-1.3,0.5-1.8,1.3c-0.5,0.7-0.8,1.4-0.8,2.2v21.4c0,0.8,0.3,1.6,0.8,2.3c0.5,0.7,1.2,1.1,2,1.2l17.6,2.6
					c0.9,3.1,2.2,6.3,4,9.5c-1.2,1.6-2.9,3.9-5.2,6.8c-2.3,2.9-4,5.1-4.9,6.4c-0.5,0.7-0.8,1.4-0.8,2.2c0,0.8,0.2,1.6,0.7,2.2
					c2.5,3.5,7.8,8.9,15.9,16.2c0.7,0.7,1.5,1.1,2.4,1.1c1,0,1.8-0.3,2.4-0.9l13.6-10.3c2.6,1.3,5.5,2.5,8.7,3.6l2.7,17.7
					c0.1,0.8,0.4,1.5,1.1,2.1c0.7,0.5,1.5,0.8,2.4,0.8h21.4c1.9,0,3-0.9,3.5-2.7c0.8-3.2,1.8-9.2,2.8-17.9c3-1,5.9-2.2,8.8-3.7
					l13.3,10.4c0.9,0.6,1.7,0.9,2.5,0.9c1.4,0,4.4-2.3,9.1-6.8c4.6-4.6,7.8-8,9.5-10.4c0.6-0.6,0.9-1.4,0.9-2.2c0-0.8-0.3-1.6-1-2.4
					c-4.6-5.7-8.1-10.1-10.3-13.3c1.3-2.4,2.5-5.3,3.8-8.8l17.8-2.7c0.8-0.1,1.4-0.5,1.9-1.3c0.5-0.7,0.8-1.4,0.8-2.2v-21.4
					C240,139.7,239.7,138.9,239.2,138.2z M212.9,153.4c-0.6,12.5-6.3,23.8-14.9,31.8l-7.3-9.3c1.9-2.7,2.5-6.2,1.4-9.6
					c-1.9-5.5-7.9-8.3-13.4-6.4c-2.6,0.9-4.8,2.8-6,5.4c-1.2,2.5-1.4,5.4-0.4,8c1.5,4.3,5.6,7,9.9,7c1.2,0,2.3-0.2,3.5-0.6
					c0.1,0,0.2-0.1,0.3-0.1l7.4,9.5c-7.1,5.2-15.7,8.4-25,8.8c-27.9,1.4-50.8-21.5-49.4-49.4c0.6-12.8,6.5-24.3,15.6-32.5l9.1,11.2
					v29.2c-0.2,0-0.3,0.1-0.5,0.1c-2.6,0.9-4.8,2.8-6,5.4c-1.2,2.5-1.4,5.4-0.4,8c1.5,4.3,5.6,7,9.9,7c1.2,0,2.3-0.2,3.5-0.6
					c5.5-1.9,8.3-7.9,6.4-13.4c-1.2-3.3-3.8-5.6-6.9-6.6v-31.3l-10.4-12.8c7-4.8,15.3-7.8,24.2-8.3c14.7-0.7,28,5.3,37.1,15.2l-15,0
					l-10,10.9c-0.2-0.1-0.3-0.2-0.5-0.2c-2.6-1.1-5.4-1.2-8-0.1c-2.6,1-4.7,3-5.8,5.6c-1.1,2.6-1.2,5.4-0.1,8c1,2.6,3,4.7,5.6,5.8h0
					c1.3,0.6,2.8,0.9,4.2,0.9c1.3,0,2.6-0.2,3.9-0.7c2.6-1,4.7-3,5.8-5.6c1.1-2.6,1.2-5.4,0.1-8c-0.2-0.5-0.5-1-0.7-1.5l8.3-9l17,0
					C210.6,133.3,213.4,143,212.9,153.4z M183.6,173.6c-2.1,0.7-4.4-0.4-5.1-2.4c-0.4-1-0.3-2.1,0.2-3.1c0.5-1,1.3-1.7,2.3-2
					c0.4-0.2,0.9-0.2,1.3-0.2c1.6,0,3.2,1,3.8,2.7C186.7,170.6,185.6,172.9,183.6,173.6z M145.3,162.7c0.4-0.2,0.9-0.2,1.3-0.2
					c1.6,0,3.2,1,3.8,2.7c0.7,2.1-0.4,4.4-2.4,5.1c-1,0.4-2.1,0.3-3.1-0.2c-1-0.5-1.7-1.3-2-2.3c-0.4-1-0.3-2.1,0.2-3.1
					C143.5,163.8,144.3,163.1,145.3,162.7z M174.7,141.1c-0.4,1-1.2,1.7-2.2,2.1c-1,0.4-2.1,0.4-3.1-0.1h0c-2-0.9-3-3.2-2.1-5.3
					c0.4-1,1.2-1.7,2.2-2.1c0.5-0.2,1-0.3,1.5-0.3c0.5,0,1.1,0.1,1.6,0.3c1,0.4,1.7,1.2,2.1,2.2C175.1,139,175.1,140.1,174.7,141.1z
					"/>
			</g>
		</g>
	</g>
</g>
<g id="Negative" class="st1">
	<g class="st2">
		<rect x="0" class="st3" width="1374" height="300"/>
		<g>
			<g>
				<path d="M340.9,156.9l-9.7,10.3v26.6h-14.8v-85.3h14.8v40l8.2-10.1l25-29.9h17.9l-31.7,37.8l33.5,47.5h-17.6L340.9,156.9z"/>
				<path d="M441.4,160.9h-16.5v32.9H410v-85.3h30c4.9,0,9.2,0.6,13.1,1.7c3.8,1.1,7.1,2.8,9.7,4.9s4.6,4.9,6,8.1
					c1.4,3.2,2.1,6.9,2.1,11.1c0,5.7-1.4,10.5-4.1,14.3c-2.8,3.8-6.6,6.8-11.5,8.9l19.2,35.6v0.8h-15.9L441.4,160.9z M424.9,149
					h15.2c2.7,0,5-0.4,7-1.1s3.7-1.7,5-2.9c1.3-1.2,2.3-2.7,3-4.5c0.7-1.7,1-3.6,1-5.7c0-2.2-0.3-4.2-0.9-5.9
					c-0.6-1.8-1.6-3.3-2.9-4.6c-1.3-1.3-2.9-2.2-5-2.9c-2-0.7-4.4-1-7.2-1h-15.2V149z"/>
				<path d="M546.4,161.8l-30,15.5l-5.7,16.4h-15.4l32.2-85.3h13.3l32.3,85.3h-15.5L546.4,161.8z M521.8,161.9l20.9-10.8l-8.6-24.6
					L521.8,161.9z"/>
				<path d="M650,157.6h-34.3v36.2h-14.8v-85.3H655v12h-39.4v25.4H650V157.6z"/>
				<path d="M747.5,120.4h-26.6v73.4h-14.7v-73.4h-26.4v-12h67.7V120.4z"/>
				<path d="M791.5,181.9h38.7v11.8h-53.6v-85.3h14.8V181.9z"/>
				<path d="M1020,108.4v57.1c0,4.9-0.8,9.2-2.5,12.8c-1.7,3.7-3.9,6.7-6.8,9.2c-2.9,2.5-6.3,4.3-10.1,5.5s-8,1.8-12.4,1.8
					c-4.6,0-8.8-0.6-12.7-1.8c-3.9-1.2-7.3-3.1-10.1-5.5c-2.9-2.5-5.1-5.5-6.7-9.2c-1.6-3.7-2.4-7.9-2.4-12.8v-57.1H971v57.1
					c0,3,0.4,5.7,1.2,7.9c0.8,2.2,1.9,4,3.4,5.5c1.5,1.4,3.3,2.5,5.4,3.2c2.1,0.7,4.5,1,7.1,1c2.6,0,5-0.3,7.1-1
					c2.1-0.7,3.9-1.7,5.4-3.2c1.5-1.4,2.6-3.3,3.4-5.5c0.8-2.2,1.2-4.8,1.2-7.9v-57.1H1020z"/>
				<path d="M1119.2,182.7c-0.9,1.2-2.1,2.5-3.8,3.9c-1.6,1.4-3.7,2.8-6.2,4s-5.5,2.3-9.1,3.1c-3.5,0.8-7.7,1.3-12.5,1.3
					c-5.4,0-10.3-0.9-14.7-2.8c-4.5-1.8-8.3-4.5-11.5-8c-3.2-3.5-5.7-7.8-7.5-12.8c-1.8-5.1-2.7-10.9-2.7-17.4v-5.6
					c0-6.5,0.8-12.3,2.4-17.4c1.6-5.1,3.9-9.4,6.9-12.9c3-3.5,6.7-6.2,11-8c4.3-1.8,9.3-2.8,14.8-2.8c5.2,0,9.7,0.7,13.6,2
					s7.1,3.2,9.8,5.7c2.7,2.4,4.7,5.3,6.3,8.6s2.5,7,3,11h-14.5c-0.4-2.2-0.9-4.3-1.8-6.2c-0.8-1.9-1.9-3.5-3.4-4.9
					c-1.4-1.4-3.2-2.4-5.3-3.2c-2.1-0.8-4.6-1.2-7.5-1.2c-3.5,0-6.5,0.6-9.1,1.9c-2.6,1.3-4.7,3.2-6.4,5.7c-1.7,2.5-3,5.5-3.8,9.1
					c-0.8,3.6-1.3,7.7-1.3,12.3v5.7c0,4.7,0.5,8.8,1.5,12.5c1,3.6,2.5,6.7,4.4,9.1c1.9,2.5,4.2,4.3,6.9,5.6c2.7,1.3,5.8,1.9,9.2,1.9
					c2.5,0,4.7-0.2,6.5-0.5c1.8-0.3,3.3-0.8,4.6-1.3c1.2-0.5,2.3-1.1,3.1-1.7c0.8-0.6,1.5-1.2,2-1.7v-16.7h-17.6V150h32.3V182.7z"/>
				<path d="M1203.4,155.7h-35v26.2h41v11.8h-55.8v-85.3h55.4v12h-40.5V144h35V155.7z"/>
				<path d="M1302.2,120.4h-26.6v73.4h-14.7v-73.4h-26.4v-12h67.7V120.4z"/>
				<path d="M904.3,161.8l-30,15.5l-5.7,16.4h-15.4l32.2-85.3h13.3l32.3,85.3h-15.5L904.3,161.8z M879.6,161.9l20.9-10.8l-8.6-24.6
					L879.6,161.9z"/>
			</g>
			<g>
				<path class="st4" d="M169.3,247.5c-53.8,0-97.5-43.7-97.5-97.5s43.7-97.5,97.5-97.5s97.5,43.7,97.5,97.5
					S223.1,247.5,169.3,247.5z M169.3,57.5c-51,0-92.5,41.5-92.5,92.5s41.5,92.5,92.5,92.5s92.5-41.5,92.5-92.5
					S220.3,57.5,169.3,57.5z"/>
				<path d="M151.1,119.5"/>
				<path d="M151.1,119.5"/>
				<path d="M176.7,137.3"/>
				<path d="M151,164.7"/>
				<path d="M191.4,173.8"/>
				<path d="M242.5,137.2c-0.5-0.7-1.2-1.1-2-1.2l-17.6-2.7c-1-3.1-2.3-6.2-4-9.4c1.2-1.6,2.9-3.9,5.2-6.8c2.3-2.9,3.9-5.1,4.9-6.4
					c0.5-0.7,0.8-1.4,0.8-2.2c0-0.9-0.2-1.6-0.7-2.1c-2.3-3.3-7.6-8.7-15.9-16.4c-0.8-0.6-1.6-1-2.4-1c-1,0-1.7,0.3-2.3,0.9
					l-13.7,10.3c-2.6-1.3-5.5-2.5-8.7-3.6l-2.7-17.7c-0.1-0.8-0.4-1.5-1.1-2.1c-0.7-0.5-1.5-0.8-2.4-0.8h-21.4c-1.9,0-3,0.9-3.5,2.7
					c-0.8,3.2-1.8,9.2-2.8,17.9c-3,1-5.9,2.2-8.8,3.7L130.3,90c-0.8-0.6-1.7-1-2.5-1c-1.4,0-4.4,2.3-9.1,6.9
					c-4.7,4.6-7.8,8-9.5,10.4c-0.6,0.8-0.9,1.6-0.9,2.2c0,0.8,0.3,1.5,1,2.3c4.3,5.2,7.7,9.6,10.3,13.3c-1.6,3-2.9,5.9-3.8,8.9
					l-17.9,2.7c-0.7,0.1-1.3,0.5-1.8,1.3c-0.5,0.7-0.8,1.4-0.8,2.2v21.4c0,0.8,0.3,1.6,0.8,2.3c0.5,0.7,1.2,1.1,2,1.2l17.6,2.6
					c0.9,3.1,2.2,6.3,4,9.5c-1.2,1.6-2.9,3.9-5.2,6.8c-2.3,2.9-4,5.1-4.9,6.4c-0.5,0.7-0.8,1.4-0.8,2.2c0,0.8,0.2,1.6,0.7,2.2
					c2.5,3.5,7.8,8.9,15.9,16.2c0.7,0.7,1.5,1.1,2.4,1.1c1,0,1.8-0.3,2.4-0.9l13.6-10.3c2.6,1.3,5.5,2.5,8.7,3.6l2.7,17.7
					c0.1,0.8,0.4,1.5,1.1,2.1c0.7,0.5,1.5,0.8,2.4,0.8H180c1.9,0,3-0.9,3.5-2.7c0.8-3.2,1.8-9.2,2.8-17.9c3-1,5.9-2.2,8.8-3.7
					l13.3,10.4c0.9,0.6,1.7,0.9,2.5,0.9c1.4,0,4.4-2.3,9.1-6.8c4.6-4.6,7.8-8,9.5-10.4c0.6-0.6,0.9-1.4,0.9-2.2c0-0.8-0.3-1.6-1-2.4
					c-4.6-5.7-8.1-10.1-10.3-13.3c1.3-2.4,2.5-5.3,3.8-8.8l17.8-2.7c0.8-0.1,1.4-0.5,1.9-1.3c0.5-0.7,0.8-1.4,0.8-2.2v-21.4
					C243.3,138.7,243.1,137.9,242.5,137.2z M216.3,152.4c-0.6,12.5-6.3,23.8-14.9,31.8l-7.3-9.3c1.9-2.7,2.5-6.2,1.4-9.6
					c-1.9-5.5-7.9-8.3-13.4-6.4c-2.6,0.9-4.8,2.8-6,5.4c-1.2,2.5-1.4,5.4-0.4,8c1.5,4.3,5.6,7,9.9,7c1.2,0,2.3-0.2,3.5-0.6
					c0.1,0,0.2-0.1,0.3-0.1l7.4,9.5c-7.1,5.2-15.7,8.4-25,8.8c-27.9,1.4-50.8-21.5-49.4-49.4c0.6-12.8,6.5-24.3,15.6-32.5l9.1,11.2
					v29.2c-0.2,0-0.3,0.1-0.5,0.1c-2.6,0.9-4.8,2.8-6,5.4c-1.2,2.5-1.4,5.4-0.4,8c1.5,4.3,5.6,7,9.9,7c1.2,0,2.3-0.2,3.5-0.6
					c5.5-1.9,8.3-7.9,6.4-13.4c-1.2-3.3-3.8-5.6-6.9-6.6v-31.3l-10.4-12.8c7-4.8,15.3-7.8,24.2-8.3c14.7-0.7,28,5.3,37.1,15.2l-15,0
					l-10,10.9c-0.2-0.1-0.3-0.2-0.5-0.2c-2.6-1.1-5.4-1.2-8-0.1c-2.6,1-4.7,3-5.8,5.6c-1.1,2.6-1.2,5.4-0.1,8c1,2.6,3,4.7,5.6,5.8h0
					c1.3,0.6,2.8,0.9,4.2,0.9c1.3,0,2.6-0.2,3.9-0.7c2.6-1,4.7-3,5.8-5.6c1.1-2.6,1.2-5.4,0.1-8c-0.2-0.5-0.5-1-0.7-1.5l8.3-9l17,0
					C213.9,132.3,216.8,142,216.3,152.4z M186.9,172.6c-2.1,0.7-4.4-0.4-5.1-2.4c-0.4-1-0.3-2.1,0.2-3.1c0.5-1,1.3-1.7,2.3-2
					c0.4-0.2,0.9-0.2,1.3-0.2c1.6,0,3.2,1,3.8,2.7C190.1,169.6,189,171.9,186.9,172.6z M148.7,161.7c0.4-0.2,0.9-0.2,1.3-0.2
					c1.6,0,3.2,1,3.8,2.7c0.7,2.1-0.4,4.4-2.4,5.1c-1,0.4-2.1,0.3-3.1-0.2c-1-0.5-1.7-1.3-2-2.3c-0.4-1-0.3-2.1,0.2-3.1
					C146.9,162.8,147.7,162.1,148.7,161.7z M178,140.1c-0.4,1-1.2,1.7-2.2,2.1c-1,0.4-2.1,0.4-3.1-0.1h0c-2-0.9-3-3.2-2.1-5.3
					c0.4-1,1.2-1.7,2.2-2.1c0.5-0.2,1-0.3,1.5-0.3c0.5,0,1.1,0.1,1.6,0.3c1,0.4,1.7,1.2,2.1,2.2C178.4,138,178.4,139.1,178,140.1z"
					/>
			</g>
		</g>
	</g>
</g>
<g id="Transparent" class="st1">
	<g class="st2">
		<g>
			<g>
				<path d="M340.9,156.9l-9.7,10.3v26.6h-14.8v-85.3h14.8v40l8.2-10.1l25-29.9h17.9l-31.7,37.8l33.5,47.5h-17.6L340.9,156.9z"/>
				<path d="M441.4,160.9h-16.5v32.9H410v-85.3h30c4.9,0,9.2,0.6,13.1,1.7c3.8,1.1,7.1,2.8,9.7,4.9s4.6,4.9,6,8.1
					c1.4,3.2,2.1,6.9,2.1,11.1c0,5.7-1.4,10.5-4.1,14.3c-2.8,3.8-6.6,6.8-11.5,8.9l19.2,35.6v0.8h-15.9L441.4,160.9z M424.9,149
					h15.2c2.7,0,5-0.4,7-1.1s3.7-1.7,5-2.9c1.3-1.2,2.3-2.7,3-4.5c0.7-1.7,1-3.6,1-5.7c0-2.2-0.3-4.2-0.9-5.9
					c-0.6-1.8-1.6-3.3-2.9-4.6c-1.3-1.3-2.9-2.2-5-2.9c-2-0.7-4.4-1-7.2-1h-15.2V149z"/>
				<path d="M546.4,161.8l-30,15.5l-5.7,16.4h-15.4l32.2-85.3h13.3l32.3,85.3h-15.5L546.4,161.8z M521.8,161.9l20.9-10.8l-8.6-24.6
					L521.8,161.9z"/>
				<path d="M650,157.6h-34.3v36.2h-14.8v-85.3H655v12h-39.4v25.4H650V157.6z"/>
				<path d="M747.5,120.4h-26.6v73.4h-14.7v-73.4h-26.4v-12h67.7V120.4z"/>
				<path d="M791.5,181.9h38.7v11.8h-53.6v-85.3h14.8V181.9z"/>
				<path d="M1020,108.4v57.1c0,4.9-0.8,9.2-2.5,12.8c-1.7,3.7-3.9,6.7-6.8,9.2c-2.9,2.5-6.3,4.3-10.1,5.5s-8,1.8-12.4,1.8
					c-4.6,0-8.8-0.6-12.7-1.8c-3.9-1.2-7.3-3.1-10.1-5.5c-2.9-2.5-5.1-5.5-6.7-9.2c-1.6-3.7-2.4-7.9-2.4-12.8v-57.1H971v57.1
					c0,3,0.4,5.7,1.2,7.9c0.8,2.2,1.9,4,3.4,5.5c1.5,1.4,3.3,2.5,5.4,3.2c2.1,0.7,4.5,1,7.1,1c2.6,0,5-0.3,7.1-1
					c2.1-0.7,3.9-1.7,5.4-3.2c1.5-1.4,2.6-3.3,3.4-5.5c0.8-2.2,1.2-4.8,1.2-7.9v-57.1H1020z"/>
				<path d="M1119.2,182.7c-0.9,1.2-2.1,2.5-3.8,3.9c-1.6,1.4-3.7,2.8-6.2,4s-5.5,2.3-9.1,3.1c-3.5,0.8-7.7,1.3-12.5,1.3
					c-5.4,0-10.3-0.9-14.7-2.8c-4.5-1.8-8.3-4.5-11.5-8c-3.2-3.5-5.7-7.8-7.5-12.8c-1.8-5.1-2.7-10.9-2.7-17.4v-5.6
					c0-6.5,0.8-12.3,2.4-17.4c1.6-5.1,3.9-9.4,6.9-12.9c3-3.5,6.7-6.2,11-8c4.3-1.8,9.3-2.8,14.8-2.8c5.2,0,9.7,0.7,13.6,2
					s7.1,3.2,9.8,5.7c2.7,2.4,4.7,5.3,6.3,8.6s2.5,7,3,11h-14.5c-0.4-2.2-0.9-4.3-1.8-6.2c-0.8-1.9-1.9-3.5-3.4-4.9
					c-1.4-1.4-3.2-2.4-5.3-3.2c-2.1-0.8-4.6-1.2-7.5-1.2c-3.5,0-6.5,0.6-9.1,1.9c-2.6,1.3-4.7,3.2-6.4,5.7c-1.7,2.5-3,5.5-3.8,9.1
					c-0.8,3.6-1.3,7.7-1.3,12.3v5.7c0,4.7,0.5,8.8,1.5,12.5c1,3.6,2.5,6.7,4.4,9.1c1.9,2.5,4.2,4.3,6.9,5.6c2.7,1.3,5.8,1.9,9.2,1.9
					c2.5,0,4.7-0.2,6.5-0.5c1.8-0.3,3.3-0.8,4.6-1.3c1.2-0.5,2.3-1.1,3.1-1.7c0.8-0.6,1.5-1.2,2-1.7v-16.7h-17.6V150h32.3V182.7z"/>
				<path d="M1203.4,155.7h-35v26.2h41v11.8h-55.8v-85.3h55.4v12h-40.5V144h35V155.7z"/>
				<path d="M1302.2,120.4h-26.6v73.4h-14.7v-73.4h-26.4v-12h67.7V120.4z"/>
				<path d="M904.3,161.8l-30,15.5l-5.7,16.4h-15.4l32.2-85.3h13.3l32.3,85.3h-15.5L904.3,161.8z M879.6,161.9l20.9-10.8l-8.6-24.6
					L879.6,161.9z"/>
			</g>
			<g>
				<path class="st4" d="M169.3,247.5c-53.8,0-97.5-43.7-97.5-97.5s43.7-97.5,97.5-97.5s97.5,43.7,97.5,97.5
					S223.1,247.5,169.3,247.5z M169.3,57.5c-51,0-92.5,41.5-92.5,92.5s41.5,92.5,92.5,92.5s92.5-41.5,92.5-92.5
					S220.3,57.5,169.3,57.5z"/>
				<path d="M151.1,119.5"/>
				<path d="M151.1,119.5"/>
				<path d="M176.7,137.3"/>
				<path d="M151,164.7"/>
				<path d="M191.4,173.8"/>
				<path d="M242.5,137.2c-0.5-0.7-1.2-1.1-2-1.2l-17.6-2.7c-1-3.1-2.3-6.2-4-9.4c1.2-1.6,2.9-3.9,5.2-6.8c2.3-2.9,3.9-5.1,4.9-6.4
					c0.5-0.7,0.8-1.4,0.8-2.2c0-0.9-0.2-1.6-0.7-2.1c-2.3-3.3-7.6-8.7-15.9-16.4c-0.8-0.6-1.6-1-2.4-1c-1,0-1.7,0.3-2.3,0.9
					l-13.7,10.3c-2.6-1.3-5.5-2.5-8.7-3.6l-2.7-17.7c-0.1-0.8-0.4-1.5-1.1-2.1c-0.7-0.5-1.5-0.8-2.4-0.8h-21.4c-1.9,0-3,0.9-3.5,2.7
					c-0.8,3.2-1.8,9.2-2.8,17.9c-3,1-5.9,2.2-8.8,3.7L130.3,90c-0.8-0.6-1.7-1-2.5-1c-1.4,0-4.4,2.3-9.1,6.9
					c-4.7,4.6-7.8,8-9.5,10.4c-0.6,0.8-0.9,1.6-0.9,2.2c0,0.8,0.3,1.5,1,2.3c4.3,5.2,7.7,9.6,10.3,13.3c-1.6,3-2.9,5.9-3.8,8.9
					l-17.9,2.7c-0.7,0.1-1.3,0.5-1.8,1.3c-0.5,0.7-0.8,1.4-0.8,2.2v21.4c0,0.8,0.3,1.6,0.8,2.3c0.5,0.7,1.2,1.1,2,1.2l17.6,2.6
					c0.9,3.1,2.2,6.3,4,9.5c-1.2,1.6-2.9,3.9-5.2,6.8c-2.3,2.9-4,5.1-4.9,6.4c-0.5,0.7-0.8,1.4-0.8,2.2c0,0.8,0.2,1.6,0.7,2.2
					c2.5,3.5,7.8,8.9,15.9,16.2c0.7,0.7,1.5,1.1,2.4,1.1c1,0,1.8-0.3,2.4-0.9l13.6-10.3c2.6,1.3,5.5,2.5,8.7,3.6l2.7,17.7
					c0.1,0.8,0.4,1.5,1.1,2.1c0.7,0.5,1.5,0.8,2.4,0.8H180c1.9,0,3-0.9,3.5-2.7c0.8-3.2,1.8-9.2,2.8-17.9c3-1,5.9-2.2,8.8-3.7
					l13.3,10.4c0.9,0.6,1.7,0.9,2.5,0.9c1.4,0,4.4-2.3,9.1-6.8c4.6-4.6,7.8-8,9.5-10.4c0.6-0.6,0.9-1.4,0.9-2.2c0-0.8-0.3-1.6-1-2.4
					c-4.6-5.7-8.1-10.1-10.3-13.3c1.3-2.4,2.5-5.3,3.8-8.8l17.8-2.7c0.8-0.1,1.4-0.5,1.9-1.3c0.5-0.7,0.8-1.4,0.8-2.2v-21.4
					C243.3,138.7,243.1,137.9,242.5,137.2z M216.3,152.4c-0.6,12.5-6.3,23.8-14.9,31.8l-7.3-9.3c1.9-2.7,2.5-6.2,1.4-9.6
					c-1.9-5.5-7.9-8.3-13.4-6.4c-2.6,0.9-4.8,2.8-6,5.4c-1.2,2.5-1.4,5.4-0.4,8c1.5,4.3,5.6,7,9.9,7c1.2,0,2.3-0.2,3.5-0.6
					c0.1,0,0.2-0.1,0.3-0.1l7.4,9.5c-7.1,5.2-15.7,8.4-25,8.8c-27.9,1.4-50.8-21.5-49.4-49.4c0.6-12.8,6.5-24.3,15.6-32.5l9.1,11.2
					v29.2c-0.2,0-0.3,0.1-0.5,0.1c-2.6,0.9-4.8,2.8-6,5.4c-1.2,2.5-1.4,5.4-0.4,8c1.5,4.3,5.6,7,9.9,7c1.2,0,2.3-0.2,3.5-0.6
					c5.5-1.9,8.3-7.9,6.4-13.4c-1.2-3.3-3.8-5.6-6.9-6.6v-31.3l-10.4-12.8c7-4.8,15.3-7.8,24.2-8.3c14.7-0.7,28,5.3,37.1,15.2l-15,0
					l-10,10.9c-0.2-0.1-0.3-0.2-0.5-0.2c-2.6-1.1-5.4-1.2-8-0.1c-2.6,1-4.7,3-5.8,5.6c-1.1,2.6-1.2,5.4-0.1,8c1,2.6,3,4.7,5.6,5.8h0
					c1.3,0.6,2.8,0.9,4.2,0.9c1.3,0,2.6-0.2,3.9-0.7c2.6-1,4.7-3,5.8-5.6c1.1-2.6,1.2-5.4,0.1-8c-0.2-0.5-0.5-1-0.7-1.5l8.3-9l17,0
					C213.9,132.3,216.8,142,216.3,152.4z M186.9,172.6c-2.1,0.7-4.4-0.4-5.1-2.4c-0.4-1-0.3-2.1,0.2-3.1c0.5-1,1.3-1.7,2.3-2
					c0.4-0.2,0.9-0.2,1.3-0.2c1.6,0,3.2,1,3.8,2.7C190.1,169.6,189,171.9,186.9,172.6z M148.7,161.7c0.4-0.2,0.9-0.2,1.3-0.2
					c1.6,0,3.2,1,3.8,2.7c0.7,2.1-0.4,4.4-2.4,5.1c-1,0.4-2.1,0.3-3.1-0.2c-1-0.5-1.7-1.3-2-2.3c-0.4-1-0.3-2.1,0.2-3.1
					C146.9,162.8,147.7,162.1,148.7,161.7z M178,140.1c-0.4,1-1.2,1.7-2.2,2.1c-1,0.4-2.1,0.4-3.1-0.1h0c-2-0.9-3-3.2-2.1-5.3
					c0.4-1,1.2-1.7,2.2-2.1c0.5-0.2,1-0.3,1.5-0.3c0.5,0,1.1,0.1,1.6,0.3c1,0.4,1.7,1.2,2.1,2.2C178.4,138,178.4,139.1,178,140.1z"
					/>
			</g>
		</g>
	</g>
</g>
</svg>
