<?xml version="1.0" encoding="UTF-8"?><svg id="Layer_2" xmlns="http://www.w3.org/2000/svg" viewBox="0 0 100.5 14.2"><defs><style>.cls-1{fill:#650729;}</style></defs><g id="Layer_1-2"><path class="cls-1" d="m96.1,9.1l-2.5-6.6h-2.2l3.7,9c-.3.8-.7,1-1.3,1-.4,0-.8-.1-1.2-.3l-.7,1.5c.6.3,1.3.5,2.1.5,1.4,0,2.2-.7,2.9-2.5l3.6-9.2h-2.1l-2.3,6.6Zm-13.6,2.3h2.1v-5.1c0-1.4.8-2.2,2-2.2s1.9.8,1.9,2.2v5.1h2.1v-5.7c0-2.1-1.2-3.4-3.2-3.4-1.4,0-2.2.7-2.8,1.6v-1.4h-2.1v8.9Zm-6.5-1.3c-1,0-1.7-.5-1.7-1.4h0c0-.9.8-1.5,2.1-1.5.8,0,1.5.2,2,.4v.6c0,1.2-1.1,1.9-2.4,1.9m-.6,1.5c1.4,0,2.3-.6,2.9-1.3v1.1h2v-5.3c0-1.2-.3-2.1-1-2.8-.6-.6-1.6-1-3-1s-2.4.3-3.4.7l.5,1.6c.8-.3,1.6-.6,2.6-.6,1.4,0,2.2.7,2.2,2v.2c-.7-.2-1.4-.4-2.4-.4-2.2,0-3.7.9-3.7,2.9h0c.1,2,1.6,2.9,3.3,2.9m-9-1.8c-1.4,0-2.6-1.2-2.6-2.9h0c0-1.7,1.2-2.9,2.6-2.9s2.6,1.1,2.6,2.9h0c0,1.8-1.1,2.9-2.6,2.9m-4.6,4.3h2.1v-4.1c.6.8,1.6,1.6,3.1,1.6,2.1,0,4.2-1.7,4.2-4.6h0c0-3-2.1-4.6-4.2-4.6-1.5,0-2.4.7-3.1,1.7v-1.5h-2.1v11.5Zm-15.8-2.7h2.1v-5.1c0-1.4.8-2.2,1.9-2.2s1.8.8,1.8,2.2v5.1h2.1v-5.1c0-1.4.8-2.2,1.9-2.2,1.2,0,1.8.8,1.8,2.2v5.1h2v-5.7c0-2.2-1.2-3.4-3.1-3.4-1.4,0-2.3.6-3,1.6-.5-.9-1.4-1.6-2.7-1.6-1.4,0-2.2.7-2.7,1.5v-1.4h-2.1v9Zm-6.5-1.6c-1.6,0-2.7-1.3-2.7-2.9h0c0-1.6,1.1-2.8,2.7-2.8s2.7,1.3,2.7,2.9h0c0,1.6-1,2.8-2.7,2.8m0,1.8c2.8,0,4.8-2.1,4.8-4.7h0c0-2.6-2-4.6-4.8-4.6s-4.8,2.1-4.8,4.7h0c0,2.6,2.1,4.6,4.8,4.6m-9.2,0c1.7,0,2.8-.7,3.7-1.7l-1.2-1.2c-.6.7-1.4,1.1-2.3,1.1-1.6,0-2.7-1.3-2.7-2.9h0c0-1.6,1.1-2.8,2.6-2.8,1,0,1.7.5,2.3,1.1l1.3-1.4c-.8-.9-1.9-1.5-3.6-1.5-2.7,0-4.7,2.1-4.7,4.7h0c0,2.6,2,4.6,4.6,4.6m-7.4,0c.8,0,1.3-.2,1.8-.5v-1.7c-.4.2-.8.3-1.3.3-.7,0-1.1-.3-1.1-1.1v-4.4h2.4v-1.8h-2.4V0h-2.1v2.5h-1.1v1.8h1.1v4.7c.1,1.9,1.2,2.6,2.7,2.6m-11.2-5.3c.2-1.4,1.1-2.4,2.3-2.4,1.4,0,2.1,1,2.3,2.4h-4.6Zm2.6,5.3c1.6,0,2.8-.7,3.7-1.7l-1.2-1.1c-.7.7-1.4,1.1-2.4,1.1-1.3,0-2.4-.8-2.6-2.3h6.6v-.6c0-2.6-1.4-4.8-4.3-4.8-2.6,0-4.4,2.1-4.4,4.7h0c0,2.9,2,4.7,4.6,4.7m-14.3-.2h2.1v-5.1c0-1.4.8-2.2,2-2.2s1.9.8,1.9,2.2v5.1h2.1v-5.7c0-2.1-1.2-3.4-3.2-3.4-1.4,0-2.2.7-2.8,1.6v-1.4H0v8.9Z"/></g></svg>