<?xml version="1.0" encoding="UTF-8"?><svg id="Layer_2" xmlns="http://www.w3.org/2000/svg" viewBox="0 0 469.61 98.8"><defs><style>.cls-1{fill:#650729;}</style></defs><g id="Layer_1-2"><path class="cls-1" d="m156.8,19.77c2.82,0,5.39.25,7.72.75,2.32.5,4.32,1.31,5.98,2.45,1.66,1.13,2.95,2.64,3.86,4.52.91,1.88,1.37,4.21,1.37,6.97,0,2.99-.68,5.48-2.03,7.47-1.36,1.99-3.36,3.62-6.02,4.9,3.65,1.05,6.38,2.89,8.17,5.52,1.8,2.63,2.7,5.8,2.7,9.5,0,2.99-.58,5.57-1.74,7.76-1.16,2.19-2.73,3.97-4.69,5.35-1.96,1.38-4.21,2.41-6.72,3.07-2.52.66-5.1,1-7.76,1h-28.72V19.77h27.89Zm-1.66,23.98c2.32,0,4.23-.55,5.73-1.66,1.49-1.11,2.24-2.9,2.24-5.39,0-1.38-.25-2.52-.75-3.4-.5-.88-1.16-1.58-1.99-2.07-.83-.5-1.78-.84-2.86-1.04-1.08-.19-2.2-.29-3.36-.29h-12.2v13.86h13.2Zm.75,25.15c1.27,0,2.49-.12,3.65-.37s2.18-.66,3.07-1.24c.88-.58,1.59-1.37,2.12-2.37.53-1,.79-2.27.79-3.82,0-3.04-.86-5.21-2.57-6.51-1.72-1.3-3.98-1.95-6.81-1.95h-14.19v16.27h13.94Z"/><path class="cls-1" d="m213.42,79.03v-5.98h-.25c-1.49,2.49-3.43,4.29-5.81,5.39-2.38,1.11-4.81,1.66-7.3,1.66-3.15,0-5.74-.41-7.76-1.24-2.02-.83-3.61-2-4.77-3.53-1.16-1.52-1.98-3.37-2.45-5.56-.47-2.19-.71-4.61-.71-7.26v-26.39h11.78v24.23c0,3.54.55,6.18,1.66,7.93,1.11,1.74,3.07,2.61,5.89,2.61,3.21,0,5.53-.95,6.97-2.86,1.44-1.91,2.16-5.05,2.16-9.42v-22.49h11.78v42.91h-11.2Z"/><path class="cls-1" d="m242.17,68.36c.53.91,1.2,1.66,2.03,2.24s1.78,1.01,2.86,1.29c1.08.28,2.2.42,3.36.42.83,0,1.7-.1,2.61-.29.91-.19,1.74-.5,2.49-.91.75-.42,1.37-.97,1.87-1.66.5-.69.75-1.56.75-2.61,0-1.77-1.18-3.1-3.53-3.98-2.35-.88-5.63-1.77-9.83-2.66-1.72-.39-3.39-.84-5.02-1.37-1.63-.53-3.08-1.22-4.36-2.07-1.27-.86-2.3-1.94-3.07-3.24-.78-1.3-1.16-2.89-1.16-4.77,0-2.77.54-5.03,1.62-6.81,1.08-1.77,2.5-3.17,4.27-4.19,1.77-1.02,3.76-1.74,5.98-2.16,2.21-.42,4.48-.62,6.81-.62s4.58.22,6.76.66c2.18.44,4.14,1.19,5.85,2.24,1.71,1.05,3.14,2.45,4.27,4.19,1.13,1.74,1.81,3.94,2.03,6.6h-11.2c-.17-2.27-1.02-3.8-2.57-4.61-1.55-.8-3.38-1.2-5.48-1.2-.66,0-1.38.04-2.16.12-.78.08-1.48.26-2.12.54-.64.28-1.18.68-1.62,1.2-.44.53-.66,1.23-.66,2.12,0,1.05.39,1.91,1.16,2.57.77.66,1.78,1.2,3.03,1.62,1.24.41,2.67.79,4.27,1.12,1.6.33,3.24.69,4.9,1.08,1.71.39,3.39.86,5.02,1.41,1.63.55,3.08,1.29,4.36,2.2,1.27.91,2.3,2.05,3.07,3.4.77,1.36,1.16,3.03,1.16,5.02,0,2.82-.57,5.19-1.7,7.1-1.13,1.91-2.61,3.44-4.44,4.61-1.83,1.16-3.91,1.98-6.27,2.45-2.35.47-4.74.71-7.18.71s-4.92-.25-7.3-.75c-2.38-.5-4.5-1.33-6.35-2.49-1.85-1.16-3.38-2.7-4.56-4.61-1.19-1.91-1.84-4.3-1.95-7.18h11.2c0,1.27.26,2.37.79,3.28Z"/><path class="cls-1" d="m275.73,29.48v-9.71h11.78v9.71h-11.78Zm11.78,6.64v42.91h-11.78v-42.91h11.78Z"/><path class="cls-1" d="m306.48,36.12v5.98h.25c1.49-2.49,3.43-4.3,5.81-5.44,2.38-1.13,4.81-1.7,7.3-1.7,3.15,0,5.74.43,7.76,1.29,2.02.86,3.61,2.05,4.77,3.57,1.16,1.52,1.98,3.38,2.45,5.56.47,2.19.71,4.61.71,7.26v26.39h-11.78v-24.23c0-3.54-.55-6.18-1.66-7.93-1.11-1.74-3.07-2.61-5.89-2.61-3.21,0-5.53.95-6.97,2.86-1.44,1.91-2.16,5.05-2.16,9.42v22.49h-11.78v-42.91h11.2Z"/><path class="cls-1" d="m355.62,68.74c1.77,1.72,4.32,2.57,7.64,2.57,2.38,0,4.43-.59,6.14-1.78,1.71-1.19,2.77-2.45,3.15-3.78h10.37c-1.66,5.15-4.21,8.83-7.64,11.04-3.43,2.21-7.58,3.32-12.45,3.32-3.38,0-6.42-.54-9.13-1.62-2.71-1.08-5.01-2.61-6.89-4.61-1.88-1.99-3.33-4.37-4.36-7.14-1.02-2.77-1.54-5.81-1.54-9.13s.53-6.2,1.58-8.96c1.05-2.77,2.54-5.16,4.48-7.18,1.94-2.02,4.25-3.61,6.93-4.77,2.68-1.16,5.66-1.74,8.92-1.74,3.65,0,6.83.71,9.54,2.12,2.71,1.41,4.94,3.31,6.68,5.69,1.74,2.38,3,5.09,3.78,8.13.77,3.04,1.05,6.22.83,9.54h-30.96c.17,3.82,1.13,6.58,2.9,8.3Zm13.32-22.57c-1.41-1.55-3.56-2.32-6.43-2.32-1.88,0-3.44.32-4.69.95-1.24.64-2.24,1.43-2.99,2.37-.75.94-1.27,1.94-1.58,2.99-.3,1.05-.48,1.99-.54,2.82h19.17c-.55-2.99-1.54-5.26-2.95-6.81Z"/><path class="cls-1" d="m398.72,68.36c.53.91,1.2,1.66,2.03,2.24s1.78,1.01,2.86,1.29c1.08.28,2.2.42,3.36.42.83,0,1.7-.1,2.61-.29.91-.19,1.74-.5,2.49-.91.75-.42,1.37-.97,1.87-1.66.5-.69.75-1.56.75-2.61,0-1.77-1.18-3.1-3.53-3.98-2.35-.88-5.63-1.77-9.83-2.66-1.72-.39-3.39-.84-5.02-1.37-1.63-.53-3.08-1.22-4.36-2.07-1.27-.86-2.3-1.94-3.07-3.24-.78-1.3-1.16-2.89-1.16-4.77,0-2.77.54-5.03,1.62-6.81,1.08-1.77,2.5-3.17,4.27-4.19,1.77-1.02,3.76-1.74,5.98-2.16,2.21-.42,4.48-.62,6.81-.62s4.58.22,6.76.66c2.18.44,4.14,1.19,5.85,2.24,1.71,1.05,3.14,2.45,4.27,4.19,1.13,1.74,1.81,3.94,2.03,6.6h-11.2c-.17-2.27-1.02-3.8-2.57-4.61-1.55-.8-3.38-1.2-5.48-1.2-.66,0-1.38.04-2.16.12-.78.08-1.48.26-2.12.54-.64.28-1.18.68-1.62,1.2-.44.53-.66,1.23-.66,2.12,0,1.05.39,1.91,1.16,2.57.77.66,1.78,1.2,3.03,1.62,1.24.41,2.67.79,4.27,1.12,1.6.33,3.24.69,4.9,1.08,1.71.39,3.39.86,5.02,1.41,1.63.55,3.08,1.29,4.36,2.2,1.27.91,2.3,2.05,3.07,3.4.77,1.36,1.16,3.03,1.16,5.02,0,2.82-.57,5.19-1.7,7.1-1.13,1.91-2.61,3.44-4.44,4.61-1.83,1.16-3.91,1.98-6.27,2.45-2.35.47-4.74.71-7.18.71s-4.92-.25-7.3-.75c-2.38-.5-4.5-1.33-6.35-2.49-1.85-1.16-3.38-2.7-4.56-4.61-1.19-1.91-1.84-4.3-1.95-7.18h11.2c0,1.27.26,2.37.79,3.28Z"/><path class="cls-1" d="m441.85,68.36c.53.91,1.2,1.66,2.03,2.24s1.78,1.01,2.86,1.29c1.08.28,2.2.42,3.36.42.83,0,1.7-.1,2.61-.29.91-.19,1.74-.5,2.49-.91.75-.42,1.37-.97,1.87-1.66.5-.69.75-1.56.75-2.61,0-1.77-1.18-3.1-3.53-3.98-2.35-.88-5.63-1.77-9.83-2.66-1.72-.39-3.39-.84-5.02-1.37-1.63-.53-3.08-1.22-4.36-2.07-1.27-.86-2.3-1.94-3.07-3.24-.78-1.3-1.16-2.89-1.16-4.77,0-2.77.54-5.03,1.62-6.81,1.08-1.77,2.5-3.17,4.27-4.19,1.77-1.02,3.76-1.74,5.98-2.16,2.21-.42,4.48-.62,6.81-.62s4.58.22,6.76.66c2.18.44,4.14,1.19,5.85,2.24,1.71,1.05,3.14,2.45,4.27,4.19,1.13,1.74,1.81,3.94,2.03,6.6h-11.2c-.17-2.27-1.02-3.8-2.57-4.61-1.55-.8-3.38-1.2-5.48-1.2-.66,0-1.38.04-2.16.12-.78.08-1.48.26-2.12.54-.64.28-1.18.68-1.62,1.2-.44.53-.66,1.23-.66,2.12,0,1.05.39,1.91,1.16,2.57.77.66,1.78,1.2,3.03,1.62,1.24.41,2.67.79,4.27,1.12,1.6.33,3.24.69,4.9,1.08,1.71.39,3.39.86,5.02,1.41,1.63.55,3.08,1.29,4.36,2.2,1.27.91,2.3,2.05,3.07,3.4.77,1.36,1.16,3.03,1.16,5.02,0,2.82-.57,5.19-1.7,7.1-1.13,1.91-2.61,3.44-4.44,4.61-1.83,1.16-3.91,1.98-6.27,2.45-2.35.47-4.74.71-7.18.71s-4.92-.25-7.3-.75c-2.38-.5-4.5-1.33-6.35-2.49-1.85-1.16-3.38-2.7-4.56-4.61-1.19-1.91-1.84-4.3-1.95-7.18h11.2c0,1.27.26,2.37.79,3.28Z"/><path class="cls-1" d="m66.32,78.95c-1.3,0-2.75.95-2.75,4.05,0,1.7.12,4.51,2.78,4.49,2.75-.02,2.98-2.81,2.98-4.64,0-2.15-1.05-3.9-3-3.9Z"/><path class="cls-1" d="m33.69,86.34c0,.92.58,1.79,1.63,1.79,1.14,0,2.24-.47,3.35-1.45v-3.26c-3.38.42-4.99,1.29-4.99,2.92Z"/><path class="cls-1" d="m81.39,78.82c-1.63,0-2.65,1.05-2.8,2.92h5.57c0-1.84-1.05-2.92-2.77-2.92Z"/><path class="cls-1" d="m12.16,79.38c-2.7,0-3.2,2.44-3.2,4.2s.5,4.2,3.2,4.2,3.2-2.44,3.2-4.2-.5-4.2-3.2-4.2Z"/><path class="cls-1" d="m0,0v98.8h98.8V0H0Zm12.16,90.84c-3.58,0-6.8-2.28-6.8-7.26s3.23-7.26,6.8-7.26,6.8,2.28,6.8,7.26-3.23,7.26-6.8,7.26Zm16.98-11.01h-.17c-1.57,0-3.3.24-3.85,1.47v9.15h-3.67v-13.75h3.44v1.62c.65-.87,2.27-1.9,3.79-1.9.15,0,.32,0,.47.03v3.39Zm9.94,10.62l-.32-1.21c-1.4.92-2.92,1.37-4.55,1.37-2.57,0-4.08-1.71-4.08-4,0-3.08,2.83-4.71,8.66-5.37v-.77c0-1-.76-1.58-2.16-1.58s-2.54.55-3.35,1.58l-2.45-1.39c1.28-1.79,3.24-2.68,5.86-2.68,3.59,0,5.6,1.55,5.6,4.08,0,0,0,9.94,0,9.97h-3.21Zm18.4-.02h-3.62v-8.94c0-1.68-.44-2.45-1.75-2.45-1.08,0-2.16.5-3.38,1.53v9.86h-3.59v-13.37l2.99-.41.33,1.63c1.69-1.24,3.03-1.9,4.72-1.9,2.83,0,4.29,1.5,4.29,4.47v9.58Zm15.31-.77c0,2.3-.17,6.08-6.73,6.12-2.7.02-5.21-1.06-5.71-3.42l3.57-.57c.15.68.56,1.35,2.59,1.35,1.88,0,2.78-.9,2.78-3.05v-1.6l-.05-.05c-.57,1.02-1.45,2-3.55,2-3.2,0-5.73-2.22-5.73-6.87s2.6-7.17,5.53-7.18c2.64,0,3.68,1.16,3.96,1.83l.28-1.58h3.05v13.02Zm14.89-5.57h-9.15c.03,2.6,1.11,3.92,3.24,3.92,1.37,0,2.27-.55,3.12-1.76l2.65,1.47c-1.17,1.95-3.26,2.97-6.09,2.97-4.05,0-6.47-2.6-6.47-7.13s2.45-7.18,6.41-7.18,6.33,2.53,6.33,7c0,.24-.03.47-.03.71Zm1.45-12.01h-1.42v3.94h-.75v-3.94h-1.42v-.61h3.59v.61Zm5.92,3.94h-.75v-3.79h-.02l-1.49,3.79h-.47l-1.49-3.79h-.02v3.79h-.75v-4.54h1.16l1.36,3.45,1.33-3.45h1.15v4.54Z"/><path class="cls-1" d="m69.49,78.29s-.02-.05-.03-.08v.07s.03,0,.03,0Z"/></g></svg>