<?xml version="1.0" encoding="UTF-8"?><svg id="Layer_2" xmlns="http://www.w3.org/2000/svg" viewBox="0 0 414.86 287.84"><defs><style>.cls-1{fill:#650729;}</style></defs><g id="Layer_1-2"><g id="Untitled"><path class="cls-1" d="m158.33,51.93c1.44,0,2.61-1.17,2.61-2.61,0-.56.14-1.08.42-1.6.42-.78,1.21-1.57,2.31-2.15,1.1-.58,2.49-.95,4.01-.95,2.03,0,3.83.66,5.01,1.59.59.46,1.03.99,1.32,1.51.28.53.42,1.05.42,1.6,0,1.44,1.17,2.61,2.61,2.61s2.61-1.17,2.61-2.61h0c0-1.46-.39-2.87-1.05-4.09-1-1.84-2.59-3.29-4.47-4.28-1.89-1-4.1-1.55-6.45-1.55-3.14,0-6.02.98-8.23,2.7-1.1.86-2.03,1.91-2.7,3.14-.66,1.22-1.05,2.63-1.05,4.09,0,1.44,1.17,2.61,2.61,2.61"/><path class="cls-1" d="m221.34,173.78c-7.32,2.53-14.98,4.03-22.54,4.03-.95,0-1.9-.03-2.85-.07-3.43-.17-7.13-.74-10.79-1.71-5.5-1.46-10.89-3.84-15.23-7.04-2.17-1.6-4.08-3.41-5.65-5.39-1.57-1.99-2.8-4.15-3.64-6.53-.87-2.49-1.25-4.78-1.25-6.93,0-3.36.9-6.43,2.54-9.35,1.23-2.19,2.88-4.27,4.87-6.19,2.98-2.89,6.7-5.4,10.7-7.37,3.99-1.97,8.24-3.4,12.21-4.18,5.01-.99,10.16-1.37,15.41-1.37,6.43,0,13,.58,19.61,1.3,4.31.47,8.73.64,13.18.64,7.28,0,14.61-.46,21.51-.91.17,1.27.25,2.59.25,3.95,0,1.53-.11,3.12-.32,4.72-1.57,1.46-3.48,2.84-5.48,4-2.28,1.33-4.74,2.44-7.33,3.31-2.58.9-5.3,1.47-8.08,1.87-2.78.43-5.62.46-8.5.44,2.76.76,5.59,1.49,8.51,1.8,2.91.35,5.9.51,8.91.3,3.01-.19,6.04-.68,9.04-1.49.17-.05.34-.1.51-.14-1.63,4.58-3.9,8.88-6.42,12.29-.16.1-.32.2-.48.32l-.11.08c-1.75,1.33-3.6,2.66-5.7,3.57-1.02.54-2.12.87-3.22,1.28-.56.18-1.13.3-1.7.45-.57.17-1.15.27-1.74.37-2.35.43-4.81.58-7.29.4-2.48-.16-4.99-.59-7.43-1.39,2.11,1.47,4.47,2.66,6.95,3.58,2.48.93,5.13,1.57,7.86,1.89.63.08,1.26.16,1.9.17-.67.49-1.36.97-2.06,1.44-4.93,3.28-10.44,5.91-16.13,7.87m41.39-60.28h-.13s0,0,0,0c-8.02.5-16.53,1.13-24.69,1.13-4.21,0-8.32-.17-12.21-.59-6.72-.73-13.61-1.35-20.58-1.35-5.68,0-11.42.41-17.14,1.54-4.26.84-8.64,2.25-12.87,4.18-6.34,2.91-12.36,6.98-16.95,12.26-2.29,2.64-4.22,5.6-5.58,8.86-1.36,3.26-2.15,6.83-2.14,10.58,0,3.21.57,6.54,1.76,9.91,1.59,4.51,4.16,8.41,7.31,11.69,4.73,4.91,10.72,8.46,17,10.89,6.29,2.43,12.88,3.75,19,4.07,1.1.05,2.2.08,3.3.08,8.74,0,17.36-1.72,25.47-4.52,6.33-2.19,12.51-5.12,18.18-8.89,5.66-3.77,10.8-8.38,14.98-13.92,3.3-4.38,6.06-9.64,8.04-15.27,1.97-5.64,3.17-11.64,3.17-17.53,0-3.37-.4-6.71-1.3-9.9-.58-2.03-2.49-3.38-4.6-3.24"/><path class="cls-1" d="m128.05,81.51s0,0,0,0c0,0,0,0,0,0h0Z"/><path class="cls-1" d="m301.34,161.51c-6.29,9.11-14.52,17.07-23.86,23.53-10.98,7.59-23.4,13.66-36.43,17.81s-26.67,6.39-40.08,6.39c-2.33,0-4.64-.07-6.95-.21-8.47-.5-17.83-2.19-27.04-5.08-6.91-2.17-13.73-5-20.03-8.47-9.47-5.21-17.76-11.86-23.59-19.77-2.92-3.96-5.24-8.22-6.84-12.82-1.59-4.6-2.47-9.53-2.47-14.87,0-.93.03-1.87.08-2.83.37-6.4,2.09-12.65,4.76-18.64,2.67-5.98,6.29-11.69,10.38-16.92.02-.03.12-.14.25-.3.52-.61,1.62-1.86,2.96-3.37,2.01-2.25,4.6-5.1,6.73-7.33,1.06-1.11,2.02-2.08,2.68-2.69.13-.12.25-.23.35-.31.45-.2.88-.47,1.27-.83,1.79-1.69,1.88-4.52.2-6.32-3.05-3.27-5.63-6.97-7.66-11h0c-3.22-6.39-5.02-13.58-5.03-21.24,0-.78.02-1.56.06-2.35.15-3.12.61-6.15,1.34-9.08h0s0,0,0,0h0c2.52-10.09,8.33-18.93,16.21-25.31,7.88-6.38,17.79-10.28,28.53-10.53.38,0,.77-.01,1.14-.01,13.08,0,24.87,5.29,33.44,13.85,8.57,8.57,13.85,20.36,13.85,33.44,0,6.92-1.48,13.46-4.14,19.36h0c-2.56,5.7-6.21,10.8-10.68,15.03-1.8,1.7-1.88,4.54-.18,6.33,1.7,1.8,4.54,1.88,6.34.18,4.09-3.87,7.6-8.35,10.39-13.3,8.68,5.27,16.77,9.01,24.31,11.51,8.74,2.9,16.72,4.12,23.93,4.12,6.68,0,12.68-1.05,17.97-2.74,5.28-1.69,9.84-4,13.69-6.51,3.32-2.16,6.11-4.46,8.41-6.64-.09.76-.2,1.55-.33,2.34-.76,4.54-2.31,9.43-5.16,13.64-1.43,2.11-3.18,4.06-5.35,5.78-2.18,1.72-4.79,3.2-8,4.35-2.33.83-3.54,3.39-2.72,5.72.83,2.33,3.39,3.55,5.72,2.72,5.45-1.94,9.87-4.81,13.31-8.19,1.35-1.32,2.55-2.72,3.61-4.16-.03,4.46-.55,9.34-1.96,13.92-.12.27-.21.55-.27.85-.18.54-.37,1.07-.57,1.6-1.05,2.69-2.44,5.23-4.26,7.52-1.82,2.29-4.06,4.34-6.9,6.07-2.11,1.29-2.78,4.05-1.49,6.16,1.29,2.11,4.05,2.78,6.16,1.49,1.48-.9,2.85-1.88,4.11-2.93-2.25,7.53-5.73,14.57-10.19,21.04m24.33-56.09c0-7.79-1.25-14.1-1.81-16.54,0-.03.01-.07.02-.1.8-4.15,1.03-7.98,1.03-11.03,0-4.14-.42-6.86-.44-7.03-.29-1.87-1.73-3.36-3.59-3.71-1.86-.36-3.73.49-4.69,2.11h0s0,0,0,0c-.03.06-1.2,1.98-3.5,4.61-2.31,2.64-5.75,5.99-10.36,8.99-3.26,2.12-7.09,4.07-11.53,5.48-4.44,1.42-9.49,2.31-15.24,2.32-6.19,0-13.2-1.04-21.11-3.66-7.06-2.34-14.83-5.94-23.34-11.19,2.23-6.05,3.45-12.6,3.45-19.42,0-15.52-6.3-29.61-16.48-39.77C207.92,6.3,193.83,0,178.31,0c-.45,0-.9,0-1.36.02-12.8.3-24.61,4.96-33.96,12.52-9.34,7.57-16.25,18.06-19.26,30.1,0,0,0,0,0,0t0,0h0c-.4,1.59-.72,3.2-.98,4.84-6.15,3.62-16.88,7.88-30.36,4.79-1.97-.45-3.66,1.42-3.09,3.35,2.28,7.65,10.26,22.57,37.8,23.88.31.67.62,1.34.95,2,1.7,3.39,3.74,6.57,6.06,9.52-.84.85-1.77,1.82-2.72,2.84-2,2.14-4.14,4.51-5.84,6.42-.85.96-1.59,1.8-2.15,2.44-.28.32-.52.59-.7.81-.09.11-.18.21-.25.29-.08.09-.13.16-.22.27h0c-4.45,5.69-8.47,11.99-11.51,18.79-3.03,6.8-5.09,14.11-5.52,21.78-.06,1.12-.1,2.24-.1,3.34,0,5.62.83,10.96,2.36,15.95,2.68,8.74,7.49,16.4,13.6,22.94,9.18,9.81,21.26,17.16,34.03,22.3,12.78,5.13,26.25,8.04,38.41,8.76,2.49.15,4.98.22,7.48.22,14.41,0,28.94-2.4,42.8-6.82,13.87-4.42,27.06-10.85,38.81-18.97,10.14-7.01,19.16-15.7,26.14-25.81,6.98-10.11,11.91-21.67,13.81-34.3.5-3.3.76-6.64.8-9.99.21-.68.4-1.36.58-2.03,1.33-5.15,1.77-10.26,1.77-14.85"/><path class="cls-1" d="m9.41,274.26v7.86c0,1.91-.45,3.34-1.34,4.29-.9.96-2.03,1.43-3.41,1.43s-2.47-.48-3.34-1.45c-.87-.96-1.31-2.39-1.31-4.28v-26.2c0-4.23,1.53-6.34,4.59-6.34,1.56,0,2.69.49,3.38,1.48.69.99,1.07,2.45,1.14,4.38,1.13-1.93,2.28-3.39,3.47-4.38,1.18-.99,2.76-1.48,4.74-1.48s3.9.49,5.76,1.48c1.86.99,2.79,2.3,2.79,3.93,0,1.15-.4,2.1-1.19,2.85-.79.75-1.65,1.12-2.57,1.12-.34,0-1.18-.21-2.5-.64-1.32-.43-2.49-.64-3.5-.64-1.38,0-2.51.36-3.38,1.09-.87.72-1.55,1.8-2.03,3.22-.48,1.42-.82,3.12-1,5.09-.18,1.97-.28,4.36-.28,7.19"/><path class="cls-1" d="m56.51,282.53v-1.21c-1.13,1.43-2.31,2.62-3.55,3.59-1.24.96-2.6,1.68-4.07,2.16-1.47.47-3.15.71-5.03.71-2.28,0-4.32-.47-6.12-1.41-1.8-.94-3.2-2.24-4.19-3.9-1.17-2-1.76-4.87-1.76-8.62v-18.65c0-1.89.43-3.29,1.28-4.23.85-.93,1.98-1.39,3.38-1.39s2.57.47,3.45,1.41c.87.94,1.31,2.34,1.31,4.21v15.07c0,2.18.18,4.02.55,5.5.37,1.48,1.03,2.64,1.98,3.48.95.84,2.25,1.26,3.88,1.26s3.08-.47,4.48-1.41c1.4-.94,2.43-2.18,3.07-3.69.53-1.33.79-4.25.79-8.76v-11.45c0-1.86.44-3.26,1.31-4.21.87-.94,2.01-1.41,3.41-1.41s2.53.46,3.38,1.39c.85.93,1.28,2.34,1.28,4.23v27.27c0,1.79-.41,3.14-1.22,4.04-.82.9-1.87,1.34-3.15,1.34s-2.35-.46-3.19-1.4c-.84-.93-1.26-2.24-1.26-3.91"/><path class="cls-1" d="m86.68,268.91c0,3.75.86,6.63,2.57,8.64,1.71,2.01,3.96,3.02,6.74,3.02,2.37,0,4.41-1.03,6.12-3.09,1.71-2.06,2.57-5.01,2.57-8.84,0-2.48-.36-4.62-1.07-6.42-.71-1.79-1.72-3.18-3.03-4.15-1.31-.98-2.84-1.46-4.59-1.46s-3.39.49-4.79,1.46c-1.4.98-2.51,2.39-3.31,4.24-.81,1.85-1.21,4.05-1.21,6.6m-.45-27.96v14.38c1.77-1.84,3.57-3.25,5.41-4.23,1.84-.98,4.11-1.46,6.83-1.46,3.13,0,5.87.74,8.22,2.22,2.36,1.49,4.18,3.63,5.48,6.45,1.3,2.82,1.95,6.15,1.95,10.02,0,2.85-.36,5.46-1.09,7.84-.72,2.38-1.78,4.45-3.15,6.19s-3.05,3.1-5.02,4.05c-1.97.96-4.13,1.43-6.5,1.43-1.45,0-2.81-.17-4.09-.52-1.28-.35-2.36-.8-3.26-1.36-.9-.56-1.66-1.14-2.29-1.74-.63-.6-1.47-1.49-2.5-2.69v.93c0,1.77-.43,3.11-1.28,4.02-.85.91-1.93,1.36-3.24,1.36s-2.4-.45-3.19-1.36c-.79-.91-1.19-2.24-1.19-4.02v-41.1c0-1.91.38-3.35,1.15-4.33.77-.98,1.85-1.46,3.22-1.46,1.45,0,2.56.47,3.34,1.4.78.93,1.17,2.26,1.17,3.98"/><path class="cls-1" d="m132.71,268.91c0,3.75.86,6.63,2.57,8.64,1.71,2.01,3.96,3.02,6.74,3.02,2.37,0,4.41-1.03,6.12-3.09,1.71-2.06,2.57-5.01,2.57-8.84,0-2.48-.36-4.62-1.07-6.42-.71-1.79-1.72-3.18-3.03-4.15-1.31-.98-2.84-1.46-4.59-1.46s-3.39.49-4.79,1.46c-1.4.98-2.51,2.39-3.31,4.24-.8,1.85-1.21,4.05-1.21,6.6m-.45-27.96v14.38c1.77-1.84,3.57-3.25,5.41-4.23,1.84-.98,4.11-1.46,6.83-1.46,3.13,0,5.87.74,8.22,2.22,2.36,1.49,4.18,3.63,5.48,6.45,1.3,2.82,1.95,6.15,1.95,10.02,0,2.85-.36,5.46-1.09,7.84-.72,2.38-1.78,4.45-3.15,6.19-1.38,1.75-3.05,3.1-5.02,4.05-1.97.96-4.13,1.43-6.5,1.43-1.45,0-2.81-.17-4.09-.52-1.28-.35-2.36-.8-3.26-1.36-.9-.56-1.66-1.14-2.29-1.74-.63-.6-1.47-1.49-2.5-2.69v.93c0,1.77-.43,3.11-1.28,4.02-.85.91-1.93,1.36-3.24,1.36s-2.4-.45-3.19-1.36c-.79-.91-1.19-2.24-1.19-4.02v-41.1c0-1.91.38-3.35,1.15-4.33.77-.98,1.84-1.46,3.22-1.46,1.45,0,2.56.47,3.34,1.4.78.93,1.17,2.26,1.17,3.98"/><path class="cls-1" d="m178.4,265.67h17.07c-.23-3.22-1.1-5.62-2.6-7.22-1.51-1.6-3.49-2.4-5.95-2.4s-4.27.81-5.78,2.43c-1.51,1.62-2.42,4.02-2.74,7.19m18.41,5.35h-18.41c.02,2.14.45,4.02,1.29,5.65s1.95,2.86,3.35,3.69c1.39.83,2.92,1.24,4.6,1.24,1.13,0,2.16-.13,3.09-.4.93-.26,1.83-.68,2.71-1.24.87-.56,1.68-1.17,2.41-1.81.74-.64,1.69-1.52,2.86-2.62.48-.42,1.17-.62,2.07-.62.97,0,1.75.27,2.34.8.6.53.9,1.28.9,2.24,0,.85-.33,1.84-1,2.98-.67,1.14-1.67,2.23-3.02,3.27-1.34,1.05-3.03,1.92-5.07,2.6-2.03.69-4.37,1.04-7.02,1.04-6.05,0-10.75-1.72-14.1-5.17-3.36-3.45-5.03-8.12-5.03-14.03,0-2.78.41-5.36,1.24-7.75.83-2.38,2.03-4.42,3.62-6.12,1.59-1.7,3.54-3,5.86-3.91,2.32-.91,4.9-1.36,7.72-1.36,3.68,0,6.83.78,9.47,2.33,2.63,1.55,4.6,3.56,5.91,6.02,1.31,2.46,1.97,4.96,1.97,7.51,0,2.37-.68,3.9-2.03,4.61-1.36.7-3.26,1.05-5.72,1.05"/><path class="cls-1" d="m224.67,274.26v7.86c0,1.91-.45,3.34-1.34,4.29-.9.96-2.03,1.43-3.41,1.43s-2.47-.48-3.35-1.45c-.87-.96-1.31-2.39-1.31-4.28v-26.2c0-4.23,1.53-6.34,4.59-6.34,1.56,0,2.69.49,3.38,1.48.69.99,1.07,2.45,1.14,4.38,1.12-1.93,2.28-3.39,3.46-4.38,1.18-.99,2.77-1.48,4.74-1.48s3.9.49,5.76,1.48,2.8,2.3,2.8,3.93c0,1.15-.4,2.1-1.19,2.85-.79.75-1.65,1.12-2.57,1.12-.35,0-1.18-.21-2.5-.64s-2.49-.64-3.5-.64c-1.38,0-2.51.36-3.38,1.09-.88.72-1.55,1.8-2.04,3.22-.48,1.42-.81,3.12-1,5.09-.19,1.97-.28,4.36-.28,7.19"/><path class="cls-1" d="m254.52,268.64c0,2.55.4,4.72,1.19,6.52s1.88,3.14,3.26,4.05c1.38.91,2.88,1.36,4.52,1.36s3.17-.43,4.53-1.29c1.37-.86,2.46-2.18,3.28-3.97.81-1.78,1.22-4.01,1.22-6.67,0-2.51-.41-4.66-1.22-6.47-.82-1.81-1.92-3.19-3.31-4.14-1.39-.96-2.91-1.43-4.57-1.43s-3.27.49-4.62,1.46c-1.36.98-2.41,2.38-3.15,4.21-.75,1.83-1.12,3.95-1.12,6.36m18.52,13.82v-.93c-1.26,1.45-2.51,2.63-3.74,3.54-1.23.9-2.56,1.6-4,2.07-1.44.47-3.01.71-4.71.71-2.25,0-4.34-.48-6.26-1.43-1.92-.95-3.58-2.32-4.98-4.08-1.4-1.77-2.47-3.85-3.19-6.24-.72-2.39-1.09-4.98-1.09-7.76,0-5.88,1.44-10.47,4.31-13.76,2.87-3.28,6.66-4.93,11.34-4.93,2.71,0,5,.47,6.86,1.4,1.86.93,3.68,2.36,5.45,4.29v-13.9c0-1.93.39-3.39,1.16-4.38s1.86-1.48,3.29-1.48,2.52.45,3.29,1.36c.77.91,1.16,2.24,1.16,4.02v41.51c0,1.79-.42,3.14-1.24,4.04-.83.9-1.9,1.34-3.21,1.34s-2.35-.46-3.19-1.4c-.84-.93-1.26-2.26-1.26-3.98"/><path class="cls-1" d="m318.66,282.53v-1.21c-1.13,1.43-2.31,2.62-3.55,3.59-1.24.96-2.6,1.68-4.07,2.16-1.47.47-3.15.71-5.03.71-2.28,0-4.32-.47-6.12-1.41-1.81-.94-3.2-2.24-4.19-3.9-1.17-2-1.76-4.87-1.76-8.62v-18.65c0-1.89.43-3.29,1.28-4.23.85-.93,1.97-1.39,3.38-1.39s2.57.47,3.45,1.41c.87.94,1.31,2.34,1.31,4.21v15.07c0,2.18.19,4.02.55,5.5.37,1.48,1.03,2.64,1.98,3.48.96.84,2.25,1.26,3.88,1.26s3.08-.47,4.48-1.41c1.4-.94,2.42-2.18,3.07-3.69.53-1.33.79-4.25.79-8.76v-11.45c0-1.86.44-3.26,1.31-4.21.88-.94,2.01-1.41,3.41-1.41s2.53.46,3.38,1.39c.85.93,1.28,2.34,1.28,4.23v27.27c0,1.79-.41,3.14-1.22,4.04-.82.9-1.87,1.34-3.15,1.34s-2.35-.46-3.19-1.4c-.84-.93-1.26-2.24-1.26-3.91"/><path class="cls-1" d="m373.44,276.19c0,1.17-.35,2.43-1.05,3.76-.7,1.33-1.77,2.61-3.21,3.81-1.44,1.21-3.25,2.18-5.43,2.92-2.18.73-4.65,1.1-7.38,1.1-5.82,0-10.36-1.7-13.62-5.09-3.26-3.39-4.9-7.93-4.9-13.63,0-3.86.75-7.28,2.24-10.24,1.49-2.97,3.66-5.26,6.48-6.88,2.83-1.62,6.21-2.43,10.14-2.43,2.43,0,4.67.36,6.71,1.07,2.03.71,3.76,1.63,5.17,2.76,1.41,1.13,2.5,2.33,3.25,3.6.75,1.28,1.12,2.47,1.12,3.57s-.42,2.08-1.26,2.86c-.84.78-1.86,1.17-3.05,1.17-.78,0-1.43-.2-1.95-.61-.52-.4-1.1-1.05-1.74-1.95-1.15-1.74-2.35-3.06-3.6-3.93-1.25-.88-2.84-1.31-4.77-1.31-2.78,0-5.02,1.09-6.72,3.26-1.7,2.17-2.56,5.14-2.56,8.91,0,1.77.22,3.4.66,4.88s1.07,2.75,1.9,3.79c.83,1.05,1.83,1.84,3,2.38,1.17.54,2.46.81,3.86.81,1.88,0,3.5-.44,4.85-1.31,1.34-.88,2.53-2.21,3.57-4,.58-1.06,1.2-1.88,1.86-2.48.67-.6,1.48-.9,2.45-.9,1.15,0,2.1.43,2.86,1.31.76.87,1.14,1.81,1.14,2.79"/><path class="cls-1" d="m405.23,283.53l-8.31-13.66-5.1,4.83v7.48c0,1.81-.48,3.21-1.43,4.19-.96.98-2.05,1.46-3.29,1.46-1.45,0-2.59-.48-3.41-1.45-.83-.96-1.24-2.39-1.24-4.28v-40.13c0-2.09.4-3.69,1.21-4.78.8-1.09,1.95-1.64,3.45-1.64s2.6.49,3.45,1.48,1.28,2.45,1.28,4.38v22.83l10.59-11.1c1.31-1.38,2.31-2.32,3-2.83.69-.51,1.53-.76,2.52-.76,1.17,0,2.15.37,2.93,1.12.78.75,1.17,1.68,1.17,2.81,0,1.38-1.28,3.22-3.83,5.51l-5,4.59,9.66,15.17c.71,1.12,1.22,1.98,1.53,2.57s.47,1.15.47,1.67c0,1.49-.41,2.67-1.22,3.54-.82.86-1.89,1.29-3.22,1.29-1.15,0-2.03-.31-2.66-.93-.62-.62-1.46-1.75-2.52-3.38"/></g></g></svg>