<?xml version="1.0" encoding="UTF-8"?><svg id="Layer_2" xmlns="http://www.w3.org/2000/svg" viewBox="0 0 1050 227"><defs><style>.cls-1{fill:#650729;}</style></defs><g id="Layer_1-2"><path class="cls-1" d="m125.17,224.15h45.49l-48.68-88.87c26.48-10.62,40.44-33.16,40.44-63.59C162.42,28.89,134.73,0,83.08,0H0v224.15h40.77v-82.09h40.22l44.18,82.09ZM40.77,33.93h36.04c30.44,0,44.07,13.9,44.07,37.76s-13.63,36.67-43.85,36.67h-36.26V33.93Z"/><path class="cls-1" d="m307.72,153.45c0,25.61-18.35,38.31-35.93,38.31-19.12,0-31.87-13.46-31.87-34.81V56.04h-39.78v107.04c0,40.39,23.08,63.26,56.26,63.26,25.27,0,43.08-13.24,50.77-32.07h1.76v29.88h38.57V56.04h-39.78v97.41Z"/><path class="cls-1" d="m477.57,86.03v-29.99h-37.8V12.26l-39.89,11.16v32.62h-26.15l-.22,29.99h26.37v89.42c0,33.49,16.48,51.11,49.78,51.11,9.78,0,19.89-1.64,27.8-5.47v-31.19c-5.05,2.96-10.66,4.49-17.03,4.49-14.4,0-20.66-7.77-20.66-25.83v-82.53h37.8Z"/><path class="cls-1" d="m646.57,138.78c0-58.88-29.67-84.93-71.21-84.93-49.89,0-78.13,39.95-78.13,87.34,0,52.32,29.01,85.81,89.23,85.81,16.59,0,33.63-3.72,47.8-9.63v-32.94c-12.97,6.9-28.24,11.27-44.95,11.27-37.69,0-51.76-18.28-52.97-44.76h110.22v-12.15Zm-110.22-14.56c.99-21.45,15.71-39.51,39.34-39.51s35.05,16.64,35.16,39.51h-74.51Z"/><path class="cls-1" d="m678.73,224.15h39.78v-98.83c0-21.34,16.15-36.45,38.02-36.45,6.81,0,15.05,1.2,18.46,2.3v-36.45c-3.63-.66-9.78-1.09-14.29-1.09-19.34,0-35.49,10.94-41.65,30.43h-1.76v-28.02h-38.57v168.12Z"/><path class="cls-1" d="m990,88.72l-8.03,46.55h55.23l-6.08,32.78h-54.9l-9.77,55.95h-34.72l9.77-55.95h-51.43l-9.77,55.95h-34.72l9.77-55.95h-55.34l6.08-32.78h55.01l8.03-46.55h-54.36l5.86-32.78h54.25l9.76-55.94h34.72l-9.77,55.95h51.43l9.77-55.95h34.72l-9.76,55.95h54.25l-5.64,32.78h-54.36Zm-34.72,0h-51.43l-8.03,46.55h51.43l8.03-46.55Z"/></g></svg>