<?xml version="1.0" encoding="UTF-8"?><svg id="Layer_2" xmlns="http://www.w3.org/2000/svg" viewBox="0 0 1011.4 185.7"><defs><style>.cls-1{fill:#650729;}</style></defs><g id="Layer_1-2"><path class="cls-1" d="m324.37,63.69c-11.01,0-23.66,3.75-31.16,12.65V13.38c0-.55-.45-1-1-1h-29.16c-.55,0-1,.45-1,1v167.64c0,.55.45,1,1,1h29.16c.55,0,1-.45,1-1v-66.71c-.12-12.87,7.31-22.98,21.56-22.98,14.99,0,21.32,10.56,21.32,23.44v66.25c0,.55.45,1,1,1h29.16c.55,0,1-.45,1-1v-71.64c0-25.3-13.59-45.69-42.88-45.69"/><path class="cls-1" d="m407.61,9.57c-10.61-.08-19.36,8.62-19.36,19.45s8.67,18.98,19.21,18.98c11.62,0,20.52-10.08,19.06-21.42-1.22-9.5-9.33-16.93-18.91-17.01"/><path class="cls-1" d="m422.16,66.74h-29.16c-.55,0-1,.45-1,1v113.28c0,.55.45,1,1,1h29.16c.55,0,1-.45,1-1v-113.28c0-.55-.45-1-1-1"/><path class="cls-1" d="m506.96,157.19c-15.7,0-29.07-12.19-29.07-33.04s13.37-32.81,29.07-32.81,28.59,11.72,28.59,32.81-12.65,33.04-28.59,33.04m6.56-93.5c-17.11,0-29.76,7.5-34.91,15.7V13.38c0-.55-.45-1-1-1h-28.69c-.55,0-1,.45-1,1v167.64c0,.55.45,1,1,1h28.22c.55,0,1-.45,1-1v-13.06c6.09,9.84,18.28,16.87,34.21,16.87,32.8,0,54.36-26.01,54.36-60.92s-19.45-60.22-53.19-60.22"/><path class="cls-1" d="m751.18,155.33c-2.03.37-5.39.68-8.43.68-8.9,0-13.59-3.28-13.59-13.36v-48.27h22.2c.55,0,1-.45,1-1v-25.65c0-.55-.45-1-1-1h-22.2v-33.44c0-.55-.45-1-1-1h-28.82c-.55,0-1,.45-1,1l-.04,33.45h-19.92c-.55,0-1,.45-1,1v25.65c0,.55.45,1,1,1h19.85v53.66c0,22.26,14.06,35.61,36.55,35.61,8.47,0,13.93-1.41,16.91-2.55.4-.15.66-.53.66-.96v-23.83c0-.62-.56-1.1-1.17-.99"/><path class="cls-1" d="m952.51,157.19c-16.4,0-28.58-12.43-28.58-33.05s12.65-32.57,28.58-32.57,28.71,11.72,28.71,32.34-12.78,33.28-28.71,33.28m57.89-144.81h-29.01c-.55,0-1,.45-1,1v64.84c-3.28-6.09-12.65-14.29-32.57-14.29-32.57,0-55.3,26.48-55.3,60.22s23.43,60.69,56.24,60.69c15.46,0,27.18-7.03,32.33-16.17l.06,12.36c0,.55.45.99,1,.99h28.24c.55,0,1-.45,1-1V13.38c0-.55-.45-1-1-1"/><path class="cls-1" d="m796.21,111.26c.7-10.54,9.61-22.73,25.77-22.73,17.81,0,25.31,11.25,25.77,22.73h-51.55Zm25.3-48.03c-29.52,0-56.7,23.9-56.7,60.69,0,38.89,27.88,61.62,59.52,61.62,23.61,0,40.22-11.54,48.51-26.89.28-.51.04-1.16-.49-1.39l-23.36-10.15c-.45-.2-.97-.03-1.24.38-4.46,6.89-11.81,11.34-23.18,11.34-15.46,0-28.35-11.01-29.05-26.24h81.54c.52,0,.96-.4,1-.92.13-1.66.41-5.25.41-8.69,0-37.02-21.32-59.75-56.94-59.75"/><path class="cls-1" d="m636.74,111.86l-16.4-3.51c-6.33-1.17-10.54-4.36-10.54-9.98,0-6.56,6.56-11.48,14.76-11.48,11.24,0,16.45,6.36,18.3,12.46.17.55.78.83,1.31.62l23.22-8.99c.5-.19.77-.74.59-1.25-4.12-12.02-16.31-26.5-43.66-26.5-24.84,0-43.11,17.1-43.11,37.72,0,16.17,10.08,29.97,32.34,34.89l15.23,3.51c8.9,1.88,12.42,5.64,12.42,10.8,0,6.09-4.92,11.48-15.23,11.48-13.06,0-19.84-7.79-20.98-16.51-.08-.58-.62-.95-1.2-.83l-24.73,5.42c-.51.11-.85.59-.78,1.1,1.85,13.22,14.03,34.71,47.92,34.71,30.23,0,44.75-19.21,44.75-37.96,0-16.87-11.48-31.02-34.21-35.71"/><path class="cls-1" d="m245.76,146.33l-25.52-8.51c-.54-.18-1.11.12-1.29.66-2.87,8.68-10.82,18.46-26.17,18.46s-29.52-11.72-29.52-32.57,13.36-32.33,29.29-32.33c13.27,0,20.49,7.24,24.05,15.37.21.48.75.73,1.24.56l26.15-9.02c.52-.18.81-.76.62-1.28-6.37-17.86-23.76-34.45-52.76-34.45-33.51,0-59.75,25.54-59.75,61.16s26.71,61.15,60.69,61.15c30.2,0,48.16-19.06,53.63-37.97.15-.52-.14-1.05-.65-1.22"/><path class="cls-1" d="m112.73,99.64c-.71-1.43-1.68-3.52-3.22-5.45-.89-1.12-2.35-2.14-4.08-2.14-2.81,0-4.49,1.97-4.49,4.65,0,.92.31,1.75.71,2.53.22.42.63,1.26.84,1.7.14.28.13.56-.11.69-.28.16-.55.02-.7-.23-.23-.38-.95-1.53-.95-1.53-.86-1.35-2.33-2.33-4.05-2.33-2.68,0-4.83,2.26-4.83,4.95,0,.77.19,1.5.51,2.15.13.26.37.79.5,1.05.14.28.14.57-.1.72-.25.15-.53,0-.68-.22-.19-.29-.56-.85-.76-1.13-.82-1.14-2.12-1.85-3.58-1.82-2.71.05-4.4,1.88-4.42,4.57,0,1.04.27,2.06.59,2.8,1,2.31,1.76,4.17,2.29,6.65.53,2.48.81,5.28.81,8.54,0,15.41-12.05,27.89-26.61,27.89-19.29,0-26.47-14.84-27.84-19.26-.17-.53-.73-.82-1.26-.66l-28.69,8.83c-.53.16-.84.73-.68,1.26,6.33,20.42,26.54,41.83,58.14,41.83,26.19,0,47.95-17.55,55.93-41.23,4.98-14.78,3.44-31.23-3.28-44.83"/><path class="cls-1" d="m59.48,95.63c-1.54,0-2.78-1.25-2.78-2.78s1.25-2.79,2.78-2.79,2.79,1.25,2.79,2.78-1.25,2.78-2.78,2.78"/><path class="cls-1" d="m59.48,71.77c-1.54,0-2.78-1.25-2.78-2.78s1.25-2.79,2.78-2.79,2.79,1.25,2.79,2.78-1.25,2.78-2.78,2.78"/><path class="cls-1" d="m59.48,83.46c-1.54,0-2.78-1.25-2.78-2.78s1.25-2.79,2.78-2.79,2.79,1.25,2.79,2.78-1.25,2.78-2.78,2.78"/><path class="cls-1" d="m81.45,97.12c-.59-.61-1.42-1.26-2.12-1.74-1.64-1.13-3.16-2-4.96-2.84-1.15-.54-1.77-.82-3.11-1.18-1.02-.27-2.07-.43-3.03-.04-1.54.64-2.28,2.31-1.85,3.86.37,1.32,1.44,1.84,2.58,2.39,1.83.88,2.74,1.35,4.3,2.31,1.21.75,2.32,1.47,3.54,2.36,1.39,1.01,3.25,1.17,4.55.01,1.48-1.31,1.54-3.64.1-5.14"/><path class="cls-1" d="m91.35,90.18c-1.87-1.91-3.99-3.56-6.03-4.61-.68-.35-1.19-.6-2.08-.81-1.32-.31-2.7.09-3.56,1.14-.93,1.13-1.03,2.68-.29,3.95.62,1.06,1.44,1.59,2.4,2.29,1.44,1.05,2.44,1.84,3.79,2.98.88.74,1.62,1.54,2.83,1.7,1.56.21,3.12-.61,3.84-2.01.77-1.52.3-3.41-.9-4.62"/><path class="cls-1" d="m73.93,80.04c-.84-.36-1.54-.65-2.74-.96-.89-.23-1.95-.36-2.87-.14-2.09.49-3.08,3-1.88,4.78.48.72,1.12,1.04,2,1.35.71.25,1.23.44,2.08.75.62.23,1.35.52,1.92.62,1.03.2,2.12-.13,2.87-.86,1.77-1.71,1.18-4.46-1.37-5.55"/><path class="cls-1" d="m71.04,67.35c-.46-.13-1.05-.25-1.61-.3-.72-.06-1.53.04-2.19.48-1.28.86-1.71,2.61-.97,3.97.36.66.96,1.17,1.67,1.42.65.23,1.4.47,2.08.54,1.52.17,2.96-.82,3.34-2.3.44-1.71-.61-3.34-2.31-3.81"/><path class="cls-1" d="m85.82,72.54c-.81-.5-1.53-.89-2.42-1.22-.98-.37-1.93-.65-2.87-.71-2.22-.15-4.03,1.9-3.64,4.08.19,1.06.9,1.99,1.86,2.48.76.38,1.34.67,2.17,1.09.8.41,1.64.91,2.51,1.14,1.07.29,2.22.05,3.09-.63,2.07-1.61,1.64-4.77-.71-6.23"/><path class="cls-1" d="m101.71,83.92c-.84-1.03-1.67-1.88-2.56-2.66-.95-.83-1.6-1.36-2.73-2.06-.98-.6-2.11-.93-3.28-.71-1.19.23-2.22,1.08-2.66,2.21-.49,1.26-.2,2.73.72,3.72.68.73,1.3,1.21,2.05,1.87.94.83,1.84,1.65,2.72,2.54.79.81,1.66,1.43,2.84,1.47,1.42.05,2.76-.74,3.4-2.01.7-1.4.57-3.05-.52-4.38"/><path class="cls-1" d="m6.22,86.06c.71,1.43,1.69,3.52,3.22,5.45,1,1.26,2.35,2.06,4.08,2.06,2.81,0,4.49-1.89,4.49-4.57,0-.92-.31-1.76-.71-2.53-.22-.43-.63-1.26-.84-1.7-.14-.28-.14-.56.11-.69.28-.16.55-.02.7.23.23.38.95,1.52.95,1.52.86,1.35,2.33,2.33,4.05,2.33,2.68,0,4.84-2.27,4.84-4.95,0-.77-.19-1.5-.51-2.15-.13-.26-.37-.79-.5-1.05-.14-.28-.14-.57.1-.72.25-.16.53,0,.68.22.19.28.56.85.76,1.13.82,1.14,2.12,1.85,3.58,1.83,2.71-.06,4.54-2.13,4.54-4.82,0-.87-.29-1.84-.66-2.56-2.05-4.01-3.15-8.66-3.15-15.19,0-15.41,12.05-27.89,26.61-27.89,19.29,0,26.47,14.84,27.84,19.26.17.53.73.82,1.26.66l28.69-8.83c.53-.16.84-.73.68-1.26C110.68,21.41,90.47,0,58.87,0,32.68,0,10.92,17.55,2.94,41.23c-4.98,14.78-3.44,31.23,3.28,44.83"/><path class="cls-1" d="m59.47,113.93c1.54,0,2.79,1.25,2.79,2.78s-1.25,2.79-2.78,2.79-2.79-1.25-2.79-2.78,1.25-2.78,2.78-2.78"/><path class="cls-1" d="m59.47,102.24c1.54,0,2.79,1.25,2.79,2.78s-1.25,2.78-2.78,2.78-2.79-1.25-2.79-2.78,1.25-2.79,2.78-2.79"/><path class="cls-1" d="m37.5,88.57c.59.61,1.42,1.26,2.12,1.74,1.64,1.13,3.16,2,4.96,2.85,1.15.54,1.77.82,3.11,1.18,1.02.27,2.07.43,3.03.04,1.54-.64,2.28-2.31,1.85-3.86-.37-1.32-1.43-1.85-2.58-2.39-1.83-.88-2.74-1.35-4.3-2.31-1.21-.75-2.32-1.47-3.54-2.36-1.39-1.01-3.25-1.17-4.55-.01-1.48,1.31-1.54,3.64-.1,5.14"/><path class="cls-1" d="m27.79,95.43c1.87,1.91,3.99,3.56,6.03,4.61.68.35,1.19.6,2.08.81,1.32.31,2.7-.09,3.56-1.14.93-1.13,1.03-2.68.29-3.95-.62-1.06-1.44-1.59-2.4-2.29-1.44-1.05-2.44-1.84-3.79-2.98-.88-.74-1.62-1.54-2.83-1.7-1.56-.21-3.12.61-3.84,2.01-.77,1.53-.3,3.41.9,4.62"/><path class="cls-1" d="m45.02,105.65c.84.36,1.54.65,2.74.96.89.23,1.95.36,2.87.14,2.09-.49,3.08-3,1.88-4.78-.48-.72-1.12-1.04-2-1.35-.71-.25-1.23-.44-2.08-.75-.62-.23-1.35-.52-1.92-.62-1.03-.2-2.12.13-2.87.86-1.77,1.71-1.18,4.46,1.37,5.55"/><path class="cls-1" d="m47.9,118.34c.46.13,1.04.25,1.61.3.72.06,1.53-.04,2.19-.48,1.28-.86,1.71-2.61.97-3.97-.36-.66-.96-1.17-1.67-1.42-.65-.23-1.4-.47-2.08-.54-1.52-.17-2.96.82-3.34,2.3-.44,1.71.61,3.34,2.32,3.81"/><path class="cls-1" d="m33.42,113.53c.81.5,1.53.89,2.42,1.22.98.37,1.93.65,2.87.71,2.22.15,4.03-1.9,3.64-4.08-.19-1.06-.9-1.99-1.86-2.48-.76-.38-1.35-.67-2.17-1.09-.8-.41-1.64-.91-2.51-1.14-1.07-.29-2.22-.05-3.09.63-2.07,1.61-1.64,4.77.71,6.23"/><path class="cls-1" d="m17.34,101.81c.88,1.08,1.76,1.98,2.7,2.8,1,.88,1.69,1.44,2.88,2.18,1.03.64,2.23.98,3.46.74,1.26-.24,2.34-1.14,2.8-2.33.52-1.33.21-2.88-.76-3.92-.72-.77-1.38-1.27-2.17-1.97-.99-.88-1.94-1.74-2.87-2.68-.84-.85-1.75-1.51-3-1.55-1.49-.05-2.92.79-3.59,2.12-.74,1.47-.6,3.21.55,4.62"/></g></svg>