<?xml version="1.0" encoding="UTF-8"?><svg id="Layer_2" xmlns="http://www.w3.org/2000/svg" viewBox="0 0 275.59 68.3"><defs><style>.cls-1{fill:#650729;}</style></defs><g id="Layer_1-2"><path class="cls-1" d="m10.82,23.61l10.82,23.48,10.77-23.48h10.86l-21.72,44.69L0,23.61h10.82Z"/><path class="cls-1" d="m79.11,23.61h9.7v41.81h-9.7v-4.38c-3.98,3.72-8.26,5.58-12.84,5.58-5.78,0-10.56-2.09-14.34-6.27-3.75-4.26-5.62-9.59-5.62-15.97s1.87-11.49,5.62-15.67c3.75-4.18,8.44-6.27,14.08-6.27,4.87,0,9.23,2,13.09,6.01v-4.85Zm-22.92,20.78c0,4.01,1.07,7.27,3.22,9.79,2.2,2.55,4.98,3.82,8.33,3.82,3.58,0,6.47-1.23,8.67-3.69,2.2-2.55,3.31-5.78,3.31-9.7s-1.1-7.15-3.31-9.7c-2.2-2.49-5.07-3.73-8.59-3.73-3.32,0-6.1,1.26-8.33,3.78-2.2,2.55-3.31,5.69-3.31,9.44Z"/><path class="cls-1" d="m101.01,23.61h9.66v3.73c1.77-1.86,3.35-3.13,4.72-3.82,1.4-.72,3.06-1.07,4.98-1.07,2.55,0,5.21.83,7.98,2.49l-4.42,8.84c-1.83-1.32-3.62-1.97-5.37-1.97-5.27,0-7.9,3.98-7.9,11.93v21.68h-9.66V23.61Z"/><path class="cls-1" d="m144.92,23.61v41.81h-9.66V23.61h9.66Zm-11.12-17.39c0-1.69.62-3.15,1.85-4.38,1.23-1.23,2.7-1.85,4.42-1.85s3.23.62,4.46,1.85c1.23,1.2,1.85,2.68,1.85,4.42s-.61,3.23-1.85,4.46c-1.2,1.23-2.68,1.85-4.42,1.85s-3.23-.62-4.46-1.85c-1.23-1.23-1.85-2.73-1.85-4.51Z"/><path class="cls-1" d="m187.98,23.61h9.7v41.81h-9.7v-4.38c-3.98,3.72-8.26,5.58-12.83,5.58-5.78,0-10.56-2.09-14.34-6.27-3.75-4.26-5.62-9.59-5.62-15.97s1.87-11.49,5.62-15.67c3.75-4.18,8.44-6.27,14.08-6.27,4.87,0,9.23,2,13.09,6.01v-4.85Zm-22.92,20.78c0,4.01,1.07,7.27,3.22,9.79,2.2,2.55,4.98,3.82,8.33,3.82,3.58,0,6.47-1.23,8.67-3.69,2.2-2.55,3.31-5.78,3.31-9.7s-1.1-7.15-3.31-9.7c-2.2-2.49-5.07-3.73-8.59-3.73-3.32,0-6.1,1.26-8.33,3.78-2.2,2.55-3.31,5.69-3.31,9.44Z"/><path class="cls-1" d="m209.87,23.61h9.7v3.86c3.38-3.35,7.18-5.02,11.42-5.02,4.86,0,8.66,1.53,11.38,4.59,2.35,2.6,3.52,6.85,3.52,12.75v25.63h-9.7v-23.35c0-4.12-.57-6.97-1.72-8.54-1.12-1.6-3.15-2.4-6.1-2.4-3.21,0-5.48,1.06-6.83,3.18-1.32,2.09-1.98,5.74-1.98,10.95v20.18h-9.7V23.61Z"/><path class="cls-1" d="m268.08,32.62v32.8h-9.66v-32.8h-4.12v-9.01h4.12v-15.32h9.66v15.32h7.51v9.01h-7.51Z"/></g></svg>