<?xml version="1.0" encoding="UTF-8"?><svg id="Layer_2" xmlns="http://www.w3.org/2000/svg" viewBox="0 0 85.67 13.05"><defs><style>.cls-1{fill:#650729;}</style></defs><g id="Layer_1-2"><path class="cls-1" d="m36.8,12.09l-3.75-10.45c-.05-.14-.12-.33-.12-.5,0-.45.38-.88.93-.88.48,0,.79.31.93.76l3.11,9,3.13-9.03c.14-.43.43-.74.91-.74h.1c.5,0,.81.31.96.74l3.11,9.03,3.16-9.05c.12-.38.38-.72.88-.72s.91.4.91.86c0,.17-.07.36-.12.5l-3.78,10.47c-.19.55-.57.83-1,.83h-.07c-.48,0-.84-.29-1.01-.83l-3.08-8.88-3.11,8.88c-.17.55-.53.83-1,.83h-.05c-.45,0-.83-.29-1.03-.83"/><path class="cls-1" d="m64.15,1.17c0-.5.41-.93.91-.93.53,0,.93.41.93.93v2.12c.91-2.06,2.92-3.03,4.26-3.03.55,0,.91.41.91.93s-.33.86-.82.93c-2.39.29-4.36,2.08-4.36,5.65v4.2c0,.5-.38.93-.91.93s-.93-.41-.93-.93V1.17"/><path class="cls-1" d="m77.08,13.03c-3.33,0-6.05-2.58-6.05-6.37v-.05c0-3.53,2.46-6.37,5.82-6.37,3.59,0,5.63,2.96,5.63,6.21,0,.5-.4.85-.85.85h-8.77c.26,2.65,2.11,4.14,4.27,4.14,1.5,0,2.6-.59,3.49-1.42.14-.12.3-.21.52-.21.44,0,.8.36.8.78,0,.21-.09.43-.28.59-1.15,1.11-2.51,1.85-4.57,1.85m3.59-7.09c-.19-2.23-1.46-4.17-3.87-4.17-2.11,0-3.71,1.78-3.94,4.17h7.81Z"/><path class="cls-1" d="m51.08,9.19v-.05c0-2.6,2.15-3.99,5.27-3.99,1.58,0,2.7.21,3.8.53v-.43c0-2.22-1.36-3.37-3.68-3.37-1.24,0-1.96.16-2.87.56-.12.05-.24.07-.33.07-.43,0-.81-.36-.81-.79,0-.38.17-.62.5-.77,1.21-.53,2.13-.7,3.71-.7,1.74,0,3.08.45,3.98,1.36.84.84,1.27,2.03,1.27,3.6v6.81c0,.52-.38.91-.89.91s-.88-.38-.88-.86v-1.18c-.86,1.12-2.29,2.12-4.46,2.12-2.29,0-4.61-1.31-4.61-3.84m9.09-.96v-1.19c-.91-.26-2.13-.53-3.63-.53-2.31,0-3.6,1-3.6,2.55v.05c0,1.55,1.43,2.46,3.1,2.46,2.27,0,4.13-1.38,4.13-3.34"/><path class="cls-1" d="m3.37,1.04C2.97.15,1.97-.25,1.03.16.1.58-.24,1.62.18,2.5l3.92,8.51c.62,1.33,1.27,2.03,2.48,2.03,1.3,0,1.87-.76,2.48-2.03,0,0,3.42-7.44,3.45-7.52.04-.08.14-.32.49-.32.29,0,.54.24.54.55v7.27c0,1.12.62,2.04,1.82,2.04s1.84-.92,1.84-2.04v-5.95c0-1.15.82-1.89,1.94-1.89s1.87.77,1.87,1.89v5.95c0,1.12.62,2.04,1.82,2.04s1.84-.92,1.84-2.04v-5.95c0-1.15.82-1.89,1.94-1.89s1.87.77,1.87,1.89v5.95c0,1.12.62,2.04,1.82,2.04s1.84-.92,1.84-2.04v-6.77c0-2.49-2-4.23-4.41-4.23s-3.91,1.66-3.91,1.66C23.03.63,21.92,0,20.05,0c-1.97,0-3.7,1.66-3.7,1.66C15.55.63,14.19,0,13.06,0,11.31,0,9.93.77,9.08,2.71l-2.5,5.9L3.37,1.04"/><path class="cls-1" d="m82.62,1.78h0c0-.84.68-1.54,1.53-1.54s1.53.69,1.53,1.53h0c0,.84-.67,1.54-1.53,1.54s-1.53-.69-1.53-1.53m2.76-.01h0c0-.69-.53-1.25-1.23-1.25s-1.24.57-1.24,1.25h0c0,.69.53,1.25,1.24,1.25s1.23-.57,1.23-1.25"/><path class="cls-1" d="m83.56,1.16c0-.09.07-.16.16-.16h.51c.19,0,.34.05.43.15.08.08.13.2.13.34h0c0,.24-.12.38-.29.45l.22.27s.05.07.05.12c0,.09-.08.15-.15.15-.07,0-.12-.04-.16-.08l-.32-.4h-.26v.32c0,.09-.07.16-.16.16s-.16-.07-.16-.16v-1.17Zm.66.56c.16,0,.25-.08.25-.21h0c0-.14-.09-.22-.25-.22h-.32v.43h.33Z"/></g></svg>