<svg xmlns="http://www.w3.org/2000/svg" id="Layer_2" viewBox="0 0 357.9 549.35"><defs><style>.cls-1{fill:#fff;}.cls-2{fill:#f2f2f3;}</style></defs><g id="Layer_1-2"><path d="m130.88,384.21c.29,2.94-5.97,25.34-10.88,25.82-4.9.48-10.81-8.35-11.1-11.29-.29-2.94,7.55-18.81,12.46-19.29,4.9-.48,9.23,1.83,9.52,4.76h0Z"/><path class="cls-1" d="m36.39,395.91c-.54-.25-1.15.18-1.08.78.74,7,4.13,40.27,4.5,64.99.09,5.6.01,10.77-.27,15.09-1.72,25.73-3.78,45.46-3.36,52.35.53,8.77,4.75,11.09,11.5,5.56,6.76-5.54,14.26-22.09,27.09-21.53,12.55.55,23.74,16.76,24.64,18.41,2.6,4.77,13.92,8.52,13.77-8.5-.16-17.02-6.88-57.43-32.24-86.27-24.25-27.57-35.55-36.67-44.54-40.88h0Z"/><path d="m119.14,383.22c-3.11,1.83-3.5,3.48-3.13,4.56,1.21,3.49,3.03,1.67,2.1,3.64-2.81,5.96,7.85,5.75,6.72,7.92-.63,1.21-5.97,3.31-9.71,2.57-3.31-.65-5.98-4.47-1.29-8.31,2.5-2.04-.6-9.32-3.47-7.57-2.49,1.52-5.78,10.34-5.82,10.39h0c-.13.65-.25,1.31-.37,1.95-.43,2.25,1.27,5.57,2.62,7.04.78.84.99,2.06.54,3.1-2.13,4.93-8.21,18.68-12.89,26.3-4.07,6.63-6.5,6.54-7.58,5.92l-.03-.02c-1.38-1.8-2.83-3.55-4.34-5.28-25.09-28.53-36.22-37.18-45.22-41.39h0c-1.19-.55-2.65-.23-3.48.9-.44.59-.59,1.34-.51,2.08.71,6.75,4.1,40.1,4.47,64.69.01.97.02,1.91.03,2.83,0,.48-.08.96-.26,1.42-1.53,4.02-3.34,10.21-4.86,12.37-1.76,2.5-3.67,6.84-8.16,8.83-3.7,1.64-8.9.4-12.59.15-1.33-.09-9.53-18.1-11.2-13.07-.68,2.04,8.83,12.23.68,18.34-5.44,4.08,6.59.23,10.88,0,5.12-.28,10.88-.74,14.96,0,3.18.58,6.66-10.98,9.52-10.19,1.55.42-2.66,38.01-2.72,42.13,0,.06.05,1.42.05,1.48-.02,1.26,0,2.34.05,3.23.33,5.37,1.95,8.73,4.82,9.99,2.78,1.21,6.16.22,10.03-2.96,2.18-1.78,4.35-4.53,6.65-7.43,5.19-6.56,11.08-13.99,19.04-13.63,11.05.48,21.78,15.25,22.92,17.34,1.58,2.9,5.48,5.45,9.4,5.06.4-.04.8-.11,1.21-.21,2.67-.69,7.13-3.48,7.03-14.35-.14-15.12-5.36-47.5-23.03-74.73v-.03c-.29-1.67-.14-3.39.95-4.82l9.12-15.13c.68-1.13,1.31-2.29,1.87-3.49,1.46-3.13,4.09-8.87,4.9-11.54,1.15-3.77,3.14-5.17,6.61-4,3.47,1.18,6.96-4.12,12.04-8.27,5.07-4.15,2.21-7.05,2.7-8.89,1.95-7.25-2.6-4.97-.98-9.04.78-1.96.29-3.07-.59-3.81-1.41-1.19-3.5-1.08-4.9.11l-3.63,3.07c-.2.16-.92.63-1.14.76v-.02Zm-8.02,139.86c.05,5.9-1.38,9.66-3.95,10.33-2.17.57-4.99-1.06-5.95-2.83-.1-.19-11.95-18.85-26.35-19.48-.8-.03-1.59-.01-2.35.06-8.81.86-15.03,8.72-20.11,15.13-2.16,2.72-4.2,5.3-6.03,6.8-2.48,2.03-4.58,2.89-5.78,2.38-1.27-.55-2.15-2.97-2.36-6.47-.27-4.33.53-14.55,1.54-27.5.57-7.29,1.21-15.56,1.82-24.6.25-3.64.34-8.06.3-13.18,0-1.06.25-2.1.75-3.03.56-1.03,1.08-1.77,1.46-1.94.57-.25,1.91.8,3.53,2.08h0c3.62,3.68,8.53,5.73,13.72,5.22,9.73-.96,16.74-10.56,15.67-21.46-.2-2.04-.67-3.98-1.37-5.79-.01-.04,0-.09.04-.1.93-.46,2.18-.82,3.21-1.06.03,0,.06,0,.08.03.14.16.28.31.42.48,24.74,28.13,31.57,67.85,31.73,84.93h0Z"/><path class="cls-1" d="m73.57,443.38c3.06,6.4-.37,14.42-7.67,17.9-7.29,3.48-15.69,1.12-18.75-5.29-3.06-6.4.37-14.42,7.67-17.9,7.29-3.48,15.69-1.12,18.75,5.29h0Z"/><path d="m72.78,471.43c1.69,4.3,8.83,7.48,15.11,5,6.29-2.47-.82-5.67-2.51-9.96-1.7-4.3,1.33-11.47-4.95-9-6.29,2.47-9.34,9.66-7.65,13.96h0Z"/><path d="m62.73,474.59c-1.69-4.3-8.99-7.9-15.28-5.43-6.29,2.47.94,6.11,2.64,10.4,1.69,4.3-1.29,11.45,5,8.98s9.34-9.66,7.65-13.96h0Z"/><path d="m75.37,471.13c1.03,3.44-1.59,7.26-5.85,8.54-4.26,1.27-8.55-.48-9.58-3.92-1.03-3.44,1.59-7.26,5.85-8.54,4.26-1.27,8.55.48,9.58,3.92h0Z"/><path class="cls-2" d="m49.55,470.99c0,.63-.51,1.14-1.14,1.14s-1.14-.51-1.14-1.14c0-.63.51-1.14,1.14-1.14.63,0,1.14.51,1.14,1.14h0Z"/><path class="cls-2" d="m53.49,471.38c0,.63-.51,1.14-1.14,1.14s-1.14-.51-1.14-1.14c0-.63.51-1.14,1.14-1.14s1.14.51,1.14,1.14h0Z"/><path class="cls-2" d="m51.36,474.27c0,.63-.51,1.14-1.14,1.14s-1.14-.51-1.14-1.14c0-.63.51-1.14,1.14-1.14s1.14.51,1.14,1.14h0Z"/><path class="cls-2" d="m53.27,478.09c0,.63-.51,1.14-1.14,1.14-.63,0-1.14-.51-1.14-1.14,0-.63.51-1.14,1.14-1.14s1.14.51,1.14,1.14h0Z"/><path class="cls-2" d="m55.44,475.34c0,.63-.51,1.14-1.14,1.14s-1.14-.51-1.14-1.14c0-.63.51-1.14,1.14-1.14s1.14.51,1.14,1.14h0Z"/><path class="cls-2" d="m57.8,471.84c0,.63-.51,1.14-1.14,1.14s-1.14-.51-1.14-1.14c0-.63.51-1.14,1.14-1.14s1.14.51,1.14,1.14h0Z"/><path class="cls-2" d="m76.28,466.47c0,.63-.51,1.14-1.14,1.14s-1.14-.51-1.14-1.14.51-1.14,1.14-1.14,1.14.51,1.14,1.14h0Z"/><path class="cls-2" d="m54.43,482.06c0,.63-.51,1.14-1.14,1.14s-1.14-.51-1.14-1.14c0-.63.51-1.14,1.14-1.14s1.14.51,1.14,1.14h0Z"/><path class="cls-2" d="m56.97,479.38c0,.63-.51,1.14-1.14,1.14s-1.14-.51-1.14-1.14c0-.63.51-1.14,1.14-1.14s1.14.51,1.14,1.14h0Z"/><path class="cls-2" d="m58.8,475.42c0,.63-.51,1.14-1.14,1.14s-1.14-.51-1.14-1.14c0-.63.51-1.14,1.14-1.14s1.14.51,1.14,1.14h0Z"/><path class="cls-2" d="m61.75,475.87c0,.63-.51,1.14-1.14,1.14s-1.14-.51-1.14-1.14c0-.63.51-1.14,1.14-1.14s1.14.51,1.14,1.14h0Z"/><path class="cls-2" d="m76.51,470.77c0,.63-.51,1.14-1.14,1.14s-1.14-.51-1.14-1.14.51-1.14,1.14-1.14,1.14.51,1.14,1.14h0Z"/><path class="cls-2" d="m78.82,473.67c0,.63-.51,1.14-1.14,1.14s-1.14-.51-1.14-1.14.51-1.14,1.14-1.14,1.14.51,1.14,1.14h0Z"/><path class="cls-2" d="m83.09,474.66c0,.63-.51,1.14-1.14,1.14s-1.14-.51-1.14-1.14.51-1.14,1.14-1.14,1.14.51,1.14,1.14h0Z"/><path class="cls-2" d="m81.18,470.88c0,.63-.51,1.14-1.14,1.14s-1.14-.51-1.14-1.14c0-.63.51-1.14,1.14-1.14s1.14.51,1.14,1.14h0Z"/><path class="cls-2" d="m79.9,467.34c0,.63-.51,1.14-1.14,1.14-.63,0-1.14-.51-1.14-1.14,0-.63.51-1.14,1.14-1.14s1.14.51,1.14,1.14h0Z"/><path class="cls-2" d="m79.6,462.86c0,.63-.51,1.14-1.14,1.14s-1.14-.51-1.14-1.14c0-.63.51-1.14,1.14-1.14.63,0,1.14.51,1.14,1.14h0Z"/><path class="cls-2" d="m83.02,460.15c0,.63-.51,1.14-1.14,1.14s-1.14-.51-1.14-1.14c0-.63.51-1.14,1.14-1.14s1.14.51,1.14,1.14h0Z"/><path class="cls-2" d="m82.72,464.47c0,.63-.51,1.14-1.14,1.14s-1.14-.51-1.14-1.14c0-.63.51-1.14,1.14-1.14s1.14.51,1.14,1.14h0Z"/><path class="cls-2" d="m84.12,468.1c0,.63-.51,1.14-1.14,1.14s-1.14-.51-1.14-1.14c0-.63.51-1.14,1.14-1.14s1.14.51,1.14,1.14h0Z"/><path class="cls-2" d="m85.32,471.78c0,.63-.51,1.14-1.14,1.14s-1.14-.51-1.14-1.14c0-.63.51-1.14,1.14-1.14s1.14.51,1.14,1.14h0Z"/><path class="cls-2" d="m88.13,474.27c0,.63-.51,1.14-1.14,1.14s-1.14-.51-1.14-1.14c0-.63.51-1.14,1.14-1.14s1.14.51,1.14,1.14h0Z"/><path class="cls-2" d="m63.82,471.24c0,.63-.51,1.14-1.14,1.14s-1.14-.51-1.14-1.14c0-.63.51-1.14,1.14-1.14s1.14.51,1.14,1.14h0Z"/><path class="cls-2" d="m65.62,474.5c0,.63-.51,1.14-1.14,1.14s-1.14-.51-1.14-1.14.51-1.14,1.14-1.14,1.14.51,1.14,1.14h0Z"/><path class="cls-2" d="m66.47,477.94c0,.63-.51,1.14-1.14,1.14s-1.14-.51-1.14-1.14c0-.63.51-1.14,1.14-1.14s1.14.51,1.14,1.14h0Z"/><path class="cls-2" d="m70.32,477.18c0,.63-.51,1.14-1.14,1.14s-1.14-.51-1.14-1.14.51-1.14,1.14-1.14,1.14.51,1.14,1.14h0Z"/><path class="cls-2" d="m69.14,473.25c0,.63-.51,1.14-1.14,1.14s-1.14-.51-1.14-1.14.51-1.14,1.14-1.14,1.14.51,1.14,1.14h0Z"/><path class="cls-2" d="m67.73,469.92c0,.63-.51,1.14-1.14,1.14s-1.14-.51-1.14-1.14c0-.63.51-1.14,1.14-1.14s1.14.51,1.14,1.14h0Z"/><path class="cls-2" d="m74.01,475.29c0,.63-.51,1.14-1.14,1.14s-1.14-.51-1.14-1.14.51-1.14,1.14-1.14,1.14.51,1.14,1.14h0Z"/><path class="cls-2" d="m72.28,472.41c0,.63-.51,1.14-1.14,1.14s-1.14-.51-1.14-1.14.51-1.14,1.14-1.14,1.14.51,1.14,1.14h0Z"/><path class="cls-2" d="m71.52,468.57c0,.63-.51,1.14-1.14,1.14s-1.14-.51-1.14-1.14c0-.63.51-1.14,1.14-1.14s1.14.51,1.14,1.14h0Z"/><path class="cls-2" d="m58.2,483.48c0,.63-.51,1.14-1.14,1.14s-1.14-.51-1.14-1.14c0-.63.51-1.14,1.14-1.14s1.14.51,1.14,1.14h0Z"/><path class="cls-2" d="m60.4,479.72c0,.63-.51,1.14-1.14,1.14s-1.14-.51-1.14-1.14c0-.63.51-1.14,1.14-1.14.63,0,1.14.51,1.14,1.14h0Z"/><path class="cls-2" d="m54.87,486.17c0,.63-.51,1.14-1.14,1.14s-1.14-.51-1.14-1.14c0-.63.51-1.14,1.14-1.14s1.14.51,1.14,1.14h0Z"/><path d="m54.03,442.6c.61.5-.69,1.31-2.06,2.98-1.37,1.67-2.29,3.55-2.89,3.06-.6-.5.01-2.25,1.38-3.92,1.37-1.67,2.97-2.61,3.58-2.12h0Z"/><path d="m311.54,37.39c.24-.05.37-.31.26-.54-1.46-3.11-2.93-9.31-4.54-15.18-.61-2.21-1.14-4.39-1.63-6.5-.63-2.72-.51-4.64-1.09-7.1-.73-3.11-1.76-5.84-2.49-7.55-.16-.38.32-.71.61-.42l3.88,3.85s.04.05.05.07l5.39,8.75s.05.06.07.09l5.36,4.69s.04.04.05.06l5.9,8.06c.18.25.58.18.67-.12l1.55-5.18s.03-.09.07-.13l2.63-3.28s.05-.08.07-.13l1.47-4.92c.12-.39.67-.35.74.05l1.17,7.63s0,.04.01.06l3.52,10.95c.07.24.35.33.57.2l4.7-3s.05-.04.08-.07l5.38-6.05s.03-.03.05-.05l8.51-6.61c.27-.2.64,0,.61.34l-.99,8.97s0,.05-.01.07l-2.7,8.77s-.01.04-.01.06l-1.35,10.77s-.02.09-.04.12l-2.89,5.64c-.03.07-.05.14-.04.2.05.56.37,3.16,1.6,6.33,2.62,6.75,7.09,16.38,5.96,16.29-.72-.06-4.46-1.44-6.64-4.06-3.32-3.98-7.63-5.45-7.82-5.52h-.01c-.19-.05-3.88-.95-5.46,3.88-1.66,5.04-2.42,8.42-8.48,11.3-3.45,1.65-5.54,3.63-6.59,4.84-.25.29-.71.07-.65-.31l1.14-8.01v-.13l-2.02-9.39s0-.07,0-.11l.67-8.01c0-.06,0-.12-.03-.18-.17-.4-1.04-2.06-4.04-3.3-1.29-.54-3.45.05-5.44-.68-2.59-.95-4.94-2.77-6.8-3.4-7.26-2.46-9.07-2.32-8.93-2.19,0,0,7.57-1.21,10.28-5.29,2.15-3.23,6.27-4.36,7.68-4.66h-.03Z"/><path class="cls-1" d="m315.97,38.78c.27-.12.4-.45.27-.72-1.04-2.19-3.16-7.82-5.24-13.71-4.2-11.89-8.24-24.79-2.81-12.36.03.06.07.12.12.18l7.76,7.43s.05.05.07.08l4.73,6.75,4.02,5.92c.22.33.7.31.9-.03l1.8-3.04c.05-.08.07-.18.07-.27v-5.19c0-.07.01-.13.03-.19l1.36-3.49c.18-.46.84-.45,1,.01l1.83,5.17s.01.03.01.05l1.19,5.07s.02.08.04.11l2.1,4.41c.14.3.52.4.8.2l4.5-3.25s.07-.06.1-.1l5.36-6.7s.04-.05.07-.07l5.41-4.71c.42-.36,1.05.07.85.59l-3.56,9.55s-.02.06-.03.1l-2.02,11.44s-.02.08-.04.12l-3.4,7.65c-.04.09-.05.18-.04.27.07.57.47,2.71,2.79,5.61,3.45,4.3,5.14,11.39,5.23,11.12,0,0-17.99-15.74-17.68-6.02.16,5.09-3.32,8.46-6.58,11.21-1.62,1.37-2.69,2.66-3.32,3.55-.28.4-.89.24-.96-.24l-1.14-7.99c0-.05,0-.12,0-.17l1.33-7.29c.01-.07.01-.14,0-.2l-1.33-6.33c-.04-.18-.16-.33-.33-.39l-5.07-1.91s-.08-.03-.12-.03l-5.96-.74c-.05,0-.11-.02-.16-.05l-6.89-3.21c-.37-.18-.42-.69-.08-.92l5.65-3.96s.05-.03.09-.05l7.3-3.25v-.04h0Z"/><path d="m336.15,79.09c4.77,17.96-2.72,21.74,11.96,36.63,2.06,2.09,1.29-15.92-3.48-33.88s-5.76-47.6-16.64-35.37c-1.95,2.2,3.39,14.66,8.16,32.62h0Z"/><path d="m334.86,102.83c6.72,7.42,1.27,13.63,15.53,13.92,2.01.04-1.5-9.59-8.22-17.02-6.72-7.42-11.81-26.45-18.66-13.68-1.23,2.29,4.64,9.36,11.36,16.78h0Z"/><path d="m344.19,99.45c2.14,8.05,10.55,27.32,10.99,23.81.68-5.43,4.18-23.89,2.04-31.94-2.14-8.05-10.18-12.46-13.59-11.56-3.42.91-1.57,11.63.57,19.68h0Z"/><path class="cls-1" d="m267.66,538.07c0-.11.01-.22.02-.33-.18-.07-.36-.16-.54-.19-.77-.1-1.54-.18-2.32-.26-.61-.06-.97.22-1.17.85,1.43.5,2.71-.01,4.01-.07h0Zm4.26.02c-.2-.73-.65-.88-1.14-.79-.41.07-.57.41-.37.88l1.52-.09h0Zm4.94-2.57c-.69.07-1.16.1-1.61.2-.14.03-.22.28-.33.43.18.13.35.35.53.36.57.01.95-.31,1.4-.99h0Zm-17.04,2.77c-.4-.76-.87-.83-1.36-.63-.17.07-.25.37-.46.74.72-.04,1.19-.07,1.83-.1h0Zm-6.01-.29c-.05.07-.1.14-.14.21.18.13.36.26.54.39.05-.07.1-.15.16-.22-.18-.13-.37-.25-.55-.38h0Z"/><path d="m267.66,538.07c-1.3.05-2.59.57-4.01.07.2-.63.57-.91,1.17-.85.77.07,1.55.16,2.32.26.19.03.37.12.54.19,0,.11-.01.22-.02.33h0Z"/><path d="m271.92,538.09l-1.52.09c-.2-.47-.03-.8.37-.88.49-.09.95.07,1.14.79h0Z"/><path d="m276.85,535.52c-.46.67-.84,1-1.4.99-.18,0-.35-.23-.53-.36.11-.15.19-.4.33-.43.46-.1.93-.12,1.61-.2h0Z"/><path d="m259.81,538.29c-.64.03-1.1.06-1.83.1.22-.37.29-.67.46-.74.49-.19.96-.13,1.36.63h0Z"/><path d="m253.8,537.99c.18.13.37.25.55.38-.05.07-.1.15-.16.22-.18-.13-.36-.26-.54-.39.05-.07.1-.14.14-.21h0Z"/><path class="cls-1" d="m202.11,230.55c-1.04.42-2.27.89-3.47,1.42-1.32.58-2.67,1.12-3.91,1.85-2.52,1.49-5.01,3.04-7.44,4.67-2.16,1.45-4.21,3.04-6.31,4.57-.43.31-.89.58-1.49.97-.29-.53-.61-.95-.78-1.43-.54-1.58-1.46-2.96-2.21-4.43-1.15-2.27-2.63-4.37-3.61-6.75-.88-2.12-2.08-4.12-3.12-6.18-.63-1.25-1.23-2.53-1.8-3.8-.83-1.84-1.58-3.72-2.45-5.54-.8-1.68-1.7-3.3-2.54-4.96-.48-.96-.87-1.97-1.38-2.91-1.78-3.31-3.56-6.62-5.39-9.9-1.23-2.2-2.57-4.33-3.78-6.53-1.95-3.54-3.74-7.18-5.8-10.67-1.66-2.81-3.56-5.47-5.42-8.14-1.51-2.17-3.11-4.26-4.68-6.38-.12-.16-.29-.28-.48-.47.12-.16.2-.35.35-.48,2.68-2.32,5.37-4.63,8.05-6.95,1.57-1.35,3.28-2.49,5.05-3.56,1.72-1.04,3.24-2.4,4.86-3.61.52-.39,1.08-.73,1.62-1.08,1.11-.71,2.21-1.43,3.33-2.11.63-.38,1.32-.67,1.97-1.04,2.12-1.21,4.28-2.33,6.31-3.66,1.31-.86,2.68-1.57,4.08-2.27,1.31-.65,2.45-1.65,3.76-2.32,1.83-.94,3.71-1.79,5.61-2.56,2.71-1.1,5.46-2.12,8.21-3.15,2.05-.77,4.09-1.56,6.18-2.22,4.37-1.38,8.77-2.68,13.27-3.58,1.33-.27,2.69-.46,4.03-.76.79-.18,1.55-.51,2.33-.74.35-.1.72-.1,1.09-.14.58-.05,1.16-.03,1.73-.14,3.88-.78,7.75-1.65,11.65-2.38,2.64-.49,5.31-.87,7.98-1.15,2.59-.27,5.19-.34,7.79-.51.62-.04,1.23-.18,1.85-.2,1.44-.05,2.88-.05,4.32-.1,2.23-.08,4.47-.17,6.7-.29,3.64-.18,7.19.29,10.63,1.42,1.2.39,2.36.92,3.04,2.17.33.6.43,1.14.3,1.76-.1.52-.25,1.05-.28,1.58-.31,5.11-.59,10.22-1.11,15.32-.32,3.13-.44,6.26-.67,9.4-.11,1.44-.32,2.87-.4,4.32-.12,2.02-.11,4.05-.25,6.07-.2,3.01-.5,6.01-.73,9.02-.31,4-.61,7.99-.9,11.99-.29,3.96-.51,7.92-.9,11.87-.31,3.17-.26,6.36-.43,9.53-.15,2.76-.33,5.53-.48,8.29-.05,1.01-.05,2.03-.08,3.04-.07.02-.14.03-.22.05-.16-.22-.27-.49-.47-.64-.25-.19-.57-.4-.86-.4-3.99.17-7.99.32-11.97.61-1.3.1-2.57.6-3.85.92-.79.2-1.55.37-2.4.35-1.35-.03-2.7.31-4.05.5-.96.14-1.89.45-2.89.4-.61-.03-1.23.34-1.85.55-.11.03-.2.2-.3.21-1.55.05-2.72,1.18-4.18,1.48-.35.07-.72,0-1.08,0l-29.65,9.8h-.02Z"/><path class="cls-1" d="m268.66,334.05c-2.47.93-4.69,1.87-6.99,2.59-3.34,1.04-6.75,1.89-10.12,2.85-1.19.34-2.36.76-3.53,1.15-2.15.72-4.31,1.43-6.46,2.18-2.06.71-4.11,1.48-6.18,2.21-1.83.65-3.67,1.26-5.5,1.91-1.32.47-2.64.95-3.94,1.49-1.86.77-3.63,1.8-5.55,2.34-1.92.54-3.56,1.71-5.5,2.12-.72.15-1.36.59-2.06.84-.49.18-1.01.25-1.64.4-.14-.87-.23-1.59-.37-2.31-.24-1.25-.51-2.5-.76-3.75-.3-1.5-.59-3-.89-4.5-.25-1.22-.53-2.42-.76-3.64-.4-2.06-.76-4.13-1.15-6.2-.1-.48-.28-.95-.4-1.43-.76-3.04-1.79-5.99-2.68-8.99-.88-2.97-1.48-6.01-1.97-9.08-.35-2.2-.83-4.39-1.39-6.54-.69-2.68-1.51-5.33-2.34-7.97-.35-1.1-.92-2.12-1.3-3.21-.83-2.38-1.62-4.76-2.39-7.15-.54-1.69-.98-3.42-1.57-5.09-1.54-4.36-3.18-8.67-4.71-13.03-.94-2.69-1.68-5.45-2.61-8.14-.59-1.72-1.38-3.36-2.06-5.05-.27-.69-.49-1.4-.72-2.11-.06-.19-.15-.48-.06-.6.56-.76.12-1.41-.17-2.09-.1-.22-.22-.48-.2-.71.14-1.72-.76-3.1-1.43-4.55-.09-.18-.18-.37-.27-.56-.22-.49-.1-.82.37-1.14.95-.65,1.83-1.4,2.76-2.08.97-.69,2-1.32,2.96-2.02,1.2-.86,2.39-1.74,3.57-2.62,1.69-1.27,3.53-2.41,5.56-3.13,1.87-.66,3.72-1.36,5.59-2.04,3.34-1.21,6.67-2.41,10.02-3.6,1.28-.46,2.57-.87,3.86-1.31,1.17-.4,2.34-.82,3.51-1.22,1.37-.46,2.74-.93,4.11-1.38,1.89-.62,3.77-1.23,5.66-1.83.43-.14.87-.22,1.31-.34,1.23-.33,2.51-.56,3.7-1.03,2.63-1.04,5.34-1.61,8.13-2,2.73-.37,5.42-1.03,8.15-1.46,2.08-.33,4.18-.59,6.28-.74,2.84-.2,5.69-.27,8.53-.4.16,0,.33.01.6.03.02.41.07.81.06,1.21-.07,2.68-.14,5.36-.25,8.04-.1,2.72-.25,5.44-.37,8.16-.18,4-.36,8.01-.54,12.01-.12,2.6-.25,5.2-.31,7.8-.05,2.6.01,5.2-.01,7.8-.02,1.98-.15,3.97-.17,5.95-.02,1.61-.01,3.23.09,4.83.19,2.81.32,5.61.17,8.44-.1,1.73.07,3.47.13,5.21.07,2.23.1,4.46.23,6.69.13,2.23.31,4.45.54,6.67.19,1.85.53,3.68.73,5.53.22,2.06.32,4.13.52,6.18.13,1.35.35,2.7.53,4.04.05.37.13.74.13,1.11.04,3.33.87,6.55,1.27,9.83.22,1.79.14,3.62.2,5.4h0Z"/><path class="cls-1" d="m237.72,490.1c-.2-1.45-1.42-1.01-2.24-1.31-.2-.07-.54.13-.71.03-1.7-.99-3.7-1.08-5.47-1.85-.26-.11-.57-.24-.72-.45-.57-.75-1.38-1.01-2.21-1.23-.1.18-.19.34-.4.7-.61-1.7-1.11-3.21-.54-4.75.46-1.27,1.08-2.52,1.83-3.64.53-.8,1.38-1.4,2.15-2.01.46-.36.98-.29,1.47.13.76.64,1.56,1.22,2.36,1.8.33.25.68.5,1.06.63,2.25.81,4.51,1.61,6.78,2.36.3.1.71-.05,1.04-.16.43-.14.81-.43,1.24-.54,1.71-.43,3.26-1.21,4.72-2.15.45-.29.77-.31,1.23,0,1.01.7,2.17,1.19,2.98,2.27-.12.21-.18.48-.35.61-2.3,1.68-4.05,3.89-5.82,6.07-.82,1-1.17,2.17-.65,3.48.17.43.42.78.88.73.33-.03.72-.21.92-.46.25-.3.38-.73.48-1.12.33-1.28,1-2.34,1.91-3.28,2.16-2.25,4.41-4.37,7.22-5.8,1.25-.63,2.46-1.44,3.79-1.84,1.65-.5,3.4-.67,5.11-.96.31-.05.69-.03.98.08,1.57.63,3.17,1.21,4.68,1.96,1.87.93,3.32,2.3,4.47,4.13,1.87,2.99,2.34,6.22,2.37,9.62,0,.67-.25,1.05-.87,1.12-1.07.12-2.14.26-3.21.24-2.89-.05-5.78-.11-8.67.1-3.62.26-7.27.39-10.9-.02-1.4-.16-2.79-.29-4.2-.41-.25-.02-.52-.05-.74.03-1.77.63-3.49.11-5.22-.22-1.24-.23-1.4-.46-1.54-1.72-.14-1.33-1.16-1.93-2.08-2.61-.18-.14-.57-.04-.84,0-.69.1-1.38.24-2.26.39h-.01Z"/><path class="cls-1" d="m164.46,517.96c3.61-.33,7.19-.03,10.72.72,1.09.23,2.2.39,3.24.75.76.26,1.5.69,2.15,1.18,1.08.82,2.07,1.77,3.14,2.61,1.74,1.37,2.77,3.25,3.81,5.13.37.67.61,1.44.76,2.19.2,1-.22,1.81-1.16,2.23-1.2.55-2.41,1.1-3.66,1.52-1.95.65-3.94,1.2-5.92,1.78-.31.1-.65.15-.97.2-3.32.58-6.66.45-10,.44-1.85,0-3.71.12-5.56.12-1.53,0-3.05-.12-4.57-.18-2.42-.1-4.69-.88-6.99-1.52-1.35-.37-2.72-.65-4.07-1.01-1-.27-1.06-.39-.84-1.38.61-2.76,1.88-5.13,3.92-7.13,2.1-2.07,4.55-3.64,6.97-5.29,2.56-1.74,5.29-2.4,8.29-2.32.25,0,.5-.03.74-.04h0Z"/><path class="cls-1" d="m191.46,529.85c-.3-.48-.61-.82-.76-1.23-.82-2.42-2.23-4.49-3.88-6.41-.66-.78-1.36-1.53-2.17-2.44.49-.17.88-.37,1.28-.43.9-.12,1.82-.12,2.71-.25.47-.07.95-.25,1.36-.48.6-.35,1.19-.75,1.69-1.22.31-.28.46-.74.66-1.12.14-.27.25-.78.39-.78.32,0,.74.14.95.37.68.73,1.3,1.56,1.29,2.6-.01,2.31.12,4.65-.25,6.91-.29,1.87-1.42,3.47-3.3,4.48h0Z"/><path class="cls-1" d="m277.21,498.2c.46-1.69.8-2.02,2.06-1.99.22,0,.58.1.62.23.07.24.03.65-.12.77-.44.34-.96.61-1.48.83-.29.12-.63.1-1.08.15h0Z"/><path class="cls-1" d="m233.71,491.03c-.83-.13-1.14-.61-.95-1.46.33.51.58.89.95,1.46h0Z"/><path class="cls-1" d="m229.25,489.98c.9-.03,1.23.22,1.17.97-.71.1-.87-.35-1.17-.97h0Z"/><path class="cls-1" d="m234.8,490.42c.21-.41.38-.74.59-1.12.48.91.42,1.01-.59,1.12h0Z"/><path class="cls-1" d="m184.39,175.27c-.11.02-.21.06-.31.05-.03,0-.06-.12-.09-.18.1-.03.19-.08.29-.09.02,0,.05.12.1.22h0Z"/><path class="cls-1" d="m230.7,172.72c.1.16.2.25.19.33,0,.07-.13.13-.2.2-.04-.06-.12-.12-.12-.18,0-.09.06-.18.12-.34h0Z"/><path d="m125.67,385.37s-.01-.01-.01-.02h-.02l.03.03h0Z"/><path d="m354.23,114.81c-.22-2.18-.52-4.35-.89-6.51-.12-.76-.45-1.5-.82-2.19-.42-.8-1.23-.8-1.8-.08-.22.29-.4.62-.55.85-.51-.04-.97-.19-1.36-.07-.46.14-.76.11-1.13-.18-.2-.16-.55-.29-.77-.22-1.16.35-1.58,1.39-1.3,2.61.46,2.06,1.01,4.12,1.19,6.21.55,6.41.37,12.79-.71,19.16-.74,4.37-1.69,8.68-2.89,12.94-.65,2.3-1.57,4.53-2.3,6.81-.96,3.04-2.28,5.94-3.79,8.74-1.64,3.05-3.5,5.99-5.32,8.93-1.87,3.02-3.76,6.03-5.72,8.98-1.21,1.82-2.57,3.54-3.87,5.3-.69.93-1.5,1.78-2.16,2.74-1.12,1.63-2.38,3.15-3.73,4.6-2.23,2.41-4.6,4.71-6.92,7.04-.87.88-1.71,1.81-2.69,2.55-3.31,2.52-6.33,5.38-9.69,7.84-1.89,1.38-3.79,2.74-5.69,4.13-2.86,2.09-5.91,3.94-8.83,5.93-2.1,1.42-4.28,2.63-6.75,3.29-.84.22-1.68.46-2.5.74-1.68.57-3.12-.06-4.6-.74.14-3.8.27-7.51.4-11.22.02-.7-.03-1.41,0-2.1.16-2.81.34-5.61.52-8.41.15-2.31.29-4.62.47-6.92.1-1.19.3-2.38.37-3.58.16-2.43.21-4.88.39-7.31.29-3.92.64-7.82.97-11.74.1-1.23.26-2.47.33-3.7.14-2.52.2-5.05.35-7.56.11-1.82.31-3.63.44-5.44.15-2.14.21-4.3.39-6.43.31-3.79.7-7.58,1.03-11.37.22-2.55.33-5.11.61-7.66.27-2.51.54-5.03,1.11-7.48.36-1.54-.82-3.08-2.42-2.84-.51.07-.89-.06-1.21-.43-1.12-1.3-2.66-1.82-4.26-2.06-2.19-.32-4.37-.91-6.62-.76-.9.06-1.8.1-2.71.12-1.45.05-2.89.07-4.35.12-.66.02-1.31.05-1.98.07-2.55.06-5.1.11-7.66.18-1.06.03-2.11.08-3.17.16-1.83.14-3.68.2-5.5.42-1.47.18-2.93.5-4.39.76-.16.03-.32.09-.48.12-1.7.35-3.39.85-5.1,1.01-2.56.24-4.97,1-7.42,1.67-1.78.48-3.64.74-5.47,1.05-1.91.33-3.9.39-5.72.99-1.49.49-3.01.82-4.5,1.26-.94.28-1.92.43-2.88.63-.57.12-1.14.19-1.69.37-1.16.4-2.29.87-3.44,1.31-.19.07-.41.06-.61.12-.87.27-1.74.52-2.59.82-.5.18-.97.46-1.47.65-1.76.67-3.54,1.31-5.31,1.98-.5.19-.97.46-1.46.65-1.42.54-2.85,1.02-4.26,1.59-.8.33-1.51.91-2.33,1.14-2.26.64-4.05,2.13-6.08,3.17-.47.24-1.02.37-1.42.69-2.55,2.13-5.75,3.17-8.44,5.07-1.57,1.1-3.49,1.73-4.95,2.95-1.98,1.65-4.61,2.37-6.22,4.49l-.15.14c-1.55,1.01-3.13,1.99-4.65,3.04-.98.68-1.87,1.48-2.81,2.22-.32.25-.64.66-.99.69-.9.09-1.46.67-2.11,1.16-.62.46-1.32.82-1.97,1.25-.41.27-.84.54-1.17.89-1.25,1.31-2.47,2.65-3.7,3.99-.97,1.06-1.93,2.12-2.87,3.21-.2.24-.31.57-.43.88-.16.42-.26.86-.43,1.29-.32.79-.31,1.42.36,1.88,1.27.88,1.81,2.21,2.45,3.51.25.51.54,1.03.94,1.44.93.95,1.95,1.8,2.9,2.72.39.37.97,1.04,1.28,1.48,1.11,1.59,2.17,3.21,3.3,4.78,2.14,2.98,4.49,5.81,6.42,8.93,1.09,1.75,2.21,3.48,3.27,5.25.78,1.31,1.45,2.69,2.23,4,.84,1.42,1.81,2.76,2.62,4.21,1.27,2.27,2.45,4.6,3.67,6.9.78,1.46,1.31,2.93,1.98,4.49,1.01,2.34,1.68,3.02,2.62,5.32.57,1.41,1.76,2.44,2.4,3.81.89,1.9,1.76,3.82,2.64,5.73.61,1.31,1.27,2.59,1.83,3.93,1.2,2.86,2.3,5.75,3.52,8.6.89,2.09,1.93,4.11,2.83,6.19.46,1.05,1.25,2.08.53,3.34-.03.06,0,.16,0,.25-.06,1.64-.13,3.29-.19,4.93-.01.29-.07.59-.02.86.42,2-.4,3.93-.35,5.91.03.94-.09,1.89-.24,2.83-.19,1.21-.61,2.36-.58,3.62.01.63-.06,1.25-.55,1.83-.3.35-.12,1.11-.2,1.67-.41,2.65-.79,5.3-1.26,7.95-.45,2.55-.98,5.1-1.51,7.64-.33,1.6-.79,3.17-1.13,4.77-.2.95-.46,1.9-.72,2.85-.43,1.57-.64,3.23-1.23,4.75-.99,2.58-1.42,5.32-2.57,7.87-1.12,2.51-1.71,5.25-2.76,7.8-.86,2.08-1.55,4.21-2.34,6.32-.48,1.27-1.04,2.51-1.49,3.79-1.08,3.08-2.36,6.08-3.88,8.97-.82,1.55-1.77,3.04-2.66,4.56-.46.78-.77,1.65-1.72,2.08-.95.43-1.78,1.27-1.98,2.34-.44,2.39-2.37,4.09-3.46,6.21-.42.82-.91,1.55-1.52,2.23-.16.18-.36.37-.45.59-.83,2.04-2.13,3.79-3.35,5.59-1.08,1.57-2.17,3.15-3.32,4.67-.58.77-1.2,1.5-1.87,2.2-1.01,1.04-1.85,2.24-2.89,3.24-1.25,1.2-2.58,2.31-3.88,3.46-.08.07-.16.16-.24.24-1.35,1.43-2.7,2.86-4.04,4.31-.3.33-.52.71-.82,1.15-.44-.22-.96-.55-1.68-.23.77.8,1.63,1.16,2.58,1.23.67.05,1.19.26,1.49.86.18.08.4.12.55.23.61.46,1.21.68,1.9.16.06-.05.16-.05.24-.07.54-.1,2.02-.98,2.35-1.36.76-.87,1.53-1.73,2.3-2.58,1.23-1.34,2.49-2.66,3.68-4.02,1.61-1.87,3.2-3.76,4.76-5.67.65-.8,1.19-1.68,1.77-2.52.49-.71.93-1.45,1.46-2.12,1.53-1.99,3.13-3.93,4.64-5.94,1.36-1.81,2.61-3.69,3.92-5.53.8-1.14,1.78-2.19,2.38-3.43.69-1.41,1.41-2.81,2.35-4.06.94-1.26,1.44-2.81,2.34-4.1,2.09-3.02,3.41-6.4,4.84-9.73,1.12-2.61,2.1-5.29,3.15-7.94.2-.5.35-1.04.64-1.48,1.83-2.81,2.57-6.08,3.95-9.08.07-.15.11-.32.12-.49.07-1.14.53-2.16,1.06-3.14.81-1.5,1.68-2.98,2.46-4.5.41-.79.97-2.12,1.26-2.96,1.72-4.98,1.96-4.9,4.65-8.43,1.51-1.99,3.47-3.64,5.28-5.39.4-.38.97-.58,1.49-.87.26.28.53.45.64.69.51,1.16,1.26,2.19,1.6,3.46.4,1.51,1.06,2.95,1.55,4.44.54,1.65,1.03,3.31,1.54,4.97.65,2.1,1.33,4.17,1.93,6.29.84,3.02,1.1,6.16,2.01,9.18.72,2.4.92,4.94,1.33,7.43.22,1.29.36,2.61.61,3.9.35,1.78.8,3.53,1.19,5.3.19.89.29,1.79.48,2.68.28,1.29.62,2.56.91,3.85.36,1.61.69,3.22,1.06,4.83.26,1.16.65,2.29.81,3.46.25,1.72.46,3.44,1.23,5.03.06.13,0,.31,0,.45-.94.45-1.84.86-2.72,1.31-1.03.52-1.13,1.15-.42,2.04.21.26.35.58.42.91.2.86.26,1.75.48,2.6.72,2.71,1.05,5.5,1.19,8.3.08,1.65.22,3.31.3,4.96.09,2.06.18,4.13.17,6.19-.01,2.44-.2,4.88-.18,7.31.01,2.73.2,5.45.25,8.18.03,1.98-.03,3.96-.05,5.95-.03,3.11-.09,6.22-.07,9.33,0,1.01,0,2.02-.09,3.03-.21,2.52-.57,5.03-.86,7.54-.52,4.68-1.04,9.36-1.57,14.03-.11.94-.3,1.87-.43,2.81-.4,2.83-.77,5.66-1.55,8.42-.4,1.42-.72,2.87-1.01,4.32-.64,3.2-1.2,6.41-1.85,9.61-.2.96-.61,1.88-.83,2.84-.29,1.23-.46,2.49-.72,3.73-.35,1.66-.7,3.32-1.11,4.96-.66,2.69-1.34,5.37-2.07,8.05-.65,2.38-1.29,4.74-1.59,7.2-.12.99-.38,1.96-.71,2.91-.84,2.43-1.81,4.82-2.67,7.25-.5,1.4-.87,2.85-1.34,4.26-.38,1.13-.83,2.24-1.27,3.34-.52,1.3-1.06,2.59-1.59,3.89-.22.56-.64.65-1.21.59-.61-.07-1.23-.1-1.83,0-.48.07-.91.41-1.38.53-1.64.42-3.04,1.25-4.31,2.35-.24.2-.67.34-.99.29-1.68-.25-3.34-.44-5.04-.46-3.43-.05-6.87-.16-10.24.58-2.2.48-4.36,1.16-6.02,2.83-.32.32-.91.78-1.27,1.05-2.51,1.82-4.88,3.78-6.94,6.15-1.3,1.49-2.06,3.17-2.74,4.94-.76,1.92-.72,1.93-2.73,1.97l-.4.03c-1.06.14-2.1.31-3.17.42-.81.08-1.63.12-2.45.13-1.73.02-3.36.76-5.12.64-.93-.07-1.89.11-2.82.22-1.8.22-3.6.6-5.41.69-1.56.07-3.09.5-4.66.35-.4-.04-.81.12-1.21.2-.81.14-1.61.31-2.42.44-.78.12-1.56.19-2.34.29-1.14.16-2.29.38-3.44.47-1.06.08-2.14.01-3.21.04-1.1.03-65.51,1.45-66.61,1.45-20.92,0-13.49.5-13.45.74.16,1.01,7.83,1.41,8.83,1.35h6.4c.73-.05,1.33.54,1.37,1.27.01.27.03.52.07.76.16.98.77,1.4,1.76,1.26.6-.08,1.15-.23,1.73-.52.63-.32,1.48-.31,2.25-.38,1.11-.1,2.18-.64,3.26-1.02.99-.35,1.28-.19,1.43.8.04.29.05.58.07.86.04.57-.05.93-.8.91-.87-.01-1.27.47-1.25,1.2.03.78.54,1.29,1.38,1.25.82-.04,1.7-.05,2.45-.34,1.23-.48,2.17-.3,2.97.71.07.1.19.16.27.26.43.54.94.53,1.56.33.7-.22,1.44-.32,2.17-.46.81-.15,1.63-.24,2.45-.41.95-.2,1.47-.13,1.86.72.4.88,1.02,1.14,1.87,1.12.7-.01,66.68.05,67.34-.12,1.1-.29,2.09.05,3.11.32,1.23.31,2.45.82,3.69.93,1.63.14,3.3-.01,4.95-.08,1.23-.05,2.46-.22,3.69-.24,2.19-.05,4.38.09,6.55-.06,2.76-.19,5.54.13,8.29-.39.28-.05.58.02.87.01,1.76-.02,3.51-.05,5.26-.08.16,0,.33-.04.49-.06,1.46-.15,2.93-.34,4.4-.44,1.43-.09,2.87-.02,4.3-.12,1.55-.1,3.1-.35,4.66-.46,3.64-.25,7.27-.45,10.92-.67.37-.02.74-.1,1.1-.16.89-.16,1.77-.44,2.66-.48,2.56-.09,5.05-.48,7.41-1.5.24-.1.65-.22.91-.24,1.75-.16,3.5-.31,5.26-.44.12,0,.23.01.34.05.92.33,1.8.09,2.71-.07,1.46-.27,2.94-.45,4.41-.63.23-.03.49.07.72.15,1.13.37,1.8.07,2.28-.96.13-.29.29-.63.54-.76.84-.46,1.83-.27,2.45.45.41.47.77.87,1.46.5.16-.09.41,0,.61-.01,2.3-.06,4.59-.06,6.88-.21,2.06-.14,4.11-.34,6.18-.33,2.48.01,4.97-.24,7.44-.42.68-.05,1.36-.26,2.08-.41-.2-.93-.34-1.74.49-2.41-1.36-.94-2.79-.61-4.13-.71-.35-.35-.68-.67-1.16-1.16,1.06-.15,1.94-.32,2.83-.39.91-.07,1.83.03,2.72-.05.88-.08,1.74-.38,2.62-.45.89-.07,1.8.08,2.7.05.86-.02,1.72-.14,2.57-.22.02-.05.04-.11.06-.16-.69-.22-1.38-.45-2.3-.75,1.01-.36,1.85-.45,2.71-.48.91-.03,1.9.07,2.7-.27,1.76-.76,3.61.1,5.35-.47.07-.02.16.05.24.06,1.69.37,11.49.07,13.16-.1.42-.04.87-.2.96-.9-.95-.1-10.04-.45-10.84-.22-.89.25-1.68.22-2.53.1-.48-.07-.99-.04-1.48-.03-.74.01-1.49.1-2.23.07-.98-.03-1.94-.03-2.93.14-.95.16-1.96-.01-2.95-.05-.29-.01-.58-.11-.86-.07-1.47.18-2.92.13-4.38-.22-.89-.22-1.8-.32-2.71-.33-1.61-.03-3.22.07-4.83.12-.27,0-.69-.05-.94-.12-1.68-.39-3.39-.16-5.08-.14-1.23,0-2.43.25-3.66-.03-.57-.13-1.15-.13-1.72-.01-1.63.31-3.29-.34-4.9.18-2.23-.47-4.47-.06-6.7.06-.69.04-1.4-.17-1.88-.66s-.91-.35-1.44-.02c-.3.19-.68.36-1.02.37-2.35.05-4.71.05-7.06.06-.69,0-1.4-.01-2.08-.09-.85-.1-1.7-.29-2.55-.39-.44-.05-.9.05-1.35.03-.89-.05-1.78-.21-2.66-.2-.6,0-1.05-.06-1.35-.62-.31-.57-.8-.64-1.39-.48-.52.14-1.04.27-1.57.33-.63.07-.97-.27-.85-.88.09-.44.25-.89.49-1.27.76-1.16.99-2.44.96-3.79-.03-1.53.44-3.04.07-4.56-.04-.15,0-.33.04-.49.26-1.29-.04-2.49-.69-3.57-1.12-1.86-2.56-3.25-4.97-3.07-.35.03-.72-.06-1.23-.12.18-.59.29-1.06.46-1.51.28-.74.65-1.44.87-2.19.93-3.26,1.8-6.53,2.71-9.8.56-2.02.78-4.12,1.68-6.05.51-1.1,1.03-2.2,1.39-3.36.59-1.89,1.07-3.8,1.59-5.71,1.43-5.18,2.88-10.36,4.28-15.55,1.02-3.79,1.98-7.61,2.95-11.41.42-1.63.79-3.28,1.23-4.91.25-.92.6-1.8.87-2.72.68-2.3,1.33-4.61,2.02-6.9.25-.83.63-1.61.87-2.44.54-1.95,1-3.92,1.56-5.86.54-1.9,1.32-3.75,1.73-5.67.63-2.92,1.59-5.73,2.54-8.55.76-2.27,1.53-4.54,2.14-6.86.8-3.02,1.89-5.89,3.53-8.55.36-.59.59-1.27.8-1.93.87-2.6,2.09-5.04,3.43-7.4,1.83-3.23,3.99-6.25,6.77-8.78,2.04-1.86,4.03-3.78,6.11-5.59,2.08-1.81,4.58-2.51,7.28-2.1,1.82.28,3.63.78,5.38,1.35,2.13.7,4.05,1.88,5.77,3.3,1.28,1.05,2.32,2.37,2.68,4.06.31,1.46.6,2.92.85,4.39.63,3.75,1.25,7.5,1.85,11.26.12.75.21,1.98.17,2.74-.08,1.55-.29,3.11-.23,4.66.12,2.92-.95,5.63-1.17,8.48-.1,1.29-.3,2.59-.8,3.79-.47,1.14-.46,2.38-.75,3.56-.38,1.57-.78,3.13-1.24,4.66-.6,2.02-1.25,4.02-1.91,6.01-.23.69-.6,1.35-.89,2.03-.67,1.55-1.48,3.05-1.93,4.67-.46,1.68-1.24,3.25-2.19,4.69-.84,1.27-1.72,2.52-2.55,3.79-2.05,3.08-4.52,5.78-7.3,8.23-1.12.98-2.25,1.95-3.29,3.01-1.16,1.16-1.12,1.2-2.66.63-1.01-.37-1.96-.33-2.99.14-1.12.51-2.07,1.29-3.33,1.59-1.78.42-2.03,2.19-2.67,3.58l-.04.22c.11,1.14.22,2.27.34,3.57.07-.1.04-.02-.02.03-.13.1-.27.19-.42.26-2.01.89-3.47,2.35-4.42,4.32-.43.89-.78,1.83-1.18,2.73-.51,1.14-.61,2.32-.37,3.52.25,1.25.54,2.51.89,3.74.16.58.39,1.23.8,1.63,1.28,1.22,2.66,2.34,4.03,3.47.21.18.51.26.78.35.79.26,1.58.29,2.42.21,1.73-.17,3.45-.31,5.14-.81,1.16-.35,2.4-.48,3.66-.71.06.38.12.62.14.86.14,1.48.28,2.96.39,4.45.06.84.46,1.38,1.21,1.72,1.47.67,2.93,1.36,4.54,1.62,1.95.32,3.9.71,5.87.93,3.24.37,6.48.8,9.75.73,4.8-.11,9.6-.28,14.32-1.28,1.79-.38,3.46-1.12,4.98-2.15,1.28-.86,1.5-3.62.32-4.53-.88-.67-1.12-1.48-1.1-2.48.04-1.53-.08-3.04-.32-4.57-.42-2.72-1.68-5-3.39-7.06-2.08-2.51-4.84-3.95-7.95-4.77-1.81-.48-3.61-.82-5.51-.5-1.61.27-3.12.8-4.59,1.46-1.09.48-2.13,1.1-3.19,1.63-.47.24-.97.56-1.45-.01-1.03-1.23-2.35-2.06-3.83-2.66v-.8c0-2.25-.68-4.13-2.73-5.35-.8-.48-1.53-1.1-2.39-1.72.52-.67.99-1.33,1.53-1.95.91-1.06,1.93-2.04,2.77-3.15,3.89-5.23,7.72-10.49,11.54-15.77.85-1.18,1.66-2.39,2.38-3.65,1.81-3.15,3.5-6.37,5.17-9.6.96-1.87,1.84-3.78,2.65-5.72.9-2.17,1.7-4.39,2.51-6.59.64-1.74,1.25-3.5,1.85-5.26.52-1.53.9-3.1,1.53-4.58.69-1.61,1.19-3.27,1.48-4.97.52-2.98.82-5.99.63-9.02-.07-1.06-.21-2.15.35-3.16.07-.12,0-.31-.01-.47-.08-.89-.24-1.79-.23-2.68.01-2.05.2-4.1-.35-6.11-.08-.31-.19-.8-.2-1.12-.1-1.54-.17-3.08-.28-4.62-.14-2.02-.29-4.04-.48-6.06s-.46-4.02-.67-6.04c-.2-1.82-.12-3.66-.66-5.45-.29-.95-.54-1.91-.62-2.89-.15-1.99-.06-3.98-.11-5.98-.01-.59-.14-1.56-.31-2.12-.46-1.51-.63-3.05-.7-4.62-.05-1.03-.18-2.06-.27-3.08-.14-1.59-.64-3.17-.1-4.79.07-.23-.12-.54-.18-.83-.14-.73-.24-1.41.23-2.13.79-1.22.09-2.31-1.38-2.27-.56.02-1.12.12-1.78.18-.05-.9-.07-1.72-.15-2.53-.16-1.64-.42-3.26-.76-4.88-.42-1.98-.56-4-.8-6.01-.17-1.43-.31-2.87-.44-4.3-.15-1.69-.23-3.38-.4-5.06-.37-3.62-.86-7.22-1.16-10.83-.29-3.42-.45-6.84-.57-10.27-.09-2.4.02-4.79-.03-7.19-.05-2.6-.2-5.2-.29-7.81-.03-.91-.03-2.4,0-3.3.07-1.66.17-3.32.22-4.98.03-1.07-.05-2.14-.04-3.21.01-1.2.13-2.4.12-3.6-.02-1.4.24-2.7.93-3.93.45-.79.66-1.65.73-2.59.05-.79.45-1.57.74-2.33.25-.65.63-1.25.8-1.91.45-1.82,1.06-3.53,2.19-5.07.95-1.29,1.81-2.66,2.71-3.99.32-.48.56-1.01.93-1.43.7-.8,1.48-1.54,2.21-2.31.42-.45.76-1.02,1.25-1.35.81-.54,1.54-1.11,2.08-1.92.3-.44.66-.84,1.08-1.17,1.9-1.5,3.79-3.03,5.84-4.32.45-.28.84-.66,1.25-.99.54-.43,1.07-.89,1.65-1.27.44-.29.98-.42,1.43-.69,1.43-.89,2.87-1.77,4.24-2.75.86-.61,1.86-1.12,2.35-2.15.07-.14.21-.24.33-.35.67-.61,1.36-1.19,2.01-1.8.96-.9,1.86-1.88,2.87-2.71.59-.48,1.43-.66,2.04-1.13,1.2-.93,2.37-1.92,3.46-2.99,1.44-1.41,2.78-2.93,4.17-4.39.57-.59,1.16-1.15,1.73-1.75.5-.54.93-1.18,1.47-1.67.89-.8,1.91-1.44,2.75-2.29,1.89-1.89,3.77-3.81,5.52-5.82,2.08-2.4,4.36-4.63,6.03-7.37.41-.67.85-1.35,1.4-1.89,1.98-1.93,3.1-4.45,4.64-6.68,1.06-1.52,1.83-3.23,2.74-4.85.99-1.76,2.03-3.49,2.98-5.28.6-1.12,1.14-2.29,1.53-3.51.32-1.01,1.03-1.77,1.46-2.68.75-1.6,1.42-3.25,2.06-4.9.57-1.46,1.21-2.91,1.55-4.43.81-3.54,1.56-7.1,2.18-10.67.4-2.27.64-4.56.87-6.85.24-2.44.64-4.85.92-7.29.17-1.51.42-3.04.36-4.56-.1-2.76-.36-5.53-.64-8.28v-.06Zm-167.1,417.98c-1.2.55-2.41,1.1-3.66,1.52-1.95.65-3.94,1.2-5.92,1.78-.31.1-.64.15-.97.2-3.32.58-6.66.45-10,.44-1.85,0-3.71.12-5.56.12-1.53,0-3.05-.12-4.57-.18-2.42-.1-4.69-.88-6.99-1.52-1.35-.37-2.72-.65-4.07-1.01-1-.27-1.06-.39-.84-1.38.61-2.76,1.88-5.13,3.92-7.13,2.1-2.07,4.55-3.64,6.97-5.29,2.56-1.74,5.29-2.4,8.29-2.32.25,0,.5-.03.74-.04,3.61-.33,7.19-.03,10.72.72,1.09.23,2.2.39,3.24.75.76.26,1.5.69,2.15,1.18,1.08.82,2.07,1.77,3.14,2.61,1.74,1.37,2.77,3.25,3.81,5.13.37.67.61,1.44.76,2.19.2,1-.22,1.81-1.16,2.23h0Zm4.58-15.4c.31-.28.46-.74.66-1.12.14-.27.25-.78.39-.78.32,0,.74.14.95.37.68.73,1.3,1.56,1.29,2.6-.01,2.31.12,4.65-.25,6.91-.29,1.87-1.42,3.47-3.3,4.48-.3-.48-.61-.82-.76-1.23-.82-2.42-2.23-4.49-3.88-6.41-.66-.78-1.36-1.53-2.17-2.44.49-.17.88-.37,1.28-.43.9-.12,1.82-.12,2.71-.25.47-.07.95-.25,1.36-.48.6-.35,1.19-.75,1.69-1.22h0Zm38.72-26.44c-.71.1-.86-.35-1.17-.97.9-.03,1.23.22,1.17.97h0Zm2.33-1.38c.33.51.58.89.95,1.46-.83-.13-1.14-.61-.95-1.46h0Zm2.05.84c.21-.41.38-.74.59-1.12.48.91.42,1.01-.59,1.12h0Zm44.46,5.79c.22,0,.58.1.62.23.07.24.03.65-.12.77-.44.34-.96.61-1.48.83-.29.12-.63.1-1.08.15.46-1.69.8-2.02,2.06-1.99h0Zm-31.19-18.53c.45-.29.77-.31,1.23,0,1.01.7,2.17,1.19,2.98,2.27-.12.21-.18.48-.35.61-2.3,1.68-4.05,3.89-5.82,6.07-.82,1-1.17,2.17-.65,3.48.17.43.42.78.88.73.33-.03.72-.21.92-.46.25-.3.38-.73.48-1.12.33-1.28,1-2.34,1.91-3.28,2.16-2.25,4.41-4.37,7.22-5.8,1.25-.63,2.46-1.44,3.79-1.84,1.65-.5,3.4-.67,5.11-.96.31-.05.69-.03.98.08,1.57.63,3.17,1.21,4.68,1.96,1.87.93,3.32,2.3,4.47,4.13,1.87,2.99,2.34,6.22,2.37,9.62,0,.67-.25,1.05-.87,1.12-1.07.12-2.14.26-3.21.24-2.89-.05-5.78-.11-8.67.1-3.62.26-7.27.39-10.9-.02-1.4-.16-2.79-.29-4.2-.41-.25-.02-.52-.05-.74.03-1.77.63-3.49.11-5.22-.22-1.24-.23-1.4-.46-1.54-1.72-.14-1.33-1.16-1.93-2.08-2.61-.18-.14-.57-.04-.84,0-.69.1-1.38.24-2.26.39-.2-1.45-1.42-1.01-2.24-1.31-.2-.07-.54.13-.71.03-1.7-.99-3.7-1.08-5.47-1.85-.26-.11-.57-.24-.72-.45-.57-.75-1.38-1.01-2.21-1.23-.1.18-.19.34-.4.7-.61-1.7-1.11-3.21-.54-4.75.46-1.27,1.08-2.52,1.83-3.64.53-.8,1.38-1.4,2.15-2.01.46-.36.98-.29,1.47.13.76.64,1.56,1.22,2.36,1.8.33.25.68.5,1.06.63,2.25.81,4.51,1.61,6.78,2.36.3.1.71-.05,1.04-.16.43-.14.81-.43,1.24-.54,1.71-.43,3.26-1.21,4.72-2.15h-.01Zm17.69-257.35c-.07,2.68-.14,5.36-.25,8.04-.1,2.72-.25,5.44-.37,8.16-.18,4-.36,8.01-.54,12.01-.12,2.6-.25,5.2-.31,7.8-.05,2.6.01,5.2-.01,7.8-.02,1.98-.15,3.97-.17,5.95-.02,1.61-.01,3.23.09,4.83.19,2.81.32,5.61.17,8.44-.1,1.73.07,3.47.13,5.21.07,2.23.1,4.46.23,6.69.13,2.23.31,4.45.54,6.67.19,1.85.53,3.68.73,5.53.22,2.06.32,4.13.52,6.18.13,1.35.35,2.7.53,4.04.05.37.13.74.13,1.11.04,3.33.86,6.55,1.27,9.83.22,1.79.14,3.62.2,5.4-2.47.93-4.69,1.87-6.99,2.59-3.34,1.04-6.75,1.89-10.12,2.85-1.19.34-2.36.76-3.53,1.15-2.15.72-4.31,1.43-6.46,2.18-2.06.71-4.11,1.48-6.18,2.21-1.83.65-3.67,1.26-5.5,1.91-1.32.47-2.64.95-3.94,1.49-1.86.77-3.63,1.8-5.55,2.34-1.92.54-3.56,1.71-5.5,2.12-.72.15-1.36.59-2.06.84-.49.18-1.01.25-1.64.4-.14-.87-.23-1.59-.37-2.31-.24-1.25-.51-2.5-.76-3.75-.3-1.5-.59-3-.89-4.5-.25-1.22-.53-2.42-.76-3.64-.4-2.06-.76-4.13-1.15-6.2-.1-.48-.28-.95-.4-1.43-.76-3.04-1.79-5.99-2.68-8.99-.88-2.97-1.48-6.01-1.97-9.08-.35-2.2-.83-4.39-1.39-6.54-.69-2.68-1.51-5.32-2.34-7.97-.35-1.1-.92-2.12-1.3-3.21-.83-2.38-1.62-4.76-2.39-7.15-.54-1.69-.98-3.42-1.57-5.09-1.54-4.36-3.18-8.68-4.71-13.04-.94-2.69-1.68-5.45-2.61-8.14-.59-1.72-1.38-3.36-2.06-5.05-.27-.69-.49-1.4-.72-2.11-.06-.19-.15-.48-.06-.6.56-.76.12-1.41-.17-2.09-.1-.22-.22-.48-.2-.71.14-1.72-.76-3.1-1.43-4.55-.09-.18-.18-.37-.27-.56-.22-.49-.1-.82.37-1.14.95-.65,1.83-1.4,2.76-2.08.97-.69,2-1.32,2.96-2.02,1.2-.86,2.39-1.74,3.57-2.62,1.69-1.27,3.53-2.41,5.56-3.13,1.87-.66,3.72-1.36,5.59-2.04,3.34-1.21,6.67-2.41,10.02-3.6,1.28-.46,2.57-.87,3.86-1.31,1.17-.4,2.34-.82,3.51-1.22,1.37-.46,2.74-.93,4.11-1.38,1.89-.62,3.77-1.23,5.66-1.83.43-.14.87-.23,1.31-.34,1.23-.33,2.51-.56,3.7-1.03,2.63-1.04,5.34-1.61,8.13-2,2.73-.37,5.42-1.03,8.15-1.46,2.08-.33,4.18-.59,6.28-.74,2.84-.2,5.69-.27,8.53-.4.16,0,.33.01.6.03.02.41.07.81.06,1.21h.01Zm-63.64,10.21c-1.04.42-2.27.89-3.47,1.42-1.32.58-2.67,1.12-3.91,1.85-2.52,1.49-5.01,3.04-7.44,4.67-2.16,1.45-4.21,3.04-6.31,4.57-.43.31-.89.58-1.49.97-.29-.53-.61-.95-.78-1.43-.54-1.58-1.46-2.96-2.21-4.43-1.15-2.27-2.63-4.37-3.61-6.75-.88-2.12-2.08-4.12-3.12-6.18-.63-1.25-1.23-2.53-1.8-3.81-.83-1.84-1.58-3.72-2.45-5.54-.8-1.68-1.7-3.3-2.54-4.96-.48-.96-.87-1.97-1.38-2.91-1.78-3.31-3.56-6.62-5.39-9.9-1.23-2.2-2.57-4.33-3.78-6.54-1.95-3.54-3.74-7.18-5.8-10.67-1.66-2.81-3.56-5.47-5.42-8.14-1.51-2.17-3.11-4.26-4.68-6.38-.12-.16-.29-.28-.48-.47.12-.16.2-.35.35-.48,2.68-2.32,5.37-4.63,8.05-6.95,1.57-1.35,3.28-2.49,5.05-3.56,1.72-1.04,3.24-2.4,4.86-3.61.52-.39,1.08-.73,1.62-1.08,1.11-.71,2.21-1.43,3.33-2.11.63-.38,1.32-.67,1.97-1.04,2.12-1.21,4.28-2.33,6.31-3.66,1.31-.86,2.68-1.57,4.08-2.27,1.31-.65,2.45-1.65,3.76-2.31,1.83-.94,3.71-1.79,5.61-2.56,2.71-1.1,5.46-2.12,8.21-3.15,2.05-.77,4.09-1.56,6.18-2.22,4.37-1.38,8.77-2.68,13.27-3.58,1.33-.27,2.69-.46,4.02-.76.79-.18,1.55-.51,2.33-.74.35-.1.72-.1,1.09-.14.58-.05,1.16-.03,1.73-.14,3.88-.78,7.75-1.65,11.65-2.38,2.64-.49,5.31-.87,7.98-1.15,2.59-.27,5.19-.34,7.79-.51.62-.04,1.23-.18,1.85-.2,1.44-.05,2.88-.05,4.32-.1,2.23-.08,4.47-.17,6.7-.29,3.64-.18,7.19.29,10.63,1.42,1.2.39,2.36.92,3.04,2.17.33.6.43,1.14.3,1.76-.1.52-.25,1.05-.28,1.58-.31,5.11-.59,10.22-1.11,15.32-.32,3.13-.44,6.26-.67,9.4-.11,1.44-.32,2.87-.4,4.32-.12,2.02-.11,4.05-.25,6.07-.2,3.01-.5,6.01-.73,9.02-.31,4-.61,7.99-.9,11.99-.29,3.96-.51,7.92-.9,11.87-.31,3.17-.26,6.36-.43,9.53-.15,2.76-.33,5.53-.48,8.29-.05,1.01-.05,2.03-.08,3.04-.07.02-.14.03-.22.05-.16-.22-.27-.49-.47-.64-.25-.19-.57-.4-.86-.4-3.99.17-7.99.32-11.97.61-1.3.1-2.57.6-3.85.92-.79.2-1.55.37-2.4.35-1.35-.03-2.7.31-4.05.5-.96.14-1.89.45-2.89.4-.61-.03-1.23.34-1.85.55-.11.03-.2.2-.3.21-1.55.05-2.72,1.18-4.18,1.48-.35.07-.72,0-1.08,0l-29.65,9.8v.02h-.01Z"/><path d="m235.64,285.15c.14-.18.28-.3.33-.44.25-.69.72-1.19,1.31-1.6.18-.13.33-.29.5-.44.18-.17.35-.37.56-.5.25-.15.45-.32.63-.55.12-.15.31-.25.45-.37.84-.78,1.76-1.46,2.53-2.32.39-.44.74-.91,1.17-1.32.31-.31.54-.72.78-1.1.3-.5.67-.95.87-1.52.24-.67.25-1.31.08-1.97-.27-1.11-.6-2.22-.53-3.38,0-.03.02-.06,0-.08-.28-.61-.1-1.28-.24-1.9-.12-.52-.28-1.03-.46-1.53-.14-.37-.33-.46-.72-.43-.78.08-1.57.17-2.35.25-.14.01-.28.01-.42,0-.6-.06-.8-.4-.6-.99.02-.05.05-.1.05-.13-.15-.35-.29-.68-.42-1.01-.07-.18-.16-.35-.23-.53-.05-.13-.14-.27-.13-.39.05-.59-.17-1.12-.39-1.63-.39-.91-.35-1.8-.11-2.74.05-.05.11-.12.18-.16,1.33-.58,2.64-1.23,4.14-1.33,1.12-.08,2.23-.27,3.35-.42.11-.01.22-.03.33-.05.48-.07.89.05,1.19.55-.2.58-.09,1.21-.01,1.85.07.59.2,1.13.45,1.68.21.48.27,1.02.4,1.53.1.35.27.66.27,1.04,0,.43-.14.71-.5.89-.22.11-.48.16-.72.22-.41.09-.83.13-1.2.42.26,1.49.4,3,.79,4.47.24.89.5,1.78.61,2.7.01.14.1.31.05.41-.2.42-.05.82,0,1.23.1.86-.12,1.68-.22,2.51-.01.08-.03.18-.07.24-.33.42-.44.95-.71,1.4-.27.46-.58.9-.89,1.33-.31.44-.61.87-.95,1.28-.37.45-.89.78-1.18,1.31-.05.09-.16.15-.26.21-.76.5-1.34,1.18-1.98,1.8-.4.39-.78.81-1.23,1.14-.09.06-.22.16-.22.23.04.45-.32.63-.55.89-.11.12-.18.28-.26.42-.26.43-.52.86-.78,1.29-.07.12-.16.23-.2.36-.29.88-.59,1.76-.86,2.64-.18.59-.32,1.19-.49,1.78-.13.45-.12.89,0,1.33.11.41.19.82.17,1.25,0,.16.01.34.07.5.14.37.2.76.18,1.16-.02.35.18.65.27.97.37,1.25.46,1.12,1.56,1.31.25.04.52.08.72.21.64.4,1.26.84,1.88,1.27.31.22.48.54.55.92.33,1.73-.03,3.23-1.4,4.43-.32.28-.63.56-.95.83-.42.35-.88.59-1.44.65-.7.06-1.39.18-2.1.11-.86-.09-1.63-.34-2.41-.71-.8-.38-1.48-.91-2.13-1.48-.7-.62-.83-2.36-.07-2.99.21-.18.33-.44.5-.67.14-.18.28-.35.42-.52.07-.08.19-.14.25-.22.27-.48.65-.83,1.14-1.08.22-.12.29-.33.22-.58-.09-.38-.16-.77-.24-1.15-.02-.11-.03-.23-.1-.32-.4-.66-.54-1.41-.71-2.12-.82-.52-1.61-1.01-2.39-1.51-.46-.29-.99-.4-1.51-.51-.77-.16-1.54-.31-2.31-.48-1.2-.25-2.27-.82-3.32-1.42-1.28-.73-2.35-1.73-3.39-2.76-.38-.37-.69-.8-.89-1.32-.12-.31-.3-.61-.5-.88-.23-.33-.48-.63-.44-1.06,0-.03,0-.06-.02-.08-.41-.55-.49-1.25-.82-1.84-.15-.27-.28-.55-.37-.84-.19-.59-.34-1.18-.52-1.78-.13-.43-.1-.9-.23-1.31s-.1-.82-.13-1.27c-.25-.06-.5-.11-.74-.18-.16-.04-.33-.07-.48-.16-.92-.57-1.59-1.33-1.89-2.38-.05-.18-.06-.4-.02-.59.16-.82.27-1.65.65-2.43.21-.43.5-.76.89-.98.99-.56,2.03-.76,3.16-.42.6.18,1.14.48,1.69.74.49.23.67.73.78,1.24.02.11-.04.25.01.33.21.31.36.63.25,1.02-.21.75-.31,1.55-.88,2.15-.17.18-.35.35-.52.52,0,.08-.03.16-.01.19.29.51.27,1.07.31,1.63.03.42.08.84.12,1.25.03.31.08.61.29.86.1.12.15.31.18.47.12.71.53,1.29.77,1.95.1.29.33.52.48.79.14.24.27.48.42.72.08.14.18.28.29.41.12.15.32.27.4.44.22.5.65.76,1.06,1.05.34.25.68.5,1.02.74.02.01.04.04.07.05,1.08.4,1.95,1.21,3.09,1.49.54.14,1.06.42,1.61.48.52.06,1.06-.07,1.59-.13.3-.03.6-.09.93-.14.02-.42,0-.8-.09-1.18-.15-.66-.27-1.32-.4-1.98-.18-.85-.37-1.7-.54-2.55-.11-.54-.16-1.1-.3-1.64-.25-.98-.48-1.95-.49-2.98,0-.11-.04-.22-.08-.33-.04-.1-.12-.2-.14-.31-.16-1.11-.63-2.15-.74-3.27-.01-.14-.04-.28-.1-.4-.18-.45-.25-.9-.26-1.4-.01-.52-.19-1.04-.3-1.56-.04-.19-.13-.38-.12-.57.02-.44-.1-.84-.26-1.23-.21-.5-.32-1.02-.4-1.53-.12-.72-.27-1.42-.37-2.14-.09-.55-.23-1.09-.4-1.63-.2-.61-.35-1.23-.52-1.85-.01-.05,0-.12-.02-.16-.35-.5-.36-1.11-.44-1.67-.16-1.08-.44-2.14-.46-3.23,0-.14-.03-.29-.1-.4-.27-.42-.37-.89-.41-1.36-.07-.79-.35-1.52-.61-2.31-.45.02-.88.12-1.29.3-.33.14-.65.32-.98.48-.35.18-.69.34-1.12.25-.26-.05-.55.05-.82.1-.46.08-.76-.12-.93-.54-.03-.07-.05-.16-.08-.28.37-.56.48-1.29.95-1.83.02-.02.03-.05.04-.07.42-1.07.89-2.12,1.16-3.23.2-.82.53-1.59.62-2.44.12-1.17.29-2.34.43-3.51.03-.22,0-.45-.01-.67-.01-.36-.07-.72.2-1.04.16-.19.07-.41-.05-.62-.35-.55-.29-.84.2-1.2.49-.36.82-.37,1.38-.03.05.03.09.07.14.1.56.17.91.52,1.05,1.1.54.71.76,1.63,1.44,2.25.1.1.2.21.24.34.17.61.64,1.04.97,1.55.26.4.61.69.97,1,.33.29.6.67,1,.89.12.07.25.16.31.28.23.55.78.76,1.19,1.12.22.2.54.29.81.43.15.08.33.1.46.2.31.25.6.52.47.99-.03.13-.01.28-.02.4-.23.29-.51.45-.88.44-.4-.01-.75.14-1.11.33-.54.28-1.12.5-1.69.74-.36.16-.44.27-.38.64.07.44.17.88.26,1.32.09.44.24.87.25,1.31.03.87.31,1.7.43,2.55.12.83.18,1.68.42,2.49.39,1.3.4,2.66.71,3.97.24,1.01.49,2,.83,2.98.1.27.16.54.19.82.12.91.35,1.8.55,2.7.21.93.54,1.83.54,2.8,0,.27.08.55.14.81.16.68.27,1.37.43,2.04.16.65.26,1.32.46,1.97.1.32.14.67.14,1,0,.4.07.79.25,1.14.18.33.22.69.29,1.05.15.8.15,1.62.43,2.4.06.17.03.39.02.58-.01.29.02.55.31.89l-.03.05Z"/><path d="m170.33,181.13c-1.23-2.35-2.45-4.71-3.71-7.05-.27-.49-.74-.88-1.04-1.35-.84-1.34-1.64-2.7-2.49-4.04-.22-.36-.61-.65-.81-1.01-.31-.57-.6-1.16-.76-1.78-.06-.25.22-.63.4-.95.12-.21.42-.42.46-.62.45-1.78,2.45-2.5,4.47-3.28.97-.37,1.89-.92,2.79-1.44.76-.44,1.44-.98,2.19-1.44.88-.54,1.76-1.16,2.72-1.52,2.32-.85,4.29-2.06,6.23-3.33.84-.55,1.68-.99,2.64-1.35.9-.34,1.76-.8,2.66-1.09,1.04-.33,2.1-.56,3.15-.74.74-.12,1.45.44,1.49.95.08,1.03.13,2.07.29,3.07.16,1.01.41,2,.7,2.98.37,1.22.83,2.4,1.25,3.6.67,1.95,1.33,3.9,2,5.84.11.31.18.63.38.9.77,1.04.91,2.29,1.24,3.49.35,1.29.88,2.53,1.29,3.81.29.86.59,1.73.76,2.64.19,1.05.63,1.99,1.27,2.85.16.21.27.46.4.68-.14.76-.14.36-.86.95-.74.61-1.33.93-2,1.2-.72.2-1.06.08-1.68.33-1.83.73-3.68,1.4-5.5,2.16-.91.38-1.78.87-2.62,1.37-2.38,1.42-4.76,2.85-7.11,4.3-1,.62-1.73.82-2.7.61-.5-.12-1-.23-1.52-.31-.72-.12-.99-.52-1.24-.96-1.21-2.08-2.49-4.11-3.64-6.22-.54-1.01-.84-2.12-1.26-3.19.04-.02.07-.03.12-.05v.02Zm21-13.01c.17-.8-.33-1.38-.54-2.05-.37-1.15-.8-2.28-1.16-3.44-.6-1.93-1.22-3.85-1.74-5.8-.27-1.04-.4-2.12-1.08-3.04-.31.09-.58.13-.8.24-.95.45-1.89.91-2.83,1.37-.52.25-1.12.46-1.57.76-1.79,1.2-3.77,2.11-5.76,3.09-2.26,1.12-4.24,2.66-6.65,4.21.88-.05,1.38-.13,1.83-.11.41.01.91.04,1.11.22.54.48,1.05,1.01,1.39,1.61.61,1.06,1.08,2.17,1.61,3.26.19.4.51.67,1.17.75,1.44.16,2.25.82,2.79,1.7.47.75,1.03,1.46,1.57,2.18.27.35.68.34,1.36,0,1.07-.54,1.97-1.14,2.49-2,.59.01,1.1.03,1.4.04.66-.3,1.14-.62,1.57-.69,1.95-.31,4,.63,4.26,1.91.09.44.42.25.87.07,0-.38.01-.76,0-1.13"/><path d="m221.97,161.31c-.49-2.53-.97-5.07-1.49-7.59-.11-.53-.44-1.03-.58-1.55-.42-1.48-.78-2.98-1.19-4.45-.11-.4-.38-.77-.47-1.17-.14-.62-.24-1.25-.21-1.87,0-.25.37-.52.62-.77.16-.16.49-.28.59-.45.89-1.54,2.9-1.65,4.96-1.81.99-.08,1.98-.33,2.93-.56.82-.2,1.57-.51,2.38-.74.95-.26,1.91-.6,2.89-.67,2.34-.16,4.47-.74,6.57-1.38.91-.28,1.8-.46,2.77-.54.91-.07,1.82-.27,2.72-.28,1.04-.02,2.07.05,3.07.18.71.09,1.21.8,1.1,1.31-.2.98-.44,1.96-.55,2.95-.12.99-.16,1.98-.16,2.97.01,1.23.12,2.46.18,3.7.09,2,.17,4,.27,5.99.01.32,0,.65.11.95.42,1.18.22,2.39.2,3.6-.02,1.31.12,2.6.16,3.9.03.89.07,1.78-.01,2.67-.1,1.03.04,2.03.4,3.01.09.25.12.5.18.75-.33.66-.23.3-1.04.65-.84.36-1.46.49-2.15.57-.7-.01-.99-.22-1.62-.16-1.87.17-3.73.29-5.59.49-.93.1-1.86.32-2.75.55-2.55.66-5.11,1.34-7.64,2.05-1.08.3-1.8.29-2.62-.18-.43-.25-.85-.49-1.3-.71-.63-.31-.76-.76-.88-1.24-.55-2.27-1.17-4.52-1.66-6.8-.23-1.09-.2-2.21-.29-3.32.04,0,.08-.01.12-.02h-.01Zm22.64-6.33c.37-.7.07-1.38.05-2.06-.03-1.18-.12-2.35-.14-3.52-.03-1.96-.08-3.92-.03-5.89.03-1.04.2-2.09-.18-3.13-.31,0-.56-.04-.8,0-.99.16-1.96.33-2.95.5-.54.09-1.14.12-1.64.27-1.95.62-4,.93-6.08,1.29-2.36.42-4.58,1.3-7.19,2.08.82.19,1.29.27,1.7.41.37.13.82.29.95.51.37.61.69,1.23.84,1.88.27,1.15.41,2.32.59,3.48.07.42.29.77.87,1.02,1.27.55,1.83,1.39,2.1,2.36.23.83.54,1.65.86,2.46.15.4.53.5,1.25.37,1.12-.2,2.1-.52,2.81-1.18.53.18.99.33,1.27.43.68-.1,1.21-.27,1.62-.2,1.86.26,3.48,1.69,3.38,2.96-.03.43.32.35.78.31.11-.35.21-.7.31-1.05"/><path d="m193.7,206.99c.96-.86,1.57-1.81,2.6-2.43.55-.33.76-.82.62-1.39-.05-.22-.06-.45-.12-.67-.02-.09-.1-.16-.14-.23-.91-.31-1.61.14-2.27.67-.36.29-.68.64-1.01.96-1.05,1.02-2.12,2-3.34,2.87-1.24.89-2.54,1.67-3.85,2.45-.22.13-.47.2-.69.32-.62.31-1.04.76-1.2,1.4-.13.52.05.92.48,1.19.42.25.9.35,1.42.12.03-.01.07-.03.1-.05.64-.54,1.4-.58,2.15-.51.59.05,1.16-.05,1.7-.26.3-.12.54-.15.83-.1.75.14,1.51.27,2.25.44.33.08.63.26.93.41.46.23.89.48,1.35.71,1.41.7,2.97,1.12,4.52,1.51,1.59.4,3.15.91,4.82,1.07,1.17.12,2.34.26,3.52.3.67.03,1.38-.05,2.04-.19.9-.2,1.8-.18,2.69-.34,1.04-.18,2.08-.32,3.11-.59,1.66-.42,3.29-.99,4.9-1.61,2.02-.77,4.05-1.5,6.07-2.27,2.09-.8,4.05-1.8,5.84-3.13,1.01-.76,2.04-1.5,2.98-2.32,1.17-1.04,2.38-2.06,3.4-3.26.99-1.16,1.91-2.36,2.91-3.5.55-.63.99-1.36,1.46-2.04.36-.52.67-1.06,1.05-1.56.43-.56.33-1.14.31-1.72,0-.15-.21-.34-.38-.4-.61-.2-1.21-.09-1.73.33-.37.3-.61.67-.81,1.08-.31.65-.66,1.29-1.04,1.91-.48.78-1.18,1.38-1.93,1.96-.97.75-2.08,1.31-3.02,2.09-.52.43-1.16.74-1.74,1.12-.36.24-.71.5-1.06.75-.14.1-.29.26-.44.29-.54.12-.88.49-1.28.8-1.42,1.06-2.83,2.11-4.26,3.15-.23.16-.52.27-.78.38-.53.24-1.06.48-1.61.7-.3.12-.62.22-.93.32-.63.2-1.25.4-1.87.61-.35.12-.69.22-1.04.35-.38.13-.75.29-1.13.41-.55.18-1.11.34-1.67.5-.49.14-.98.3-1.48.37-1.21.18-2.43.32-3.65.49-.61.08-1.22.22-1.83.28-1.62.14-3.24.46-4.86.46-.43,0-.84-.12-1.27-.16-.39-.05-.78-.08-1.16-.12-.25-.03-.49-.06-.73-.1-.42-.08-.82-.18-1.24-.26-.9-.17-1.8-.33-2.69-.51-.17-.03-.35-.08-.5-.15-.78-.35-1.55-.72-2.32-1.07-1.04-.46-1.91-1.14-2.96-1.8v-.02Z"/><polygon points="225.67 144.52 225.67 168.36 236.95 169.49 243.91 163.54 245.88 163.66 241.12 143.91 225.67 144.52 225.67 144.52 225.67 144.52"/><polygon points="168.89 164.02 176.44 186.63 187.49 184.15 192.22 176.28 194.13 175.78 183.9 158.89 168.89 164.02 168.89 164.02 168.89 164.02"/><path class="cls-1" d="m183.9,175.92c0,1.5-1.22,2.72-2.72,2.72s-2.72-1.22-2.72-2.72c0-1.5,1.22-2.72,2.72-2.72s2.72,1.22,2.72,2.72h0Z"/><path class="cls-1" d="m235.67,158.89c0,1.88-1.52,3.4-3.41,3.4s-3.41-1.52-3.41-3.4,1.52-3.4,3.41-3.4,3.41,1.52,3.41,3.4h0Z"/></g></svg>
