<?xml version="1.0" encoding="UTF-8"?><svg id="Layer_2" xmlns="http://www.w3.org/2000/svg" viewBox="0 0 280.86 277.91"><defs><style>.cls-1{fill:#fff;}.cls-2{fill:#f2f2f3;}</style></defs><g id="Layer_1-2"><path class="cls-1" d="m229.7,71.41l12.61,10.57,8.21,3.18,3.08.53,5.3-2.11,5.04-3.05,3.91-4.37.72,1.8-.35,1.91-3.87,4.45-4.16,2.89-8.51,3.96s-4.6,1.85-4.83,1.93c-.23.07-5.47.39-5.47.39,0,0-7.73-2.63-8.39-2.72-.65-.09-7.51-4.19-7.63-4.51s-4.95-4.08-4.95-4.08l9.27-10.76h0Z"/><path d="m256.47,90.61c-.43.14-.72.21-.99.33-2.09.81-4.17,1.65-6.27,2.45-2.29.88-4.65,1.32-7.07,1.19-1.26-.07-2.51-.22-3.75-.44-.75-.13-1.48-.45-2.19-.73-3.42-1.31-6.59-3.05-9.63-5.01-.53-.34-1.06-.73-1.49-1.18-.91-.95-2.01-1.66-3.13-2.36-.57-.35-1.09-.8-1.57-1.27-.47-.46-.43-.95.05-1.44.21-.21.47-.38.77-.61.31.15.63.26.9.44,1.17.77,2.33,1.56,3.47,2.36.51.36,1,.75,1.43,1.22.43.48,1.08.79,1.65,1.14.53.34,1.15.57,1.54,1.09.05.07.13.11.2.15,1.09.56,2.17,1.15,3.29,1.67,1.28.59,2.6,1.08,3.89,1.64,1.88.81,3.9,1.03,5.95,1.11,1.87.07,3.64-.31,5.35-1.09.96-.44,1.93-.86,2.9-1.25.57-.23,1.17-.39,1.75-.58,2.39-.79,4.65-1.87,6.86-3.05.19-.1.38-.23.55-.35,1.51-1.06,2.91-2.26,4.2-3.56.74-.75,1.26-1.65,1.69-2.59.27-.58.47-1.19.7-1.78,0-.03-.03-.07-.05-.1-.33-.02-.41.26-.57.45-.49.61-1.02,1.19-1.47,1.82-.79,1.11-1.95,1.72-3.09,2.38-.53.31-1.06.62-1.59.93-2.73,1.59-5.63,2.65-8.79,2.94-.97.09-1.91-.13-2.84-.31-.97-.19-1.89-.52-2.73-1.08-.7-.47-1.53-.77-2.29-1.15-.57-.29-1.13-.6-1.68-.91-.96-.55-1.92-1.1-2.87-1.67-1.53-.91-2.99-1.93-4.26-3.17-.42-.41-.89-.77-1.32-1.18-.67-.63-1.36-1.26-1.99-1.93-.98-1.04-1.93-2.11-3.18-2.87-.45-.27-.63-.69-.52-1.18.17-.82,1.09-1.37,1.93-1.14.37.1.72.28,1.03.49.75.51,2.49,2.39,3.09,3.26.07.1.14.21.23.29.8.67,1.71,1.25,2.39,2.03.93,1.05,2.04,1.85,3.18,2.65.52.37,1.04.71,1.62.99.27.13.54.27.78.43,1.37.94,2.84,1.7,4.34,2.43.53.26,1.01.63,1.55.87,1.62.71,3.29,1.16,5.2.73.07-.64-.17-1.14-.39-1.6-1.01-2.11-1.37-4.37-1.41-6.7,0-.13,0-.25-.01-.38-.37-2.53.24-4.93,1.2-7.3.15-.36.3-.71.42-1.07,1.05-3.22,3.19-5.67,6-7.61.77-.53,1.63-.86,2.55-1.03.58-.11,1.13-.07,1.61.29,1.22.9,2.41,1.81,3.43,2.95.85.95,1.48,2.01,2.26,2.99.58.73.87,1.61,1.05,2.53.27,1.39.51,2.8.81,4.19.29,1.31.05,2.59-.35,3.85-.24.77-.53,1.53-.84,2.28-.66,1.57-1.25,3.17-2.13,4.66-.67,1.13-1.62,2.03-2.55,2.95-.18.18-.36.36-.56.55.54,1.52.97,3.05,1.63,4.47,1.01,2.21,2.25,4.29,4.35,5.73.42.29.82.61,1.18.96.96.96,2.09,1.71,3.24,2.43,1.36.87,2.72,1.74,4.09,2.59.39.25.84.41,1.25.65.42.23.47.47.27.95-.31.75-.67,1.46-1.25,2.09-.38.4-.63.93-.87,1.43-.53,1.1-1.31,2.03-2.12,2.93-.09.1-.17.21-.27.29-.94.73-1.19.69-1.98.18-1.13-.75-2.24-1.53-3.24-2.45-1.55-1.43-3.19-2.76-4.77-4.16-.63-.56-1.21-1.17-1.79-1.77-.81-.85-1.65-1.69-2.39-2.59-.9-1.1-1.79-2.22-2.39-3.53-.21-.45-.48-.89-.8-1.27-.98-1.16-1.77-2.43-2.4-3.95h0Zm10.81-24.3c-.87-1.42-1.69-2.57-2.71-3.57-.59-.59-1.33-1.05-2-1.55-.65-.49-1.34-.54-2.04-.02-.67.49-1.38.95-1.97,1.53-.68.67-1.36,1.39-1.83,2.19-.47.79-.93,1.61-1.14,2.55-.22.99-.7,1.93-.95,2.91-.29,1.1-.57,2.2-.45,3.35.12,1.21.14,2.43.22,3.64.03.53.05,1.09.2,1.59.33,1.11.77,2.2,1.13,3.3.15.43.19.89.47,1.23,1.57-.29,3.14-1.07,3.91-1.9-.27-1.6-.56-3.16-.79-4.73-.25-1.67-.26-3.33-.01-5.03.21-1.43.82-2.67,1.77-3.79.98-1.15,2.22-1.81,3.77-1.84.35,0,.7-.05,1.05-.03.38.02.76.1,1.38.19h0Zm11.37,37.55c-1.37-.83-2.67-1.64-3.98-2.41-1.43-.84-2.82-1.73-4.07-2.82-.89-.77-1.83-1.49-2.73-2.25-.65-.55-1.19-1.17-1.71-1.83-.61-.77-.92-1.68-1.38-2.51-.65-1.17-1.22-2.37-1.59-3.67-.09-.31-.26-.59-.39-.88-1.34.48-3.61,1.77-4.27,2.43.31.83.63,1.69,1.29,2.36.69.7,1.12,1.55,1.64,2.36.59.91,1.18,1.82,1.79,2.72.33.48.65.97,1.04,1.41.44.5.93.96,1.41,1.43.72.71,1.43,1.43,2.17,2.11.43.4.95.71,1.39,1.1,1.32,1.18,2.61,2.38,3.91,3.58.69.63,1.48,1.11,2.38,1.49.19-.15.41-.25.51-.41.85-1.35,1.67-2.7,2.58-4.17h0Zm-16.46-23.41c.75-.17,1.19-.47,1.57-.92.55-.67,1.1-1.35,1.69-1.99,1.39-1.51,1.97-3.3,2.17-5.23.14-1.34-.28-2.45-1.19-3.43-.55-.59-1.2-.8-1.97-.65-1.07.21-2.03.61-2.45,1.72-.17.44-.46.86-.51,1.3-.21,1.7-.71,3.41-.15,5.11.09.27.11.58.09.87-.04.57.16,1.07.31,1.58.15.51.27,1.03.43,1.64h0Z"/><path d="m246.08,90.28c-.25.02-.47.05-.67.05-.33-.01-.52-.31-.43-.61.16-.53.53-.88,1.09-.97.21-.03.49.09.67.24.21.18.16.47-.02.68-.19.22-.42.41-.63.61h0Z"/><path d="m239.58,87.89c.05-.72.42-1.19,1.15-1.33.18-.03.48.05.56.17.11.18.16.48.09.69-.16.45-1,.81-1.51.69-.11-.03-.19-.15-.29-.23h0Z"/><path d="m230.72,82.17c-.64.25-1.05.21-1.17-.07-.16-.41.04-.74.35-1,.15-.13.39-.26.56-.23.35.05.64.25.72.61.03.13-.07.33-.16.45-.09.13-.26.21-.3.24h0Z"/><path d="m235.28,85.5c-.17.02-.38.07-.59.07-.33,0-.53-.3-.43-.6.15-.43.41-.73.9-.8.32-.05.65.1.75.34.1.24,0,.6-.25.78-.1.07-.22.13-.37.21h0Z"/><path d="m253.75,88.14c-.11.37-.16.64-.28.89-.13.27-.4.28-.66.22-.21-.05-.31-.31-.21-.49.23-.39.58-.56,1.15-.62h0Z"/><path class="cls-1" d="m267.29,66.31c-.62-.09-.99-.17-1.38-.19-.35-.02-.7.03-1.05.03-1.55.03-2.79.69-3.77,1.84-.95,1.11-1.56,2.35-1.77,3.79-.25,1.69-.23,3.37.01,5.03.23,1.57.52,3.13.79,4.73-.78.83-2.35,1.61-3.91,1.9-.27-.35-.32-.81-.47-1.23-.37-1.1-.8-2.19-1.13-3.3-.15-.5-.16-1.05-.2-1.59-.08-1.21-.1-2.43-.22-3.64-.11-1.15.17-2.25.45-3.35.25-.98.73-1.92.95-2.91.21-.93.67-1.75,1.14-2.55.47-.8,1.15-1.52,1.83-2.19.59-.57,1.3-1.03,1.97-1.53.7-.52,1.39-.47,2.04.02.67.51,1.41.97,2,1.55,1.02,1,1.85,2.15,2.71,3.57h0Zm-10.53,7.87c-.11.1-.39.31-.61.57-.2.23-.16.65.03.82.23.21.54.33.83.16.29-.17.56-.41.79-.66.2-.21.17-.64,0-.82-.17-.19-.57-.25-1.04-.07h0Zm1.04-6.95c-.47.19-.85.45-.91,1-.04.39.37.77.75.63.49-.19.97-.45,1.12-.99.05-.17,0-.45-.13-.57-.12-.12-.38-.11-.59-.14-.08,0-.17.05-.25.07h0Zm4.2-3.6c-.17.1-.36.19-.53.32-.35.25-.49.61-.37.86.13.26.52.42.87.37.55-.07.94-.46,1.03-.99.05-.35-.24-.66-.59-.63-.13.01-.25.05-.41.07h0Zm-4.17,17.2c.09-.05.28-.15.45-.29.23-.19.29-.58.15-.81-.16-.24-.43-.29-.68-.22-.24.07-.49.19-.68.34-.37.28-.47.73-.3,1,.13.21.49.21,1.07-.02h0Z"/><path class="cls-1" d="m278.66,103.86c-.91,1.48-1.73,2.83-2.58,4.17-.11.17-.33.27-.51.41-.91-.38-1.69-.85-2.38-1.49-1.3-1.2-2.6-2.39-3.91-3.58-.44-.39-.96-.7-1.39-1.1-.75-.68-1.45-1.4-2.17-2.11-.48-.47-.97-.93-1.41-1.43-.38-.44-.71-.93-1.04-1.41-.61-.9-1.2-1.81-1.79-2.72-.52-.81-.95-1.66-1.64-2.36-.66-.67-.98-1.53-1.29-2.36.66-.66,2.93-1.95,4.27-2.43.13.29.3.57.39.88.37,1.29.94,2.49,1.59,3.67.46.84.77,1.74,1.38,2.51.52.66,1.07,1.29,1.71,1.83.9.76,1.85,1.48,2.73,2.25,1.25,1.09,2.64,1.98,4.07,2.82,1.31.77,2.61,1.58,3.98,2.41h0Zm-4.43,1.69c.28.05.44.12.61.11.52-.03.91-.29,1.12-.74.21-.45-.03-.8-.35-1.09-.17-.16-.39-.27-.59-.41-.92.52-.71,1.31-.78,2.13h0Zm-11.77-12.8c.13-.09.33-.19.47-.35.26-.27.27-.68.05-.91-.18-.2-.53-.27-.83-.1-.26.15-.51.33-.73.53-.19.17-.39.43-.19.65.15.16.42.24.65.29.15.03.33-.07.56-.11h0Zm3.83,5.55c.15-.18.38-.38.5-.62.12-.23.05-.53-.2-.65-.17-.08-.45-.1-.59,0-.28.18-.53.43-.73.69-.22.29.05.71.41.69.17-.01.33-.05.6-.1h0Zm3.82,3.41c.11-.07.23-.13.33-.21.3-.23.37-.74.15-1.01-.15-.17-.51-.17-.82.07-.2.15-.37.35-.51.55-.19.31.1.69.47.65.13-.01.25-.05.37-.07h0Z"/><path d="m256.76,74.18c.47-.19.87-.12,1.04.07.17.18.2.61,0,.82-.23.25-.49.49-.79.66-.29.17-.6.05-.83-.16-.19-.17-.23-.59-.03-.82.22-.25.5-.47.61-.57h0Z"/><path d="m257.8,67.24c.09-.03.17-.09.25-.07.21.03.47.02.59.14.12.12.18.39.13.57-.15.54-.63.81-1.12.99-.37.15-.78-.24-.75-.63.05-.55.43-.81.91-1h0Z"/><path d="m262,63.64c.15-.03.28-.06.41-.07.35-.03.65.29.59.63-.09.53-.48.92-1.03.99-.35.05-.74-.11-.87-.37-.13-.24.02-.61.37-.86.17-.13.37-.22.53-.32h0Z"/><path d="m257.83,80.84c-.58.23-.93.23-1.07.02-.17-.27-.07-.71.3-1,.2-.15.44-.28.68-.34.25-.07.52-.02.68.22.15.22.08.61-.15.81-.17.13-.36.23-.45.29h0Z"/><path d="m274.22,105.54c.07-.83-.15-1.61.78-2.13.2.13.42.25.59.41.32.29.57.64.35,1.09-.21.46-.6.72-1.12.74-.16,0-.32-.06-.61-.11h0Z"/><path d="m262.45,92.75c-.23.05-.41.15-.56.11-.23-.05-.51-.13-.65-.29-.2-.22,0-.48.19-.65.22-.2.47-.38.73-.53.29-.17.64-.1.83.1.21.23.2.65-.05.91-.14.15-.34.25-.47.35h0Z"/><path d="m266.29,98.29c-.27.05-.43.09-.6.1-.37.02-.63-.39-.41-.69.19-.27.45-.51.73-.69.14-.09.43-.07.59,0,.25.12.31.41.2.65-.13.25-.35.45-.5.62h0Z"/><path d="m270.11,101.71c-.12.03-.25.06-.37.07-.37.04-.66-.35-.47-.65.13-.21.31-.41.51-.55.31-.23.67-.25.82-.07.23.27.16.77-.15,1.01-.1.08-.22.13-.33.21h0Z"/><path class="cls-1" d="m199.43,50.05s-4.96-6.85-5.55-7.58c-.59-.73-20.27-22.56-20.48-22.64-.21-.08-21.46-12.33-21.67-12.68-.21-.35-15.48-5.42-15.48-5.42l-4.33,4.97-4.24,8.89-2.45,11.22-.47,5.85,2.09.57,5.04.54,18.92,6.25,16.26,7.17,12.02,7.59,9.57,7.24,4.01,3.28,6.78-15.22v-.02h0Z"/><path d="m199.07,50.97c-.05-.09-1.01-1.13-1.07-1.22-.97-1.28-1.71-2.71-2.82-3.91-.28-.31-.51-.67-.73-1.02-1.21-1.93-2.53-3.77-4.05-5.49-1.23-1.39-2.43-2.82-3.81-4.09-.65-.6-1.23-1.26-1.84-1.89-.12-.13-.23-.27-.36-.39-1.37-1.14-2.5-2.49-3.7-3.77-1.29-1.39-2.57-2.81-4.01-4.07-.58-.51-1.09-1.11-1.62-1.67-.97-1.02-2.01-1.98-3.05-2.93-1.27-1.16-2.68-2.1-4.11-3.04-.42-.27-.83-.56-1.21-.88-.87-.73-1.8-1.39-2.81-1.93-1.32-.71-2.61-1.49-3.93-2.18-.73-.38-1.49-.69-2.17-1.17-.32-.22-.69-.37-1.05-.53-2.03-.91-4.05-1.85-6.09-2.73-1.15-.49-2.35-.91-3.53-1.33-1.19-.43-2.35-.87-3.45-1.49-.55-.31-1.17-.55-1.77-.77-1.69-.62-3.39-1.19-5.23-1.28-.69-.03-1.19.15-1.55.7-.27.41-.58.79-.78,1.23-.43.95-1.02,1.8-1.67,2.62-.57.71-1.04,1.47-1.27,2.36-.06.23-.17.45-.26.67-.46,1.11-.92,2.23-1.38,3.34-.03.07-.04.13-.08.19-.73,1.16-1.05,2.46-1.41,3.75-.32,1.15-.79,2.27-1.04,3.45-.22,1.07-.49,2.14-.67,3.22-.11.67-.12,1.36-.18,2.03-.09,1.03-.37,2.02-.52,3.04-.06.41-.1.82-.07,1.23.05.66.23.85.92.95.86.11,1.73.18,2.59.21.91.03,1.8.09,2.65.47.29.13.63.15.95.22.35.08.7.17,1.05.25.38.1.77.2,1.15.31.55.15,1.1.37,1.67.45,1.23.17,2.32.75,3.53.96.63.11,1.23.4,1.84.61,1.05.36,2.12.69,3.16,1.08,1.11.41,2.22.84,3.3,1.32.53.23,1.03.47,1.59.64.75.23,1.47.57,2.21.85,1.31.51,2.64.95,3.91,1.53,3.07,1.38,6.22,2.61,9.15,4.27,1.37.77,2.73,1.55,4.1,2.34.99.57,1.95,1.21,2.97,1.71.8.39,1.6.79,2.38,1.23.31.17.62.35.91.55,1.25.83,2.49,1.67,3.72,2.51.44.3.87.62,1.3.93.31.23.6.51.95.69,1.03.54,1.87,1.29,2.67,2.09.3.3.65.55.97.83.49.41.97.83,1.45,1.24.13.11.24.27.39.35.81.43,1.35,1.13,1.97,1.76.86.88,1.68,1.79,2.67,2.55.57.43,1.07.92,1.61,1.39.31.27.51.59.36,1.01-.16.45-.55.61-.98.71-.13.03-.29-.02-.41-.08-.22-.11-.45-.24-.63-.4-1.13-.96-2.35-1.83-3.31-2.98-.45-.54-.97-1.03-1.47-1.52-.27-.27-.59-.51-.89-.76-.43-.36-.87-.72-1.31-1.07-.5-.4-1.01-.77-1.5-1.18-.63-.52-1.23-1.07-1.84-1.6-.13-.11-.26-.25-.41-.34-1.57-1.04-3.2-2.02-4.72-3.12-1.74-1.25-3.64-2.25-5.47-3.37-.88-.54-1.86-.93-2.73-1.48-1.82-1.14-3.8-2-5.66-3.07-1.15-.66-2.35-1.21-3.61-1.66-.71-.25-1.39-.59-2.09-.87-1.63-.65-3.28-1.28-4.91-1.93-.97-.39-1.94-.77-2.88-1.21-.88-.41-1.8-.73-2.72-1.04-1.6-.54-3.2-1.1-4.78-1.69-1.76-.65-3.56-1.14-5.39-1.57-1.3-.31-2.58-.67-3.87-1.04-1.33-.38-2.65-.68-4.05-.66-1.01,0-2.02,0-3.03-.02-1.08-.01-1.58-.55-1.43-1.59.13-.86.13-1.71,0-2.56-.09-.58-.07-1.15.09-1.73.35-1.37.54-2.77.57-4.17.03-1.32.29-2.59.65-3.85.09-.3.16-.59.24-.89.19-.73.37-1.45.69-2.15.37-.85.59-1.76.82-2.65.18-.67.4-1.31.87-1.85.25-.28.32-.61.33-.95.02-.53.24-.99.49-1.45.39-.73.76-1.47,1.08-2.23.39-.93.89-1.78,1.53-2.58.73-.93,1.42-1.89,1.93-2.96.36-.76.92-1.39,1.52-1.98.38-.38.91-.55,1.42-.71.33-.1.67-.04.89.23.41.51.99.67,1.59.81.49.12.98.24,1.48.33,1.93.36,3.69,1.16,5.45,1.95.59.27,1.19.5,1.79.75,1.03.42,2.13.69,3.1,1.23.18.1.42.1.62.17.4.15.79.32,1.18.51.19.09.35.27.55.33,1.27.34,2.33,1.11,3.54,1.55.95.34,1.83.81,2.69,1.33.82.49,1.73.85,2.6,1.29.35.17.68.39,1.01.59.21.13.43.25.65.37.47.27.93.53,1.39.79.15.09.28.22.44.3,1.27.63,2.29,1.56,3.41,2.38.43.31.89.59,1.34.88,1.31.82,2.49,1.77,3.62,2.8,2.65,2.41,5.11,4.98,7.55,7.56,1.29,1.35,2.52,2.76,3.81,4.11,1.19,1.25,2.45,2.44,3.65,3.69.71.73,1.36,1.52,2.04,2.28.59.65,1.21,1.29,1.75,1.97.88,1.09,1.76,2.19,2.57,3.33,1.51,2.11,4.03,5.63,5.49,7.77l-1.1,1.64h0Z"/><path d="m165.42,41.34c.03-.73.36-1.07,1.19-1.31.47-.14.91-.13,1.33.11.47.27.9.57,1.09,1.09.16.45.39.49-.21,1.22-.21.23-.34.53-.51.8-.05.09-.08.18-.12.27-.41.87-1.37.97-2.01.21-.19-.23-.35-.49-.46-.75-.23-.52-.33-1.07-.31-1.64h0Z"/><path d="m139.36,9.64c.07,0,.15,0,.21.02,1.57.23,1.85.68,1.96,2.1.06.77-.27,1.48-.56,2.17-.21.49-.71.77-1.29.8-.35.02-.72-.02-1.07-.08-.31-.06-.61-.2-.93-.28-.82-.2-1.37-.59-1.32-1.49.01-.23-.12-.47-.15-.7-.03-.27-.07-.55-.04-.81.12-1.11.51-1.49,1.67-1.65.49-.07,1-.09,1.49-.13v.06h0Z"/><path d="m135.28,27.03c0,.07,0,.25-.03.41-.15.79-.58,1.2-1.41,1.34-.65.11-1.29.05-1.92-.14-1.31-.4-1.97-1.82-1.35-2.98.19-.37.36-.74.56-1.1.57-1.04,1.94-1.14,2.73-.75.61.31,1,.88,1.25,1.51.21.52.27,1.07.18,1.71h0Z"/><path d="m182.23,36.55c-.08.49-.31.99-.68,1.41-.45.52-1.37.54-2,.05-.32-.25-.61-.54-.88-.85-.35-.41-.42-.91-.18-1.37.22-.43.51-.84.81-1.23.19-.25.48-.38.79-.48.55-.17.99-.06,1.36.39.48.59.85,1.23.78,2.07h0Z"/><path d="m146.75,14.04c.13-1.24.47-1.55,1.77-1.55.43,0,.85.1,1.27.17.55.09.89.45,1.06.93.11.32.19.66.24,1,.09.67-.16,1.19-.77,1.57-.58.35-1.14.69-1.89.61-.47-.05-.83-.23-1.08-.59-.45-.65-.71-1.35-.6-2.13h0Z"/><path d="m172.92,29.21c.14.01.29.02.43.03.11.01.21.03.31.07.47.17,1.16,1.55,1.01,2.02-.04.13-.09.26-.16.38-.64,1.15-1.74,1.59-3.05.8-.77-.46-1.11-1.15-1.11-1.99,0-.63.35-1.04.97-1.16.52-.1,1.06-.14,1.59-.21,0,.02,0,.04.01.05h0Z"/><path d="m190.14,43.27c-.2.39-.42.89-.71,1.35-.09.15-.36.27-.55.27-.39,0-.81-.01-1.15-.17-.51-.23-.96-.59-1.42-.91-.25-.17-.35-.45-.27-.73.19-.75.55-1.4,1.3-1.79.55-.29,1.09-.29,1.61.08.17.12.35.25.53.35.56.34.67.85.66,1.55h0Z"/><path d="m153.75,21.99c-.05.74-.51,1.17-1.19,1.45-.63.25-1.19.11-1.7-.31-.37-.3-.63-.65-.79-1.09-.33-.92.09-1.82,1.03-2.19.07-.03.13-.05.21-.06,1.23-.17,2.55,1.03,2.44,2.2h0Z"/><path d="m147.53,26.55c-.02-.64.39-1.05,1.07-1.27.2-.07.41-.11.63-.14.59-.09,1.09.09,1.41.55.27.39.44.85.62,1.29.15.36,0,.67-.29.91-.3.24-.59.48-.91.7-.54.38-1.52.23-1.93-.28-.56-.71-.65-.97-.59-1.77h0Z"/><path d="m180.72,51.18c.18-1.44.63-1.93,1.77-2.25.8-.23,1.53.28,1.58,1.07.03.47.17.94,0,1.42-.24.71-.89,1.21-1.69,1.15-.35-.03-.72-.12-1.03-.28-.53-.27-.7-.75-.64-1.12h0Z"/><path d="m176.82,27.05c.03.83-1.29,1.75-2.05,1.61-.37-.07-.69-.18-.91-.5-.28-.41-.52-.83-.59-1.32-.15-1.13.61-1.85,1.81-1.7,1.07.13,1.82.97,1.73,1.91h0Z"/><path d="m141.85,29.66c.02-.07.05-.38.17-.66.32-.75,1.13-.99,1.86-.58.83.47,1.13,1.23,1.2,2.07.04.51-.28.94-.79,1.1-.63.19-1.29.15-1.87-.17-.62-.34-.69-.91-.57-1.76h0Z"/><path d="m142.47,20.94c-.03.56-.59,1.34-.99,1.47-.83.27-1.66-.37-1.52-1.19.08-.48.31-.91.69-1.25.57-.5,1.41-.33,1.68.36.09.22.11.47.14.62h0Z"/><path d="m185.5,46.36c.67,0,1.01.77.73,1.29-.31.57-1.31.82-1.87.48-.37-.22-.49-.59-.33-.97.24-.55.79-.85,1.47-.8h0Z"/><path d="m170.37,34.31c.68.07.99.33,1.05.82,0,.07,0,.14,0,.21-.13.77-1.33,1.21-1.97.71-.26-.2-.47-.46-.39-.79.1-.41.3-.78.77-.9.21-.05.43-.03.53-.04h0Z"/><path d="m177.05,41.53c-.19-.09-.48-.16-.69-.33-.44-.33-.44-.78,0-1.11.25-.18.54-.33.84-.41.51-.13.97.13,1.12.55.16.49-.15,1.09-.65,1.23-.17.05-.35.05-.61.07h0Z"/><path d="m162.51,29.26c.35.08.69.19.8.58.11.41-.06.74-.39.99-.28.21-.59.4-.99.28-.57-.17-.89-.62-.77-1.07.13-.51.78-.89,1.35-.78h0Z"/><path d="m156.25,27.7c-.45-.03-.75-.14-.95-.41-.14-.18-.17-.38-.07-.58.33-.59,1.09-.81,1.67-.49.27.15.43.37.42.67-.01.3-.17.53-.45.65-.23.09-.48.13-.62.16h0Z"/><path d="m192.46,53.14c-.03.06-.05.17-.11.23-.34.33-.78.49-1.23.59-.33.08-.65-.21-.63-.53.02-.61.56-1.09,1.21-1.07.37.01.76.38.78.78h0Z"/><path class="cls-1" d="m32.48,267.06c-1.57,1.35-1.16,3.21-1.27,4.96.35-1.23,1.41-1.63,2.37-2.05.35-1.51-.04-2.47-1.15-2.87.59-.36,1.18-.71,2.08-1.26-.54,2.2,1.03,2.83,2.1,3.88.71-.37,1.47-.65,2.15.17-.93.4-1.79.77-2.65,1.13-.03.01-.1-.04-.15-.07-.1-.26-.21-.53-.35-.89-.39.39-.66.91-1.01.96-1.05.17-1.07.91-1.24,1.78.47-.17.8-.31,1.14-.43.09.09.18.17.27.27-.29.45-.58.91-.89,1.38,2.75.57,3.84-.04,4.58-2.5.07-.22.35-.38.72-.77.13.66.21,1.06.27,1.42,1.13-.33,2.18-.61,3.21-.95.24-.08.56-.37.59-.59.13-1.15.95-1.38,2.2-1.35-1.47-1.04-2.11.28-3,.43-.36-.21-.67-.53-1.02-.57-.37-.04-.76.19-1.22.33-.27-.8-.6-1.28-1.41-1.67-1.55-.75-3.01-1.86-3.23-3.84-.08-.72-.03-1.49-.98-1.66-.63-.12-1.27-.21-2.05-.34-.14-.27-.39-.73-.63-1.19-.09.03-.17.07-.25.11.13,1.14.27,2.28.43,3.58.48-.13.91-.15,1.2-.36.25-.19.34-.61.55-1.03.59.79.63,1.63.09,1.94-.81.47-1.71,1.27-2.72.51-.43.88-.79,1.63-1.13,2.35.87-.29,1.64-.55,2.41-.8h0Zm23.52-73.65c-.24-1.69-.61-3.25-.66-4.83-.12-4.13.56-8.19,1.5-12.19.8-3.39,2.5-6.33,5.07-8.63,3.29-2.95,7.23-4.98,11.09-7.06,2.56-1.38,5.4-1.77,8.25-2.04,2.73-.26,5.36,0,7.56,1.91.27.23.61.36.91.56,2.73,1.83,5.21,3.92,6.91,6.81.48.82.98,1.63,1.49,2.43.51.82,1.49,1.11,2.31.65.87-.49.63-1.18.25-1.84-.78-1.4-1.51-2.83-2.4-4.16-1.95-2.93-4.76-4.98-7.62-6.88-1.46-.97-3.23-1.52-4.92-2.07-.99-.33-2.11-.4-3.17-.37-1.66.05-3.31.25-4.96.49-.87.13-1.75.36-2.54.73-2.73,1.29-5.42,2.69-8.15,3.98-.36.17-.93.16-1.3,0-1.76-.72-3.49-1.51-5.22-2.29-2.82-1.27-5.56-1.08-8.17.53-1.11.69-2.19,1.44-3.17,2.29-.65.57-1.3,1.3-1.58,2.09-1.08,2.99-1.91,5.98-.31,9.13,1.26,2.5,2.24,5.23,4.49,6.98,1.56,1.21,1.67,2.53,1.42,4.16-.07.41-.09.83-.17,1.24-.49,2.42.18,4.74.65,7.06.26,1.29.99,1.61,2.46,1.31h-.02Zm89.22-28.69c-.17-.04-.33-.09-.5-.13-.56.66-1.41,1.22-1.04,2.29.2.58.75.65,1.45.25.03-.75.06-1.58.09-2.41h0Zm-95.54,99.13c-1.05-.2-1.43.23-1.92,1.06.55.15,1.14.47,1.32.31.31-.27.39-.83.6-1.37h0Zm69.78-60.65l-.37-.17c-.47.97-.93,1.95-1.4,2.93.14.07.29.13.43.21.45-.99.9-1.97,1.35-2.95h0Zm54.56-4.24c.59.45,1.04.55,1.41-.03.06-.09,0-.38-.09-.45-.55-.39-.95-.17-1.31.47h0Zm-31-29.78c.45.67.87.83,1.34.27.11-.13.12-.52.01-.62-.53-.51-.93-.17-1.35.35h0Zm10.72-20.34c-.29-.2-.45-.4-.62-.41-.17,0-.35.18-.53.28.16.18.29.43.49.51.11.05.34-.19.66-.39h0Zm-77.06,56.92c-.11-.77-.17-1.15-.23-1.59-.44.32-.36.84.23,1.59h0Zm4.75,4.53c.44.69.86.86,1.26.51-.4-.16-.75-.31-1.26-.51h0Zm-34.61,57.61c.14.05.28.1.42.15.09-.24.19-.49.28-.73l-.45-.15c-.09.25-.17.49-.25.73h0ZM6.63,217.6v-.41c-.29,0-.59-.01-.88-.03.01.15.01.45.03.45.28.01.56,0,.84-.02h0Zm130.12-9.51c.03-.12.05-.25.07-.37-.25-.03-.49-.07-.73-.08-.02,0-.05.19-.08.29.25.05.49.11.74.16h0Zm8.82-5.67c-.11-.1-.23-.21-.34-.31-.23.28-.45.56-.68.84.09.07.17.14.25.21.25-.25.51-.49.77-.74h0Zm-112.76,55.95c-.33-.39-.64-.91-1.26-.16.51.07.88.11,1.26.16h0Zm86.75-50.67l.15.21c.23-.17.47-.33.7-.49-.05-.07-.09-.13-.13-.19-.23.16-.47.32-.71.48h0Zm9.69.61c-.16.3-.27.44-.31.59-.01.07.09.24.17.26.13.03.27-.03.41-.05-.05-.15-.11-.3-.29-.8h0Zm-49.29,1.33c-.12.03-.25.05-.37.08.11.25.21.49.31.75.09-.03.19-.07.28-.11-.07-.24-.15-.48-.22-.71h0Zm5.38-.04c-.08-.05-.15-.15-.23-.15-.1,0-.19.08-.29.12.07.06.14.17.2.17.1,0,.2-.09.31-.15h0Zm-41.07,58.4c-.08-.06-.17-.17-.24-.17-.1.01-.19.11-.29.18.11.08.21.19.33.23.03.01.13-.16.2-.25h0Z"/><path d="m198.05,50.67c.95-1.33,1.85-2.65,2.83-3.91,1.81-2.35,4.26-2.58,6.93-2.01.24.05.47.14.7.24,3.39,1.58,7.05,2.41,10.56,3.66,3.25,1.15,6.17,2.81,8.2,5.73.54.77,1.32,1.37,1.9,2.13,2.21,2.83,3.23,6.01,3.05,9.64-.06,1.33-2.33,10.89-10.64,16.46l-4.61,2.15c-3.05,1-7.53,1.85-10.53,2.98-3.21,1.21-5.87,3.3-8.55,5.42-4.25,3.38-7.28,7.82-10.71,11.9-2.29,2.72-4.27,5.7-6.33,8.6-1.75,2.46-3.49,4.94-5.15,7.47-1.92,2.93-3.74,5.93-5.62,8.88-1.98,3.11-3.79,6.35-6.01,9.26-3.07,4.01-4.89,8.68-7.49,12.93-1.86,3.05-3.47,6.25-4.52,9.67-.62,2.03-1.01,4.14-1.53,6.38.66.31,1.21.65,1.8.85,4.62,1.51,8.71,4.09,12.98,6.34,3.41,1.8,6.28,4.27,8.95,7.01,2.57,2.63,4.77,5.6,5.88,9.06,1.65,5.17.6,10.3-5.4,13.1-3.64,1.7-7.35,3.09-11.41,3.28-.59.03-1.21.1-1.78,0-2.86-.53-5.72-1.07-8.55-1.69-.97-.21-1.89-.7-2.84-1.07-1.87,1.42-3.75,2.85-5.63,4.28-4.69,3.6-9.93,5.49-15.9,5.13-2.12-.13-4.27.01-6.35-.29-1.93-.27-3.79-.98-5.68-1.49-2.59-.71-4.63-2.39-6.75-3.91-.43-.31-.85-.63-1.4-1.04-1.89,1.23-3.73,2.53-5.67,3.67-4.05,2.39-8.33,4.18-12.96,5.04-.51.09-1.36.11-1.88.07-3.13-.26-6.34-.1-9.32-1.27-2.33-.91-4.48-2.21-6.31-3.97-.81-.79-1.63-1.57-2.4-2.39-.67-.72-1.33-.83-2.2-.31-1.33.79-2.71,1.49-4.08,2.21-4.28,2.28-8.71,3.37-13.56,2.03-1.71-.47-3.5-.67-5.25-.96-3.21-.53-6.14-1.78-9-3.31-2.11-1.13-4.13-2.33-5.97-3.85-1.73-1.42-3.14-3.07-4.09-5.11-.19-.41-.48-.77-.77-1.22-2.54,1.95-4.31,4.41-6.11,6.8-.75,1-1.13,2.35-1.41,3.65-.71,3.25-.93,6.58-.58,9.88.37,3.51,1.21,6.97,3.15,9.98,1.54,2.4,3.13,4.77,4.71,7.15,1.93,2.91,4.61,5.11,7.12,7.47.8.75,1.88,1.27,2.91,1.72,1.46.63,2.95.26,4.35-.32,3.46-1.44,6.97-1.57,10.45-.3l5.41,2.45c2.11,2.28,3.17,6.17,3.73,7.46.68,1.57.34,3.03-.37,4.47-1.46,2.95-3.48,5.53-5.28,8.25-2.25,3.41-5.47,5.55-8.87,7.55-1.32.78-2.65,1.59-4.06,2.17-3.95,1.61-7.88,1.59-11.71-.43l-2-.97c-2.15-1.18-4.21-4.55-3.03-6.71.77-1.25,2.19-3.77,3.04-4.93,1.55-2.12,1.44-4.71-.14-6.79-2.63-3.47-5.71-6.53-8.91-9.45-3.86-3.52-7.01-7.58-10-11.81-1.58-2.24-3.07-4.51-4.33-6.96-1.73-3.36-2.51-6.93-2.71-10.63-.22-4.1-.5-8.22-.27-12.3.28-4.93.89-9.85,1.71-14.72.47-2.79,1.41-5.53,2.74-8.09.29-.55.51-1.13.7-1.72,1.2-3.85,3.54-7.05,5.77-10.29,2.02-2.93,4.3-5.69,6.35-8.6,2.28-3.24,5.03-6.04,8.05-8.56,2.55-2.13,5.26-4.09,7.94-6.07.73-.53,1.99-1.28,2.81-1.65,2.01-.91,2.01-.85,1.93-2.85-.19-4.5.57-9,2.29-13.16.65-1.56,1.41-3.11,2.39-4.48,1.92-2.73,4.61-4.43,7.87-5.19.11-.03.24-.09.35-.07,1.87.41,2.59-.77,3.31-2.19,1.53-3.04,3.35-5.87,6.11-7.99,3.56-2.73,7.29-5.35,11.61-6.5,6.19-1.65,12.35-1.77,18.46,1.15,3.6,1.72,6.38,4.06,8.65,7.17.65.9,1.09,1.97,1.54,2.99.41.91.71,1.87,1.1,2.93,3.89-1.15,7.05.67,10.28,2.13.55.25,1.13.79,1.34,1.34,1.08,2.89,2.29,5.77,2.99,8.76,1.15,4.94,1.59,9.98.92,15.06-.29,2.17-1.36,3.95-2.73,5.52-.93,1.05-2.12,1.89-3.27,2.72-2.71,1.95-5.52,1.73-8.15-.09-2.2-1.51-4.25-3.25-6.33-4.93-.45-.37-.82-.87-1.18-1.33-1.09-1.41-2.15-2.84-3.21-4.26-.07-.1-.17-.27-.23-.39-1.61-3.69-3.1-7.39-1.99-11.58.42-1.59,1.09-2.99,1.91-4.39,1.42-2.45,3.02-4.67,5.52-6.18,1.34-.81,1.16-.9.77-2.49-.75-3.04-2.51-5.41-4.65-7.56-.65-.66-1.4-1.23-2.2-1.71-3.39-2.02-7.09-3.25-11.01-3.24-3.87,0-7.73.59-11.25,2.43-3.71,1.94-7.22,4.19-10.05,7.31-1.27,1.39-2.3,3.02-3.39,4.58-.51.73-.31,1.17.57,1.48.33.12.69.19,1.05.23,1.95.22,3.49,1.22,4.72,2.65,1.39,1.63,2.63,3.38,3.92,5.08,1.01,1.33,1.43,2.85,1.37,4.52-.05,1.42-.03,2.85-.13,4.27-.27,3.83-1.88,7-5.04,9.18-1.53,1.05-3.19,2.07-5.18,2.21-.39.03-.81.23-1.13.47-1.55,1.19-3.06,2.43-4.61,3.62-1.03.79-2.06,1.63-3.21,2.23-1.83.97-4.91.03-6.33-2.02-.97-1.4-1.62-3.03-2.41-4.55-.19-.36-.36-.73-.63-1.27-.94.35-1.9.53-2.67,1.02-1.85,1.18-3.73,2.37-5.37,3.81-3.13,2.73-6.45,5.35-9.06,8.53-4.49,5.48-8.73,11.19-12.3,17.34-.73,1.25-1.35,2.55-1.83,3.91-1.45,4.05-3.03,8.07-3.53,12.39-.06.53-.09,1.07-.03,1.59.03.23.34.64.48.63.75-.09.67.45.82.88.7,2.08.71,2.08.13,3.82l.05-.05c-.13.19-.41.46-.37.55.51.99-.18,1.66-.79,2.03-1.48.91-1.38,2.13-.99,3.49-.09.67-.17,1.34-.25,2.01.1,0,.2,0,.29.01-.01-.68-.03-1.36-.05-2.03,1.71,1.65,1.55,3.57.71,5.57.78.65,2.35-1.21,2.61,1.1-.42-.23-.68-.37-1.01-.55-.66.76-1.33,1.53-2.29,2.63.77-.19,1.17-.28,1.56-.37l-.04-.04c-.07.22-.21.45-.2.66.07,1.53.17,3.06.26,4.59l.05-.04c-.49-.35-.98-.71-1.47-1.07.47-.93.47-1.57,0-1.9v1.89c.39,1.31.75,2.61,1.19,3.91.11.33.42.59.93.77,0-.32-.09-.66,0-.95.12-.4.33-.79.58-1.12.19-.25.51-.4.73-.63.63-.67.73-.57,1.32.17.5.63.67,1.17.45,1.96-.15.53.03,1.15.07,1.79l1.41.18c.67,2.11,1.57,4.15,3.85,5.38-.64.42-1.06.69-1.56,1.02.35.19.59.32.93.51-.49.47-.93.9-1.47,1.43.27.22.49.39.7.55.4.62.79.6,1.17-.05-.46.03-.84.07-1.23.1.33-.25.69-.45.98-.74.45-.44.83-.93,1.34-1.51l2,1.83c-.59,1.07-1.4,1.59-2.55,1.67-1.49.11-1.65.43-.82,1.71.56.87,1.21,1.69,1.91,2.65.77-.87.42-1.35-.12-1.79-.7-.57-.6-1.34.21-1.76.61-.32,1.15-.79,1.81-1.25.63.66,1.27,1.33,1.91,2.01-.57-.22-1.15-.44-1.57-.6-1.18,1.11-.65,2.27-.71,3.35l.05-.05c-.99.75-1,.83-.28,1.52,1.41,1.35,2.82,2.71,4.27,4.1.79-.12,1.37-.6,1.73-1.43-.66.27-1.18.49-1.91.79,1.37-1.81,1.45-1.83,2.8-.82.16-.2.33-.4.53-.65.49.74-.06,1.75.93,2.27.25.13.05,1.1.05,1.72.27-.22.51-.43.91-.76.37,1.41.91,2.53,2.05,3.37.48.35.61,1.17.91,1.77-.13.07-.25.14-.37.21-.21-.27-.43-.54-.69-.87-.27.2-.55.4-.78.57-.06.89.95,1.19,3.05.93l-1.04,1.59c.18.29.39.63.61.97.47.73.63,1.52.81,2.39.67,3.2-.87,5.89-1.54,8.78-.31,1.33-.57,2.69-.74,4.05-.11.9.32,1.79,1.13,2.21.93.48,1.96.78,2.94,1.16l-.04.03c1.24.09,2.49.31,3.73.24,1.09-.07,2.29-.23,3.23-.76,2.69-1.52,5.31-3.19,7.88-4.91,1.02-.68,1.92-1.54,2.63-2.54,1.92-2.7,3.72-5.49,5.57-8.24.75-1.11.93-2.53.45-3.77-1.06-2.75-2.85-5.05-5.25-6.53-2.79-1.73-6.04-2.07-9.29-.99-.85.28-1.69.57-2.55.8-4.25,1.17-7.33-1.01-10.23-3.65-.65-.59-1.25-1.25-1.87-1.87-4.13-4.09-7.6-8.61-9.93-14.01-.83-1.92-1.68-3.78-2.05-5.84-.16-.87-.33-1.76-.35-2.65-.1-4.16-.35-8.33.75-12.42.63-2.35,1.69-4.43,3.4-6.18,2.53-2.59,5.08-5.17,7.6-7.77.7-.73,1.31-1.53,2.03-2.25,2.27-2.27,5.13-3.38,8.23-3.97,1.14-.22,2.33,1.34,1.95,2.53-.12.39-.41.71-.52.9-.89.09-1.64.07-2.31.29-.28.09-.38.71-.56,1.09.13.11.26.22.39.33.07-.15.13-.32.23-.46.09-.13.23-.24.51-.53.13,1.64.19,3.06-.81,4.5.44.46.87.91,1.3,1.36l-.02-.03c-.07.24-.26.6-.17.7.21.23.57.35.86.51-.16.25-.29.45-.39.63.05.08.08.17.11.18,1.58.03,1.61,1.78,2.64,2.37,1.11.63,2.31,1.11,3.45,1.65-.29.13-.73.39-1.21.54-.26.08-.81.05-.84-.05-.44-1.48-2.47-1.05-2.93-2.47-1.77-.64-2.45-2.58-4.13-3.4-.91-.45-1.46-.75-2.33.04-.92.83-1.98.61-3.06-.57,1.63.19,2.35-1.09,3.46-1.87.69,1.3,1.55,2.09,3.16,2.08-.51-.43-.87-.73-1.3-1.09.28-.51.53-.95.85-1.53-1.09-.19-1.45-.95-1.56-1.88.34-.5.67-.99,1-1.49-.11-.11-.22-.21-.33-.31-2.8.95-4.48,3.42-6.89,5.19,1.61,2.23,1.95,5.3,5.27,6.46-.76-1.08-1.34-1.91-2.13-3.03.97.22,1.65.37,2.43.55.19,1.13.61,2.17,1.83,2.79.3-.25.55-.49.83-.69.7-.5,1.28-.7,1.97.17.96,1.23,2.53,1.48,3.91,1.97.32.11.79-.1,1.17-.23.96-.32,1.89-.71,2.87-.98.28-.08.77.04.93.25.15.21.13.76-.04.95-.17.18-.67.19-.96.1-.85-.26-1.71-.84-2.22.46-.89,1.31-2.05,1.37-3.42.81-.81-.33-1.4-1.22-2.48-1.01-.17.03-.47-.59-.72-.91-.19-.25-.37-.49-.66-.87-.1.79-.17,1.36-.25,1.95.45.38.8.85,1.27,1.05,2.29.92,4.61,1.78,6.95,2.6.4.14,1.07-.22,1.34,0,1.78,1.37,3.97,1.01,5.95,1.51,1.17.29,2.37.08,3.39-.67.47-.35,1.67-2.28,1.79-2.97-.85.8-1.73,1.37-2.19,2.18-.27.48-.45.75-.95.78-.61.05-.82-.33-.91-.87-.03-.21-.17-.4-.32-.73-.72.49-1.33.9-2.13,1.44-1.33-.75-2.71-1.52-4.09-2.29-.51-.29-1.01-.78-1.54-.83-.86-.07-.87-.65-1.05-1.19.57.24,1.07.41,1.79.37,1.11-.05,2.47-.15,3.29,1.3l.25-1.95c-.3-.04-.63-.08-1.37-.17.55-.35.81-.66,1.09-.67.51-.03,1.03.13,1.54.21-.65.72-.47,1.39.11,2.14,1.36-.49,3.08.56,4.17-1.17l-.73-.91c-.4.47-.73.85-1.09,1.27-.91-.39-2.15.03-2.5-1.32,1.66-.35,3.33-.7,4.99-1.05.23-.05.47-.07.69-.11,1.13-.2,2.26-.41,3.57-.64.47.81,1.3,1.17,2.51.58.35-.17.88.03,1.36.05.15-.27.27-.75.56-.9,1.01-.53,2.09-.91,3.11-1.41.53-.25,1.06-.55,1.48-.94,1.43-1.36,3.25-1.95,5.01-2.64.54-.21,1.27-.03,1.89.08.41.07.63.18,1.07-.17.8-.63,1.81,0,1.77,1.03-.05,1.76-.72,3.41-1.57,4.83-.61,1.03-1.96,1.65-2.99,2.42-.5.37-1.09.65-1.29,1.46.83.13,1.12-.42,1.52-.97,1.11.67,2.77.55,2.9,2.43-.93,1.41-.85,1.83.43,2.24.58-.91-.25-1.53-.47-2.28,1.5.57,1.19,1.85,1.15,3.25.94.37,1.93.73,2.88,1.15,2.35,1.05,4.87.94,7.33,1.09,3.9.25,7.51-1.07,10.87-2.85,3.25-1.72,6.39-3.65,9.47-5.65,1.27-.82,2.28-2.04,3.41-3.07l-.02.02c1.57-1.28,3.21-2.49,4.68-3.87.95-.9,1.78-1.56,3.23-1.37.77.1,1.62-.42,2.68-.73.04.09.32.43.27.71-.09.53.09.78.54.93h0c-.35-.05-.71-.07-1.04-.16-.84-.23-1.35.11-1.88,1.15-1.01,2-2.66,3.72-4.82,4.31-.69.19-1.01.94-1.45,1.5l.05-.04c-.73.39-1.47.79-2.38,1.27,2.29,1.91,4.47,3.35,7.01,4.24,4.49,1.57,9.07,2.16,13.81,1.53,2-.27,3.97-.44,5.9-1.16,2.83-1.05,4.88-3.17,7.29-4.8.72-.49,1.41-1.03,2.05-1.62.62-.57,1.23-1.17,1.67-1.87,1.44-2.25,2.77-4.57,4.15-6.87.54-.89,1.27-1.15,2.11-.79.73.33.97.96.67,1.97-.12.39-.36.74-.57,1.09-.73,1.21-1.45,2.43-2.21,3.63-.31.49-.71.93-1.1,1.44.7.91,1.55.93,2.48.79,0-.29.03-.49,0-.5-.49-.15-1.17-.18-.93-.96.19-.59.69-.77,1.31-.6,2.04.55,4.19.72,6.11,1.74.35.19.88.05,1.35.05-.62.65-1.54.68-2.74.1-.26.25-.54.53-.93.92,3.83,1.17,7.41.92,10.93-.49.74-.29,1.38-.83,2.07-1.26l-.06.04c2.47-.16,4.31-1.55,6-3.15.43-.41.58-1.16.74-1.79.77-2.94.09-5.63-1.49-8.15-3.35-5.37-7.85-9.48-13.46-12.4-2.69-1.4-5.32-2.9-8.06-4.19-1.6-.76-3.32-1.27-5.03-1.75-.63-.17-1.38-.03-2.05.12-.9.2-1.24.09-1.33-.8-.11-.99,0-1.87.59-2.85.8-1.33,1.29-2.93,1.59-4.47.69-3.56,2.26-6.73,4-9.84,1.1-1.96,2.27-3.88,3.35-5.85.48-.87.77-1.85,1.23-2.73.67-1.25,1.42-2.45,2.18-3.77-.53-.14-1.36-.13-1.05-1.09l-.05.05c1.65.19,2.6-.75,3.37-1.97.89-1.42,1.73-2.87,2.62-4.3,2.13-3.43,4.2-6.89,6.37-10.3.83-1.29,1.83-2.47,2.71-3.73.82-1.17,1.61-2.35,2.36-3.57,2.89-4.65,5.99-9.14,9.55-13.32,1.73-2.03,3.33-4.17,5.07-6.18,1.01-1.15,2.41-2.01,3.25-3.26.96-1.43,2.27-2.43,3.56-3.39,2.96-2.19,5.84-4.52,9.89-5.07,2.45-.34,4.85-1.04,6.92-2.4,2.74-1.8,6.37-2.18,8.88-4.59,2.17-2.07,4.07-4.32,5.17-7.15.52-1.33,1.15-2.65,1.39-4.05.37-2.15,0-4.31-1.04-6.24-1.88-3.45-4.3-6.46-7.86-8.31-1.47-.76-3.09-1.2-4.66-1.77-.61-.22-1.28-.33-1.87-.6-.99-.46-2.33.53-3.02,1.33-1.49-.47-.51-.08-1.71-1.85-.17-.24-.77-.84-.96-1.06-1.33-1.49-2.93-1.65-4.53-.53-1.6,1.13-2.37,2.9-3.5,4.38-.34.44-.63.91-.94,1.37-.62.94-1.39,1.82-1.8,2.85-.77,1.93-1.34,3.93-1.98,5.91-.22.68-.33,1.41-.65,2.04-1.75,3.48-1.47,7.08-.5,10.63.49,1.81.59,3.63.77,5.45.22,2.27-1.04,4.03-2.21,5.72-7.03,10.14-14.61,19.82-23.76,28.19-6.95,6.36-14.36,12.09-22.17,17.36-2.91,1.97-5.79,3.94-8.97,5.47-3.67,1.77-7.49,3.03-11.45,3.93-2.29.52-4.61.55-6.91-.02-1.22-.3-1.81-.84-1.65-1.5.15-.62,1.09-1,2.08-.89.89.11,1.78.28,2.67.25,1.54-.05,3.12-.05,4.6-.41,5.11-1.25,9.98-3.15,14.47-5.93,1.32-.81,2.53-1.79,3.87-2.6,1.75-1.06,3.47-2.15,5.09-3.39,3.79-2.92,7.49-5.97,11.2-8.99,1.93-1.58,3.84-3.19,5.7-4.85,1.28-1.15,2.45-2.41,3.69-3.61.67-.65,1.47-1.2,2.07-1.91,4.43-5.2,8.91-10.36,12.8-16,1.39-2.01,2.89-3.93,4.26-5.94,1.57-2.3,2.53-4.77,1.63-7.67-.21-.68-.33-1.38-.45-2.08-.33-2.08-.64-4.17-.98-6.45-.09-.63-.07-1.27.09-1.89.39-1.56,1.25-4.79,2.36-7.54l4.89-8.86h.01ZM57.63,208.84c-.53-.07-1.07-.13-1.72-.22.59.69,1.11.75,1.71.22.73.09,1.45.19,2.17.27,0-.11,0-.23.01-.34-.73.02-1.45.04-2.17.07h0Zm12.92-9.8c-.41.03-.86-.05-1.22.1-.57.23-.61.65-.09,1.1.69-.14,1.15-.5,1.27-1.23.39.04.78.08,1.17.12,0-.13.01-.25.02-.38-.19-.03-.39-.11-.57-.06-.21.06-.39.23-.59.35h0Zm-2.28,5.67c-.43-.15-.87-.29-1.35-.45l-.24,1.86c.73-.69,1.14-1.07,1.55-1.45.28-.18.56-.37.97-.63-.6,0-.91.22-.92.68h0Zm32.24-83.59c-4.88,3.07-7.3,7.19-7.96,12.42-.27,2.15.22,4.15,1.29,5.99.89,1.53,1.85,3,2.95,4.42,2.39,3.08,5.55,5.14,8.68,7.28.85.59,1.79.74,2.72.38,1.1-.43,2.25-.85,3.19-1.54,1.5-1.11,2.67-2.59,3-4.47.2-1.13.03-2.33.03-3.63-1.54.99-3.21,1.33-4.91.77-2.1-.69-4.07-1.71-5.64-3.27-2.58-2.58-4.24-5.66-4.83-9.32-.44-2.71-.55-5.31.98-7.75.17-.27.24-.6.51-1.28h0Zm-40.69,24.1c-.68-.09-1.07-.15-1.46-.18-2.85-.22-5.31-1.11-6.96-3.65-.61-.94-1.45-1.73-2.14-2.62-.43-.55-.81-1.15-1.16-1.75-1.1-1.87-1.55-3.95-2.05-6.03-.28-1.15-.37-2.45-1.39-3.6-2.21,3.99-3.84,7.93-3.89,12.38,0,.95.03,1.9.05,2.85.06,2.93,1.1,5.58,2.4,8.13.86,1.69,3.25,3.03,5.58,1.23.43-.33.82-.69,1.21-1.05,2.55-2.34,5.12-4.65,8.8-5.04.28-.03.53-.35,1.01-.67h0Zm8.67,56.96c.02.09.05.19.07.28.45-.01,1.03.14,1.34-.08.96-.7,1.97-.94,3.13-.88.25.01.73-.57.77-.93.08-.67-.07-1.37-.13-2.05l-.25-.09c-.25.79-.5,1.57-.83,2.62-1.38-1.42-2.29-.35-3.25.55-.25.23-.56.38-.84.57h0Zm-62.25,23.54c-.16.13-.32.27-.48.4.34.71.61,1.47,1.05,2.12.17.27.69.45,1.04.42.66-.05,1.31-.28,2.04-.45-.16-.65-.51-1.05-1.11-1.01-1.13.07-2.07-.17-2.54-1.48h0Zm3.5,5.94c-.21-.79-.32-1.19-.44-1.62.61.11,1.05.19,1.73.32-.27-.6-.44-.99-.74-1.69-.47,1.35-2.2.22-2.43,1.79.52.33,1.05.67,1.89,1.2h0Zm144.71-27.81c1.07.25,1.97.62,3.09.18-.85-.64-1.57-1.17-2.39-1.78-.25.58-.45,1.04-.7,1.6h0ZM23.37,246.64c-.09.67-.15,1.23-.23,1.86,1.49-.49,1.51-.67.23-1.86h0Zm38.62-41.67c-.14-.01-.29-.03-.43-.04-.14.37-.28.74-.48,1.27.59,0,.94,0,1.46,0-.23-.53-.39-.88-.55-1.23h0Zm.49,2.88c-1-.21-1.46,0-1.35.67.42-.21.81-.4,1.35-.67h0Zm2.39-3.75c1.07.33,1.25-.18,1.19-1-.35.29-.69.59-1.19,1h0Zm-9.94.17c-.27.25-.43.4-.58.54.2.18.38.38.61.51.05.03.37-.21.36-.27-.06-.23-.21-.44-.39-.79h0Zm-48.48,20.11c.11.11.21.23.32.35.18-.21.38-.41.53-.64.02-.03-.19-.22-.29-.34-.19.21-.37.42-.56.63h0Zm69.25-25.66c-.19.09-.38.19-.57.29.19.28.37.57.57.84,0,0,.27-.13.27-.16-.07-.33-.17-.65-.27-.97h0Zm-2.04,8.7c-.07-.12-.13-.25-.2-.37-.34.15-.69.27-1.02.45-.05.03.05.29.11.62.43-.27.77-.49,1.11-.7h0Zm-9.63-4.52c.05.11.11.22.17.33.31-.18.62-.36.93-.54l-.13-.24c-.32.15-.65.3-.97.45h0Zm3.27-1.45c-.07-.07-.14-.13-.21-.2-.25.23-.49.47-.74.7.09.09.17.17.26.26l.69-.75h0Zm-3.21,5.86l.24-.24-.67-.71c-.09.09-.17.18-.27.27.23.23.47.45.7.69h0Zm-6.65-2.91c.01.07.03.13.04.2.21.01.44.09.62.02.19-.07.33-.27.49-.42-.05-.07-.1-.13-.15-.2-.33.13-.67.27-1,.4h0Zm-45.99,26.94c-.05-.08-.11-.15-.16-.23-.21.15-.43.29-.64.43l.17.25c.21-.15.42-.3.63-.45h0Zm-3.85-4.69c.19-.25.35-.41.42-.59.03-.07-.18-.22-.28-.33-.15.14-.34.27-.44.43-.03.06.15.25.3.49h0Zm-4.01-11.73c.13-.06.25-.13.37-.19-.17-.22-.33-.44-.51-.66-.07.05-.15.1-.22.15.11.23.23.47.35.7h0Zm21.33,34.22c-.12.25-.21.37-.23.49-.01.09.08.19.13.28.11-.08.29-.15.31-.25.02-.12-.1-.27-.21-.53h0Zm38.75-44.48c-.05.15-.11.29-.11.43,0,.05.16.1.25.15.06-.13.13-.26.17-.4,0-.03-.16-.09-.31-.17h0Zm-4.2,2.24c.14.04.28.08.43.12.06-.29.12-.57.18-.85-.09-.03-.19-.05-.28-.09-.11.27-.21.54-.33.81h0Z"/><path d="m56.01,193.41c-1.47.3-2.2-.02-2.46-1.31-.47-2.32-1.14-4.64-.65-7.06.08-.41.11-.83.17-1.24.25-1.63.14-2.95-1.42-4.16-2.25-1.75-3.23-4.48-4.49-6.98-1.59-3.15-.76-6.15.31-9.13.29-.79.93-1.53,1.58-2.09.98-.86,2.07-1.61,3.17-2.29,2.61-1.61,5.35-1.81,8.17-.53,1.73.78,3.46,1.57,5.22,2.29.38.15.94.17,1.3,0,2.73-1.3,5.41-2.69,8.15-3.98.79-.37,1.67-.61,2.54-.73,1.65-.24,3.3-.43,4.96-.49,1.05-.03,2.17.04,3.17.37,1.69.55,3.46,1.1,4.92,2.07,2.86,1.9,5.67,3.95,7.62,6.88.89,1.33,1.62,2.76,2.4,4.16.37.66.61,1.35-.25,1.84-.82.45-1.8.17-2.31-.65-.5-.81-1.01-1.61-1.49-2.43-1.69-2.89-4.17-4.97-6.91-6.81-.29-.2-.65-.33-.91-.56-2.2-1.91-4.83-2.17-7.56-1.91-2.85.27-5.69.66-8.25,2.04-3.87,2.08-7.8,4.11-11.09,7.06-2.57,2.31-4.28,5.24-5.07,8.63-.94,4.01-1.62,8.06-1.5,12.19.05,1.57.42,3.14.66,4.83h.02Zm-6.53-27.85c-.21.33-.51.63-.61.99-.48,1.82-.61,3.65.25,5.4.71,1.43,1.44,2.87,2.29,4.23.54.87,1.3,1.61,2.19,2.68.49-1.73.92-3.06,1.25-4.42.53-2.24,1.52-4.24,3.01-5.99.45-.53,1.21-.88,1.51-1.47.85-1.73,2.41-2.58,3.88-3.57.23-.15.43-.36.63-.53-.11-.21-.15-.36-.23-.39-1.97-.82-3.94-1.65-5.93-2.41-.43-.16-.97-.2-1.41-.1-2.23.51-4.22,1.45-5.65,3.38.76,1.15,1.77,1.8,2.97,2.26.87.33,1.69.82,2.48,1.33.56.36.5.93.09,1.39-.39.44-.82.54-1.41.19-1.71-1.01-3.45-1.94-5.29-2.96h0Z"/><path d="m32.49,267.06c-.77.26-1.55.52-2.41.81.35-.73.71-1.47,1.13-2.35,1.01.76,1.91-.03,2.72-.51.53-.31.5-1.15-.09-1.94-.21.42-.3.84-.55,1.03-.29.21-.72.23-1.2.36-.15-1.31-.29-2.45-.43-3.58.09-.03.17-.07.25-.11.25.47.49.93.63,1.19.78.13,1.42.22,2.05.34.95.18.9.95.98,1.66.23,1.98,1.68,3.09,3.23,3.84.8.39,1.14.87,1.41,1.67.46-.14.85-.37,1.22-.33.35.03.67.35,1.02.57.89-.15,1.53-1.47,3-.43-1.24-.03-2.06.2-2.2,1.35-.03.22-.35.5-.59.59-1.03.35-2.07.62-3.21.95-.07-.37-.15-.77-.27-1.42-.37.38-.65.54-.72.77-.74,2.45-1.83,3.07-4.58,2.5.3-.47.59-.93.89-1.38-.09-.09-.18-.17-.27-.27-.34.13-.67.25-1.14.43.17-.87.19-1.61,1.24-1.78.34-.05.61-.57,1.01-.96.15.37.25.63.35.89.05.02.11.08.15.07.87-.37,1.73-.74,2.65-1.13-.69-.81-1.45-.53-2.15-.17-1.07-1.05-2.65-1.68-2.1-3.88-.9.55-1.49.9-2.08,1.26l.06-.03h0Z"/><path d="m158.3,139.84c-.74,1.26-1.5,2.49-1.55,4.03-.01.39-.4.83-.72,1.12-.34.3-.81.45-1.33.71.3.89.63,1.8-.18,2.7-.39-.27-.81-.54-1.21-.81-.01-.14-.07-.27-.03-.36.88-1.98,1.68-4,2.69-5.91.74-1.39,1.75-2.65,2.67-3.95.15-.21.47-.3.72-.45l-.04-.05c.17.41.33.81.54,1.32-.87.17-1.77.47-1.6,1.71l.05-.05h0Z"/><path d="m19.37,237.79c2.77,1.39,1.87,3.79,1.64,6.15-.78-.29-1.52-.55-2.34-.85l.13-1.04c-.75-.25-1.88-.11-1.73-1.45l-.05.05c.45.09.85.08.85-.54,0-.45-.02-.91-.03-1.37.27-.07.43-.15.6-.16.23-.02.48.05.7,0,.49-.12.47-.44.24-.79h0Zm1.13,1.71c-.8.89-.79,1.65-.37,2.59.97-.79.72-1.58.37-2.59h0Z"/><path d="m113.05,204.68c.69-.3,1.39-.6,2.03-.87,1.27,1.03,2.05,2.21,2.35,3.83-.51.21-1.03.43-1.51.64-.55-.51-.97-1.11-1.53-1.34-1.13-.45-1.45-1.21-1.27-2.3l-.06.04h0Z"/><path d="m32.43,267.09c1.12.41,1.5,1.37,1.15,2.87-.95.42-2.02.81-2.37,2.05.11-1.75-.3-3.61,1.27-4.96l-.06.03h0Z"/><path d="m161.89,131.91c1.08-1.05,2.15-2.09,3.19-3.09.16,2.21-.83,3.19-3.21,3.07l.02.02h0Z"/><path d="m145.23,164.71c-.03.83-.06,1.65-.09,2.41-.69.4-1.25.33-1.45-.25-.37-1.07.48-1.63,1.04-2.29.17.04.33.09.5.13h0Z"/><path d="m171.14,202.53c-1.05.19-1.97.07-2.45-1.25.71-.24,1.36-.45,2-.67-.34.85,1.4,1.15.39,1.96l.06-.04h0Z"/><path d="m161.87,131.89c.53,1.25,1.22,2.5-.03,4.17,0-.73,0-1.09,0-1.5-.67.15-1.29.29-1.89.43,0,0,.04,0,.04,0,.64-1.02,1.29-2.05,1.92-3.07,0-.01-.03-.03-.03-.03h0Z"/><path d="m49.69,263.84c-.21.55-.29,1.1-.6,1.37-.17.15-.76-.17-1.32-.31.48-.83.87-1.26,1.92-1.06h0Z"/><path d="m159.35,136.93c.21-.64.43-1.28.63-1.93-.01,0-.05-.01-.05-.01.53.52,1.44.79,1.23,2.01-.63-.05-1.24-.09-1.85-.13l.04.05h0Z"/><path d="m119.47,203.19c-.45.99-.9,1.97-1.35,2.95-.14-.07-.29-.13-.43-.21.47-.97.93-1.95,1.4-2.93l.37.17h0Z"/><path d="m174.02,198.95c.37-.65.77-.87,1.31-.47.09.07.15.35.09.45-.37.57-.83.47-1.41.03h0Z"/><path d="m143.03,169.17c.43-.52.83-.85,1.35-.35.11.1.1.49-.01.62-.47.55-.9.39-1.34-.27h0Z"/><path d="m5.44,201.58c1.09,1.01,1.11,1.07.38,2.49-.11-.79-.22-1.66-.33-2.54l-.05.05h0Z"/><path d="m122.23,197.87c-.08.63-.16,1.26-.24,1.89-.12.03-.24.05-.35.07-.12-.23-.41-.55-.34-.68.25-.46.61-.86.94-1.29h0Z"/><path d="m153.74,148.84c-.32.2-.55.44-.66.39-.2-.08-.33-.33-.49-.51.18-.1.36-.29.53-.28.17,0,.33.21.62.41h0Z"/><path d="m76.69,205.75c-.59-.74-.66-1.27-.23-1.59.06.43.12.81.23,1.59h0Z"/><path d="m81.44,210.28c.51.21.86.35,1.26.51-.4.35-.82.18-1.26-.51h0Z"/><path d="m4.97,221.18c.43-.03.85-.06,1.37-.09-.35.59-.79.6-1.32.05l-.05.04h0Z"/><path d="m46.84,267.88c.09-.25.17-.49.25-.73l.45.15c-.09.24-.19.49-.28.73-.14-.05-.28-.1-.42-.15h0Z"/><path d="m6.62,217.59c-.28.01-.56.03-.84.02-.02,0-.02-.29-.03-.45.29,0,.59.01.88.03v.41h0Z"/><path d="m136.74,208.08c-.25-.05-.49-.11-.74-.16.03-.1.05-.29.08-.29.25,0,.49.05.73.08-.03.12-.05.25-.07.37h0Z"/><path d="m32.39,274.46c-.23-.36-.47-.73-.76-1.17.69.11.93.51.73,1.19l.03-.02h0Z"/><path d="m145.56,202.41c-.25.25-.51.49-.77.74-.09-.07-.17-.14-.25-.21.23-.28.45-.56.68-.84.11.1.23.21.34.31h0Z"/><path d="m32.8,258.35c-.37-.05-.75-.09-1.26-.16.62-.75.93-.23,1.26.16h0Z"/><path d="m4.95,215.96c.43-.24.82-.66,1.53-.29-.55.6-1.08.31-1.57.25l.03.04h0Z"/><path d="m36.49,197.18c-.11-.59-.23-1.19-.34-1.78.15,0,.31,0,.46-.01-.05.58-.1,1.17-.15,1.76,0,0,.03.03.03.03h0Z"/><path d="m119.56,207.68c.23-.16.47-.32.71-.48.05.07.09.13.13.19-.23.17-.47.33-.7.49l-.15-.21h0Z"/><path d="m129.25,208.28c.18.5.23.65.29.8-.14.02-.29.08-.41.05-.08-.02-.19-.19-.17-.26.03-.15.14-.29.31-.59h0Z"/><path d="m79.96,209.62c.07.24.15.48.22.71-.09.03-.19.07-.28.11-.11-.25-.21-.49-.31-.75.12-.03.25-.05.37-.08h0Z"/><path d="m85.34,209.57c-.11.06-.21.14-.31.15-.07,0-.13-.11-.2-.17.09-.05.19-.12.29-.12.07,0,.15.09.23.15h0Z"/><path d="m44.27,267.97c-.07.09-.17.26-.2.25-.12-.05-.23-.15-.33-.23.09-.07.19-.17.29-.18.07,0,.16.11.24.17h0Z"/><path d="m154.43,203.84c.25-.57.45-1.02.7-1.6.83.61,1.53,1.15,2.39,1.78-1.12.44-2.01.07-3.09-.18h0Z"/><path class="cls-1" d="m49.48,165.56c1.83,1.02,3.59,1.95,5.29,2.96.59.35,1.02.25,1.41-.19.41-.46.47-1.03-.09-1.39-.79-.51-1.61-.99-2.48-1.33-1.21-.46-2.21-1.11-2.97-2.26,1.43-1.93,3.42-2.87,5.65-3.38.45-.1.99-.07,1.41.1,1.99.77,3.96,1.59,5.93,2.41.08.03.11.19.23.39-.2.17-.39.37-.63.53-1.47.99-3.04,1.85-3.88,3.57-.29.59-1.05.93-1.51,1.47-1.49,1.75-2.47,3.75-3.01,5.99-.32,1.36-.75,2.69-1.25,4.42-.89-1.07-1.65-1.81-2.19-2.68-.84-1.36-1.57-2.79-2.29-4.23-.87-1.75-.73-3.58-.25-5.4.09-.36.4-.67.61-.99h0Z"/><path class="cls-1" d="m114.41,141.98c-1.54.99-3.21,1.33-4.91.77-2.1-.69-4.07-1.71-5.64-3.27-2.58-2.58-4.24-5.66-4.83-9.32-.44-2.71-.55-5.31.98-7.75.17-.27.24-.6.51-1.28-4.88,3.07-7.3,7.19-7.96,12.42-.27,2.15.22,4.15,1.29,5.99.89,1.53,1.85,3,2.95,4.42,2.39,3.08,5.55,5.14,8.68,7.28.85.59,1.79.74,2.72.38,1.1-.43,2.25-.85,3.19-1.54,1.5-1.11,2.67-2.59,3-4.47.2-1.13.03-2.33.03-3.63h0Z"/><path class="cls-2" d="m58.35,145.04c-2.85-.22-5.31-1.11-6.96-3.65-.61-.94-1.45-1.73-2.14-2.62-.43-.55-.81-1.15-1.16-1.75-1.1-1.87-1.55-3.95-2.05-6.03-.28-1.15-.37-2.45-1.39-3.6-2.21,3.99-3.84,7.93-3.89,12.38,0,.95.03,1.9.05,2.85.06,2.93,1.1,5.58,2.4,8.13.86,1.69,3.25,3.03,5.58,1.23.43-.33.82-.69,1.21-1.05,2.55-2.34,5.12-4.65,8.8-5.04.28-.03.53-.35,1.01-.67-.68-.09-1.07-.15-1.46-.18h0Z"/></g></svg>