<?xml version="1.0" encoding="UTF-8"?><svg id="Layer_2" xmlns="http://www.w3.org/2000/svg" viewBox="0 0 196.84 277.97"><defs><style>.cls-1{fill:#fff;}</style></defs><g id="Layer_1-2"><path d="m191.43,75.83c-.03-.12-.08-.23-.13-.34-.27-.7-.57-1.38-.81-2.08-.5-1.41-.71-2.93-1.5-4.23-.06-.1-.07-.23-.11-.34-.16-.51-.32-1.02-.48-1.52-.14-.42-.32-.81-.44-1.23-.31-1.07-.55-2.15-.87-3.2-.43-1.41-.95-2.8-1.65-4.1-.45-.82-.95-1.62-1.37-2.46-.37-.76-.63-1.57-.97-2.34-.3-.69-.59-1.39-.99-2.01-.39-.61-.5-1.35-.94-1.95-.36-.5-.54-1.13-.84-1.68-.19-.36-.52-.65-.68-1.02-.26-.64-.44-1.32-.65-1.99-.32-1.02-.68-2.01-1.3-2.91-.59-.86-1.11-1.75-1.62-2.65-.41-.73-.8-1.49-1.15-2.25-.31-.66-.53-1.35-.83-2.01-.13-.27-.3-.57-.53-.73-.51-.37-.79-.84-.86-1.44-.19-1.75-.39-3.51-.54-5.27-.19-2.12-.31-4.25-.51-6.37-.1-1.04-.38-2.03-.88-2.97-.52-.97-.91-2.03-1.38-3.04-.26-.57-.61-1.11-.83-1.69-.9-2.37-1.75-4.77-2.65-7.13-.55-1.44-1.17-2.85-1.75-4.28-.31-.76-.81-1.37-1.38-1.93-.51-.51-1.19-.8-1.85-.59-.95.31-1.96.69-2,1.98,0,.19-.13.37-.14.56-.04.72-.16,1.46-.04,2.16.2,1.07.38,2.13.7,3.19.35,1.15.83,2.22,1.34,3.29.59,1.21.95,2.48,1.23,3.79.02.11-.02.22-.03.31-.91.15-1.77.26-2.61.45-.51.11-1.05.25-1.5.52-.73.45-1.49.91-1.92,1.72-.03.05-.12.07-.21.12-.07-.06-.15-.11-.21-.19-1.11-1.67-2.24-3.32-3.52-4.86-.56-.67-1.09-1.35-1.68-1.99-.62-.67-1.3-1.28-1.95-1.91-.63-.61-1.18-1.3-2.02-1.72-.72-.35-1.4-.42-2.06-.05-.5.27-.99.62-1.38,1.04-.98,1.06-1.28,2.29-.78,3.68.05.16.13.32.14.49.09.69.45,1.22.91,1.7.71.75,1.43,1.51,2.12,2.28.78.88,1.53,1.8,2.31,2.69.09.11.22.2.32.29,1.71,1.52,3.51,2.94,5.04,4.67.41.45.5.92.31,1.46-.1.27-.23.53-.32.81-.23.75-.72,1.33-1.34,1.75-.41.27-.86.41-1.43.22-1.27-.42-2.44-.21-3.52.66-1.36,1.1-2.3,2.5-2.78,4.14-.36,1.22-.48,2.51-.72,3.76-.11.56.03,1.07.25,1.54.26.54.59,1.05.92,1.55.69,1.07,2.19,1.26,3.16.46,1.08-.89,1.86-2.02,2.47-3.27.24-.5.47-1,.71-1.51.13-.25.23-.52.39-.75.46-.61,1.1-1.02,1.77-1.35.86-.43,1.76-.78,2.64-1.15.29-.13.56-.05.82.14.67.45,1.25.97,1.64,1.71.3.55.64,1.09,1.05,1.56.61.7,1.14,1.52,1.98,1.99,1.18.65,2.42,1.04,3.81.91.54-.05,1.1.05,1.65.12.13.02.27.14.34.24.3.42.62.81.85,1.26.77,1.51,1.52,3.02,2.48,4.41,1.08,1.58,2.02,3.25,2.79,5,.86,1.97,1.59,4.01,2.41,5.99.6,1.45,1.27,2.87,1.92,4.31.44.99.94,1.96,1.32,2.98.31.81.46,1.68.7,2.52.2.68.41,1.35.65,2,.19.52.48,1.01.67,1.53.59,1.62,1.16,3.23,1.74,4.86.34.96.74,1.9.99,2.88.64,2.51,1.23,5.04,1.81,7.56.27,1.2.51,2.42.68,3.64.24,1.72.44,3.46.61,5.19.17,1.66.26,3.33.43,4.99.14,1.36.14,2.73-.07,4.06-.3,1.84-.69,3.67-1.08,5.48-.21.95-.5,1.89-1.06,2.68-.58.83-1.22,1.62-1.89,2.37-.81.89-1.68,1.74-2.87,2.13-.28.09-.53.24-.8.33-.66.22-1.31.47-2.01.53-.23-.75-.44-1.42-.64-2.09-.19-.65-.3-1.34-.57-1.95-.75-1.7-1.05-3.51-1.53-5.28-.3-1.11-.5-2.26-.84-3.38-.44-1.48-.78-3-1.16-4.5-.27-1.1-.57-2.2-.78-3.32-.44-2.27-1.05-4.49-2.11-6.55-.73-1.43-1.64-2.75-2.97-3.75-.82-.61-1.67-.81-2.64-.75-.26.02-.53.02-.78-.02-.83-.12-1.67-.23-2.48.04-1.04.33-2.07.64-3.17.72-1.01.07-2.02.12-3.02.2-.54.05-1.09.14-1.62.23-.19.04-.36.14-.55.18-.9.16-1.81.31-2.71.47-.68.12-1.39.21-2.05.39-.86.23-1.66.62-2.5.92-1.32.47-2.64.91-4,1.22-.41.09-.86.06-1.28.17-1.12.31-2.23.65-3.33.98-1.04.32-2.08.63-3.12.94-.65.19-1.32.31-1.93.6-.86.41-1.77.6-2.66.88-1.01.32-2.05.51-3.07.79-.65.18-1.27.42-1.91.63-.5.16-1,.35-1.51.49-1.16.31-2.32.6-3.5.89-.79.2-1.59.41-2.39.58-.81.17-1.56.63-2.42.59-.12,0-.23.05-.35.09-1.94.7-3.97,1.01-5.92,1.72-2.01.74-4.1,1.27-6.18,1.8-1.68.42-3.28,1.15-5.01,1.44-.9.15-1.77.51-2.67.7-.89.19-1.68.75-2.62.71-.05,0-.09.04-.14.05-1.16.32-2.33.64-3.5.97-.7.19-1.41.33-2.1.59-1.95.71-3.9,1.44-5.92,1.92-.7.17-1.4.4-2.08.62-.76.24-1.5.51-2.27.74-1.04.31-2.09.55-3.12.89-2.65.9-5.29,1.84-7.94,2.77-1.59.56-3.17,1.18-4.78,1.69-1.26.4-2.43,1.01-3.75,1.27-1.06.22-2.07.67-3.11.98-1.98.6-4.04.95-5.99,1.72-1.07.42-2.2.73-3.3,1.1-.21.07-.39.2-.58.3-.22.11-.42.25-.65.33-.91.31-1.84.58-2.75.9-1.34.48-2.65,1.07-4.08,1.26-.14.02-.26.12-.39.19-.81.45-1.45,1.08-2.07,1.77-1.14,1.27-2.05,2.66-2.5,4.33-.08.3-.27.59-.3.88-.05.58-.09,1.17.03,1.73.21.99.49,1.97.82,2.93.36,1.07.86,2.1,1.2,3.19.41,1.29.71,2.62,1.08,3.92.62,2.21,1.25,4.42,1.71,6.68.2.97.41,1.95.75,2.88.2.54.2,1.03.07,1.55-.37,1.57-.8,3.12-1.46,4.6-.35.79-.69,1.58-1.14,2.32-.59,1.01-1.17,2.07-2.3,2.63-.08.05-.14.14-.21.2-.8.73-1.56,1.52-2.41,2.18-1.02.81-2.16,1.47-3.15,2.31-1.14.97-2.5,1.54-3.78,2.22-1.42.74-2.98,1.25-4.4,2.02-.8.44-1.59.88-2.26,1.55-.41.42-.91.82-1.45,1.04-1.14.47-2.2,1.09-3.22,1.78-.91.62-1.88,1.16-2.79,1.78-.91.62-1.94,1.18-2.64,2-1.09,1.27-1.96,2.74-2.91,4.14-.2.3-.3.66-.41,1-.15.41-.27.82-.41,1.23-.34.94-.57,1.9-.54,2.9.03.83.43,1.4,1.2,1.64.64.21,1.28.45,1.95.56,1.78.31,3.57.68,5.36.79,1.89.12,3.81-.02,5.71-.08,1.93-.07,3.85-.44,5.78-.24.5.05,1.02.05,1.51,0,1.89-.15,3.75.14,5.6.38,1.83.23,3.59.77,5.33,1.3.92.28,1.84.6,2.69,1.03.92.46,1.78,1.06,2.65,1.62.44.29.83.66,1.24.98.64.51,1.27,1.04,1.95,1.49.95.64,1.38,1.63,1.88,2.59.04.06.02.14.03.22.1.79.25,1.58.28,2.37.03.75.03,1.53-.16,2.23-.31,1.11-.78,2.17-1.18,3.25-.13.33-.23.69-.38,1-.47.95-.87,1.94-1.76,2.62-.2.15-.32.4-.49.59-.37.43-.67,1-1.14,1.26-.86.48-1.64.98-2.24,1.77-.35.44-.5.94-.48,1.48.02.31.14.61.14.93.02.83.5,1.39,1.06,1.9,1.17,1.04,2.69.45,3.35-.51.62-.91,1.14-1.9,1.71-2.85.14-.23.32-.42.5-.6.26-.29.56-.54.78-.85.81-1.1,1.99-1.59,3.29-2.08-.09,1.1-.14,2.11-.27,3.11-.12.86-.22,1.74-.5,2.55-.83,2.31-2.13,4.35-3.87,6.09-.73.73-1.38,1.54-2.05,2.34-.38.44-.41,1.14-.04,1.62.37.47.82.88,1.27,1.27.16.14.44.15.67.2.63.13,1.14-.14,1.7-.39,1.65-.75,2.9-1.95,4.03-3.31.8-.97,1.6-1.91,2.31-2.96.82-1.22,1.68-2.41,2.29-3.76,1.1-2.42,1.76-4.91,1.57-7.59,0-.14.02-.3.04-.61.2.35.32.52.41.72.32.81.59,1.64.95,2.44.34.79.68,1.59,1.27,2.27.86.97,1.93,1.6,3.11,2.04.84.32,1.7.54,2.62.37,1.31-.23,2.62-.43,3.94-.66,1.29-.23,2.57-.46,3.85-.7,1.12-.21,2.23-.41,3.34-.66.56-.13,1.09-.39,1.63-.59.7-.25,1.41-.5,2.12-.74.14-.05.28-.1.41-.12,1.01-.14,2.03-.19,3.01-.42.77-.18,1.6.22,2.3-.32,1.41-.16,2.77-.18,4.03.7,1.83,1.26,3.6,2.6,5.25,4.07.87.79,1.77,1.59,2.34,2.65.71,1.3,1.23,2.69,1.62,4.12.17.62.33,1.26.41,1.9.18,1.35.32,2.69.47,4.04.02.19.08.38.09.58.07,1.5.12,3-.09,4.49-.06.45-.18.9-.29,1.35-.21.84-.45,1.68-.62,2.53-.14.7-.14,1.44-.3,2.15-.3,1.3-.63,2.58-1.01,3.85-.38,1.29-.47,2.67-1.15,3.87-.75,1.32-1.46,2.66-2.22,3.98-.75,1.3-1.59,2.55-2.28,3.87-.77,1.47-1.55,2.89-2.88,3.95-1.84,1.46-3.76,2.83-5.86,3.85-1.28.62-2.46,1.34-3.54,2.23-.78.64-1.41,1.38-1.73,2.37-.19.6-.34,1.2-.56,1.79-.84,2.27.81,4.6,2.88,5.12.62.15,1.2.35,1.59.73.35-.02.6-.03.86-.04.77,0,1.55.05,2.32-.05.61-.07,1.2-.33,1.79-.51.55-.17,1.09-.45,1.66-.5.98-.07,1.9-.32,2.81-.66.77-.29,1.57-.51,2.29-.88,1.41-.74,2.77-1.58,3.97-2.64.93-.8,1.89-1.56,2.86-2.33.49-.39.96-.79,1.5-1.12,1.34-.82,2.86-.62,4.32-.61,1.4,0,2.78.22,4.18.3.89.05,1.79.09,2.68,0,1.88-.19,3.66-.65,4.93-2.24.05-.05.12-.09.16-.14.77-.88,1.47-1.82,1.59-3.03.06-.67.05-1.35.02-2.03,0-.25-.11-.54-.26-.74-.4-.51-.81-1.03-1.29-1.47-.83-.78-1.7-1.5-2.56-2.24-.34-.3-.73-.57-1.02-.92-.53-.66-.98-1.38-1.5-2.05-.86-1.13-1.3-2.42-1.52-3.8-.25-1.58-.48-3.16-.72-4.74-.1-.67-.23-1.34-.28-2.01-.09-1.25-.14-2.51-.19-3.76-.05-1.47-.13-2.95-.12-4.42,0-1.55.06-3.1.14-4.65.08-1.69.16-3.39.34-5.07.2-1.9.46-3.79.76-5.68.29-1.84.37-3.7.53-5.55.2-2.1.6-4.16,1.62-6.05.53-.98,1.13-1.9,2.19-2.43.35-.17.56-.56,1-.67.82-.2,1.61-.52,2.43-.72,2.21-.55,4.42-1.07,6.63-1.61.7-.17,1.4-.39,2.1-.58,1.51-.41,3.03-.83,4.56-1.19,1.26-.31,2.55-.54,3.82-.8.03,0,.07.03.11.05l.84.04c.91.05,1.61.39,2.19.98,1.41,1.46,2.66,3.06,3.62,4.87.64,1.19,1.32,2.37,1.95,3.56.59,1.08,1.17,2.18,1.71,3.29.62,1.28,1.18,2.6,1.77,3.9.23.51.47,1.01.69,1.53.55,1.26,1.05,2.55,1.65,3.79,1.04,2.18,2.31,4.25,3.23,6.5.74,1.8,1.43,3.6,1.95,5.47.25.91.56,1.81.5,2.78-.08,1.2-.2,2.4-.32,3.6,0,.14-.07.28-.14.41-.49.81-.54,1.81-1.14,2.57-.08.1-.05.28-.09.42-.28,1.03-.55,2.06-.86,3.08-.19.64-.55,1.25-.65,1.91-.27,1.87-.53,3.74-.64,5.62-.05,1.03.2,2.08.96,2.89.28.3.55.62.87.87.58.42,1,1.05,1.72,1.28.85.27,1.68.63,2.59.53.16-.02.35,0,.5.05.51.18,1,.09,1.49-.1.7-.27,1.44-.39,2.17-.52.85-.15,1.71-.37,2.5-.7.93-.4,1.78-.97,2.68-1.43,1.27-.64,2.6-1.16,3.98-1.53.49-.13,1.01-.23,1.5-.19,1.7.13,3.41.29,5.11.51,1.72.22,3.43.53,5.15.78.93.14,1.86.3,2.8.31,1.25.02,2.5-.07,3.76-.15,1.64-.11,3.27-.3,4.81-.93.56-.23,1.11-.48,1.68-.7,1.12-.42,1.9-1.28,2.5-2.23.56-.9.7-2,.6-3.09-.22-2.35-1.43-4.18-3.08-5.76-.94-.9-2.1-1.49-3.28-1.94-2.62-.99-5.32-1.55-8.15-1.16-1.15.15-2.29.36-3.38.76-2.2.8-4.44,1.32-6.81,1.09-1.02-.1-1.98-.39-2.93-.77-1.41-.58-2.59-1.55-3.92-2.25-.05-.03-.1-.11-.14-.16-.68-1.02-1.43-2-2.04-3.08-.85-1.49-1.57-3.05-2.37-4.58-.87-1.67-1.54-3.43-2.22-5.19-.41-1.06-.69-2.17-1.03-3.25-.04-.13-.08-.34,0-.41.5-.51.32-1.1.19-1.64-.26-1.16-.05-2.36-.31-3.51-.02-.06.03-.14.04-.22.15-1.49.31-2.98.46-4.46.04-.36.05-.72.12-1.07.27-1.3.57-2.6.83-3.9.26-1.32.37-2.67.95-3.91.07-.15.11-.32.14-.49.19-1.21.82-2.26,1.25-3.38.32-.86.68-1.7,1.02-2.55.05-.11.04-.28.11-.32.36-.2.38-.6.55-.9.57-1,.87-2.11,1.57-3.07.63-.88,1.34-1.43,2.41-1.64,1.51-.32,3.03-.67,4.51-1.09,1.77-.51,3.5-1.07,5.32-1.34,1.77-.27,3.5-.7,5.25-1.08.87-.19,1.73-.48,2.64-.39.4.04.76-.11.92-.45.15-.33.41-.36.68-.43.44-.12.93-.15,1.32-.37,1.27-.7,2.5-1.47,3.18-2.84.16-.32.44-.58.66-.87.16-.21.36-.41.45-.65.36-.96.56-1.97.45-2.99-.18-1.63-.41-3.27-.63-4.89-.06-.42-.3-.86-.26-1.26.11-1.04-.12-2.02-.36-3.01-.41-1.59-.69-3.21-1.27-4.77-.4-1.06-.58-2.19-.86-3.3-.57-2.26-1.14-4.5-1.72-6.76-.22-.84-.48-1.68-.73-2.51-.14-.47-.25-.92,0-1.4.1-.18.05-.47.02-.7-.11-1.03-.23-2.06-.34-3.09,0-.03,0-.05,0-.07.07-.82.14-1.63.23-2.46.05-.58.14-1.16.2-1.72.12-.98.18-1.98.36-2.94.23-1.21.57-2.39.86-3.59.16-.66.34-1.31.5-1.97.26-1.13.5-2.26.78-3.39.27-1.05.59-2.09.87-3.13.05-.19.09-.38.14-.57.26-1.17.41-2.39.82-3.52.59-1.62.83-3.32,1.24-4.99.36-1.47.62-2.98.94-4.47.17-.82.5-1.62.47-2.48,0-.16.02-.35.08-.5.61-1.5.78-3.09.95-4.67.21-1.9.32-3.8.53-5.7.2-1.77-.04-3.53-.12-5.28-.03-.52-.22-1.05-.22-1.57,0-1.44-.03-2.85-.29-4.27-.23-1.28-.49-2.56-.72-3.84-.05-.29-.07-.58-.13-.87-.24-1.34-.5-2.66-.74-4-.07-.41-.06-.82-.15-1.23-.17-.78-.39-1.54-.57-2.32-.23-.98-.43-1.97-.66-2.96v-.03ZM47.93,194.05c-1.04-.97-2.05-1.96-3.12-2.89-.81-.71-1.67-1.38-2.55-2-1.1-.78-2.23-1.53-3.4-2.2-.98-.56-2.04-.98-3.06-1.45-.9-.41-1.83-.75-2.72-1.16-1.36-.64-2.77-1.09-4.24-1.4h-.07c-1.68-.62-3.46-.57-5.2-.77-1.87-.21-3.75-.32-5.63-.31-1.4.02-2.79-.13-4.18-.21-.22,0-.43-.06-.63-.14-.63-.26-.73-.96-.18-1.38.58-.44,1.17-.85,1.76-1.27s1.15-.88,1.76-1.26c.6-.4,1.22-.78,1.86-1.09,2.47-1.19,5.13-1.62,7.83-1.96.77-.1,1.49.11,2.23.12,1.89.04,3.63.7,5.36,1.35,1.01.38,2.02.79,2.98,1.25.65.32,1.24.74,1.85,1.15.77.52,1.56,1.05,2.29,1.63.71.57,1.35,1.23,2.02,1.85.16.14.29.32.45.47.44.41.73.88.84,1.48.14.71.63,1.24,1.07,1.78.14.18.3.37.37.59.48,1.44.94,2.9,1.39,4.36.35,1.13.67,2.28,1,3.41-.03.03-.05.05-.07.08v-.02Zm57.75,14.29c-.13.71-.2,1.46-.47,2.12-.39.94-.41,1.92-.56,2.9-.1.6,0,1.24,0,1.86,0,1.23-.02,2.46-.04,3.69-.02,1.18-.04,2.37-.08,3.55-.03.62-.14,1.25-.18,1.87-.05.55-.08,1.1-.1,1.65-.05,1.5-.11,3-.14,4.5,0,.26.05.52.07.79.05.82.11,1.64.12,2.46.02,1.48.07,2.94.41,4.41.28,1.19.68,2.37.67,3.63,0,.89,0,1.8.07,2.68.08.97.23,1.92.37,2.88.14.98.32,1.96.48,2.93.26,1.64.82,3.17,1.71,4.59,1.13,1.79,2.59,3.22,4.23,4.51.75.59,1.34,1.38,1.98,2.09.29.32.31.72.27,1.16-.11,1.72-1.07,2.84-2.5,3.66-.25.14-.5.31-.77.42-.44.18-.9.41-1.4.15-.94-.47-1.97-.42-2.96-.57-.88-.14-1.77-.19-2.61-.54-.48-.2-1.04-.25-1.56-.27-.96-.03-1.93.02-2.89.05-.36,0-.72.05-1.08.09-.26.04-.54.05-.77.17-.89.42-1.8.79-2.67,1.27-1.37.76-2.58,1.7-3.73,2.74-.56.5-1.2.88-1.79,1.34-.21.16-.42.35-.55.58-.45.79-1.17,1.27-1.93,1.7-.98.56-1.95,1.17-2.97,1.63-.78.35-1.65.51-2.49.71-.49.12-1,.11-1.5.19-.83.14-1.64.06-2.44-.14-.16-.05-.32-.12-.49-.15-1.1-.29-1.85-1.23-1.73-2.35.11-1.04.32-2.06.93-2.95.05-.08.09-.18.16-.24,1-.87,1.89-1.87,3.14-2.41.67-.28,1.29-.67,1.94-.97.57-.27,1.15-.51,1.73-.74,1.07-.43,1.9-1.23,2.82-1.89,1.5-1.07,2.86-2.28,4.16-3.59.86-.88,1.78-1.71,2.57-2.65,1.19-1.42,1.99-3.06,2.73-4.76.58-1.32.98-2.67,1.3-4.06.02-.09.04-.21.09-.27.45-.43.48-1.04.68-1.57.17-.45.41-.88.54-1.34.27-.89.52-1.81.7-2.72.15-.76.22-1.53.28-2.3.14-1.76.3-3.52.36-5.28.04-1.01-.11-2.03-.14-3.04-.04-1.63-.4-3.21-.62-4.82-.03-.19-.1-.37-.17-.55-.33-.8-.66-1.61-1.01-2.41-.12-.26-.3-.5-.43-.75-.63-1.17-1.23-2.35-1.88-3.51-.51-.92-1.23-1.66-2.04-2.32-.57-.45-1.05-.99-1.61-1.44-1.25-1.01-2.53-2-3.81-2.99-.29-.22-.62-.38-.91-.6-.7-.53-1.5-.85-2.35-1.06v-.17c.4-.06.8-.1,1.2-.18.96-.22,1.93-.47,2.89-.67.57-.11,1.14-.12,1.72-.2.58-.08,1.14-.19,1.71-.29,3.37-.56,6.63-1.59,9.95-2.39.94-.23,1.85-.54,2.77-.81.18-.05.37-.09.65-.15-.02.43,0,.79-.05,1.14h.02Zm52.78-12.66c-.96,1.37-1.42,2.95-1.88,4.52-.41,1.42-.84,2.83-1.17,4.26-.5,2.09-.77,4.23-.92,6.38-.12,1.73-.28,3.47-.39,5.21-.04.58-.02,1.16.06,1.74.23,1.72.34,3.47.82,5.15.63,2.26,1.31,4.49,2.15,6.68.77,2,1.66,3.93,2.6,5.83.54,1.08,1.12,2.15,1.78,3.15,1.41,2.12,3.09,3.95,5.52,4.97,1,.42,1.95.98,3.02,1.2,2.03.42,4.06.47,6.12.1,1.17-.22,2.28-.6,3.41-.97.55-.18,1.08-.33,1.69-.14.34.12.77-.04,1.14-.04s.72.03,1.07.1c.73.15,1.46.32,2.18.52,1.09.31,1.97,1,2.83,1.71.78.65,1.44,1.43,2,2.27.86,1.32.95,2.73.41,4.16-.16.43-.45.87-.92,1.08-1.23.56-2.46,1.13-3.69,1.67-.26.12-.55.19-.83.22-1.35.15-2.69.12-4.04-.11-1.21-.21-2.4-.49-3.61-.66-1.59-.23-3.21-.38-4.81-.56-.1,0-.2-.02-.28-.05-1.32-.51-2.65-.37-3.96.05-.85.27-1.72.44-2.59.61-1.07.21-2.17.47-3.16,1.03-.6.33-1.28.55-1.92.83-.55.24-1.14.44-1.62.78-.39.26-.77.38-1.21.41-.36.02-.74,0-1.08.09-.73.21-1.16-.19-1.54-.68-.35-.46-.69-.94-.97-1.44-.17-.31-.29-.67-.32-1.02-.08-1.25-.13-2.51-.15-3.76-.02-.94.08-1.86.28-2.8.35-1.68.68-3.38.8-5.08.15-2.09.2-4.2-.09-6.3-.14-1.08-.39-2.14-.62-3.2-.03-.12-.05-.24-.09-.35-.56-1.18-.73-2.5-1.25-3.69-.74-1.68-1.5-3.37-2.39-4.97-1.16-2.09-2.25-4.22-3.07-6.46-.32-.89-.72-1.73-1.17-2.56-.38-.69-.58-1.46-.89-2.18-.43-.97-.89-1.94-1.37-2.89-.59-1.16-1.23-2.3-1.85-3.46-.62-1.17-1.2-2.37-1.86-3.51-.34-.58-.84-1.07-1.29-1.56-.75-.84-1.51-1.66-2.25-2.46,7.23-1.99,14.49-3.85,21.97-5.03-.2.42-.34.85-.59,1.21h0Zm30.26-25.39c.24.86.46,1.73.63,2.61.14.66.17,1.34.26,2.01.2,1.52.39,3.02.6,4.53.1.7.14,1.39,0,2.09-.11.51-.32.94-.71,1.31-.32.32-.59.7-.81,1.1-.65,1.12-1.64,1.73-2.86,2.01-.79.18-1.64.21-2.28.82-.06.06-.18.07-.27.09-2.41.52-4.82,1.06-7.22,1.58-.12.03-.24.06-.36.05-1.14-.1-2.14.41-3.2.7-1.13.32-2.22.86-3.43.84-.3,0-.59.17-.88.27-.14.05-.28.17-.4.15-.95-.12-1.69.51-2.58.64-.88.14-1.77.32-2.63.52-1.2.28-2.38.62-3.58.9-.98.23-1.97.42-2.95.63-.47.11-.93.29-1.4.38-1.28.25-2.56.49-3.85.7-2.15.34-4.23.94-6.31,1.62-1.28.42-2.61.66-3.93.98-1.62.39-3.24.78-4.88,1.13-.46.1-.95.05-1.42.14-.62.1-1.24.21-1.84.4-2.92.93-5.9,1.61-8.87,2.35-2.02.5-4.04.98-6.04,1.52-2.71.72-5.41,1.48-8.12,2.21-2.13.58-4.25,1.14-6.37,1.72-2.13.58-4.23,1.22-6.36,1.74-2.08.51-4.18.98-6.33,1.19-1.12.11-2.23.44-3.33.68-.16.04-.33.11-.5.1-.78-.02-1.52.2-2.27.39-1.14.3-2.31.51-3.47.76-.14.03-.32.02-.42.09-.69.54-1.51.56-2.34.62-.26.02-.51.12-.77.2-.21.06-.41.19-.62.21-1.16.1-2.16.69-3.23,1.03-1.13.36-2.29.61-3.43.91-.19.05-.41.03-.57.12-.93.48-1.95.53-2.95.73-.59.12-1.19.16-1.78.26-.73.13-1.48.23-2.19.42-1.11.3-2.2.15-3.3,0-.29-.04-.57-.11-.85-.19-.41-.12-.73-.35-.92-.76-.41-.87-.86-1.72-1.27-2.6-.14-.3-.26-.61-.38-.93-.12-.3-.22-.6-.32-.88-.76-2.07-1.56-4.13-2.26-6.21-.77-2.27-1.45-4.57-2.18-6.85-.44-1.38-.93-2.75-1.36-4.13-.35-1.11-.63-2.24-.97-3.35-.23-.76-.54-1.49-.78-2.25-.22-.67-.41-1.34-.58-2.02-.27-1.08-.48-2.18-.76-3.26-.32-1.22-.69-2.42-1.04-3.62-.38-1.33-.77-2.65-1.11-3.98-.32-1.22-.54-2.46-.87-3.68-.42-1.59-.89-3.17-1.39-4.74-.33-1.04-.76-2.04-1.14-3.07-.09-.25-.16-.51-.23-.77-.35-1.25-.7-2.52-1.05-3.77-.4-1.43-.74-2.86-1.21-4.26-.89-2.67-1.41-5.44-2.13-8.16-.35-1.31-.58-2.65-.99-3.95-.62-1.91-1.12-3.85-1.55-5.81-.27-1.23-.63-2.44-1.27-3.54-.14-.25-.25-.5-.19-.82.05-.22-.02-.5-.14-.7-.65-1.09-.68-2.32-.64-3.52.02-.6.32-1.17.59-1.74.5-1.1,1.36-1.92,2.05-2.87.41-.55.94-1.05,1.74-.97.32.04.57-.05.73-.34.22-.41.61-.49,1.02-.61,1.57-.48,3.17-.88,4.69-1.49,1.7-.69,3.45-1.24,5.2-1.79.34-.11.7-.17,1.05-.26.32-.08.63-.14.92-.37.21-.17.59-.15.89-.21.22-.04.44,0,.64-.08,1.29-.42,2.56-.87,3.86-1.26s2.61-.72,3.9-1.12c1.23-.38,2.43-.81,3.64-1.23.21-.07.4-.19.6-.25,1.5-.51,3.01-1.03,4.52-1.53,2.5-.83,5.01-1.63,7.5-2.47,1.03-.34,2.04-.74,3.05-1.09.23-.08.48-.05.71-.12,1.07-.28,2.14-.56,3.21-.88,1.46-.43,2.89-.93,4.35-1.35,1.37-.41,2.75-.78,4.13-1.14,2.66-.71,5.32-1.41,7.99-2.12.44-.12.86-.31,1.3-.45,1.51-.5,3.02-1.03,4.55-1.47,1.25-.37,2.53-.62,3.78-.95.56-.14,1.09-.37,1.64-.53.95-.28,1.89-.53,2.84-.81.58-.16,1.15-.36,1.73-.51.51-.13,1.05-.17,1.56-.29.68-.16,1.35-.36,2.04-.54,1.38-.35,2.77-.67,4.13-1.06,1.81-.51,3.6-1.1,5.41-1.64.34-.11.7-.19,1.05-.29.93-.26,1.86-.51,2.78-.79,1.11-.33,2.22-.7,3.32-1.05,1.43-.44,2.85-.91,4.3-1.3,1.25-.33,2.54-.53,3.79-.88,1.14-.32,2.24-.74,3.37-1.12.41-.14.85-.23,1.23-.42.99-.51,2.1-.51,3.14-.79,1.86-.5,3.76-.7,5.65-.93.42-.05.86.02,1.3-.05.98-.14,1.95-.31,2.93-.48.19-.04.36-.14.54-.21.75-.3,1.02-.2,1.36.54.35.08.66.13.95-.23.29-.34.97-.33,1.42-.09,1.42.78,2.28,2.07,2.97,3.46.74,1.47,1.24,3.03,1.68,4.63.28,1,.46,2.01.69,3.02.27,1.18.62,2.34.92,3.52.82,3.27,1.63,6.54,2.44,9.8.1.4.23.79.36,1.18.33,1.07.68,2.12,1.01,3.18.13.39.27.78.34,1.18.1.57.14,1.15.22,1.72.05.33.11.65.19.98.09.34.21.68.31,1.03.22.79.43,1.59.65,2.38.48,1.75,1.02,3.49,1.42,5.25.59,2.55,1.05,5.13,1.67,7.66.41,1.66,1.02,3.29,1.53,4.92.06.21.13.42.2.62.28.82.34,1.7.7,2.51.29.67.25,1.48.51,2.18.69,1.86.73,3.85,1.25,5.73.65,2.31,1.23,4.63,1.84,6.95.37,1.41.68,2.82,1.06,4.22.24.91.59,1.79.84,2.7.23.84.33,1.72.65,2.53.32.84.36,1.72.6,2.57l-.03.05Z"/><path class="cls-1" d="m188.13,167.71c-.31-.8-.41-1.69-.65-2.53-.25-.9-.59-1.79-.84-2.7-.38-1.4-.7-2.82-1.06-4.22-.6-2.32-1.2-4.64-1.84-6.95-.53-1.89-.56-3.88-1.25-5.73-.26-.7-.22-1.5-.51-2.18-.36-.82-.42-1.69-.7-2.51-.07-.21-.13-.42-.2-.62-.52-1.64-1.13-3.26-1.53-4.92-.62-2.54-1.07-5.12-1.67-7.66-.41-1.77-.95-3.5-1.42-5.25-.22-.79-.43-1.59-.65-2.38-.1-.34-.22-.68-.31-1.03-.08-.32-.14-.65-.19-.98-.08-.57-.12-1.15-.22-1.72-.07-.4-.22-.79-.34-1.18-.33-1.07-.68-2.12-1.01-3.18-.13-.39-.26-.79-.36-1.18-.82-3.27-1.62-6.54-2.44-9.8-.3-1.17-.65-2.34-.92-3.52-.23-1.01-.41-2.02-.69-3.02-.44-1.6-.95-3.16-1.68-4.63-.7-1.39-1.55-2.68-2.97-3.46-.45-.24-1.14-.25-1.42.09-.3.36-.61.31-.95.23-.35-.75-.61-.85-1.36-.54-.18.07-.35.18-.54.21-.97.17-1.95.34-2.93.48-.42.05-.86,0-1.3.05-1.89.24-3.79.43-5.65.93-1.04.28-2.14.27-3.14.79-.38.2-.82.28-1.23.42-1.13.38-2.23.8-3.37,1.12-1.25.34-2.54.53-3.79.88-1.44.39-2.86.86-4.3,1.3-1.11.34-2.21.71-3.32,1.05-.93.28-1.86.53-2.78.79-.35.1-.7.18-1.05.29-1.8.55-3.59,1.13-5.41,1.64-1.37.39-2.76.7-4.13,1.06-.68.17-1.35.38-2.04.54-.51.12-1.05.16-1.56.29-.59.14-1.15.34-1.73.51-.95.27-1.89.53-2.84.81-.55.16-1.09.39-1.64.53-1.26.33-2.54.59-3.78.95-1.53.45-3.04.98-4.55,1.47-.43.14-.86.32-1.3.45-2.66.71-5.32,1.41-7.99,2.12-1.38.37-2.76.74-4.13,1.14-1.46.43-2.9.92-4.35,1.35-1.06.32-2.14.6-3.21.88-.23.06-.49.04-.71.12-1.02.35-2.03.75-3.05,1.09-2.5.84-5.01,1.64-7.5,2.47-1.51.5-3.02,1.01-4.52,1.53-.21.07-.4.19-.6.25-1.21.42-2.41.85-3.64,1.23-1.29.4-2.61.72-3.9,1.12-1.29.4-2.57.85-3.86,1.26-.2.06-.43.04-.64.08-.31.05-.68.04-.89.21-.29.23-.59.29-.92.37-.35.09-.71.14-1.05.26-1.75.55-3.49,1.1-5.2,1.79-1.52.6-3.12,1.02-4.69,1.49-.4.12-.8.2-1.02.61-.15.3-.41.38-.73.34-.8-.09-1.33.41-1.74.97-.69.95-1.56,1.77-2.05,2.87-.26.57-.57,1.15-.59,1.74-.04,1.2,0,2.42.64,3.52.12.19.18.48.14.7-.06.32.05.57.19.82.65,1.1,1,2.31,1.27,3.54.43,1.96.94,3.9,1.55,5.81.41,1.29.65,2.64.99,3.95.72,2.72,1.23,5.48,2.13,8.16.47,1.4.81,2.84,1.21,4.26.35,1.25.7,2.52,1.05,3.77.07.25.14.51.23.77.38,1.02.8,2.03,1.14,3.07.5,1.57.96,3.15,1.39,4.74.32,1.22.56,2.46.87,3.68.34,1.34.73,2.65,1.11,3.98.34,1.21.72,2.41,1.04,3.62.28,1.07.5,2.18.76,3.26.17.68.36,1.35.58,2.02.24.76.55,1.49.78,2.25.34,1.11.63,2.24.97,3.35.43,1.38.92,2.75,1.36,4.13.73,2.28,1.41,4.59,2.18,6.85.71,2.09,1.5,4.13,2.26,6.21.11.3.21.6.32.88.12.32.23.63.38.93.41.87.86,1.72,1.27,2.6.19.41.5.64.92.76.28.08.57.14.85.19,1.1.15,2.19.3,3.3,0,.72-.19,1.46-.3,2.19-.42.59-.1,1.2-.14,1.78-.26.99-.21,2.02-.25,2.95-.73.16-.08.38-.06.57-.12,1.14-.3,2.31-.55,3.43-.91,1.08-.34,2.08-.93,3.23-1.03.21-.02.41-.14.62-.21.25-.07.5-.18.77-.2.82-.05,1.64-.08,2.34-.62.1-.08.28-.06.42-.09,1.15-.25,2.32-.47,3.47-.76.75-.19,1.49-.41,2.27-.39.16,0,.32-.06.5-.1,1.11-.23,2.21-.57,3.33-.68,2.15-.21,4.25-.68,6.33-1.19,2.14-.53,4.24-1.16,6.36-1.74,2.12-.58,4.24-1.15,6.37-1.72,2.7-.74,5.41-1.5,8.12-2.21,2.01-.53,4.03-1.02,6.04-1.52,2.96-.74,5.95-1.42,8.87-2.35.59-.19,1.22-.3,1.84-.4.47-.08.96-.04,1.42-.14,1.63-.35,3.25-.74,4.88-1.13,1.32-.31,2.66-.55,3.93-.97,2.07-.69,4.15-1.28,6.31-1.62,1.29-.21,2.57-.44,3.85-.7.47-.09.93-.27,1.4-.38.98-.23,1.97-.4,2.95-.63,1.2-.28,2.38-.62,3.58-.9.87-.21,1.75-.39,2.63-.52s1.63-.76,2.58-.64c.13.02.26-.11.4-.15.3-.1.59-.27.88-.27,1.23.02,2.31-.51,3.43-.84,1.05-.31,2.05-.8,3.2-.7.12,0,.24-.03.36-.05,2.41-.52,4.82-1.05,7.22-1.58.09-.02.21-.04.27-.09.64-.61,1.49-.64,2.28-.82,1.22-.28,2.22-.89,2.86-2.01.23-.4.49-.79.81-1.1.39-.37.6-.79.71-1.31.14-.7.11-1.39,0-2.09-.22-1.51-.41-3.02-.6-4.53-.09-.67-.13-1.35-.26-2.01-.17-.88-.39-1.75-.63-2.61-.24-.85-.28-1.73-.6-2.57l.03-.05Zm-96.08-55.54c.05-1.01.14-2.02.21-3.03.05-.74.6-1.2,1.04-1.69,1.25-1.39,2.83-1.47,4.31-.94.41.14.75.51,1.1.79.88.71,1.36,1.66,1.59,2.76.03.14.07.29.05.43-.12,1.19-.55,2.3-1.07,3.35-.24.49-.73.82-1.32.92-.26.04-.51.12-.77.18-.82.24-1.66.3-2.5.19-1.71-.22-2.68-1.66-2.62-2.97h0Zm-53.52,16.24c-.5.13-1.34-.37-1.46-.87-.14-.62.12-.99.82-1.17.7-.17,1.14.1,1.32.84.19.75.05,1.01-.68,1.2h0Zm24.18,83.07c-.14.23-.14.33-.27.56-.17.31-.2.44-.95.62-.26-.3-.59-.45-.65-.65-.16-.58-.11-.5-.21-1.08-.06-.37,0-.74.41-.9.45-.18.9-.17,1.29.16.44.38.66.8.36,1.29h0Zm8.73-8.2c-.23,1.62-1.21,2.53-2.69,3.08-1.32.49-2.57.26-3.79-.23-.35-.14-.64-.5-.92-.79-.64-.69-.95-1.55-1.25-2.21-.36-1.66.14-2.88,1.16-3.93.33-.34.7-.65,1.05-.99.63-.62,1.32-.96,2.21-.56.32.14.7.16,1.04.3.97.39,1.71,1.06,2.43,1.84.97,1.07.94,2.24.77,3.49h0Zm50.14-13.79c.02.91-.1,1.81-.5,2.68-.6,1.28-1.64,1.85-2.95,1.97-1.46.14-2.69-.4-3.67-1.5-.81-.92-1.05-2.01-1.04-3.22.03-1.43.88-2.37,1.81-3.24.32-.3.87-.35,1.32-.51.94-.44,1.68-.05,2.42.5.32.24.7.42,1.07.6,1.15.56,1.51,1.58,1.54,2.74h0Zm35.97-37.21c-.16.24-.48.4-.68.61-.75.81-1.78,1.2-2.68,1.81-1.16.79-2.33,1.59-3.5,2.37-.3.2-.61.44-.95.51-.95.18-1.74.71-2.58,1.11-1.18.56-2.39.7-3.66.58-.12,0-.24-.05-.35-.03-.84.23-1.68.07-2.52.12-1.07.05-2.1-.14-3.15-.24-1.4-.14-2.67-.6-3.93-1.1-.71-.28-1.41-.6-2.03-1.1-.33-.27-.76-.46-1.19-.09-.05.05-.14.07-.21.06-1.36-.18-2.51.56-3.77.84-1.49.33-2.96.69-4.43,1.08-1.21.33-2.41.64-3.59,1.07-1.11.4-2.27.63-3.41.95-.69.19-1.4.4-2.09.59-.93.25-1.89.43-2.78.77-1.23.45-2.53.54-3.74,1.08-.94.42-1.96.6-3.03.57-.6-.02-1.29.14-1.81.42-.72.39-1.5.53-2.24.8-1.11.41-2.22.84-3.35,1.16-1.3.36-2.56.86-3.92,1.02-.81.1-1.5.5-2.06,1.2-.65.82-1.39,1.6-2.21,2.27-.51.42-.91.99-1.43,1.4-.72.56-1.5,1.07-2.29,1.51-.72.4-1.53.61-2.24,1.07-.29.18-.7.17-1.03.32-1.68.79-3.45,1.19-5.28,1.42-.17.02-.36,0-.5.09-1.18.7-2.45.49-3.68.33-1-.13-1.97-.46-2.96-.64-1.14-.21-2.28-.33-3.42-.51-.35-.05-.7-.16-1.05-.26-.55-.16-1.1-.34-1.65-.52-.18-.06-.37-.13-.53-.23-1.24-.79-2.42-1.66-3.48-2.71-.68-.68-1.45-1.26-2.14-1.94-.48-.48-.92-1-1.27-1.58-.59-.99-1.11-2.04-1.65-3.06-.08-.14-.14-.31-.19-.47-.26-.91-.5-1.82-.87-3.12-.07-.83-.24-2.05-.26-3.29,0-.84.15-1.69.31-2.51.24-1.26.46-2.52.49-3.81,0-.31.12-.61.22-.9.28-.79.55-1.6.88-2.37.14-.33.42-.61.64-.92.09-.13.23-.25.26-.39.11-.46.35-.82.64-1.19.41-.51.74-1.07,1.07-1.62.31-.51.65-.96,1.23-1.17.1-.04.19-.13.27-.21.69-.66,1.34-1.38,2.1-1.97,1.23-.97,2.55-1.75,4.18-1.99,1.21-.17,2.37-.66,3.56-.95.91-.23,1.81-.49,2.77-.39.23.03.48,0,.72-.05,1.58-.21,3.15-.32,4.75-.04,1.28.23,2.59.27,3.86.47.53.08,1.06.3,1.56.53.54.26,1.03.62,1.55.93.36.22.74.3,1.17.19.96-.24,1.94-.42,2.89-.68.69-.19,1.34-.54,2.04-.7,1.07-.25,2.03-.91,3.2-.83.35.03.72-.21,1.09-.3.31-.07.61-.14.92-.16,1.29-.09,2.49-.55,3.73-.87.74-.19,1.5-.33,2.23-.55,1.62-.48,3.23-.97,4.84-1.48.76-.23,1.5-.53,2.26-.73.43-.12.91-.12,1.36-.17.23-.03.49-.02.71-.09.68-.21,1.36-.49,2.05-.66.95-.24,1.92-.41,2.87-.61,1.23-.27,2.5-.4,3.68-.94.43-.2.93-.27,1.39-.41.67-.2,1.32-.41,2-.6.6-.17,1.21-.32,1.81-.5.46-.14.93-.27,1.38-.43.49-.17.87-.46,1.2-.88.78-1.04,1.57-2.08,2.64-2.85.17-.13.3-.31.45-.47.5-.54,1.02-1.07,1.51-1.62.59-.67,1.26-1.25,1.99-1.75.53-.37,1.07-.69,1.69-.91.71-.25,1.33-.73,2-1.12.08-.05.14-.15.23-.18,1.29-.46,2.4-1.37,3.8-1.53.72-.08,1.44-.16,2.16-.14,1.21.04,2.41.09,3.61.24,1.05.14,2.09.31,3.07.76.61.28,1.28.42,1.89.7,1.59.74,3.15,1.53,4.53,2.64.94.75,1.92,1.46,2.86,2.19.95.74,1.65,1.67,2.11,2.8.58,1.44,1.24,2.83,1.83,4.27.18.44.25.92.38,1.39.05.16.06.34.14.48.25.44.29.92.26,1.41-.07,1.23-.19,2.46-.2,3.67,0,1.07-.08,2.11-.27,3.16-.06.33-.08.7-.23.98-.24.48-.29.98-.29,1.48,0,.95-.29,1.83-.77,2.61-1.14,1.87-2.34,3.69-3.54,5.52l.03-.04Zm18.86,24.32c0,.61-.14,1.24-.3,1.84-.36,1.34-1.37,1.91-3.1,2.24-1,.09-2.44.06-3.76-.68-.33-.19-.64-.52-.84-.87-.37-.62-.68-1.27-.95-1.94-.26-.64-.14-1.3.14-1.91.47-.97,1.07-1.81,2.17-2.2.62-.23,1.17-.67,1.79-.93.32-.14.72-.17,1.05-.1,1.56.36,2.77,1.25,3.48,2.7.26.54.31,1.22.31,1.83h0Zm-15.64-83.66c-.56.14-1.15-.24-1.32-.85-.12-.45.27-.93.86-1.07.59-.14,1.12.19,1.26.79.11.44-.29.98-.8,1.12h0Zm23.01,89.87c-.7.17-1.07-.07-1.28-.85-.19-.7,0-.93.87-1.16.68-.17,1.07.05,1.23.7.14.6-.21,1.16-.83,1.31h0Z"/><path d="m161.85,144.16c0-.51.05-1,.29-1.48.14-.29.17-.65.23-.98.2-1.05.27-2.09.27-3.16,0-1.23.13-2.46.2-3.67.03-.49,0-.97-.26-1.41-.08-.14-.1-.32-.14-.48-.13-.46-.2-.95-.38-1.39-.59-1.43-1.25-2.83-1.83-4.27-.46-1.13-1.15-2.06-2.11-2.8-.95-.74-1.93-1.44-2.86-2.19-1.39-1.1-2.95-1.9-4.53-2.64-.61-.28-1.28-.42-1.89-.7-.98-.45-2.03-.62-3.07-.76-1.2-.15-2.41-.21-3.61-.24-.72-.02-1.45.06-2.16.14-1.41.15-2.51,1.07-3.8,1.53-.08.03-.14.14-.23.18-.66.39-1.29.86-2,1.12-.63.23-1.17.54-1.69.91-.73.51-1.4,1.09-1.99,1.75-.5.55-1.01,1.08-1.51,1.62-.14.15-.28.34-.45.47-1.07.78-1.86,1.81-2.64,2.85-.32.42-.71.71-1.2.88-.45.16-.92.3-1.38.43-.6.17-1.21.32-1.81.5-.67.19-1.33.4-2,.6-.46.14-.95.21-1.39.41-1.17.54-2.44.67-3.68.94-.95.21-1.93.37-2.87.61-.69.17-1.36.45-2.05.66-.23.07-.47.06-.71.09-.45.05-.93.04-1.36.17-.77.21-1.5.5-2.26.73-1.61.51-3.22,1-4.84,1.48-.74.22-1.49.36-2.23.55-1.23.32-2.43.79-3.73.87-.31.02-.62.09-.92.16-.37.09-.74.33-1.09.3-1.17-.08-2.13.59-3.2.83-.69.16-1.35.51-2.04.7-.95.26-1.94.43-2.89.68-.43.11-.81.03-1.17-.19-.51-.31-1.01-.67-1.55-.93-.5-.23-1.02-.45-1.56-.53-1.28-.2-2.59-.24-3.86-.47-1.59-.28-3.16-.17-4.75.04-.23.03-.48.06-.72.05-.95-.1-1.86.16-2.77.39-1.2.3-2.35.79-3.56.95-1.63.23-2.95,1.01-4.18,1.99-.75.59-1.4,1.31-2.1,1.97-.08.08-.17.17-.27.21-.58.22-.92.67-1.23,1.17-.33.55-.68,1.11-1.07,1.62-.3.37-.53.73-.64,1.19-.04.14-.17.26-.26.39-.22.31-.5.59-.64.92-.33.78-.6,1.58-.88,2.37-.1.29-.22.6-.22.9-.03,1.29-.24,2.55-.49,3.81-.16.83-.32,1.68-.31,2.51.02,1.23.19,2.46.26,3.29.36,1.31.61,2.22.87,3.12.05.16.11.32.19.47.54,1.03,1.05,2.07,1.65,3.06.34.57.79,1.1,1.27,1.58.68.68,1.45,1.26,2.14,1.94,1.05,1.05,2.23,1.92,3.48,2.71.16.1.34.17.53.23.55.18,1.1.36,1.65.52.34.1.69.21,1.05.26,1.14.18,2.29.31,3.42.51.99.18,1.96.51,2.96.64,1.23.15,2.5.36,3.68-.33.14-.08.32-.07.5-.09,1.83-.23,3.59-.63,5.28-1.42.32-.15.73-.14,1.03-.32.71-.45,1.52-.67,2.24-1.07.79-.44,1.57-.95,2.29-1.51.52-.41.92-.98,1.43-1.4.82-.68,1.55-1.45,2.21-2.27.56-.7,1.25-1.11,2.06-1.2,1.36-.16,2.62-.67,3.92-1.02,1.14-.32,2.24-.75,3.35-1.16.75-.27,1.52-.41,2.24-.8.53-.29,1.21-.44,1.81-.42,1.07.04,2.09-.15,3.03-.57,1.21-.54,2.52-.62,3.74-1.08.9-.33,1.86-.51,2.78-.77.69-.19,1.4-.4,2.09-.59,1.14-.32,2.31-.55,3.41-.95,1.18-.42,2.39-.74,3.59-1.07,1.47-.4,2.95-.75,4.43-1.08,1.25-.28,2.41-1.02,3.77-.84.06,0,.15-.02.21-.06.42-.37.85-.18,1.19.09.61.49,1.32.82,2.03,1.1,1.27.5,2.54.96,3.93,1.1,1.05.11,2.08.3,3.15.24.84-.05,1.68.12,2.52-.12.11-.03.23.02.35.03,1.27.13,2.49-.02,3.66-.58.85-.4,1.63-.93,2.58-1.11.33-.06.65-.31.95-.51,1.17-.79,2.34-1.57,3.5-2.37.88-.6,1.93-.99,2.68-1.81.21-.23.52-.37.68-.61,1.2-1.82,2.41-3.66,3.54-5.52.48-.78.77-1.66.77-2.61l-.03.04Zm-73.23,12.77c.14.78.19,1.57.29,2.39-.26.06-.44.15-.62.14-.69-.05-1.39-.13-2.08-.23-.23-.04-.46-.14-.68-.24-.58-.26-.68-.26-1.39.09.04.45-.08.83-.4,1.23-.57.71-.43,2.16.21,2.8.23.23.58.35.89.45,1.45.48,1.45.47,2.18,1.14-.35,1.02-.94,1.87-1.95,2.37-.57.29-1.08.61-1.23,1.31-.04.18-.23.37-.4.47-.48.28-1,.48-1.46.77-.53.32-1.09.66-1.5,1.11-.52.56-1.11.9-1.87,1.1-.53-.67-.77-1.47-1.04-2.27-.12-.37-.19-.75-.29-1.12-.27-1-.77-1.27-1.76-.95-.38.13-.82-.07-1.18.25-.46.41-.99.65-1.61.76-.32.05-.39.35-.33.63.05.21.14.41.23.6.36.76.46,1.62.97,2.32.11.14.1.37.14.56-.33.3-.73.32-1.11.32-.77,0-1.54-.14-2.31-.12-1.02.05-1.86-.33-2.69-.86-.41-.25-.89-.36-1.34-.51-.92-.3-1.8-.66-2.62-1.29.31-.51.61-1,.9-1.5.35-.6-.06-1.81-.72-1.97-.32-.08-.42-.25-.55-.49-.24-.44-.47-.93-1.12-.86-.21.15-.41.32-.64.45-.44.27-.81.61-1.03,1.09-.21.45-.48.82-1.05,1-.65-.89-1.77-1.38-2.32-2.46-.37-.7-.7-1.38-.77-2.22-.09-1.03-.38-2.04-.6-3.06-.1-.45-.24-.88-.35-1.33-.04-.14-.03-.29,0-.42.08-.47.19-.94.3-1.46.21.1.37.19.54.26.45.21.91.3,1.41.18.41-.1.82-.22,1.27-.05.32.12.71-.22.72-.63,0-.34.16-.59.31-.87.16-.32.28-.66,0-1.02-.28-.36-.23-.53.12-.84.15-.14.33-.28.42-.45.19-.39.09-.67-.3-.82-.33-.14-.69-.28-1.05-.27-.56,0-1.04-.12-1.5-.41-.22-.14-.49-.18-.83-.3.22-.54.36-1.08.62-1.56.88-1.63,1.8-3.25,2.89-4.76.41-.57,1-.91,1.59-1.21.68-.34,1.43-.57,2.15-.84.13-.05.28-.04.5-.06.23,1.07.88,1.99.88,3.11,0,.37.33.6.74.62.19,0,.42-.03.56.07.35.25.74.14,1.1.21.64.11,1.14-.17,1.64-.43.57-.3.68-.74.44-1.2-.16-.32-.28-.67-.36-1.02-.19-.8-.34-1.61-.5-2.41-.02-.09,0-.19.02-.35.72-.13,1.43-.12,2.14.03.86.17,1.7.16,2.57.04,1.03-.15,2.05-.1,3.08.08.18.04.35.16.52.23.7.32,1.38.7,2.17.78.23.03.43.15.67.24-.34.62-.65,1.16-.95,1.72-.22.41-.44.8-.63,1.22-.12.27,0,.51.18.73.61.79,1.36,1.35,2.5,1.53.34-.43.71-.87,1.05-1.32.19-.24.36-.51.52-.78.32-.51.71-.57,1.09-.07.59.79,1.22,1.57,1.68,2.43,1.37,2.58,2.38,5.3,2.93,8.17v.03Zm24.96-20.31c-.15.58-.15,1.13-.12,1.72.06,1,.03,2.02,0,3.03-.05,1.55-.13,3.1.2,4.62.26,1.24.5,2.47.8,3.69.15.6.4,1.19.64,1.77.39.91.77,1.82,1.23,2.7.24.46.59.87.94,1.27.37.44.71.88.98,1.51-1.32.04-2.46.5-3.66.76-1.18.26-2.36.44-3.51.87-.77.28-1.59.41-2.37.63-1.53.44-3.05.91-4.59,1.35-.62.18-1.26.3-1.98.47.11-.56.2-1.02.28-1.48.2-1.21.26-2.42.12-3.64-.03-.25-.19-.5-.23-.75-.07-.5-.09-1.01-.14-1.51-.1-1.11-.32-2.19-.68-3.25-.32-.94-.62-1.88-.96-2.81-.17-.47-.43-.91-.64-1.37-.4-.91-.81-1.81-1.17-2.74-.45-1.15-1.24-1.99-2.2-2.73-.05-.04-.09-.11-.2-.24.25-.13.46-.27.7-.33.93-.26,1.87-.49,2.8-.75.81-.23,1.6-.51,2.41-.76.32-.1.65-.2.97-.29.53-.14,1.07-.28,1.61-.44,1.32-.38,2.64-.76,3.95-1.16.71-.22,1.41-.51,2.12-.72.87-.27,1.77-.51,2.65-.75.06-.02.14,0,.23,0,.18.48-.06.9-.17,1.32h0Zm42.68,3.04c-.52-.15-1.09-.22-1.64-.23-.85,0-1.32.8-.91,1.53.2.34.06.58-.1.86-.19.32-.34.68-.52,1.01-.06.12-.19.2-.26.32-.15.23-.35.47-.44.73-.17.47-.05.74.41.93.84.34,1.68.68,2.55.98.25.08.56,0,.84,0,.25,0,.51-.03.86-.05-.32.86-.77,1.53-1.18,2.22-.69,1.18-1.69,2.09-2.68,3.01-.64.59-1.29,1.16-1.96,1.71-.45.36-.95.65-1.42.98-.52.36-.86.27-1-.34-.21-.87-.65-1.65-.67-2.58,0-.68-.31-.73-1.05-.59-.79.15-1.55.11-2.32.06-.4-.03-.77.04-.98.46-.04.08-.11.18-.19.22-.59.26-.6.63-.42,1.23.28.88.4,1.81.59,2.8-.35.05-.63.1-.91.14-.59.07-1.22.08-1.79.23-.88.24-1.77.25-2.66.19-.98-.07-1.96-.23-2.92-.43-.6-.13-1.18-.4-1.75-.65-.24-.11-.43-.35-.6-.5.36-.62.68-1.18,1.01-1.73.08-.14.23-.25.34-.37.12-.12.24-.23.35-.35.85-.97.9-1.2.28-2.3-.27-.47-.62-.92-1.03-1.28-.72-.66-1.13-.57-1.65.28-.86-.13-1.53.23-2.12.82-.57.57-1.04,1.18-.99,2.09-.15-.07-.24-.08-.27-.13-.34-.52-.68-1.05-1.03-1.58-.77-1.19-1-2.61-1.58-3.88-.13-.27-.08-.61-.11-.93-.11-1.27-.27-2.55-.32-3.83-.05-1.16.05-2.31.07-3.51.29-.04.5-.1.71-.07.48.07.95.19,1.41.28.64.12,1.25.26,1.8.67.5.37,1.3-.05,1.48-.67.19-.67.42-1.33.64-1.99.14-.42.31-.82.38-1.25.09-.58-.25-1.04-.61-1.42-.25-.26-.62-.42-.96-.59-.59-.27-1.2-.48-1.78-.74-.43-.19-.47-.33-.23-.71.25-.41.55-.79.82-1.19.23-.33.45-.69.7-1,.64-.81,1.21-1.7,1.95-2.38.98-.91,1.92-1.91,3.16-2.5.25-.12.46-.32.76-.52.13.21.26.35.32.52.13.39.23.79.32,1.19.22.92.42,1.84.64,2.75.03.13.11.29.22.35.41.23.59.6.74,1.03.18.49.46.56.91.3.27-.15.51-.34.77-.51.1-.06.23-.14.32-.12.33.08.53-.09.76-.3.12-.12.34-.15.52-.17.67-.05.79-.18.76-.88-.02-.35-.07-.7-.12-1.06-.18-1.22-.37-2.43-.55-3.65-.07-.46.13-.75.59-.83,1.08-.2,2.15-.24,3.2.22.92.41,1.85.78,2.78,1.15.45.18.91.33,1.37.46,1.1.3,1.86,1.05,2.65,1.91-.4.56-.74,1.05-1.1,1.53-.47.61-.96,1.2-1.42,1.82-.1.14-.16.36-.14.52.07.62.46,1.07.95,1.4.41.28.87.49,1.28.78.95.68,1.21.67,2.08-.14.28-.26.59-.49.87-.73.29-.25.58-.51.86-.75.72.42,1.87,2.35,2.56,4.07.76,1.91.82,3.85.46,5.81-.93.28-1.78.2-2.66-.06l-.02-.05Z"/><path d="m172.62,172.07c-.33-.07-.74-.04-1.05.1-.62.26-1.16.7-1.79.93-1.09.4-1.7,1.23-2.17,2.2-.29.6-.41,1.26-.14,1.91.27.67.59,1.33.95,1.94.2.33.5.67.84.87,1.32.75,2.76.77,3.76.68,1.73-.33,2.74-.9,3.1-2.24.16-.6.29-1.23.3-1.84,0-.61-.05-1.3-.31-1.83-.7-1.44-1.91-2.34-3.48-2.7h0Zm1.66,3.61c.15.9-.02,1.77-.32,2.62-.17.46-.65.35-.95.65-.64-.03-1.29-.02-1.93-.1-.55-.07-.93-.45-1.19-.93-.11-.19-.18-.4-.3-.58-.62-1.01-.05-2.13.78-2.57.41-.22.79-.45,1.28-.41.14.02.29-.02.42-.06.36-.1.69-.35,1.09-.06.51.38,1.01.76,1.12,1.44h0Z"/><path d="m68.23,197.97c-.33-.14-.71-.15-1.04-.3-.89-.39-1.59-.06-2.21.56-.34.34-.71.65-1.05.99-1.03,1.04-1.52,2.26-1.16,3.93.31.66.61,1.53,1.25,2.21.28.3.56.65.92.79,1.23.49,2.47.72,3.79.23,1.49-.55,2.47-1.45,2.69-3.08.17-1.26.21-2.43-.77-3.49-.71-.79-1.45-1.44-2.43-1.84h0Zm1.36,3.77c-.04.36-.03.72-.08,1.08-.18,1.29-.63,1.77-1.88,2.07-1.74.27-2.81-.54-3.03-2.32-.04-.31.02-.63.04-.94.03-.43.25-.78.56-1.07.31-.3.57-.7.93-.87.34-.14.79-.03,1.2-.02.95.02,2.38,1.1,2.27,2.06h0Z"/><path d="m94.67,115.15c.85.11,1.68.05,2.5-.19.26-.06.51-.14.77-.18.59-.1,1.07-.44,1.32-.92.52-1.06.96-2.16,1.07-3.35.02-.14-.03-.29-.05-.43-.23-1.09-.7-2.05-1.59-2.76-.35-.28-.69-.65-1.1-.79-1.47-.53-3.05-.45-4.31.94-.44.49-.98.96-1.04,1.69-.07,1.01-.16,2.02-.21,3.03-.05,1.31.91,2.75,2.62,2.97h0Zm-.68-2.93c0-.7,0-1.4.06-2.09.05-.55.25-1.07.57-1.53.22-.32.53-.38.83-.52.32-.16.59-.08.86.13.16.13.4.17.6.23,1.05.36,1.57,1.17,1.42,2.28-.05.36-.14.7-.2,1.07-.11.87-.63,1.31-1.45,1.48-.09.02-.19.05-.28.06v.03c-.38.05-.77.12-1.14.12-.78,0-1.27-.48-1.28-1.25h0Z"/><path d="m120.03,186.77c-.37-.18-.75-.35-1.07-.6-.74-.55-1.48-.93-2.42-.5-.45.16-1,.22-1.32.51-.93.88-1.78,1.82-1.81,3.24-.03,1.21.23,2.31,1.04,3.22.97,1.09,2.2,1.63,3.67,1.5,1.32-.13,2.35-.69,2.95-1.97.41-.87.52-1.76.5-2.68-.03-1.16-.39-2.18-1.54-2.74h0Zm-.3,2.43c-.04.69,0,1.53-.36,2.33-.29.61-.8.88-1.43.95-1.23.11-2.25-.54-2.58-1.73-.31-1.14-.02-2.4.99-3.19.51-.4.97-.29,1.3.28.27.48.58.63,1.05.52.63-.14.8-.04.96.55,0,.05.02.09.07.3h0Z"/><path d="m61.05,210.04c-.41.16-.48.52-.41.9.1.6.04.51.21,1.08.05.2.39.34.65.65.76-.18.78-.31.95-.62.13-.23.13-.33.27-.56.3-.49.08-.91-.36-1.29-.39-.33-.84-.34-1.29-.16h0Z"/><path d="m183.36,180.82c-.88.23-1.06.46-.87,1.16.21.78.58,1.02,1.28.85.61-.15.97-.7.83-1.31-.16-.65-.56-.88-1.23-.7h0Z"/><path d="m37.88,126.39c-.69.17-.95.54-.82,1.17.11.5.95,1,1.46.87.73-.19.88-.44.68-1.2-.19-.73-.63-1.01-1.32-.84h0Z"/><path d="m160.3,91.04c-.59.14-.97.61-.86,1.07.16.6.76.98,1.32.85.52-.13.91-.68.8-1.12-.14-.6-.67-.93-1.26-.79h0Z"/></g></svg>