<?xml version="1.0" encoding="UTF-8"?><svg id="Layer_2" xmlns="http://www.w3.org/2000/svg" viewBox="0 0 282.81 165.6"><defs><style>.cls-1{fill:#fff;}.cls-2{fill:none;stroke:#000;stroke-miterlimit:10;stroke-width:1.49px;}</style></defs><g id="Layer_1-2"><path class="cls-1" d="m12.6,148.21c-.07.19-.09.31-.16.36-1.12.89-2.21,1.83-3.38,2.65-2.05,1.45-4.14,2.85-5.91,4.66-.78.79-1.49,1.65-2.18,2.51-.17.22-.32.67-.21.85.31.48.69,1.04,1.18,1.26.96.45,2.02.6,3.05.1,1.22-.6,2.44-1.21,3.63-1.86.95-.51,1.91-1.01,2.65-1.85.46-.51,1.05-.89,1.61-1.3.19-.14.46-.18.79-.3-.39,1.41-.73,2.65-1.08,3.89-.47,1.68-.15,3.25.75,4.7.6.97,1.55,1.28,2.51.69,1.43-.89,2.73-1.93,3.47-3.53.38-.83.84-1.63,1.35-2.62.19.78.28,1.36.46,1.92.31.92.6,1.87,1.03,2.74.58,1.19,1.43,1.34,2.48.54.36-.27.65-.63.94-.98.64-.74.81-1.67,1.14-2.55.39-1.06.63-2.14.69-3.24.07-1.11.1-2.24-.04-3.34-.4-3.21.01-6.41.19-9.61.07-1.34.52-2.71,1.73-3.67,1-.79,1.7-1.89,2.67-2.77,1.52-1.38,2.87-2.95,4.33-4.39,1.04-1.03,2.14-1.99,3.25-2.95.79-.69,1.62-1.32,2.44-1.97,1.53-1.21,3.06-2.44,4.6-3.63,1.08-.83,2.15-1.66,3.26-2.44,1.68-1.19,3.36-2.38,5.1-3.49,1.52-.98,3.09-1.91,4.68-2.77,1.44-.78,2.93-1.5,4.44-2.12,1.39-.57,2.91-.6,4.39-.82,1.64-.25,3.12.19,4.62.66.17.05.34.24.43.41.3.55.58,1.12.84,1.68,1.08,2.23,2.11,4.48,3.23,6.69,1.07,2.12,2.21,4.19,3.34,6.28,1.31,2.42,2.67,4.82,3.99,7.24,1.33,2.46,2.61,4.94,3.93,7.4.64,1.19,1.34,2.36,2.04,3.53.11.19.33.38.54.45.6.18,1.22.29,1.83.43.58.13,1.19.19,1.72.41,1.37.59,2.72,1.27,4.08,1.89.89.4,1.79.79,2.7,1.15.35.13.77.25,1.07-.13.63-.8,1.59-.98,2.46-1.3,1.73-.65,3.5-1.22,5.24-1.87.85-.31.84-.38.81-1.33,0-.25-.04-.51.03-.73.4-1.15.81-2.3,1.29-3.42.12-.29.43-.56.72-.72.73-.4,1.49-.78,2.27-1.07,2.09-.79,4.2-1.53,6.3-2.29.1-.04.2-.04.31-.07.85-.17.92-.16,1.27.66.34.81.64,1.62.98,2.43.28.66.78,1.05,1.23.89,1.49-.5,2.98-1.01,4.46-1.55,1.87-.69,3.72-1.44,5.58-2.14,2.06-.78,4.13-1.53,6.21-2.27,1.74-.63,3.51-1.19,5.24-1.83,4.62-1.71,9.03-3.9,13.72-5.43,4.22-1.38,8.4-2.89,12.6-4.35.76-.26,1.52-.52,2.28-.78,1.49-.51,2.98-.98,4.45-1.52.64-.24.64-.61.37-1.3-.34-.89-.49-1.86-.57-2.82.69-.25,1.27-.51,1.88-.69,1.37-.4,2.77-.72,4.13-1.16,1.89-.63,3.77-1.32,5.63-2.02.62-.23,1.14-.19,1.65.25.69.58,1.44,1.11,2.14,1.68.35.28.61.37,1.11.19,1.97-.71,4-1.26,5.97-1.96,1.35-.48,2.64-1.07,3.47-2.39.35-.55.43-.98.17-1.54-.79-1.79-1.59-3.57-2.35-5.37-.58-1.39-1.14-2.77-1.62-4.2-.47-1.42-.76-2.89-1.23-4.31-.94-2.85-1.97-5.66-2.91-8.51-.49-1.49-.87-3.02-1.31-4.52-.16-.57-.4-1.11-.53-1.68-.51-2.27-.99-4.56-1.49-6.83-.49-2.24-1.01-4.48-1.48-6.73-.07-.35,0-.77.1-1.12.33-1.14.76-2.25,1.04-3.41.34-1.36,1.06-2.53,1.94-3.56.92-1.07,2.01-2.04,3.17-2.86,1.34-.94,2.78-1.75,4.26-2.46,1.64-.78,3.34-1.42,5.05-2.04,1.88-.68,3.77-1.31,5.68-1.85,1.68-.47,3.41-.8,5.11-1.17,1.3-.28,2.59-.58,3.9-.79,2.63-.4,5.26-.79,7.9-1.1,2.39-.28,4.8-.51,7.2-.69,2.51-.2,5.03-.35,7.54-.48,1.88-.09,3.77-.08,5.66-.14.61-.02,1.11.17,1.49.63,1.11,1.34,2.2,2.71,3.31,4.05.81.98,1.15,2.12,1.46,3.32.22.86.57,1.72.99,2.5.58,1.05,1.57,1.24,2.59.62,1.19-.72,1.52-1.78,1.34-3.47-.2-1.87-.3-3.75-.36-5.63-.03-1.03.64-1.6,1.6-1.49,1.36.16,2.31-.48,2.91-1.59.73-1.35,1.86-2.34,2.88-3.43.41-.44,1.01-.78,1.59-.98,1.39-.46,2.82-.8,4.23-1.21.81-.23,1.62-.44,2.41-.72.82-.28,1.67-.56,2.41-1,.48-.28.89-.81,1.13-1.33.56-1.18-.08-2.12-1.36-2.05-1.43.07-2.86.15-4.27.39-3.23.54-6.43.78-9.67.07-1.91-.42-3.83-.75-5.74-1.14-.75-.16-1.46-.16-2.11.29-.89.61-1.77,1.23-2.66,1.85-1.58,1.1-3.15,2.2-4.73,3.29-.25.18-.53.37-.82.45-1.25.35-2.49.72-3.76.97-1.02.21-2.11.16-3.11.42-2.14.56-4.33.72-6.5,1.07-2.45.39-4.92.64-7.38.96-1.84.25-3.67.61-5.51.76-3.48.28-6.98.44-10.47.67-1.19.07-2.37.27-3.55.31-2.45.08-4.89.09-7.34.14-.84.01-1.68.16-2.51.07-1.56-.15-3.12-.4-4.67-.64-.72-.11-1.44-.27-2.14-.48-1.99-.62-3.74-1.7-5.45-2.87-.73-.5-1.21-1.13-1.37-2.01-.49-2.82-1.01-5.63-1.47-8.46-.48-2.92-.87-5.87-1.37-8.79-.37-2.16-.89-4.3-1.28-6.46-.34-1.89-.6-3.79-.92-5.67-.17-1.03-.4-2.06-.59-3.09-.24-1.3-.49-2.6-.69-3.91-.07-.44-.19-.69-.65-.81-.19-.05-.4-.26-.48-.45-.27-.7-.79-.92-1.49-.93-1.32-.03-2.65-.1-3.97-.13-1.15-.03-2.3-.1-3.44-.03-2.33.15-4.66.32-6.99.6-2.04.25-4.1.27-6.13.72-3.3.72-6.64,1.3-9.97,1.94-2.47.48-4.94.94-7.4,1.42-1.37.27-2.74.53-4.1.83-2.25.51-4.49,1.04-6.73,1.57-1.96.47-3.94.92-5.89,1.44-2.02.54-4.03,1.17-6.04,1.76-2.01.6-4.03,1.19-6.04,1.79-.93.28-1.86.6-2.8.86-2.05.57-4.1,1.13-6.15,1.7-1.82.51-3.62,1.04-5.43,1.57-.61.18-1.21.35-1.81.55-2.29.76-4.48,1.77-6.78,2.5-1.63.51-3.2,1.22-4.8,1.83-1.53.59-3.06,1.19-4.59,1.74-1.31.47-2.66.84-3.97,1.33-4.4,1.63-8.6,3.71-12.78,5.84-1.34.69-2.6,1.51-3.97,2.12-1.99.89-3.8,2.07-5.67,3.16-1.51.88-2.98,1.82-4.45,2.77-.24.16-.47.43-.55.7-.1.35-.1.77-.03,1.13.4,2.08.84,4.16,1.26,6.24.33,1.57.62,3.15,1.01,4.7.36,1.42.84,2.81,1.26,4.21.82,2.78,1.62,5.56,2.45,8.33.3,1,.69,1.98.99,2.98.81,2.71,1.51,5.45,2.43,8.12,1.29,3.73,2.73,7.41,4.11,11.11.08.22.22.52.13.69-.25.48-.07.85.13,1.27.16.34.28.73.3,1.1.1,1.42.1,2.85.25,4.27.16,1.51-.25,2.9-.82,4.25-.51,1.19-1.08,2.34-1.66,3.49-1.25,2.43-2.78,4.68-4.54,6.77-1.64,1.95-3.31,3.88-5.03,5.76-1.81,1.99-3.68,3.92-5.53,5.87-1.02,1.06-2.06,2.09-3.09,3.12-1.85,1.85-3.68,3.73-5.57,5.54-3.13,3-6.41,5.81-9.91,8.38-.37.27-.7.57-1.02.89-.92.92-1.88,1.77-3.06,2.35-.5.25-.99.53-1.41.89-.46.38-.93.55-1.51.63-3.82.48-7.67.66-11.51.75-1.29.03-2.29.56-3.22,1.3-.78.63-.95,1.62-.58,2.55.45,1.1,1.34,1.67,2.42,2,1.43.43,2.89.48,4.36.35.85-.07,1.7-.22,2.61-.35h.01Z"/><path d="m12.6,148.21c-.92.13-1.76.28-2.61.35-1.47.13-2.94.08-4.36-.35-1.08-.33-1.96-.89-2.42-2-.38-.92-.22-1.92.58-2.55.93-.75,1.94-1.27,3.22-1.3,3.85-.1,7.69-.28,11.51-.75.58-.07,1.06-.25,1.51-.63.42-.36.92-.64,1.41-.89,1.18-.58,2.14-1.44,3.06-2.35.32-.32.66-.63,1.02-.89,3.5-2.57,6.78-5.38,9.91-8.38,1.89-1.81,3.71-3.69,5.57-5.54,1.04-1.04,2.08-2.06,3.09-3.12,1.86-1.94,3.72-3.88,5.53-5.87,1.71-1.89,3.38-3.82,5.03-5.76,1.76-2.09,3.29-4.34,4.54-6.77.59-1.15,1.16-2.3,1.66-3.49.58-1.35.98-2.74.82-4.25-.14-1.42-.14-2.85-.25-4.27-.03-.37-.13-.76-.3-1.1-.2-.42-.39-.79-.13-1.27.08-.16-.04-.46-.13-.69-1.37-3.7-2.82-7.38-4.11-11.11-.92-2.67-1.61-5.42-2.43-8.12-.3-1-.69-1.98-.99-2.98-.83-2.77-1.63-5.55-2.45-8.33-.42-1.41-.9-2.8-1.26-4.21-.4-1.56-.68-3.14-1.01-4.7-.43-2.08-.87-4.15-1.26-6.24-.07-.37-.07-.78.03-1.13.07-.27.31-.54.55-.7,1.46-.94,2.94-1.89,4.45-2.77,1.87-1.09,3.68-2.27,5.67-3.16,1.37-.61,2.63-1.44,3.97-2.12,4.18-2.13,8.37-4.21,12.78-5.84,1.31-.48,2.66-.86,3.97-1.33,1.54-.55,3.07-1.16,4.59-1.74,1.6-.61,3.17-1.32,4.8-1.83,2.31-.72,4.5-1.74,6.78-2.5.6-.2,1.2-.37,1.81-.55,1.81-.53,3.62-1.05,5.43-1.57,2.05-.57,4.1-1.13,6.15-1.7.94-.27,1.87-.58,2.8-.86,2.01-.6,4.02-1.19,6.04-1.79,2.01-.6,4.01-1.21,6.04-1.76,1.95-.52,3.93-.97,5.89-1.44,2.24-.54,4.48-1.07,6.73-1.57,1.36-.31,2.73-.57,4.1-.83,2.47-.48,4.94-.95,7.4-1.42,3.32-.64,6.66-1.21,9.97-1.94,2.02-.45,4.09-.47,6.13-.72,2.32-.28,4.65-.45,6.99-.6,1.14-.07,2.29,0,3.44.03,1.32.03,2.65.1,3.97.13.69.01,1.22.23,1.49.93.07.19.28.4.48.45.46.12.58.37.65.81.19,1.31.45,2.61.69,3.91.19,1.03.42,2.05.59,3.09.32,1.89.58,3.79.92,5.67.4,2.16.91,4.3,1.28,6.46.5,2.92.89,5.86,1.37,8.79.46,2.82.99,5.63,1.47,8.46.15.88.64,1.51,1.37,2.01,1.7,1.17,3.46,2.25,5.45,2.87.69.22,1.41.37,2.14.48,1.55.25,3.11.49,4.67.64.83.08,1.67-.06,2.51-.07,2.45-.05,4.9-.06,7.34-.14,1.19-.04,2.37-.23,3.55-.31,3.49-.23,6.99-.39,10.47-.67,1.85-.15,3.68-.51,5.51-.76,2.46-.33,4.93-.57,7.38-.96,2.17-.34,4.36-.51,6.5-1.07,1-.26,2.08-.22,3.11-.42,1.26-.26,2.51-.62,3.76-.97.29-.08.56-.28.82-.45,1.58-1.09,3.15-2.19,4.73-3.29.88-.62,1.77-1.23,2.66-1.85.66-.45,1.36-.45,2.11-.29,1.91.4,3.83.72,5.74,1.14,3.23.71,6.44.47,9.67-.07,1.4-.24,2.85-.31,4.27-.39,1.29-.07,1.92.87,1.36,2.05-.24.51-.66,1.04-1.13,1.33-.74.44-1.58.72-2.41,1-.79.28-1.61.48-2.41.72-1.41.4-2.84.75-4.23,1.21-.58.19-1.17.54-1.59.98-1.02,1.08-2.14,2.08-2.88,3.43-.61,1.11-1.55,1.74-2.91,1.59-.96-.11-1.63.45-1.6,1.49.05,1.88.15,3.76.36,5.63.19,1.68-.15,2.75-1.34,3.47-1.02.62-2.02.43-2.59-.62-.43-.78-.77-1.64-.99-2.5-.31-1.19-.66-2.35-1.46-3.32-1.11-1.35-2.2-2.71-3.31-4.05-.37-.45-.88-.64-1.49-.63-1.88.06-3.77.05-5.66.14-2.52.12-5.03.28-7.54.48-2.41.19-4.8.41-7.2.69-2.64.31-5.27.7-7.9,1.1-1.31.2-2.61.51-3.9.79-1.71.37-3.43.69-5.11,1.17-1.91.54-3.81,1.17-5.68,1.85-1.71.62-3.41,1.26-5.05,2.04-1.48.71-2.92,1.52-4.26,2.46-1.16.81-2.25,1.79-3.17,2.86-.87,1.02-1.6,2.19-1.94,3.56-.28,1.15-.72,2.27-1.04,3.41-.1.36-.17.77-.1,1.12.47,2.25.99,4.49,1.48,6.73.5,2.28.97,4.56,1.49,6.83.13.57.37,1.12.53,1.68.44,1.51.81,3.03,1.31,4.52.94,2.85,1.97,5.66,2.91,8.51.47,1.42.75,2.89,1.23,4.31.47,1.42,1.04,2.82,1.62,4.2.75,1.8,1.55,3.59,2.35,5.37.25.56.18.99-.17,1.54-.84,1.31-2.12,1.91-3.47,2.39-1.97.7-4,1.25-5.97,1.96-.5.18-.76.09-1.11-.19-.71-.57-1.45-1.1-2.14-1.68-.52-.44-1.03-.48-1.65-.25-1.87.69-3.74,1.39-5.63,2.02-1.36.45-2.76.76-4.13,1.16-.6.18-1.18.42-1.88.69.07.96.22,1.92.57,2.82.27.69.27,1.07-.37,1.3-1.47.54-2.97,1.01-4.45,1.52-.76.26-1.52.52-2.28.78-4.2,1.45-8.38,2.97-12.6,4.35-4.69,1.54-9.11,3.73-13.72,5.43-1.74.64-3.5,1.21-5.24,1.83-2.08.75-4.15,1.5-6.21,2.27-1.87.7-3.71,1.45-5.58,2.14-1.47.54-2.97,1.05-4.46,1.55-.46.15-.96-.23-1.23-.89-.34-.8-.64-1.62-.98-2.43-.35-.81-.42-.83-1.27-.66-.1.02-.21.03-.31.07-2.1.76-4.21,1.5-6.3,2.29-.78.3-1.53.68-2.27,1.07-.28.16-.59.42-.72.72-.47,1.13-.88,2.27-1.29,3.42-.07.22-.04.48-.03.73.04.95.04,1.01-.81,1.33-1.73.65-3.5,1.22-5.24,1.87-.87.33-1.83.5-2.46,1.3-.3.38-.72.27-1.07.13-.91-.36-1.81-.74-2.7-1.15-1.37-.62-2.7-1.3-4.08-1.89-.54-.23-1.14-.28-1.72-.41-.61-.14-1.23-.25-1.83-.43-.21-.06-.43-.25-.54-.45-.69-1.16-1.39-2.33-2.04-3.53-1.33-2.46-2.61-4.94-3.93-7.4-1.31-2.42-2.67-4.82-3.99-7.24-1.14-2.08-2.27-4.16-3.34-6.28-1.12-2.21-2.15-4.46-3.23-6.69-.27-.57-.55-1.13-.84-1.68-.09-.16-.25-.35-.43-.41-1.5-.46-2.99-.9-4.62-.66-1.48.22-3,.25-4.39.82-1.52.63-3,1.35-4.44,2.12-1.59.86-3.15,1.79-4.68,2.77-1.73,1.11-3.41,2.3-5.1,3.49-1.11.78-2.19,1.61-3.26,2.44-1.55,1.2-3.07,2.41-4.6,3.63-.82.65-1.65,1.28-2.44,1.97-1.11.96-2.21,1.92-3.25,2.95-1.46,1.45-2.81,3.02-4.33,4.39-.96.87-1.66,1.98-2.67,2.77-1.21.95-1.66,2.33-1.73,3.67-.16,3.2-.59,6.39-.19,9.61.13,1.1.1,2.23.04,3.34-.07,1.1-.31,2.18-.69,3.24-.33.88-.51,1.81-1.14,2.55-.29.34-.59.7-.94.98-1.05.8-1.9.64-2.48-.54-.43-.87-.72-1.81-1.03-2.74-.19-.55-.28-1.14-.46-1.92-.52.98-.97,1.79-1.35,2.62-.74,1.6-2.04,2.65-3.47,3.53-.96.6-1.91.28-2.51-.69-.9-1.46-1.23-3.03-.75-4.7.34-1.24.69-2.48,1.08-3.89-.33.12-.6.16-.79.3-.55.41-1.15.79-1.61,1.3-.75.83-1.7,1.33-2.65,1.85-1.2.66-2.41,1.26-3.63,1.86-1.02.51-2.08.36-3.05-.1-.49-.23-.87-.78-1.18-1.26-.11-.17.04-.63.21-.85.69-.86,1.4-1.72,2.18-2.51,1.77-1.8,3.86-3.2,5.91-4.66,1.17-.83,2.26-1.76,3.38-2.65.07-.05.07-.17.16-.36h-.01Zm167.38-31.27c.78-.29,1.45-.57,2.14-.78,1.8-.57,3.62-1.06,5.41-1.66,1.62-.55,3.21-1.21,4.8-1.83.5-.19.91-.13,1.34.25.69.6,1.47,1.07,2.15,1.67.55.48,1.08.52,1.73.27,1.2-.47,2.43-.89,3.65-1.33.69-.25,1.39-.46,2.05-.76,1.34-.6,1.58-1.51.94-2.81-.76-1.57-1.51-3.15-2.09-4.79-.98-2.77-1.81-5.58-2.73-8.37-.52-1.6-1.14-3.15-1.66-4.75-.64-1.95-1.28-3.92-1.85-5.9-.57-1.95-1.1-3.9-1.56-5.87-.67-2.82-1.24-5.66-1.91-8.48-.54-2.24-1.18-4.46-1.74-6.69-.82-3.25-1.66-6.49-2.4-9.76-.89-3.95-1.74-7.91-2.51-11.88-.75-3.87-1.38-7.77-2.02-11.66-.34-2.03-.55-4.08-.9-6.11-.75-4.26-1.56-8.51-2.34-12.77-.05-.27.01-.55-.01-.83-.1-1.14-.14-2.3-.36-3.41-.3-1.59-.75-3.16-1.11-4.74-.13-.57-.9-1.3-1.49-1.32-2.02-.04-4.04-.07-6.07-.1-4.03-.07-8.02.54-12.02.95-2.35.25-4.67.85-7,1.31-1.2.24-2.38.56-3.58.8-2.12.42-4.25.78-6.37,1.19-1.47.28-2.94.61-4.4.92-3.58.76-7.19,1.42-10.74,2.3-3.22.8-6.38,1.82-9.57,2.74-1.98.57-3.95,1.16-5.93,1.73-1.64.47-3.31.89-4.95,1.36-.7.2-1.38.48-2.08.69-2.78.83-5.57,1.62-8.33,2.47-1.1.34-2.17.78-3.24,1.21-2.46.98-5.04,1.59-7.48,2.68-2.43,1.07-4.97,1.89-7.46,2.82-1.51.56-3.03,1.09-4.53,1.68-2.7,1.06-5.36,2.22-7.93,3.57-.99.52-2.08.85-3.06,1.38-1.69.9-3.31,1.95-5.01,2.82-2.64,1.36-5.19,2.88-7.67,4.53-.56.37-.72.77-.6,1.39.23,1.27.38,2.54.63,3.81.28,1.47.62,2.93.94,4.39.21.95.38,1.92.65,2.85.39,1.33.88,2.65,1.26,3.98.69,2.41,1.36,4.81,2.14,7.19.31.96.62,1.93.89,2.91.28,1.01.47,2.04.78,3.03.64,2.03,1.35,4.04,2.02,6.06.39,1.19.69,2.41,1.14,3.58.74,1.95,1.67,3.84,2.32,5.82.66,2.03,1.65,3.91,2.47,5.86,1.54,3.67,3.22,7.28,4.85,10.91.83,1.84,1.64,3.69,2.5,5.52.65,1.39,1.37,2.75,2.04,4.14.84,1.72,1.68,3.44,2.47,5.19.69,1.52,1.26,3.08,2.14,4.52.93,1.51,1.58,3.18,2.41,4.75.7,1.32,1.52,2.59,2.25,3.9.76,1.37,1.47,2.77,2.21,4.14.95,1.79,1.92,3.56,2.85,5.36.93,1.8,1.84,3.61,2.74,5.43.2.4.47.69.92.78,1.05.19,1.96.65,2.88,1.18.81.46,1.73.72,2.59,1.1,1.22.54,2.41,1.12,3.63,1.63.32.13.77.18,1.09.07,2.31-.81,4.6-1.68,6.9-2.52.37-.13.54-.37.61-.75.16-.86.34-1.71.59-2.54.4-1.36.98-2.62,2.38-3.26.44-.2.84-.51,1.3-.68,1.46-.57,2.94-1.1,4.42-1.62,1.21-.43,2.45-.77,3.69-1.42-.33-.67-.61-1.27-.92-1.84-1.49-2.73-2.93-5.49-3.99-8.41-.84-2.33-1.67-4.67-2.52-7-.32-.89-.78-1.74-.97-2.65-.43-2.05-.75-4.12-1.04-6.19-.08-.6.07-1.24.16-1.86.21-1.41.99-2.59,1.57-3.85.63-1.36,1.64-2.34,2.97-2.98,1.29-.62,2.6-1.18,3.91-1.75,1.7-.74,3.37-1.53,5.1-2.18,3.04-1.16,6.11-2.22,9.16-3.35,2.66-.98,5.29-2.03,7.96-2.97,2.73-.98,5.5-1.86,8.25-2.79,1.95-.66,3.89-1.37,5.84-2.03,1.76-.59,3.52-1.16,5.3-1.68.87-.25,1.81-.32,2.68.06,1.5.66,3,1.32,4.46,2.06.47.24.88.69,1.2,1.13.6.86,1.06,1.8,1.65,2.67.4.59.61,1.19.76,1.9.39,1.87.86,3.73,1.38,5.57.41,1.44,1.02,2.82,1.42,4.26.71,2.55,1.34,5.13,1.97,7.7.31,1.28.56,2.59.83,3.88.19.94.39,1.88.61,2.94v-.04Zm-53.89,23.56c.61-.16,1.19-.26,1.73-.46,3.24-1.2,6.48-2.42,9.71-3.62,2.46-.92,4.92-1.81,7.38-2.72,1.64-.61,3.27-1.21,4.89-1.87,2.47-.99,4.89-2.09,7.37-3.03,2.97-1.12,5.99-2.13,9-3.17,3.9-1.35,7.81-2.68,11.71-4.02.35-.12.69-.3,1.08-.47-.32-2.06-.52-4.08-.96-6.04-.8-3.61-1.72-7.19-2.61-10.77-.31-1.25-.63-2.51-1.08-3.71-.93-2.46-1.56-4.99-2.04-7.57-.07-.4-.2-.82-.4-1.17-.61-1.06-1.27-2.09-1.92-3.12-.11-.17-.27-.35-.45-.43-1.51-.72-3-1.51-4.56-2.09-.91-.34-1.92-.25-2.75.51-.26.25-.66.38-1.02.48-1.21.34-2.45.59-3.65.97-2.43.78-4.83,1.61-7.25,2.42-.89.3-1.79.57-2.67.88-1.61.57-3.21,1.16-4.8,1.74-1.02.37-2.04.72-3.06,1.1-.75.28-1.48.63-2.23.9-2,.72-4.02,1.4-6.01,2.15-2.12.8-4.21,1.67-6.32,2.48-.94.37-1.94.62-2.86,1.03-1.43.63-2.84,1.35-4.24,2.06-.33.16-.64.41-.89.69-1.25,1.42-2.03,3.08-2.4,4.93-.14.71-.28,1.48-.15,2.17.49,2.38.58,4.83,1.6,7.11,1.34,3.02,2.08,6.28,3.44,9.3.34.76.65,1.54,1.01,2.3.75,1.57,1.51,3.13,2.3,4.69.47.93,1.03,1.82,1.49,2.76.55,1.13,1.02,2.29,1.6,3.6h0Z"/><path class="cls-2" d="m12.6,148.21c-.92.13-1.76.28-2.61.35-1.47.13-2.94.08-4.36-.35-1.08-.33-1.96-.89-2.42-2-.38-.92-.22-1.92.58-2.55.93-.75,1.94-1.27,3.22-1.3,3.85-.1,7.69-.28,11.51-.75.58-.07,1.06-.25,1.51-.63.42-.36.92-.64,1.41-.89,1.18-.58,2.14-1.44,3.06-2.35.32-.32.66-.63,1.02-.89,3.5-2.57,6.78-5.38,9.91-8.38,1.89-1.81,3.71-3.69,5.57-5.54,1.04-1.04,2.08-2.06,3.09-3.12,1.86-1.94,3.72-3.88,5.53-5.87,1.71-1.89,3.38-3.82,5.03-5.76,1.76-2.09,3.29-4.34,4.54-6.77.59-1.15,1.16-2.3,1.66-3.49.58-1.35.98-2.74.82-4.25-.14-1.42-.14-2.85-.25-4.27-.03-.37-.13-.76-.3-1.1-.2-.42-.39-.79-.13-1.27.08-.16-.04-.46-.13-.69-1.37-3.7-2.82-7.38-4.11-11.11-.92-2.67-1.61-5.42-2.43-8.12-.3-1-.69-1.98-.99-2.98-.83-2.77-1.63-5.55-2.45-8.33-.42-1.41-.9-2.8-1.26-4.21-.4-1.56-.68-3.14-1.01-4.7-.43-2.08-.87-4.15-1.26-6.24-.07-.37-.07-.78.03-1.13.07-.27.31-.54.55-.7,1.46-.94,2.94-1.89,4.45-2.77,1.87-1.09,3.68-2.27,5.67-3.16,1.37-.61,2.63-1.44,3.97-2.12,4.18-2.13,8.37-4.21,12.78-5.84,1.31-.48,2.66-.86,3.97-1.33,1.54-.55,3.07-1.16,4.59-1.74,1.6-.61,3.17-1.32,4.8-1.83,2.31-.72,4.5-1.74,6.78-2.5.6-.2,1.2-.37,1.81-.55,1.81-.53,3.62-1.05,5.43-1.57,2.05-.57,4.1-1.13,6.15-1.7.94-.27,1.87-.58,2.8-.86,2.01-.6,4.02-1.19,6.04-1.79,2.01-.6,4.01-1.21,6.04-1.76,1.95-.52,3.93-.97,5.89-1.44,2.24-.54,4.48-1.07,6.73-1.57,1.36-.31,2.73-.57,4.1-.83,2.47-.48,4.94-.95,7.4-1.42,3.32-.64,6.66-1.21,9.97-1.94,2.02-.45,4.09-.47,6.13-.72,2.32-.28,4.65-.45,6.99-.6,1.14-.07,2.29,0,3.44.03,1.32.03,2.65.1,3.97.13.69.01,1.22.23,1.49.93.07.19.28.4.48.45.46.12.58.37.65.81.19,1.31.45,2.61.69,3.91.19,1.03.42,2.05.59,3.09.32,1.89.58,3.79.92,5.67.4,2.16.91,4.3,1.28,6.46.5,2.92.89,5.86,1.37,8.79.46,2.82.99,5.63,1.47,8.46.15.88.64,1.51,1.37,2.01,1.7,1.17,3.46,2.25,5.45,2.87.69.22,1.41.37,2.14.48,1.55.25,3.11.49,4.67.64.83.08,1.67-.06,2.51-.07,2.45-.05,4.9-.06,7.34-.14,1.19-.04,2.37-.23,3.55-.31,3.49-.23,6.99-.39,10.47-.67,1.85-.15,3.68-.51,5.51-.76,2.46-.33,4.93-.57,7.38-.96,2.17-.34,4.36-.51,6.5-1.07,1-.26,2.08-.22,3.11-.42,1.26-.26,2.51-.62,3.76-.97.29-.08.56-.28.82-.45,1.58-1.09,3.15-2.19,4.73-3.29.88-.62,1.77-1.23,2.66-1.85.66-.45,1.36-.45,2.11-.29,1.91.4,3.83.72,5.74,1.14,3.23.71,6.44.47,9.67-.07,1.4-.24,2.85-.31,4.27-.39,1.29-.07,1.92.87,1.36,2.05-.24.51-.66,1.04-1.13,1.33-.74.44-1.58.72-2.41,1-.79.28-1.61.48-2.41.72-1.41.4-2.84.75-4.23,1.21-.58.19-1.17.54-1.59.98-1.02,1.08-2.14,2.08-2.88,3.43-.61,1.11-1.55,1.74-2.91,1.59-.96-.11-1.63.45-1.6,1.49.05,1.88.15,3.76.36,5.63.19,1.68-.15,2.75-1.34,3.47-1.02.62-2.02.43-2.59-.62-.43-.78-.77-1.64-.99-2.5-.31-1.19-.66-2.35-1.46-3.32-1.11-1.35-2.2-2.71-3.31-4.05-.37-.45-.88-.64-1.49-.63-1.88.06-3.77.05-5.66.14-2.52.12-5.03.28-7.54.48-2.41.19-4.8.41-7.2.69-2.64.31-5.27.7-7.9,1.1-1.31.2-2.61.51-3.9.79-1.71.37-3.43.69-5.11,1.17-1.91.54-3.81,1.17-5.68,1.85-1.71.62-3.41,1.26-5.05,2.04-1.48.71-2.92,1.52-4.26,2.46-1.16.81-2.25,1.79-3.17,2.86-.87,1.02-1.6,2.19-1.94,3.56-.28,1.15-.72,2.27-1.04,3.41-.1.36-.17.77-.1,1.12.47,2.25.99,4.49,1.48,6.73.5,2.28.97,4.56,1.49,6.83.13.57.37,1.12.53,1.68.44,1.51.81,3.03,1.31,4.52.94,2.85,1.97,5.66,2.91,8.51.47,1.42.75,2.89,1.23,4.31.47,1.42,1.04,2.82,1.62,4.2.75,1.8,1.55,3.59,2.35,5.37.25.56.18.99-.17,1.54-.84,1.31-2.12,1.91-3.47,2.39-1.97.7-4,1.25-5.97,1.96-.5.18-.76.09-1.11-.19-.71-.57-1.45-1.1-2.14-1.68-.52-.44-1.03-.48-1.65-.25-1.87.69-3.74,1.39-5.63,2.02-1.36.45-2.76.76-4.13,1.16-.6.18-1.18.42-1.88.69.07.96.22,1.92.57,2.82.27.69.27,1.07-.37,1.3-1.47.54-2.97,1.01-4.45,1.52-.76.26-1.52.52-2.28.78-4.2,1.45-8.38,2.97-12.6,4.35-4.69,1.54-9.11,3.73-13.72,5.43-1.74.64-3.5,1.21-5.24,1.83-2.08.75-4.15,1.5-6.21,2.27-1.87.7-3.71,1.45-5.58,2.14-1.47.54-2.97,1.05-4.46,1.55-.46.15-.96-.23-1.23-.89-.34-.8-.64-1.62-.98-2.43-.35-.81-.42-.83-1.27-.66-.1.02-.21.03-.31.07-2.1.76-4.21,1.5-6.3,2.29-.78.3-1.53.68-2.27,1.07-.28.16-.59.42-.72.72-.47,1.13-.88,2.27-1.29,3.42-.07.22-.04.48-.03.73.04.95.04,1.01-.81,1.33-1.73.65-3.5,1.22-5.24,1.87-.87.33-1.83.5-2.46,1.3-.3.38-.72.27-1.07.13-.91-.36-1.81-.74-2.7-1.15-1.37-.62-2.7-1.3-4.08-1.89-.54-.23-1.14-.28-1.72-.41-.61-.14-1.23-.25-1.83-.43-.21-.06-.43-.25-.54-.45-.69-1.16-1.39-2.33-2.04-3.53-1.33-2.46-2.61-4.94-3.93-7.4-1.31-2.42-2.67-4.82-3.99-7.24-1.14-2.08-2.27-4.16-3.34-6.28-1.12-2.21-2.15-4.46-3.23-6.69-.27-.57-.55-1.13-.84-1.68-.09-.16-.25-.35-.43-.41-1.5-.46-2.99-.9-4.62-.66-1.48.22-3,.25-4.39.82-1.52.63-3,1.35-4.44,2.12-1.59.86-3.15,1.79-4.68,2.77-1.73,1.11-3.41,2.3-5.1,3.49-1.11.78-2.19,1.61-3.26,2.44-1.55,1.2-3.07,2.41-4.6,3.63-.82.65-1.65,1.28-2.44,1.97-1.11.96-2.21,1.92-3.25,2.95-1.46,1.45-2.81,3.02-4.33,4.39-.96.87-1.66,1.98-2.67,2.77-1.21.95-1.66,2.33-1.73,3.67-.16,3.2-.59,6.39-.19,9.61.13,1.1.1,2.23.04,3.34-.07,1.1-.31,2.18-.69,3.24-.33.88-.51,1.81-1.14,2.55-.29.34-.59.7-.94.98-1.05.8-1.9.64-2.48-.54-.43-.87-.72-1.81-1.03-2.74-.19-.55-.28-1.14-.46-1.92-.52.98-.97,1.79-1.35,2.62-.74,1.6-2.04,2.65-3.47,3.53-.96.6-1.91.28-2.51-.69-.9-1.46-1.23-3.03-.75-4.7.34-1.24.69-2.48,1.08-3.89-.33.12-.6.16-.79.3-.55.41-1.15.79-1.61,1.3-.75.83-1.7,1.33-2.65,1.85-1.2.66-2.41,1.26-3.63,1.86-1.02.51-2.08.36-3.05-.1-.49-.23-.87-.78-1.18-1.26-.11-.17.04-.63.21-.85.69-.86,1.4-1.72,2.18-2.51,1.77-1.8,3.86-3.2,5.91-4.66,1.17-.83,2.26-1.76,3.38-2.65.07-.05.07-.17.16-.36h-.01Zm167.38-31.27c.78-.29,1.45-.57,2.14-.78,1.8-.57,3.62-1.06,5.41-1.66,1.62-.55,3.21-1.21,4.8-1.83.5-.19.91-.13,1.34.25.69.6,1.47,1.07,2.15,1.67.55.48,1.08.52,1.73.27,1.2-.47,2.43-.89,3.65-1.33.69-.25,1.39-.46,2.05-.76,1.34-.6,1.58-1.51.94-2.81-.76-1.57-1.51-3.15-2.09-4.79-.98-2.77-1.81-5.58-2.73-8.37-.52-1.6-1.14-3.15-1.66-4.75-.64-1.95-1.28-3.92-1.85-5.9-.57-1.95-1.1-3.9-1.56-5.87-.67-2.82-1.24-5.66-1.91-8.48-.54-2.24-1.18-4.46-1.74-6.69-.82-3.25-1.66-6.49-2.4-9.76-.89-3.95-1.74-7.91-2.51-11.88-.75-3.87-1.38-7.77-2.02-11.66-.34-2.03-.55-4.08-.9-6.11-.75-4.26-1.56-8.51-2.34-12.77-.05-.27.01-.55-.01-.83-.1-1.14-.14-2.3-.36-3.41-.3-1.59-.75-3.16-1.11-4.74-.13-.57-.9-1.3-1.49-1.32-2.02-.04-4.04-.07-6.07-.1-4.03-.07-8.02.54-12.02.95-2.35.25-4.67.85-7,1.31-1.2.24-2.38.56-3.58.8-2.12.42-4.25.78-6.37,1.19-1.47.28-2.94.61-4.4.92-3.58.76-7.19,1.42-10.74,2.3-3.22.8-6.38,1.82-9.57,2.74-1.98.57-3.95,1.16-5.93,1.73-1.64.47-3.31.89-4.95,1.36-.7.2-1.38.48-2.08.69-2.78.83-5.57,1.62-8.33,2.47-1.1.34-2.17.78-3.24,1.21-2.46.98-5.04,1.59-7.48,2.68-2.43,1.07-4.97,1.89-7.46,2.82-1.51.56-3.03,1.09-4.53,1.68-2.7,1.06-5.36,2.22-7.93,3.57-.99.52-2.08.85-3.06,1.38-1.69.9-3.31,1.95-5.01,2.82-2.64,1.36-5.19,2.88-7.67,4.53-.56.37-.72.77-.6,1.39.23,1.27.38,2.54.63,3.81.28,1.47.62,2.93.94,4.39.21.95.38,1.92.65,2.85.39,1.33.88,2.65,1.26,3.98.69,2.41,1.36,4.81,2.14,7.19.31.96.62,1.93.89,2.91.28,1.01.47,2.04.78,3.03.64,2.03,1.35,4.04,2.02,6.06.39,1.19.69,2.41,1.14,3.58.74,1.95,1.67,3.84,2.32,5.82.66,2.03,1.65,3.91,2.47,5.86,1.54,3.67,3.22,7.28,4.85,10.91.83,1.84,1.64,3.69,2.5,5.52.65,1.39,1.37,2.75,2.04,4.14.84,1.72,1.68,3.44,2.47,5.19.69,1.52,1.26,3.08,2.14,4.52.93,1.51,1.58,3.18,2.41,4.75.7,1.32,1.52,2.59,2.25,3.9.76,1.37,1.47,2.77,2.21,4.14.95,1.79,1.92,3.56,2.85,5.36.93,1.8,1.84,3.61,2.74,5.43.2.4.47.69.92.78,1.05.19,1.96.65,2.88,1.18.81.46,1.73.72,2.59,1.1,1.22.54,2.41,1.12,3.63,1.63.32.13.77.18,1.09.07,2.31-.81,4.6-1.68,6.9-2.52.37-.13.54-.37.61-.75.16-.86.34-1.71.59-2.54.4-1.36.98-2.62,2.38-3.26.44-.2.84-.51,1.3-.68,1.46-.57,2.94-1.1,4.42-1.62,1.21-.43,2.45-.77,3.69-1.42-.33-.67-.61-1.27-.92-1.84-1.49-2.73-2.93-5.49-3.99-8.41-.84-2.33-1.67-4.67-2.52-7-.32-.89-.78-1.74-.97-2.65-.43-2.05-.75-4.12-1.04-6.19-.08-.6.07-1.24.16-1.86.21-1.41.99-2.59,1.57-3.85.63-1.36,1.64-2.34,2.97-2.98,1.29-.62,2.6-1.18,3.91-1.75,1.7-.74,3.37-1.53,5.1-2.18,3.04-1.16,6.11-2.22,9.16-3.35,2.66-.98,5.29-2.03,7.96-2.97,2.73-.98,5.5-1.86,8.25-2.79,1.95-.66,3.89-1.37,5.84-2.03,1.76-.59,3.52-1.16,5.3-1.68.87-.25,1.81-.32,2.68.06,1.5.66,3,1.32,4.46,2.06.47.24.88.69,1.2,1.13.6.86,1.06,1.8,1.65,2.67.4.59.61,1.19.76,1.9.39,1.87.86,3.73,1.38,5.57.41,1.44,1.02,2.82,1.42,4.26.71,2.55,1.34,5.13,1.97,7.7.31,1.28.56,2.59.83,3.88.19.94.39,1.88.61,2.94v-.04Zm-53.89,23.56c.61-.16,1.19-.26,1.73-.46,3.24-1.2,6.48-2.42,9.71-3.62,2.46-.92,4.92-1.81,7.38-2.72,1.64-.61,3.27-1.21,4.89-1.87,2.47-.99,4.89-2.09,7.37-3.03,2.97-1.12,5.99-2.13,9-3.17,3.9-1.35,7.81-2.68,11.71-4.02.35-.12.69-.3,1.08-.47-.32-2.06-.52-4.08-.96-6.04-.8-3.61-1.72-7.19-2.61-10.77-.31-1.25-.63-2.51-1.08-3.71-.93-2.46-1.56-4.99-2.04-7.57-.07-.4-.2-.82-.4-1.17-.61-1.06-1.27-2.09-1.92-3.12-.11-.17-.27-.35-.45-.43-1.51-.72-3-1.51-4.56-2.09-.91-.34-1.92-.25-2.75.51-.26.25-.66.38-1.02.48-1.21.34-2.45.59-3.65.97-2.43.78-4.83,1.61-7.25,2.42-.89.3-1.79.57-2.67.88-1.61.57-3.21,1.16-4.8,1.74-1.02.37-2.04.72-3.06,1.1-.75.28-1.48.63-2.23.9-2,.72-4.02,1.4-6.01,2.15-2.12.8-4.21,1.67-6.32,2.48-.94.37-1.94.62-2.86,1.03-1.43.63-2.84,1.35-4.24,2.06-.33.16-.64.41-.89.69-1.25,1.42-2.03,3.08-2.4,4.93-.14.71-.28,1.48-.15,2.17.49,2.38.58,4.83,1.6,7.11,1.34,3.02,2.08,6.28,3.44,9.3.34.76.65,1.54,1.01,2.3.75,1.57,1.51,3.13,2.3,4.69.47.93,1.03,1.82,1.49,2.76.55,1.13,1.02,2.29,1.6,3.6h0Z"/><path class="cls-1" d="m126.1,140.5c-.58-1.31-1.05-2.47-1.6-3.6-.46-.94-1.02-1.83-1.49-2.76-.78-1.55-1.55-3.12-2.3-4.69-.36-.75-.66-1.54-1.01-2.3-1.37-3.02-2.09-6.28-3.44-9.3-1.02-2.28-1.11-4.73-1.6-7.11-.14-.69,0-1.46.15-2.17.36-1.84,1.15-3.5,2.4-4.93.25-.28.56-.52.89-.69,1.4-.71,2.8-1.42,4.24-2.06.93-.41,1.91-.66,2.86-1.03,2.11-.82,4.21-1.68,6.32-2.48,1.99-.75,4.01-1.42,6.01-2.15.75-.28,1.49-.62,2.23-.9,1.02-.38,2.04-.73,3.06-1.1,1.6-.58,3.2-1.18,4.8-1.74.88-.31,1.79-.58,2.67-.88,2.41-.8,4.82-1.65,7.25-2.42,1.2-.38,2.44-.63,3.65-.97.36-.1.75-.24,1.02-.48.82-.76,1.83-.84,2.75-.51,1.56.58,3.06,1.36,4.56,2.09.18.08.34.26.45.43.65,1.03,1.31,2.06,1.92,3.12.2.35.33.77.4,1.17.48,2.58,1.11,5.11,2.04,7.57.46,1.2.77,2.46,1.08,3.71.9,3.58,1.82,7.16,2.61,10.77.43,1.97.64,3.98.96,6.04-.4.17-.73.34-1.08.47-3.9,1.34-7.81,2.67-11.71,4.02-3,1.04-6.03,2.04-9,3.17-2.48.94-4.91,2.03-7.37,3.03-1.62.66-3.26,1.26-4.89,1.87-2.46.92-4.92,1.81-7.38,2.72-3.24,1.21-6.47,2.43-9.71,3.62-.55.2-1.13.31-1.73.46h0Zm-1.81-36.07l-.02-.07c-1.51.55-3.02,1.11-4.52,1.66-.69.25-.82.47-.54,1.19.34.87.78,1.71,1.14,2.58.72,1.7,1.41,3.41,2.14,5.1.16.38.44.72.6,1.1.37.9.67,1.83,1.05,2.74.54,1.29,1.13,2.55,1.67,3.83,1.01,2.41,1.99,4.84,2.98,7.26.43,1.06.89,2.11,1.3,3.18.09.23.08.53.04.78-.12.8.17,1.15.94,1.02.65-.11,1.3-.28,1.94-.45,2.22-.62,4.42-1.33,6.66-1.86,2.75-.63,5.36-1.6,7.88-2.82.71-.34.85-.57.66-1.31-.52-2.03-1.02-4.05-1.64-6.05-.73-2.4-1.54-4.77-2.36-7.14-1.02-2.93-2.11-5.84-3.12-8.77-.55-1.58-1.04-3.18-1.49-4.78-.24-.83-.71-1.23-1.61-1.07-.82.15-1.64.4-2.47.51-2.59.34-4.99,1.32-7.48,2.02-1.28.36-2.5.9-3.75,1.36h0Z"/><path d="m78.43,67.22c-1.11-3.01-2.29-6-3.32-9.05-.53-1.58-.78-3.25-1.15-4.88-.04-.17-.04-.35-.1-.51-.75-2.03-.91-4.17-.95-6.29-.04-2.53.41-5.01,2.05-7.08.98-1.24,1.97-2.47,3.47-3.12.66-.29,1.4-.45,2.06-.74,2.14-.95,4.24-1.99,6.39-2.89,1.8-.76,3.65-1.43,5.51-2.06,2.75-.92,5.52-1.77,8.28-2.65,1.46-.46,2.91-.94,4.38-1.38,3.31-.99,6.6-2.04,9.94-2.91,3.01-.78,5.91-1.86,8.85-2.85,1.65-.55,3.35-.96,5.01-1.48,1.3-.4,2.57-.92,3.88-1.3,1.61-.48,3.22-.92,4.85-1.32,2.58-.63,5.16-1.24,7.76-1.8,1.95-.41,3.92-.7,5.88-1.05.95.47,1.81-.16,2.72-.22.96-.07,1.86.11,2.7.65.46.3,1.01.47,1.52.69,2.13.89,4.06,2.07,5.44,3.96,1.09,1.49,2.05,3.06,2.61,4.85.43,1.39.99,2.74,1.42,4.13.36,1.16.61,2.36.88,3.56.23.98.48,1.97.67,2.96.2,1.02.31,2.06.55,3.07.24,1.05.66,2.06.87,3.12.41,2.05,1.02,4.05,1.2,6.15.15,1.69.52,3.37.72,5.06.12,1.04.03,2.09.12,3.13.11,1.33-.56,2.36-1.23,3.37-1.01,1.55-2.08,3.06-3.19,4.54-.39.51-.91,1.01-1.48,1.28-1.14.54-2.32,1.02-3.53,1.32-2.41.6-4.85,1.08-7.16,2.02-.81.33-1.67.51-2.51.75-1.58.44-3.18.8-4.73,1.31-2.82.92-5.67,1.82-8.41,2.96-1.87.78-3.8,1.38-5.63,2.28-1.99.98-4.17,1.58-6.25,2.39-1.95.75-3.88,1.57-5.83,2.33-1.04.4-2.13.69-3.17,1.09-1.99.77-3.97,1.54-5.92,2.39-2.5,1.08-4.95,2.26-7.44,3.36-.66.3-1.38.49-2.07.74-.23.08-.49.13-.68.27-1.4,1.05-3.06.87-4.63.87-1.71,0-3.43-.1-5.12-.33-1.58-.22-2.98-.96-4.26-1.92-.64-.48-1.37-.89-1.9-1.48-.75-.81-1.45-1.7-2-2.65-.98-1.68-1.88-3.43-2.73-5.18-1.52-3.1-2.97-6.23-4.46-9.35.05-.02.1-.04.15-.07h0Zm85.19-3.65c2.23-.8,3.15-1.29,3.64-2,1.14-1.67,2.26-3.36,3.34-5.07.22-.34.37-.78.36-1.17-.03-1.77,0-3.56-.22-5.31-.28-2.14-.78-4.25-1.19-6.37-.25-1.27-.47-2.53-.75-3.79-.18-.81-.49-1.6-.67-2.41-.35-1.59-.63-3.21-.99-4.81-.34-1.53-.71-3.06-1.13-4.57-.32-1.17-.68-2.34-1.14-3.47-.4-.96-.95-1.86-1.45-2.79-1.1-2.02-2.67-3.56-4.71-4.6-.99-.51-2.08-.85-3.05-1.39-.92-.51-1.79-.51-2.7-.1-.25.12-.49.3-.75.36-.29.06-.69.13-.89,0-.53-.37-1.04-.28-1.61-.17-1.61.32-3.24.57-4.84.92-2.46.53-4.91,1.1-7.36,1.68-1.05.25-2.09.56-3.12.87-1.43.44-2.86.91-4.3,1.36-2.37.73-4.75,1.43-7.11,2.18-2.2.7-4.37,1.47-6.57,2.16-.72.23-1.52.26-2.25.48-3.17.98-6.33,2-9.49,2.98-1.4.44-2.82.82-4.22,1.25-1.3.4-2.58.89-3.89,1.24-3.38.92-6.67,2.06-9.88,3.45-2.21.96-4.43,1.91-6.61,2.93-1.88.87-3.11,2.43-4.11,4.18-.58,1.02-.75,2.16-.87,3.3-.07.63-.26,1.27-.16,1.86.25,1.44.2,2.89.54,4.34.69,3.03,1.29,6.07,2.37,9,.91,2.48,1.82,4.98,2.78,7.45.67,1.72,1.41,3.41,2.18,5.09.58,1.27,1.22,2.5,1.88,3.73.75,1.38,1.61,2.7,2.32,4.1,1.22,2.42,3.18,4.02,5.57,5.17.53.25,1.11.48,1.69.52,2.02.14,4.05.19,6.07.28.24,0,.5-.02.72-.09.95-.31,1.91-.6,2.82-.98,2.9-1.21,5.78-2.47,8.67-3.71,1.99-.85,3.97-1.74,5.98-2.53,2.6-1.02,5.24-1.95,7.85-2.94,2.32-.88,4.64-1.77,6.95-2.68,1.85-.73,3.69-1.51,5.54-2.24,2.08-.82,4.15-1.68,6.28-2.38,3.16-1.02,6.37-1.9,9.55-2.85,1.7-.51,3.4-1.05,5.12-1.53,1.5-.42,3.03-.76,3.81-.96h0Z"/><path class="cls-1" d="m177.53,2.63c-2.02-.04-4.04-.07-6.07-.1-4.03-.07-8.02.54-12.02.95-2.35.25-4.67.85-7,1.31-1.2.24-2.38.56-3.58.8-2.12.42-4.25.78-6.37,1.19-1.47.28-2.94.61-4.4.92-3.58.76-7.19,1.42-10.74,2.3-3.22.8-6.38,1.82-9.57,2.74-1.98.57-3.95,1.16-5.93,1.73-1.64.47-3.31.89-4.95,1.36-.7.2-1.38.48-2.08.69-2.78.83-5.57,1.61-8.33,2.47-1.1.34-2.17.78-3.24,1.21-2.46.98-5.04,1.59-7.48,2.68-2.43,1.07-4.97,1.89-7.46,2.82-1.51.56-3.03,1.09-4.53,1.68-2.7,1.06-5.36,2.22-7.93,3.57-.99.52-2.08.85-3.06,1.38-1.69.9-3.31,1.95-5.01,2.82-2.64,1.36-5.19,2.88-7.67,4.53-.56.37-.72.77-.6,1.39.23,1.27.38,2.54.63,3.81.28,1.47.62,2.93.94,4.39.21.95.38,1.92.65,2.85.39,1.33.88,2.65,1.26,3.98.69,2.41,1.36,4.81,2.14,7.19.31.96.62,1.93.89,2.91.28,1.01.47,2.04.78,3.03.64,2.03,1.35,4.04,2.02,6.06.39,1.19.69,2.41,1.14,3.58.74,1.95,1.67,3.84,2.32,5.82.66,2.03,1.65,3.91,2.47,5.86,1.54,3.67,3.22,7.28,4.85,10.91.83,1.84,1.64,3.69,2.5,5.52.65,1.39,1.37,2.75,2.04,4.14.84,1.72,1.68,3.44,2.47,5.19.69,1.52,1.26,3.08,2.14,4.52.93,1.51,1.58,3.18,2.41,4.75.7,1.32,1.52,2.59,2.25,3.9.76,1.37,1.47,2.77,2.21,4.14.95,1.79,1.92,3.56,2.85,5.36.93,1.8,1.84,3.61,2.74,5.43.2.4.47.69.92.78,1.05.19,1.96.65,2.88,1.18.81.46,1.73.72,2.59,1.1,1.22.54,2.41,1.12,3.63,1.63.32.13.77.18,1.09.07,2.31-.81,4.6-1.68,6.9-2.52.37-.13.54-.37.61-.75.16-.86.34-1.71.59-2.54.4-1.36.98-2.62,2.38-3.26.44-.2.84-.51,1.3-.68,1.46-.57,2.94-1.1,4.42-1.62,1.21-.43,2.45-.77,3.69-1.42-.33-.67-.61-1.27-.92-1.84-1.49-2.73-2.93-5.49-3.99-8.41-.84-2.33-1.67-4.67-2.52-7-.32-.89-.78-1.74-.97-2.65-.43-2.05-.75-4.12-1.04-6.19-.08-.6.07-1.24.16-1.86.21-1.41.99-2.59,1.57-3.85.63-1.36,1.64-2.34,2.97-2.98,1.29-.62,2.6-1.18,3.91-1.75,1.7-.74,3.37-1.53,5.1-2.18,3.04-1.16,6.11-2.22,9.16-3.35,2.66-.98,5.29-2.03,7.96-2.97,2.73-.98,5.5-1.86,8.25-2.79,1.95-.66,3.89-1.37,5.84-2.03,1.76-.59,3.52-1.16,5.3-1.68.87-.25,1.81-.32,2.68.06,1.5.66,3,1.32,4.46,2.06.47.24.88.69,1.2,1.13.6.86,1.06,1.8,1.65,2.67.4.59.61,1.19.76,1.9.39,1.87.86,3.73,1.38,5.57.41,1.44,1.02,2.82,1.42,4.26.71,2.55,1.34,5.13,1.97,7.7.31,1.28.56,2.59.83,3.88.19.94.39,1.88.61,2.94.78-.29,1.45-.57,2.14-.78,1.8-.57,3.62-1.06,5.4-1.66,1.62-.55,3.21-1.21,4.8-1.83.5-.19.91-.13,1.34.25.69.6,1.47,1.07,2.15,1.67.55.48,1.08.52,1.73.27,1.2-.47,2.43-.89,3.65-1.33.69-.25,1.39-.46,2.05-.76,1.34-.6,1.58-1.51.94-2.81-.76-1.57-1.51-3.15-2.09-4.79-.98-2.77-1.81-5.58-2.73-8.37-.52-1.59-1.14-3.15-1.66-4.75-.64-1.95-1.28-3.92-1.85-5.9-.57-1.95-1.1-3.9-1.56-5.87-.67-2.82-1.24-5.66-1.91-8.48-.54-2.24-1.18-4.46-1.74-6.69-.82-3.25-1.66-6.49-2.4-9.76-.89-3.95-1.74-7.91-2.51-11.88-.75-3.87-1.38-7.77-2.02-11.66-.34-2.03-.55-4.08-.9-6.11-.75-4.26-1.56-8.51-2.34-12.77-.05-.27.01-.55-.01-.83-.1-1.14-.14-2.3-.36-3.41-.3-1.59-.75-3.16-1.11-4.74-.13-.57-.9-1.3-1.49-1.32l.02-.04Zm-11.33,21.16c.43,1.39.99,2.74,1.42,4.13.36,1.16.61,2.36.88,3.56.23.98.48,1.97.67,2.96.2,1.02.31,2.06.55,3.07.24,1.05.66,2.06.87,3.12.41,2.05,1.02,4.05,1.2,6.15.15,1.69.52,3.37.72,5.06.12,1.04.03,2.09.12,3.13.11,1.33-.56,2.36-1.23,3.37-1.01,1.55-2.08,3.06-3.19,4.53-.39.51-.91,1.01-1.48,1.28-1.14.54-2.32,1.02-3.53,1.32-2.41.6-4.85,1.08-7.16,2.02-.81.33-1.67.51-2.51.75-1.58.44-3.18.8-4.73,1.31-2.82.92-5.67,1.82-8.41,2.96-1.87.78-3.8,1.38-5.63,2.28-1.99.98-4.17,1.58-6.25,2.39-1.95.75-3.88,1.57-5.83,2.33-1.04.4-2.13.69-3.17,1.09-1.99.77-3.97,1.54-5.92,2.39-2.5,1.08-4.95,2.26-7.44,3.36-.66.3-1.38.49-2.07.74-.23.08-.49.13-.68.27-1.4,1.05-3.06.87-4.63.87-1.71,0-3.43-.1-5.12-.33-1.58-.22-2.98-.96-4.26-1.92-.64-.48-1.37-.89-1.9-1.48-.75-.81-1.45-1.7-2-2.65-.98-1.68-1.88-3.43-2.73-5.18-1.52-3.1-2.97-6.23-4.46-9.35.05-.02.1-.04.15-.07-1.11-3.01-2.29-6-3.32-9.05-.53-1.58-.78-3.25-1.15-4.88-.04-.17-.04-.35-.1-.51-.75-2.03-.91-4.17-.95-6.29-.04-2.53.41-5.01,2.05-7.09.98-1.24,1.97-2.47,3.47-3.12.66-.29,1.4-.45,2.06-.74,2.14-.95,4.24-1.99,6.39-2.89,1.8-.76,3.65-1.43,5.51-2.06,2.75-.92,5.52-1.77,8.28-2.64,1.46-.46,2.91-.94,4.38-1.38,3.31-.99,6.6-2.04,9.94-2.91,3.01-.78,5.91-1.86,8.85-2.85,1.65-.55,3.35-.96,5.01-1.48,1.3-.4,2.57-.92,3.88-1.3,1.61-.48,3.22-.92,4.85-1.32,2.58-.63,5.16-1.24,7.76-1.8,1.95-.41,3.92-.7,5.88-1.05.95.47,1.81-.16,2.72-.22.96-.07,1.86.11,2.7.65.46.3,1.01.47,1.52.69,2.13.89,4.06,2.07,5.44,3.96,1.09,1.49,2.05,3.06,2.61,4.85h0Z"/><path d="m64.94,43.08c-.3-.75-.59-1.49-.9-2.24-.04-.1-.08-.2-.13-.28-.04-.09-.1-.16-.15-.23-.21-.28-.46-.41-.8-.41-.16,0-.35.04-.55.1-.48.16-.94.34-1.42.51-.74.28-1.49.55-2.23.82l-.02-.06c-.16.07-.34.15-.51.22-.34.14-.68.28-1.01.44-.16.08-.33.16-.49.25-.35.19-.58.37-.71.57-.21.33-.14.71.13,1.32.25.54.5,1.07.76,1.6.19.4.39.8.58,1.2.58,1.2,1.1,2.42,1.42,3.73.03.11.07.23.13.34.06.11.12.22.18.32.2.35.43.58.66.71.2.1.42.13.64.07.11-.03.23-.07.36-.14.13-.07.25-.16.38-.26.29-.23.58-.45.88-.66.9-.63,1.88-1.13,2.96-1.42.25-.07.5-.15.75-.22.25-.07.5-.16.75-.23.12-.04.22-.07.32-.12.1-.04.18-.1.25-.16.22-.17.32-.38.32-.63,0-.08-.01-.16-.04-.25-.02-.09-.06-.18-.1-.27-.04-.09-.1-.19-.18-.28-.25-.34-.49-.68-.72-1.03-.22-.35-.43-.72-.61-1.1-.34-.73-.64-1.47-.94-2.21h.02Z"/><path d="m124.28,104.43c1.25-.46,2.47-1,3.75-1.36,2.48-.7,4.89-1.68,7.48-2.02.83-.1,1.64-.37,2.47-.51.9-.16,1.37.23,1.61,1.07.46,1.6.95,3.2,1.49,4.78,1.02,2.93,2.11,5.84,3.12,8.77.82,2.37,1.63,4.74,2.36,7.14.61,2,1.12,4.03,1.64,6.05.19.74.04.97-.66,1.31-2.53,1.22-5.13,2.18-7.88,2.82-2.24.52-4.44,1.24-6.66,1.86-.64.18-1.29.34-1.94.45-.77.13-1.06-.22-.94-1.02.04-.25.04-.54-.04-.78-.41-1.07-.87-2.12-1.3-3.18-.99-2.42-1.97-4.84-2.98-7.26-.54-1.28-1.13-2.55-1.67-3.83-.37-.9-.68-1.83-1.05-2.74-.16-.38-.43-.72-.6-1.1-.72-1.69-1.42-3.41-2.14-5.1-.37-.86-.8-1.71-1.14-2.58-.28-.72-.16-.92.54-1.19,1.51-.55,3.02-1.11,4.52-1.66l.02.07h0Zm19.63,14.92c-1.16-.08-2.23-.22-3.29-.2-.53,0-1.11.22-1.58.5-.25.16-.33.64-.43.99-.33,1.24-.93,1.58-2.18,1.17-.81-.27-1.62-.09-2.12.57-.6.81-1.22,1.62-1.64,2.53-.35.75-.57,1.6-.36,2.62.51-.22.91-.34,1.26-.55,1.58-.95,3.12-1.99,4.72-2.89,1.64-.92,3.35-1.74,5.03-2.59,1-.51,1.05-.64.73-1.72-.04-.13-.1-.26-.15-.42h0Zm.9,3.01c-.6.32-1.05.58-1.5.8-.91.44-1.82.87-2.75,1.29-.46.21-.61.5-.45,1,.28.89.4,1.83.94,2.64.43.66.75,1.39,1.19,2.21,1.41-.63,2.83-1.25,4.33-1.91-.61-2.09-1.18-4.05-1.76-6.04h0Zm-14.03-12.12c-.87-1.96-1.68-3.76-2.5-5.57-.96.35-1.88.69-2.8,1.03.4,1.29.84,2.46,1.13,3.67.22.92.76,1.59,1.31,2.34.98-.51,1.9-.98,2.86-1.48h0Zm4.69-2.68c-.4-1.36-.78-2.62-1.15-3.87-.13-.46-.36-.78-.88-.63-.97.26-1.94.54-2.91.83-.18.05-.31.25-.52.42.18.38.34.72.5,1.05.13.28.28.55.39.84.34.83.61,1.68.99,2.48.28.6.44.63,1.08.29.83-.43,1.63-.92,2.5-1.41h0Zm2.82,18.12c-1.07.68-2.18,1.36-3.26,2.09-.13.09-.2.48-.13.66.4,1,.85,1.98,1.29,2.95.16.36.43.54.84.41,1.19-.35,2.38-.7,3.46-1.03-.75-1.72-1.44-3.33-2.2-5.08h0Zm-17.18-18.54c.01.28,0,.35.03.41.76,1.87,1.52,3.74,2.31,5.6.14.34.42.61.66.95.6-.35,1.11-.63,1.61-.95.6-.38.68-.57.3-1.19-.62-.99-.96-2.08-1.31-3.18-.18-.57-.37-1.13-.61-1.67-.15-.34-.4-.62-.56-.86-.89.33-1.66.61-2.44.89h0Zm9.54,22.91c.34.92.6,1.67.9,2.4.14.35.36.72.85.57.75-.22,1.49-.47,2.22-.7-.47-1.27-.9-2.41-1.34-3.61-.94.48-1.76.9-2.64,1.36h0Zm5.19-27.4c.32,1.39.41,2.74,1.2,3.94.59-.41,1.09-.77,1.61-1.13-.39-1.05-.77-2.07-1.16-3.13-.59.11-1.1.21-1.66.32h0Z"/><path class="cls-1" d="m163.61,63.57c-.79.19-2.31.54-3.81.96-1.71.48-3.41,1.02-5.12,1.53-3.18.95-6.39,1.83-9.55,2.85-2.13.69-4.19,1.56-6.28,2.38-1.85.73-3.69,1.51-5.54,2.24-2.31.91-4.62,1.8-6.95,2.68-2.61.99-5.25,1.92-7.85,2.94-2.02.79-3.99,1.68-5.98,2.53-2.89,1.24-5.78,2.5-8.67,3.71-.92.39-1.88.67-2.82.98-.22.07-.49.1-.72.09-2.02-.07-4.06-.13-6.07-.28-.58-.04-1.17-.27-1.69-.52-2.38-1.15-4.34-2.74-5.57-5.17-.7-1.4-1.57-2.72-2.32-4.1-.66-1.22-1.3-2.47-1.88-3.73-.77-1.68-1.51-3.38-2.18-5.09-.96-2.47-1.86-4.96-2.78-7.45-1.08-2.92-1.67-5.97-2.37-9-.34-1.45-.29-2.9-.54-4.34-.1-.6.09-1.24.16-1.86.12-1.15.29-2.29.87-3.3,1-1.75,2.23-3.3,4.11-4.18,2.18-1.02,4.4-1.96,6.61-2.93,3.21-1.4,6.5-2.53,9.88-3.45,1.31-.36,2.59-.84,3.89-1.24,1.4-.43,2.82-.81,4.22-1.25,3.17-.99,6.32-2.01,9.49-2.98.73-.22,1.52-.25,2.25-.48,2.2-.69,4.37-1.47,6.57-2.16,2.36-.75,4.74-1.45,7.11-2.18,1.43-.44,2.86-.92,4.3-1.36,1.03-.31,2.07-.63,3.12-.87,2.45-.58,4.9-1.16,7.36-1.68,1.61-.34,3.23-.6,4.84-.92.56-.11,1.07-.2,1.61.17.2.14.6.07.89,0,.26-.06.5-.24.75-.36.92-.42,1.78-.42,2.7.1.98.54,2.05.89,3.05,1.39,2.05,1.04,3.62,2.59,4.71,4.6.5.92,1.05,1.82,1.45,2.79.46,1.13.81,2.3,1.14,3.47.42,1.51.79,3.04,1.13,4.57.36,1.59.64,3.21.99,4.81.18.81.49,1.6.67,2.41.28,1.26.51,2.53.75,3.79.41,2.12.91,4.23,1.19,6.37.22,1.75.2,3.54.22,5.31,0,.4-.15.83-.36,1.17-1.08,1.71-2.2,3.4-3.34,5.07-.49.71-1.4,1.2-3.64,2h0Zm-67.69-14.68c-.29.13-.58.26-.87.38-1.72.69-3.24,1.68-4.36,3.17-.94,1.25-1.76,2.6-2.71,3.85-.9,1.18-1.15,2.51-1.23,3.93-.09,1.67-.13,3.35-.28,5.02-.3,3.44.88,6.45,2.62,9.29,1.15,1.87,2.82,3.17,4.83,4.05,1.93.85,3.91,1.63,6.03,1.66,2.64.04,5.21-.46,7.63-1.62,2.59-1.24,4.73-2.94,6.04-5.56.23-.47.46-.95.78-1.36,1.26-1.59,2.1-3.36,2.5-5.34.44-2.23.86-4.46.48-6.74-.13-.82-.54-1.59-.67-2.41-.24-1.48-.84-2.81-1.58-4.08-1.16-1.99-2.8-3.47-4.99-4.25-1.92-.69-3.89-1.13-5.93-1.26-2.87-.18-5.64.25-8.32,1.28h.01Zm54.06,8.3c3.15-1.13,5-3.26,6.24-6.01.75-1.67.97-3.45,1.17-5.27.31-2.94-.98-5.25-2.64-7.46-.13-.16-.28-.32-.43-.45-.92-.74-1.85-1.46-2.77-2.2-1.13-.9-2.32-1.68-3.72-2.09-1.59-.45-3.15-.28-4.72.25-1.74.6-3.18,1.56-4.33,2.97-1.4,1.71-2.22,3.71-2.85,5.78-.5,1.65-.67,3.35-.13,5.05.1.34.19.67.28,1.01.83,3.28,2.56,5.93,5.5,7.71,1.88,1.14,3.97,1.51,6.14,1.26.86-.1,1.7-.42,2.3-.58v.03Z"/><path class="cls-1" d="m143.92,119.35c.06.16.11.28.15.42.31,1.08.26,1.21-.73,1.72-1.68.86-3.38,1.67-5.03,2.59-1.61.91-3.15,1.94-4.72,2.89-.35.21-.75.34-1.26.55-.21-1.01,0-1.86.36-2.62.43-.9,1.05-1.72,1.64-2.53.49-.67,1.31-.84,2.12-.57,1.24.41,1.85.07,2.18-1.17.09-.35.17-.84.43-.99.46-.28,1.04-.48,1.58-.5,1.07-.01,2.14.12,3.29.2h0Z"/><path class="cls-1" d="m144.82,122.36c.58,1.98,1.15,3.94,1.76,6.04-1.5.66-2.92,1.29-4.33,1.91-.43-.82-.75-1.56-1.19-2.21-.54-.81-.66-1.75-.94-2.64-.16-.49,0-.79.45-1,.92-.42,1.84-.85,2.75-1.29.46-.22.9-.48,1.5-.8h0Z"/><path class="cls-1" d="m130.79,110.24c-.96.5-1.88.97-2.86,1.48-.55-.76-1.09-1.42-1.31-2.34-.28-1.21-.72-2.39-1.13-3.67.92-.34,1.84-.68,2.8-1.03.81,1.82,1.61,3.61,2.5,5.58h0Z"/><path class="cls-1" d="m135.48,107.56c-.87.49-1.67.98-2.5,1.41-.64.34-.79.31-1.08-.29-.38-.8-.66-1.65-.99-2.48-.11-.28-.25-.56-.39-.84-.16-.34-.32-.67-.5-1.05.21-.17.34-.37.52-.42.96-.3,1.93-.57,2.91-.83.52-.14.75.17.88.63.37,1.26.75,2.51,1.15,3.87h0Z"/><path class="cls-1" d="m138.31,125.68c.75,1.74,1.45,3.35,2.2,5.08-1.08.32-2.27.67-3.46,1.03-.41.12-.68-.05-.84-.41-.44-.98-.89-1.95-1.29-2.95-.07-.18,0-.56.13-.66,1.08-.73,2.19-1.41,3.26-2.09h0Z"/><path class="cls-1" d="m121.13,107.15c.77-.28,1.55-.57,2.44-.89.16.25.42.54.56.86.24.54.43,1.1.61,1.67.34,1.1.69,2.19,1.31,3.18.38.61.31.81-.3,1.19-.5.31-1.02.6-1.61.95-.24-.34-.52-.61-.66-.95-.79-1.86-1.55-3.73-2.31-5.6-.02-.06-.01-.13-.03-.41h0Z"/><path class="cls-1" d="m130.67,130.06c.87-.45,1.69-.87,2.64-1.36.44,1.2.87,2.34,1.34,3.61-.72.23-1.47.48-2.22.7-.49.15-.71-.21-.85-.57-.3-.73-.55-1.48-.9-2.4h0Z"/><path class="cls-1" d="m135.87,102.66c.56-.1,1.07-.2,1.66-.32.39,1.06.77,2.08,1.16,3.13-.52.37-1.02.72-1.61,1.13-.79-1.2-.88-2.55-1.2-3.94h0Z"/><path d="m95.93,48.9c2.67-1.04,5.45-1.46,8.32-1.28,2.04.13,4.01.57,5.93,1.26,2.2.79,3.83,2.26,4.99,4.25.74,1.27,1.33,2.6,1.58,4.08.13.82.53,1.59.67,2.41.37,2.27-.04,4.51-.48,6.74-.39,1.99-1.23,3.76-2.5,5.34-.32.4-.55.89-.78,1.36-1.31,2.62-3.46,4.32-6.04,5.56-2.41,1.16-4.99,1.66-7.63,1.62-2.12-.03-4.1-.81-6.03-1.66-2-.88-3.68-2.18-4.83-4.05-1.74-2.84-2.92-5.86-2.62-9.29.14-1.67.19-3.34.28-5.02.07-1.41.32-2.75,1.23-3.93.96-1.24,1.76-2.59,2.71-3.85,1.12-1.48,2.64-2.48,4.36-3.17.29-.12.58-.25.87-.38h-.01Zm1.28,1.54c-1.95.68-3.6,1.77-4.92,3.32-.76.89-1.35,1.93-2.05,2.88-.77,1.06-1.29,2.19-1.34,3.54-.07,1.77-.32,3.53-.37,5.31-.07,2.31.57,4.49,1.55,6.57.94,1.98,2.22,3.65,4.32,4.51,1.29.52,2.59,1.01,3.92,1.44.69.22,1.44.37,2.16.34,3-.07,5.81-.86,8.29-2.61,1.31-.93,2.49-2.01,3.09-3.59.25-.64.72-1.19,1.07-1.8.47-.81.93-1.62,1.38-2.44.49-.9.53-1.94.85-2.88.62-1.81.66-3.64.26-5.46-.27-1.26-.63-2.51-1.06-3.72-.74-2.05-1.82-3.88-3.91-4.84-.92-.42-1.9-.72-2.87-.99-3.5-.99-6.96-.75-10.37.43h0Z"/><path d="m149.99,57.19c-.61.16-1.44.48-2.3.58-2.17.25-4.26-.12-6.14-1.26-2.94-1.77-4.67-4.43-5.5-7.71-.08-.34-.17-.68-.28-1.01-.54-1.7-.37-3.4.13-5.05.63-2.07,1.46-4.07,2.85-5.78,1.16-1.42,2.6-2.38,4.33-2.97,1.57-.54,3.12-.71,4.72-.25,1.4.4,2.59,1.19,3.72,2.09.92.74,1.85,1.46,2.77,2.2.16.13.31.28.43.45,1.67,2.21,2.96,4.52,2.64,7.46-.19,1.81-.41,3.59-1.17,5.27-1.23,2.74-3.08,4.87-6.24,6.01v-.03Zm-1.17-1.83c2.24-.35,3.54-1.94,4.83-3.52.38-.47.58-1.1.84-1.67.7-1.52.78-3.17.9-4.8.09-1.24,0-2.44-.76-3.5-.25-.34-.37-.76-.6-1.1-.41-.6-.78-1.25-1.31-1.74-1.4-1.31-2.94-2.47-4.62-3.41-.43-.25-.99-.31-1.49-.37-1.08-.13-2.05.3-3.05.63-1.41.48-2.5,1.4-3.31,2.62-.62.92-1.26,1.86-1.68,2.88-.44,1.08-.93,2.16-1.03,3.38-.08,1.01.18,1.92.36,2.88.34,1.86,1.14,3.52,2.23,5.02.83,1.15,1.89,2.12,3.2,2.63,1.81.72,3.7,1.18,5.51.06h0Z"/><path class="cls-1" d="m97.21,50.43c3.41-1.19,6.87-1.42,10.37-.43.97.28,1.95.57,2.87.99,2.09.95,3.18,2.78,3.91,4.84.43,1.21.79,2.46,1.06,3.72.4,1.83.36,3.65-.26,5.46-.32.95-.36,1.99-.85,2.88-.45.82-.91,1.64-1.38,2.44-.35.6-.82,1.16-1.07,1.8-.61,1.58-1.79,2.65-3.09,3.59-2.47,1.76-5.27,2.54-8.29,2.61-.72.01-1.47-.13-2.16-.34-1.32-.42-2.63-.91-3.92-1.44-2.1-.86-3.38-2.53-4.32-4.51-.99-2.08-1.62-4.26-1.55-6.57.05-1.77.31-3.53.37-5.31.05-1.35.57-2.48,1.34-3.54.69-.95,1.29-1.99,2.05-2.88,1.31-1.54,2.97-2.65,4.92-3.32h0Zm3.25,6.22c-1.85.66-3.45,1.54-4.6,3.09-.28.39-.61.81-.71,1.26-.28,1.15-.52,2.32-.63,3.5-.11,1.22.02,2.48.63,3.57,1.4,2.5,3.44,4.19,6.4,4.49,1.64.16,3.21-.01,4.58-1.07.16-.13.36-.22.54-.33,2.26-1.33,3.34-3.42,3.66-5.9.16-1.23,0-2.5-.06-3.76-.01-.29-.16-.6-.31-.86-.88-1.53-2.14-2.65-3.71-3.44-1.88-.94-3.8-1.39-5.78-.54h0Z"/><path class="cls-1" d="m148.83,55.36c-1.81,1.12-3.7.66-5.51-.06-1.31-.52-2.37-1.49-3.2-2.63-1.09-1.51-1.88-3.16-2.23-5.02-.17-.95-.43-1.87-.36-2.88.1-1.22.59-2.3,1.03-3.38.42-1.02,1.06-1.96,1.68-2.88.81-1.21,1.89-2.14,3.31-2.62.99-.34,1.96-.77,3.05-.63.51.06,1.06.13,1.49.37,1.67.95,3.21,2.09,4.62,3.41.52.49.9,1.14,1.31,1.74.23.34.36.77.6,1.1.77,1.07.85,2.27.76,3.5-.11,1.63-.19,3.28-.9,4.8-.26.57-.46,1.19-.84,1.67-1.28,1.58-2.58,3.17-4.83,3.52h0Zm4.19-11.31c-.22-1.17-.93-1.95-1.86-2.59-.32-.22-.63-.45-.94-.66-.66-.45-1.38-.68-2.17-.63-.8.04-1.61.09-2.4.2-1.23.16-2.11.89-2.67,1.96-.3.58-.52,1.21-.75,1.83-.61,1.61-.37,3.16.4,4.65.51.97,1.3,1.68,2.32,2.01,1.4.45,2.86.63,4.35.34.74-.15,1.34-.48,1.91-1.01.69-.64,1.21-1.39,1.52-2.22.47-1.24,1.08-2.55.29-3.88h0Z"/><path d="m100.46,56.65c1.97-.85,3.9-.4,5.78.54,1.57.78,2.84,1.91,3.71,3.44.15.26.29.57.31.86.06,1.25.22,2.53.06,3.76-.32,2.48-1.4,4.57-3.66,5.9-.18.1-.37.2-.54.33-1.36,1.06-2.94,1.24-4.58,1.07-2.97-.3-5-1.99-6.4-4.49-.61-1.09-.74-2.34-.63-3.57.1-1.18.35-2.34.63-3.5.1-.45.43-.87.71-1.26,1.15-1.54,2.76-2.43,4.6-3.09h0Zm2.21,8.56c.31,1.19,1.19,1.67,2.14,2.06.51.21.9-.02,1.19-.4.61-.83,1.02-1.74.99-2.79-.01-.54-.19-1.02-.75-1.27-.54-.24-1.08-.47-1.6-.75-.49-.26-.9-.16-1.22.22-.72.88-1.31,1.82-.75,2.94h0Z"/><path d="m153.02,44.04c.78,1.33.18,2.63-.29,3.88-.31.83-.84,1.58-1.52,2.22-.56.52-1.17.86-1.91,1.01-1.49.3-2.94.12-4.35-.34-1.02-.33-1.82-1.04-2.32-2.01-.78-1.49-1.01-3.04-.4-4.65.23-.62.45-1.25.75-1.83.56-1.08,1.43-1.8,2.67-1.96.79-.1,1.6-.16,2.4-.2.79-.04,1.52.19,2.17.63.31.22.63.45.94.66.93.63,1.64,1.42,1.86,2.59h0Zm-4.3,2.68c.3-.13.62-.28.93-.42.52-.24.76-.7.91-1.21.16-.55-.16-.92-.55-1.25-.29-.25-.61-.31-.96-.1-1,.61-1.18,2.02-.34,2.97h0Z"/><path class="cls-1" d="m102.67,65.2c-.57-1.12.03-2.06.75-2.94.31-.37.73-.48,1.22-.22.52.28,1.06.51,1.6.75.56.25.73.74.75,1.27.03,1.05-.37,1.97-.99,2.79-.28.39-.68.61-1.19.4-.96-.4-1.83-.87-2.14-2.06h0Z"/><path class="cls-1" d="m148.72,46.73c-.84-.95-.67-2.36.34-2.97.35-.22.66-.15.96.1.39.32.7.7.55,1.25-.15.51-.4.97-.91,1.21-.31.14-.63.28-.93.42h0Z"/></g></svg>