<?xml version="1.0" encoding="UTF-8"?><svg id="Layer_2" xmlns="http://www.w3.org/2000/svg" viewBox="0 0 98.87 99.74"><defs><style>.cls-1{fill:#fff;}.cls-2{fill:#1a1a1a;}</style></defs><g id="Layer_1-2"><polygon class="cls-2" points="98.56 39.33 98.32 49.69 98.87 59.22 95.84 69.15 91.89 77.1 84.51 85.79 76.41 90.68 67.54 96.61 58.48 97.63 48.7 99.74 36.27 97.47 28.27 93.47 19.5 89.76 13.33 82.84 6.23 74.63 2.47 65.75 0 55.48 .27 46.47 1.83 35.44 6.27 27.47 11.41 17.73 17.73 13.34 27.43 6.12 36.27 3.47 46.64 0 55.98 .97 66.57 2.84 74.71 7.15 83.76 13.31 88.85 20.46 95.43 29.71 98.56 39.33"/><circle class="cls-1" cx="50.28" cy="50.29" r="45"/><path class="cls-2" d="m63.27,22.47s-7.08-4-11.04,0-6.96,5-6.96,5v4.45s0,5.55-1,6.55,2,2,1,3-9,1-9,1v5.29l1.01,2.71h7.59l-.6,23,5.5,1.06h4.69l-1.34-24.06h8.03l.12-8-8-2-1-6,3-3,5,2,4-2-1-9Z"/></g></svg>