<?xml version="1.0" encoding="UTF-8"?><svg id="Layer_2" xmlns="http://www.w3.org/2000/svg" viewBox="0 0 99.87 99.17"><defs><style>.cls-1{fill:#fff;}.cls-2{fill:#1a1a1a;}</style></defs><g id="Layer_1-2"><polygon class="cls-2" points="10.61 80.23 17.64 87.51 24.63 94.01 35.31 97.14 43.95 99.17 55.36 99.03 64.25 96 74.51 92.85 81.07 86.52 88.94 80.34 94.97 71 96.9 61.35 99.87 51.47 98.47 42.31 96.67 31.6 92.46 23.04 85.1 15.64 79.08 7.94 69.28 3.22 59.75 2.79 49.25 0 42.12 1.39 30.38 4.26 22.25 9 13.41 15.15 8.2 22.97 2.9 32.32 1.02 41.34 0 52.24 2.26 60.72 5.2 71.69 10.61 80.23"/><circle class="cls-1" cx="49.83" cy="50.02" r="45"/><path class="cls-2" d="m29.25,36l-2,5v26.82l6,1.18s4.21,1,4.61,0,2.39-7,1.39-8-1-15-1-15l1.28-8.07-10.28-1.93Z"/><path class="cls-2" d="m29.25,23l-2,5.56,4,4.44,5-3,2-4s1-3,0-3-4.86-2.7-4.86-2.7l-4.14,2.7Z"/><polygon class="cls-2" points="45.25 37 54.81 36 54.81 41.05 59.94 38.52 65.52 36 70.21 38.52 74.45 41.05 76.25 44 76.25 68.49 67.08 68.49 67.25 55 65.97 48 64.25 44 59.25 43 55.26 48 55.48 69.44 45.25 70.27 44 65.37 45.25 37"/></g></svg>