<?xml version="1.0" encoding="UTF-8"?><svg id="Layer_2" xmlns="http://www.w3.org/2000/svg" viewBox="0 0 98.92 99.74"><defs><style>.cls-1{fill:#fff;}.cls-2{fill:#1a1a1a;}</style></defs><g id="Layer_1-2"><polygon class="cls-2" points="49.42 0 39.36 1.02 29.92 2.5 20.86 8.96 13.92 14.5 6.99 23.55 3.92 32.5 0 42.43 .92 51.5 .92 61.5 4.53 72.02 10.92 79.5 16.85 87.94 24.92 92.5 34.46 97.71 43.92 99.5 54.48 99.74 63.92 98.5 73.69 93.72 79.92 86.5 88.96 80.61 91.92 73.5 96.92 62.5 98.92 53.5 98.85 42.43 95.92 33.5 91.86 23.55 85.92 16.5 77.99 8.96 69.92 5.5 59.49 1.02 49.42 0"/><circle class="cls-1" cx="48.92" cy="49.5" r="45"/><path class="cls-2" d="m60.21,54.95l-7.26-9.24,18.3-20.17-11.04,1.68-5.65,9.24-5.65,6.67-4.84-10.87-4.03-6.72c-.81,0-14.52.84-14.52.84l4.84,6.72,13.71,17.65-20.16,21.01s10.78,1.68,10.63,0c-.15-1.68,11.14-15.13,11.14-15.13l6.45,5.88,5.61,9.99,16.16-1.59-13.71-15.97Zm4.84,11.76l-2.42.84-2.62-.05-4.64-6.67s-7.26-10.92-8.05-11.81-16.55-20.12-16.55-20.12c0,0,5.34-.4,6.15-.4,0,0,8.77,13,8.77,13.84s8.06,10.92,8.87,12.61,5.65,5.88,10.48,11.76Z"/></g></svg>